%TF.GenerationSoftware,KiCad,Pcbnew,9.0.4*%
%TF.CreationDate,2026-03-20T19:37:53+05:30*%
%TF.ProjectId,TI_MSP_DevKit,54495f4d-5350-45f4-9465-764b69742e6b,rev?*%
%TF.SameCoordinates,Original*%
%TF.FileFunction,Copper,L2,Bot*%
%TF.FilePolarity,Positive*%
%FSLAX46Y46*%
G04 Gerber Fmt 4.6, Leading zero omitted, Abs format (unit mm)*
G04 Created by KiCad (PCBNEW 9.0.4) date 2026-03-20 19:37:53*
%MOMM*%
%LPD*%
G01*
G04 APERTURE LIST*
%TA.AperFunction,ComponentPad*%
%ADD10C,0.800000*%
%TD*%
%TA.AperFunction,ComponentPad*%
%ADD11C,6.400000*%
%TD*%
%TA.AperFunction,HeatsinkPad*%
%ADD12O,2.100000X1.000000*%
%TD*%
%TA.AperFunction,HeatsinkPad*%
%ADD13O,1.800000X1.000000*%
%TD*%
%TA.AperFunction,ComponentPad*%
%ADD14R,1.700000X1.700000*%
%TD*%
%TA.AperFunction,ComponentPad*%
%ADD15C,1.700000*%
%TD*%
%TA.AperFunction,ViaPad*%
%ADD16C,0.600000*%
%TD*%
%TA.AperFunction,ViaPad*%
%ADD17C,0.700000*%
%TD*%
%TA.AperFunction,Conductor*%
%ADD18C,0.200000*%
%TD*%
%TA.AperFunction,Conductor*%
%ADD19C,0.152000*%
%TD*%
%TA.AperFunction,Conductor*%
%ADD20C,0.300000*%
%TD*%
%TA.AperFunction,Conductor*%
%ADD21C,0.500000*%
%TD*%
G04 APERTURE END LIST*
D10*
%TO.P,MH3,1,1*%
%TO.N,GND*%
X116100000Y-106300000D03*
X116802944Y-104602944D03*
X116802944Y-107997056D03*
X118500000Y-103900000D03*
D11*
X118500000Y-106300000D03*
D10*
X118500000Y-108700000D03*
X120197056Y-104602944D03*
X120197056Y-107997056D03*
X120900000Y-106300000D03*
%TD*%
%TO.P,MH2,1,1*%
%TO.N,GND*%
X164100000Y-83500000D03*
X164802944Y-81802944D03*
X164802944Y-85197056D03*
X166500000Y-81100000D03*
D11*
X166500000Y-83500000D03*
D10*
X166500000Y-85900000D03*
X168197056Y-81802944D03*
X168197056Y-85197056D03*
X168900000Y-83500000D03*
%TD*%
D12*
%TO.P,J1,S1,SHIELD*%
%TO.N,GND*%
X121142500Y-90090000D03*
D13*
X116962500Y-90090000D03*
D12*
X121142500Y-98730000D03*
D13*
X116962500Y-98730000D03*
%TD*%
D10*
%TO.P,MH1,1,1*%
%TO.N,GND*%
X164100000Y-106700000D03*
X164802944Y-105002944D03*
X164802944Y-108397056D03*
X166500000Y-104300000D03*
D11*
X166500000Y-106700000D03*
D10*
X166500000Y-109100000D03*
X168197056Y-105002944D03*
X168197056Y-108397056D03*
X168900000Y-106700000D03*
%TD*%
D14*
%TO.P,J4,1,Pin_1*%
%TO.N,PB14*%
X124160000Y-108100000D03*
D15*
%TO.P,J4,2,Pin_2*%
%TO.N,PB7*%
X126700000Y-108100000D03*
%TO.P,J4,3,Pin_3*%
%TO.N,PB6*%
X129240000Y-108100000D03*
%TO.P,J4,4,Pin_4*%
%TO.N,PB3*%
X131780000Y-108100000D03*
%TO.P,J4,5,Pin_5*%
%TO.N,PB2*%
X134320000Y-108100000D03*
%TO.P,J4,6,Pin_6*%
%TO.N,PA7*%
X136860000Y-108100000D03*
%TO.P,J4,7,Pin_7*%
%TO.N,PB17*%
X139400000Y-108100000D03*
%TO.P,J4,8,Pin_8*%
%TO.N,PA18*%
X141940000Y-108100000D03*
%TO.P,J4,9,Pin_9*%
%TO.N,PA17*%
X144480000Y-108100000D03*
%TO.P,J4,10,Pin_10*%
%TO.N,PA16*%
X147020000Y-108100000D03*
%TO.P,J4,11,Pin_11*%
%TO.N,PA15*%
X149560000Y-108100000D03*
%TO.P,J4,12,Pin_12*%
%TO.N,PA14*%
X152100000Y-108100000D03*
%TO.P,J4,13,Pin_13*%
%TO.N,PA13*%
X154640000Y-108100000D03*
%TO.P,J4,14,Pin_14*%
%TO.N,PA12*%
X157180000Y-108100000D03*
%TO.P,J4,15,Pin_15*%
%TO.N,PB16*%
X159720000Y-108100000D03*
%TD*%
D14*
%TO.P,J3,1,Pin_1*%
%TO.N,PB18*%
X159600000Y-81600000D03*
D15*
%TO.P,J3,2,Pin_2*%
%TO.N,PB19*%
X157060000Y-81600000D03*
%TO.P,J3,3,Pin_3*%
%TO.N,PB20*%
X154520000Y-81600000D03*
%TO.P,J3,4,Pin_4*%
%TO.N,PB24*%
X151980000Y-81600000D03*
%TO.P,J3,5,Pin_5*%
%TO.N,PA24*%
X149440000Y-81600000D03*
%TO.P,J3,6,Pin_6*%
%TO.N,PA25*%
X146900000Y-81600000D03*
%TO.P,J3,7,Pin_7*%
%TO.N,PA26*%
X144360000Y-81600000D03*
%TO.P,J3,8,Pin_8*%
%TO.N,PA27*%
X141820000Y-81600000D03*
%TO.P,J3,9,Pin_9*%
%TO.N,PA28*%
X139280000Y-81600000D03*
%TO.P,J3,10,Pin_10*%
%TO.N,PA31*%
X136740000Y-81600000D03*
%TO.P,J3,11,Pin_11*%
%TO.N,PA3*%
X134200000Y-81600000D03*
%TO.P,J3,12,Pin_12*%
%TO.N,PA4*%
X131660000Y-81600000D03*
%TO.P,J3,13,Pin_13*%
%TO.N,PB15*%
X129120000Y-81600000D03*
%TO.P,J3,14,Pin_14*%
%TO.N,+3V3*%
X126580000Y-81600000D03*
%TO.P,J3,15,Pin_15*%
%TO.N,GND*%
X124040000Y-81600000D03*
%TD*%
D10*
%TO.P,MH4,1,1*%
%TO.N,GND*%
X116100000Y-83500000D03*
X116802944Y-81802944D03*
X116802944Y-85197056D03*
X118500000Y-81100000D03*
D11*
X118500000Y-83500000D03*
D10*
X118500000Y-85900000D03*
X120197056Y-81802944D03*
X120197056Y-85197056D03*
X120900000Y-83500000D03*
%TD*%
D16*
%TO.N,GND*%
X134900000Y-105700000D03*
X133300000Y-84900000D03*
X116100000Y-102500000D03*
X133700000Y-95400000D03*
X162400000Y-80300000D03*
X130900000Y-95300000D03*
X126100000Y-100800000D03*
X168700000Y-101500000D03*
X164300000Y-103300000D03*
X141600000Y-103700000D03*
X160500000Y-100300000D03*
D17*
X134762500Y-85750000D03*
D16*
X133100000Y-94300000D03*
D17*
X154162500Y-104250000D03*
X137562500Y-90550000D03*
D16*
X124800000Y-98700000D03*
X136400000Y-95800000D03*
X127100000Y-98700000D03*
X162000000Y-91300000D03*
X128800000Y-96300000D03*
D17*
X145862500Y-87250000D03*
D16*
X131300000Y-84900000D03*
D17*
X151500000Y-93900000D03*
D16*
X144700000Y-95200000D03*
X162000000Y-109800000D03*
X118500000Y-94800000D03*
X116400000Y-92100000D03*
X161700000Y-98700000D03*
X130600000Y-85900000D03*
X160500000Y-101700000D03*
X146000000Y-88300000D03*
D17*
X148662500Y-88350000D03*
D16*
X125600000Y-104000000D03*
X134200000Y-90300000D03*
X169600000Y-104300000D03*
X160300000Y-91000000D03*
X162200000Y-81900000D03*
X133900000Y-92000000D03*
X127800000Y-84900000D03*
X129500000Y-84900000D03*
X140600000Y-103900000D03*
X129700000Y-97400000D03*
D17*
X135962500Y-93550000D03*
D16*
X121800000Y-86300000D03*
X126900000Y-105300000D03*
D17*
X128600000Y-87150000D03*
X126600000Y-87150000D03*
D16*
X168700000Y-103100000D03*
X119200000Y-102300000D03*
X128800000Y-85900000D03*
X116300000Y-87400000D03*
X143500000Y-95300000D03*
X116400000Y-100900000D03*
D17*
X162062500Y-94150000D03*
D16*
X135000000Y-89000000D03*
X134500000Y-93800000D03*
X119400000Y-101100000D03*
D17*
X147562500Y-87250000D03*
X123462500Y-85650000D03*
X140662500Y-86750000D03*
D16*
X130400000Y-88900000D03*
D17*
X136062500Y-84550000D03*
X124000000Y-101750000D03*
D16*
X130600000Y-91300000D03*
D17*
X123200000Y-89950000D03*
D16*
X152000000Y-103100000D03*
D17*
X122900000Y-97650000D03*
X152062500Y-85750000D03*
D16*
X160400000Y-104900000D03*
X138900000Y-99800000D03*
D17*
X123200000Y-98450000D03*
X153162500Y-84650000D03*
X155362500Y-103050000D03*
X139762500Y-86750000D03*
D16*
X126400000Y-102200000D03*
D17*
X143062500Y-88950000D03*
D16*
X130100000Y-87000000D03*
X169300000Y-87300000D03*
X121300000Y-103300000D03*
X128800000Y-98900000D03*
X132800000Y-97400000D03*
X162800000Y-109200000D03*
X124800000Y-97300000D03*
X159600000Y-88600000D03*
X116300000Y-94800000D03*
X122900000Y-84200000D03*
X147400000Y-88400000D03*
D17*
X125100000Y-94150000D03*
X137562500Y-89250000D03*
X155362500Y-102350000D03*
D16*
X166500000Y-102800000D03*
X141400000Y-99100000D03*
X161400000Y-90200000D03*
X128300000Y-100600000D03*
X132200000Y-90700000D03*
X131700000Y-98800000D03*
D17*
X169600000Y-95700000D03*
X152286942Y-104056329D03*
D16*
X162300000Y-108200000D03*
X139700000Y-98500000D03*
X133200000Y-89000000D03*
X127400000Y-97400000D03*
X158100000Y-84000000D03*
X138000000Y-100400000D03*
D17*
X148662500Y-86150000D03*
D16*
X132500000Y-85900000D03*
X133200000Y-98800000D03*
D17*
X138662500Y-97050000D03*
D16*
X135100000Y-92100000D03*
X139300000Y-94400000D03*
X130800000Y-87900000D03*
X131000000Y-96200000D03*
X130300000Y-99500000D03*
X133300000Y-96400000D03*
X117100000Y-96300000D03*
D17*
X169100000Y-93500000D03*
D16*
X118500000Y-92300000D03*
X148200000Y-89300000D03*
X162200000Y-106200000D03*
X139800000Y-102000000D03*
D17*
X123200000Y-90650000D03*
D16*
X160400000Y-103100000D03*
X146200000Y-89200000D03*
X159700000Y-85600000D03*
X146400000Y-103900000D03*
X158600000Y-86900000D03*
X155700000Y-103600000D03*
X118700000Y-87900000D03*
X155700000Y-109600000D03*
X160800000Y-99100000D03*
X131700000Y-87100000D03*
%TO.N,+VBUS*%
X119400000Y-93200000D03*
X120500000Y-92400000D03*
D17*
%TO.N,+3V3*%
X159562500Y-95150000D03*
X151162500Y-103750000D03*
X148762500Y-104150000D03*
X152000000Y-104900000D03*
X157662500Y-100550000D03*
X155862500Y-104612500D03*
D16*
%TO.N,PB15*%
X151500000Y-91100000D03*
X135400000Y-83000000D03*
%TO.N,PA15*%
X149600000Y-106700000D03*
X155100000Y-93100000D03*
%TO.N,PB16*%
X159700000Y-106700000D03*
X159200000Y-94000000D03*
%TO.N,PB17*%
X153100000Y-90900000D03*
X139400000Y-106800000D03*
%TO.N,PB2*%
X137939000Y-101839000D03*
X139700000Y-103800000D03*
X149900000Y-98400000D03*
%TO.N,PB6*%
X129200000Y-106700000D03*
X152000000Y-96200000D03*
%TO.N,PA31*%
X150800000Y-92700000D03*
X136800000Y-83200000D03*
%TO.N,PA7*%
X149900000Y-97600000D03*
X136900000Y-106800000D03*
%TO.N,PA14*%
X155700000Y-93600000D03*
X152100000Y-106700000D03*
%TO.N,PB14*%
X124200000Y-106700000D03*
X152000000Y-94600000D03*
%TO.N,PA12*%
X157200000Y-106700000D03*
X156500000Y-94900000D03*
%TO.N,PA3*%
X134200000Y-83200000D03*
X150700000Y-94100000D03*
%TO.N,PB3*%
X131700000Y-106800000D03*
X150600000Y-99000000D03*
%TO.N,PA17*%
X144500000Y-106700000D03*
X154300000Y-92200000D03*
%TO.N,PB7*%
X126600000Y-106700000D03*
X151800000Y-95400000D03*
%TO.N,PA13*%
X156000000Y-94300000D03*
X154600000Y-106700000D03*
%TO.N,PA16*%
X147000000Y-106700000D03*
X155100000Y-92300000D03*
%TO.N,PA18*%
X141900000Y-106700000D03*
X153700000Y-91500000D03*
%TO.N,PA28*%
X147900000Y-91700000D03*
X139300000Y-83200000D03*
%TO.N,PA4*%
X131600000Y-83200000D03*
X150700000Y-94900000D03*
%TO.N,GND*%
X162700000Y-85900000D03*
X164300000Y-87000000D03*
X168100000Y-88700000D03*
X161100000Y-87500000D03*
X162200000Y-84800000D03*
X163300000Y-88000000D03*
X168100000Y-87900000D03*
X162100000Y-83200000D03*
X162000000Y-86600000D03*
X166300000Y-87700000D03*
X155700000Y-84000000D03*
%TD*%
D18*
%TO.N,GND*%
X154812500Y-103600000D02*
X154162500Y-104250000D01*
X155700000Y-103600000D02*
X154812500Y-103600000D01*
%TO.N,PB14*%
X151753000Y-94847000D02*
X152000000Y-94600000D01*
X151570939Y-94847000D02*
X151753000Y-94847000D01*
%TO.N,PA4*%
X150400000Y-94900000D02*
X150700000Y-94900000D01*
X150300000Y-95000000D02*
X150400000Y-94900000D01*
X150063261Y-94763261D02*
X150300000Y-95000000D01*
X150063261Y-94116401D02*
X150063261Y-94763261D01*
X149946860Y-94000000D02*
X150063261Y-94116401D01*
X144200000Y-94600000D02*
X145800000Y-94600000D01*
X133465271Y-83600000D02*
X141800000Y-91934729D01*
X132000000Y-83600000D02*
X133465271Y-83600000D01*
X141800000Y-92200000D02*
X144200000Y-94600000D01*
X146400000Y-94000000D02*
X149946860Y-94000000D01*
X131600000Y-83200000D02*
X132000000Y-83600000D01*
X145800000Y-94600000D02*
X146400000Y-94000000D01*
X141800000Y-91934729D02*
X141800000Y-92200000D01*
%TO.N,PB14*%
X151247000Y-95453000D02*
X151247000Y-95170939D01*
X150607568Y-95494000D02*
X151206001Y-95493999D01*
X150554566Y-95547000D02*
X150607568Y-95494000D01*
X150553783Y-95547000D02*
X150554566Y-95547000D01*
X150400000Y-95600000D02*
X150500782Y-95600000D01*
X151206001Y-95493999D02*
X151247000Y-95453000D01*
X150500782Y-95600000D02*
X150553783Y-95547000D01*
X137700000Y-95900000D02*
X150100000Y-95900000D01*
X151247000Y-95170939D02*
X151570939Y-94847000D01*
X150100000Y-95900000D02*
X150400000Y-95600000D01*
X132900000Y-100700000D02*
X137700000Y-95900000D01*
X130200000Y-100700000D02*
X132900000Y-100700000D01*
X124200000Y-106700000D02*
X130200000Y-100700000D01*
%TO.N,PB7*%
X151353000Y-95847000D02*
X151800000Y-95400000D01*
X150753783Y-95847000D02*
X151353000Y-95847000D01*
X150700782Y-95900000D02*
X150753783Y-95847000D01*
X150700000Y-95900000D02*
X150700782Y-95900000D01*
X149500000Y-96447000D02*
X149700000Y-96647000D01*
X138412729Y-96447000D02*
X149500000Y-96447000D01*
X149953000Y-96647000D02*
X150700000Y-95900000D01*
X128159729Y-106700000D02*
X138412729Y-96447000D01*
X126600000Y-106700000D02*
X128159729Y-106700000D01*
X149700000Y-96647000D02*
X149953000Y-96647000D01*
%TO.N,PA13*%
X155847000Y-94453000D02*
X156000000Y-94300000D01*
X155847000Y-95147000D02*
X155847000Y-94453000D01*
%TO.N,PA14*%
X155353000Y-93947000D02*
X155700000Y-93600000D01*
X155353000Y-95353000D02*
X155353000Y-93947000D01*
X155700000Y-95700000D02*
X155353000Y-95353000D01*
X155947000Y-102081729D02*
X155700000Y-101834729D01*
X155700000Y-101834729D02*
X155700000Y-95700000D01*
X155947000Y-102146218D02*
X155947000Y-102081729D01*
X155900000Y-105700000D02*
X157000000Y-104600000D01*
X157000000Y-104600000D02*
X157000000Y-103199218D01*
X153100000Y-105700000D02*
X155900000Y-105700000D01*
X157000000Y-103199218D02*
X155947000Y-102146218D01*
X152100000Y-106700000D02*
X153100000Y-105700000D01*
%TO.N,PB17*%
X152600000Y-91600000D02*
X153100000Y-91100000D01*
X151700000Y-99800000D02*
X152700000Y-98800000D01*
X140100000Y-106800000D02*
X147100000Y-99800000D01*
X147100000Y-99800000D02*
X151700000Y-99800000D01*
X139400000Y-106800000D02*
X140100000Y-106800000D01*
X152700000Y-98800000D02*
X152600000Y-98700000D01*
X152600000Y-98700000D02*
X152600000Y-91600000D01*
X153100000Y-91100000D02*
X153100000Y-90900000D01*
%TO.N,PA18*%
X152300000Y-100300000D02*
X153300000Y-99300000D01*
X153300000Y-91900000D02*
X153700000Y-91500000D01*
X141900000Y-106500000D02*
X148100000Y-100300000D01*
X153300000Y-99300000D02*
X153300000Y-91900000D01*
X141900000Y-106700000D02*
X141900000Y-106500000D01*
X148100000Y-100300000D02*
X152300000Y-100300000D01*
%TO.N,GND*%
X124450000Y-97650000D02*
X124800000Y-97300000D01*
X122900000Y-97650000D02*
X124450000Y-97650000D01*
D19*
%TO.N,PB3*%
X146938000Y-99100000D02*
X150700000Y-99100000D01*
X146769000Y-98931000D02*
X146938000Y-99100000D01*
%TO.N,GND*%
X154162500Y-104250000D02*
X154462500Y-103950000D01*
D20*
X150947000Y-105029518D02*
X151755518Y-104221000D01*
X154133500Y-104221000D02*
X154162500Y-104250000D01*
X150947000Y-108577589D02*
X150947000Y-105029518D01*
D19*
X154462500Y-103950000D02*
X154462500Y-103450000D01*
X154462500Y-103450000D02*
X155362500Y-102550000D01*
D20*
X155700000Y-109600000D02*
X153600000Y-109600000D01*
X153500000Y-109500000D02*
X151869411Y-109500000D01*
D19*
X155362500Y-102550000D02*
X155362500Y-102350000D01*
D20*
X153600000Y-109600000D02*
X153500000Y-109500000D01*
X151869411Y-109500000D02*
X150947000Y-108577589D01*
X151755518Y-104221000D02*
X154133500Y-104221000D01*
%TO.N,+VBUS*%
X119400000Y-93200000D02*
X119700000Y-93200000D01*
X119700000Y-93200000D02*
X120500000Y-92400000D01*
D19*
%TO.N,+3V3*%
X152800000Y-104600000D02*
X153400000Y-104600000D01*
D21*
X150762500Y-104150000D02*
X151162500Y-103750000D01*
D19*
X155646000Y-104829000D02*
X155862500Y-104612500D01*
X153400000Y-104600000D02*
X153629000Y-104829000D01*
D20*
X157662500Y-99050000D02*
X159562500Y-97150000D01*
X159562500Y-97150000D02*
X159562500Y-95150000D01*
X152003000Y-104903000D02*
X152000000Y-104900000D01*
D21*
X148762500Y-104150000D02*
X150762500Y-104150000D01*
D19*
X152500000Y-104900000D02*
X152800000Y-104600000D01*
X152000000Y-104900000D02*
X152500000Y-104900000D01*
X153629000Y-104829000D02*
X155646000Y-104829000D01*
D20*
X157662500Y-100550000D02*
X157662500Y-99050000D01*
D18*
%TO.N,PB15*%
X151500000Y-92800000D02*
X151500000Y-91100000D01*
X139000000Y-87100000D02*
X145100000Y-93200000D01*
X151082061Y-93200000D02*
X151100000Y-93200000D01*
X150517939Y-93200000D02*
X150570939Y-93253000D01*
X145100000Y-93200000D02*
X150517939Y-93200000D01*
X139000000Y-86600000D02*
X139000000Y-87100000D01*
X151100000Y-93200000D02*
X151500000Y-92800000D01*
X150570939Y-93253000D02*
X151029061Y-93253000D01*
X151029061Y-93253000D02*
X151082061Y-93200000D01*
X135800000Y-83700000D02*
X136100000Y-83700000D01*
X135400000Y-83000000D02*
X135400000Y-83300000D01*
X135400000Y-83300000D02*
X135800000Y-83700000D01*
X136100000Y-83700000D02*
X139000000Y-86600000D01*
%TO.N,PA15*%
X154509729Y-102350000D02*
X154900000Y-101959729D01*
X155000000Y-96300000D02*
X155000000Y-93200000D01*
X149600000Y-106700000D02*
X148159500Y-105259500D01*
X148159500Y-103900229D02*
X149709729Y-102350000D01*
X155000000Y-93200000D02*
X155100000Y-93100000D01*
X154900000Y-96800000D02*
X155200000Y-96500000D01*
X148159500Y-105259500D02*
X148159500Y-103900229D01*
X154900000Y-101959729D02*
X154900000Y-96800000D01*
X149709729Y-102350000D02*
X154509729Y-102350000D01*
X155200000Y-96500000D02*
X155000000Y-96300000D01*
%TO.N,PB16*%
X160700000Y-94700000D02*
X160000000Y-94000000D01*
X160700000Y-97800000D02*
X160700000Y-94700000D01*
X160000000Y-94000000D02*
X159200000Y-94000000D01*
X159700000Y-106700000D02*
X159700000Y-99000000D01*
X160800000Y-97900000D02*
X160700000Y-97800000D01*
X159700000Y-99000000D02*
X160800000Y-97900000D01*
D19*
%TO.N,PB2*%
X137939000Y-105561000D02*
X139700000Y-103800000D01*
X137900000Y-101800000D02*
X137939000Y-101839000D01*
X137800000Y-109300000D02*
X135520000Y-109300000D01*
X135520000Y-109300000D02*
X134320000Y-108100000D01*
X150100000Y-98500000D02*
X141200000Y-98500000D01*
X137939000Y-109161000D02*
X137939000Y-105561000D01*
X141200000Y-98500000D02*
X137900000Y-101800000D01*
X137939000Y-109161000D02*
X137800000Y-109300000D01*
D18*
%TO.N,PB6*%
X139800000Y-97000000D02*
X150100000Y-97000000D01*
X150100000Y-97000000D02*
X150900000Y-96200000D01*
X150900000Y-96200000D02*
X152000000Y-96200000D01*
X129200000Y-106700000D02*
X130100000Y-106700000D01*
X130100000Y-106700000D02*
X139800000Y-97000000D01*
%TO.N,PA31*%
X144000000Y-88700000D02*
X143600000Y-88300000D01*
X148300000Y-92800000D02*
X147900000Y-92800000D01*
X144000000Y-88900000D02*
X144000000Y-88700000D01*
X142800000Y-84200000D02*
X142800000Y-84100000D01*
X142800000Y-84100000D02*
X138600000Y-84100000D01*
X137700000Y-83200000D02*
X136800000Y-83200000D01*
X138600000Y-84100000D02*
X137700000Y-83200000D01*
X150800000Y-92700000D02*
X148400000Y-92700000D01*
X147900000Y-92800000D02*
X144000000Y-88900000D01*
X143600000Y-85000000D02*
X142800000Y-84200000D01*
X148400000Y-92700000D02*
X148300000Y-92800000D01*
X143600000Y-88300000D02*
X143600000Y-85000000D01*
D19*
%TO.N,PA7*%
X130600000Y-109100000D02*
X130800000Y-109300000D01*
X133100000Y-108700000D02*
X133100000Y-107400000D01*
X132500000Y-109300000D02*
X133100000Y-108700000D01*
X130800000Y-109300000D02*
X132500000Y-109300000D01*
X130600000Y-106800000D02*
X130600000Y-109100000D01*
X139800000Y-97600000D02*
X130600000Y-106800000D01*
X149900000Y-97600000D02*
X139800000Y-97600000D01*
X133100000Y-107400000D02*
X133700000Y-106800000D01*
X133700000Y-106800000D02*
X136900000Y-106800000D01*
D18*
%TO.N,PA12*%
X158100000Y-102600000D02*
X158100000Y-105800000D01*
X156800000Y-101300000D02*
X158100000Y-102600000D01*
X156500000Y-95000000D02*
X156500000Y-94900000D01*
X156800000Y-95300000D02*
X156800000Y-101300000D01*
X156800000Y-95300000D02*
X156500000Y-95000000D01*
X158100000Y-105800000D02*
X157200000Y-106700000D01*
%TO.N,PA3*%
X144759729Y-94100000D02*
X145400000Y-94100000D01*
X134200000Y-83200000D02*
X134200000Y-83540271D01*
X145900000Y-93600000D02*
X150216261Y-93600000D01*
X150216261Y-93600000D02*
X150616261Y-94000000D01*
X145400000Y-94100000D02*
X145900000Y-93600000D01*
X134200000Y-83540271D02*
X144759729Y-94100000D01*
D19*
%TO.N,PB3*%
X142600000Y-103100000D02*
X140800000Y-103100000D01*
X146769000Y-98931000D02*
X142600000Y-103100000D01*
X135400000Y-103100000D02*
X131700000Y-106800000D01*
X140100000Y-103100000D02*
X135400000Y-103100000D01*
X140800000Y-103100000D02*
X140100000Y-103100000D01*
D18*
%TO.N,PA17*%
X154300000Y-92200000D02*
X153800000Y-92700000D01*
X144500000Y-104900000D02*
X144500000Y-106700000D01*
X148700000Y-100700000D02*
X144500000Y-104900000D01*
X152700000Y-100700000D02*
X148700000Y-100700000D01*
X153800000Y-92700000D02*
X153800000Y-99600000D01*
X153800000Y-99600000D02*
X152700000Y-100700000D01*
%TO.N,PA13*%
X156300000Y-95600000D02*
X155847000Y-95147000D01*
X155800000Y-106700000D02*
X157500000Y-105000000D01*
X157500000Y-105000000D02*
X157500000Y-103200000D01*
X157500000Y-103200000D02*
X156300000Y-102000000D01*
X154600000Y-106700000D02*
X155800000Y-106700000D01*
X156300000Y-102000000D02*
X156300000Y-95600000D01*
X156100000Y-94300000D02*
X156000000Y-94300000D01*
%TO.N,PA16*%
X155100000Y-92300000D02*
X155100000Y-92500000D01*
X153500000Y-101300000D02*
X154400000Y-100400000D01*
X147000000Y-103800000D02*
X149500000Y-101300000D01*
X155000000Y-92300000D02*
X155100000Y-92300000D01*
X149500000Y-101300000D02*
X153500000Y-101300000D01*
X154400000Y-92900000D02*
X155000000Y-92300000D01*
X154400000Y-100400000D02*
X154400000Y-92900000D01*
X147000000Y-106700000D02*
X147000000Y-103800000D01*
%TO.N,PA28*%
X139600000Y-83500000D02*
X139300000Y-83200000D01*
X144300000Y-88100000D02*
X144300000Y-84700000D01*
X144300000Y-84700000D02*
X143100000Y-83500000D01*
X143100000Y-83500000D02*
X139600000Y-83500000D01*
X147900000Y-91700000D02*
X144300000Y-88100000D01*
%TD*%
%TA.AperFunction,Conductor*%
%TO.N,GND*%
G36*
X166427821Y-80000245D02*
G01*
X166433235Y-80000265D01*
X166434108Y-80000500D01*
X166497668Y-80000500D01*
X166497943Y-80000501D01*
X166502441Y-80000619D01*
X166838175Y-80017113D01*
X166847815Y-80018063D01*
X167177915Y-80067029D01*
X167187421Y-80068919D01*
X167511144Y-80150008D01*
X167520415Y-80152820D01*
X167834625Y-80265246D01*
X167843594Y-80268961D01*
X168145263Y-80411640D01*
X168153823Y-80416216D01*
X168437222Y-80586079D01*
X168440049Y-80587773D01*
X168448127Y-80593171D01*
X168716150Y-80791951D01*
X168723660Y-80798114D01*
X168789185Y-80857502D01*
X168970921Y-81022218D01*
X168977781Y-81029078D01*
X169060165Y-81119975D01*
X169201885Y-81276339D01*
X169208048Y-81283849D01*
X169406828Y-81551872D01*
X169412226Y-81559950D01*
X169583781Y-81846173D01*
X169588361Y-81854741D01*
X169731036Y-82156402D01*
X169734754Y-82165378D01*
X169847175Y-82479571D01*
X169849995Y-82488868D01*
X169931077Y-82812567D01*
X169932972Y-82822096D01*
X169981934Y-83152170D01*
X169982887Y-83161838D01*
X169999381Y-83497577D01*
X169999500Y-83502435D01*
X169999500Y-91692908D01*
X169980593Y-91751099D01*
X169931093Y-91787063D01*
X169881186Y-91790006D01*
X169771562Y-91768200D01*
X169771560Y-91768200D01*
X169638440Y-91768200D01*
X169638437Y-91768200D01*
X169507876Y-91794171D01*
X169507874Y-91794171D01*
X169384893Y-91845111D01*
X169384882Y-91845117D01*
X169274203Y-91919072D01*
X169274199Y-91919075D01*
X169180075Y-92013199D01*
X169180072Y-92013203D01*
X169106117Y-92123882D01*
X169106111Y-92123893D01*
X169055171Y-92246874D01*
X169055171Y-92246876D01*
X169029200Y-92377437D01*
X169029200Y-92510562D01*
X169055171Y-92641123D01*
X169055171Y-92641125D01*
X169106111Y-92764106D01*
X169106117Y-92764117D01*
X169136890Y-92810171D01*
X169180072Y-92874797D01*
X169274203Y-92968928D01*
X169340191Y-93013020D01*
X169384882Y-93042882D01*
X169384893Y-93042888D01*
X169430322Y-93061705D01*
X169507876Y-93093829D01*
X169638440Y-93119800D01*
X169638441Y-93119800D01*
X169771559Y-93119800D01*
X169771560Y-93119800D01*
X169881188Y-93097993D01*
X169941946Y-93105184D01*
X169986877Y-93146717D01*
X169999500Y-93195091D01*
X169999500Y-93724908D01*
X169980593Y-93783099D01*
X169931093Y-93819063D01*
X169881186Y-93822006D01*
X169771562Y-93800200D01*
X169771560Y-93800200D01*
X169638440Y-93800200D01*
X169638437Y-93800200D01*
X169507876Y-93826171D01*
X169507874Y-93826171D01*
X169384893Y-93877111D01*
X169384882Y-93877117D01*
X169274203Y-93951072D01*
X169274199Y-93951075D01*
X169180075Y-94045199D01*
X169180072Y-94045203D01*
X169106117Y-94155882D01*
X169106111Y-94155893D01*
X169055171Y-94278874D01*
X169055171Y-94278876D01*
X169029200Y-94409437D01*
X169029200Y-94542562D01*
X169034441Y-94568907D01*
X169053700Y-94665731D01*
X169055171Y-94673123D01*
X169055171Y-94673125D01*
X169106111Y-94796106D01*
X169106117Y-94796117D01*
X169129431Y-94831008D01*
X169180072Y-94906797D01*
X169274203Y-95000928D01*
X169340191Y-95045020D01*
X169384882Y-95074882D01*
X169384893Y-95074888D01*
X169387776Y-95076082D01*
X169507876Y-95125829D01*
X169638440Y-95151800D01*
X169638441Y-95151800D01*
X169771559Y-95151800D01*
X169771560Y-95151800D01*
X169881188Y-95129993D01*
X169941946Y-95137184D01*
X169986877Y-95178717D01*
X169999500Y-95227091D01*
X169999500Y-106893051D01*
X169999319Y-106899042D01*
X169978512Y-107242245D01*
X169977353Y-107252486D01*
X169921287Y-107589810D01*
X169919070Y-107599876D01*
X169828238Y-107929538D01*
X169824987Y-107939318D01*
X169700371Y-108257759D01*
X169696120Y-108267149D01*
X169539070Y-108570909D01*
X169533867Y-108579805D01*
X169346091Y-108865587D01*
X169339991Y-108873894D01*
X169123518Y-109138608D01*
X169116586Y-109146237D01*
X168873768Y-109387006D01*
X168866082Y-109393872D01*
X168599538Y-109608100D01*
X168591188Y-109614122D01*
X168303825Y-109799473D01*
X168294884Y-109804601D01*
X167989800Y-109959072D01*
X167980376Y-109963242D01*
X167660900Y-110085154D01*
X167651092Y-110088323D01*
X167320655Y-110176362D01*
X167310571Y-110178493D01*
X166972790Y-110231698D01*
X166962539Y-110232770D01*
X166620797Y-110250582D01*
X166614716Y-110250712D01*
X137162044Y-109974496D01*
X137104033Y-109955043D01*
X137068535Y-109905208D01*
X137069108Y-109844026D01*
X137105535Y-109794865D01*
X137162972Y-109776500D01*
X137862730Y-109776500D01*
X137862732Y-109776500D01*
X137983923Y-109744028D01*
X138092578Y-109681295D01*
X138320295Y-109453578D01*
X138383028Y-109344922D01*
X138415500Y-109223732D01*
X138415500Y-109122981D01*
X138434407Y-109064790D01*
X138483907Y-109028826D01*
X138545093Y-109028826D01*
X138582182Y-109051554D01*
X138582397Y-109051303D01*
X138583983Y-109052658D01*
X138584501Y-109052975D01*
X138585354Y-109053828D01*
X138744595Y-109169524D01*
X138919975Y-109258884D01*
X139107174Y-109319709D01*
X139107175Y-109319709D01*
X139107178Y-109319710D01*
X139301580Y-109350500D01*
X139301583Y-109350500D01*
X139498420Y-109350500D01*
X139692821Y-109319710D01*
X139692822Y-109319709D01*
X139692826Y-109319709D01*
X139880025Y-109258884D01*
X140055405Y-109169524D01*
X140214646Y-109053828D01*
X140353828Y-108914646D01*
X140469524Y-108755405D01*
X140558884Y-108580025D01*
X140575845Y-108527823D01*
X140611809Y-108478324D01*
X140670000Y-108459417D01*
X140728191Y-108478324D01*
X140764155Y-108527824D01*
X140781116Y-108580025D01*
X140870473Y-108755401D01*
X140870476Y-108755405D01*
X140986172Y-108914646D01*
X141125354Y-109053828D01*
X141284595Y-109169524D01*
X141459975Y-109258884D01*
X141647174Y-109319709D01*
X141647175Y-109319709D01*
X141647178Y-109319710D01*
X141841580Y-109350500D01*
X141841583Y-109350500D01*
X142038420Y-109350500D01*
X142232821Y-109319710D01*
X142232822Y-109319709D01*
X142232826Y-109319709D01*
X142420025Y-109258884D01*
X142595405Y-109169524D01*
X142754646Y-109053828D01*
X142893828Y-108914646D01*
X143009524Y-108755405D01*
X143098884Y-108580025D01*
X143115845Y-108527823D01*
X143151809Y-108478324D01*
X143210000Y-108459417D01*
X143268191Y-108478324D01*
X143304155Y-108527824D01*
X143321116Y-108580025D01*
X143410473Y-108755401D01*
X143410476Y-108755405D01*
X143526172Y-108914646D01*
X143665354Y-109053828D01*
X143824595Y-109169524D01*
X143999975Y-109258884D01*
X144187174Y-109319709D01*
X144187175Y-109319709D01*
X144187178Y-109319710D01*
X144381580Y-109350500D01*
X144381583Y-109350500D01*
X144578420Y-109350500D01*
X144772821Y-109319710D01*
X144772822Y-109319709D01*
X144772826Y-109319709D01*
X144960025Y-109258884D01*
X145135405Y-109169524D01*
X145294646Y-109053828D01*
X145433828Y-108914646D01*
X145549524Y-108755405D01*
X145638884Y-108580025D01*
X145655845Y-108527823D01*
X145691809Y-108478324D01*
X145750000Y-108459417D01*
X145808191Y-108478324D01*
X145844155Y-108527824D01*
X145861116Y-108580025D01*
X145950473Y-108755401D01*
X145950476Y-108755405D01*
X146066172Y-108914646D01*
X146205354Y-109053828D01*
X146364595Y-109169524D01*
X146539975Y-109258884D01*
X146727174Y-109319709D01*
X146727175Y-109319709D01*
X146727178Y-109319710D01*
X146921580Y-109350500D01*
X146921583Y-109350500D01*
X147118420Y-109350500D01*
X147312821Y-109319710D01*
X147312822Y-109319709D01*
X147312826Y-109319709D01*
X147500025Y-109258884D01*
X147675405Y-109169524D01*
X147834646Y-109053828D01*
X147973828Y-108914646D01*
X148089524Y-108755405D01*
X148178884Y-108580025D01*
X148195845Y-108527823D01*
X148231809Y-108478324D01*
X148290000Y-108459417D01*
X148348191Y-108478324D01*
X148384155Y-108527824D01*
X148401116Y-108580025D01*
X148490473Y-108755401D01*
X148490476Y-108755405D01*
X148606172Y-108914646D01*
X148745354Y-109053828D01*
X148904595Y-109169524D01*
X149079975Y-109258884D01*
X149267174Y-109319709D01*
X149267175Y-109319709D01*
X149267178Y-109319710D01*
X149461580Y-109350500D01*
X149461583Y-109350500D01*
X149658420Y-109350500D01*
X149852821Y-109319710D01*
X149852822Y-109319709D01*
X149852826Y-109319709D01*
X150040025Y-109258884D01*
X150215405Y-109169524D01*
X150374646Y-109053828D01*
X150513828Y-108914646D01*
X150629524Y-108755405D01*
X150718884Y-108580025D01*
X150735845Y-108527823D01*
X150771809Y-108478324D01*
X150830000Y-108459417D01*
X150888191Y-108478324D01*
X150924155Y-108527824D01*
X150941116Y-108580025D01*
X151030473Y-108755401D01*
X151030476Y-108755405D01*
X151146172Y-108914646D01*
X151285354Y-109053828D01*
X151444595Y-109169524D01*
X151619975Y-109258884D01*
X151807174Y-109319709D01*
X151807175Y-109319709D01*
X151807178Y-109319710D01*
X152001580Y-109350500D01*
X152001583Y-109350500D01*
X152198420Y-109350500D01*
X152392821Y-109319710D01*
X152392822Y-109319709D01*
X152392826Y-109319709D01*
X152580025Y-109258884D01*
X152755405Y-109169524D01*
X152914646Y-109053828D01*
X153053828Y-108914646D01*
X153169524Y-108755405D01*
X153258884Y-108580025D01*
X153275845Y-108527823D01*
X153311809Y-108478324D01*
X153370000Y-108459417D01*
X153428191Y-108478324D01*
X153464155Y-108527824D01*
X153481116Y-108580025D01*
X153570473Y-108755401D01*
X153570476Y-108755405D01*
X153686172Y-108914646D01*
X153825354Y-109053828D01*
X153984595Y-109169524D01*
X154159975Y-109258884D01*
X154347174Y-109319709D01*
X154347175Y-109319709D01*
X154347178Y-109319710D01*
X154541580Y-109350500D01*
X154541583Y-109350500D01*
X154738420Y-109350500D01*
X154932821Y-109319710D01*
X154932822Y-109319709D01*
X154932826Y-109319709D01*
X155120025Y-109258884D01*
X155295405Y-109169524D01*
X155454646Y-109053828D01*
X155593828Y-108914646D01*
X155709524Y-108755405D01*
X155798884Y-108580025D01*
X155815845Y-108527823D01*
X155851809Y-108478324D01*
X155910000Y-108459417D01*
X155968191Y-108478324D01*
X156004155Y-108527824D01*
X156021116Y-108580025D01*
X156110473Y-108755401D01*
X156110476Y-108755405D01*
X156226172Y-108914646D01*
X156365354Y-109053828D01*
X156524595Y-109169524D01*
X156699975Y-109258884D01*
X156887174Y-109319709D01*
X156887175Y-109319709D01*
X156887178Y-109319710D01*
X157081580Y-109350500D01*
X157081583Y-109350500D01*
X157278420Y-109350500D01*
X157472821Y-109319710D01*
X157472822Y-109319709D01*
X157472826Y-109319709D01*
X157660025Y-109258884D01*
X157835405Y-109169524D01*
X157994646Y-109053828D01*
X158133828Y-108914646D01*
X158249524Y-108755405D01*
X158338884Y-108580025D01*
X158355845Y-108527823D01*
X158391809Y-108478324D01*
X158450000Y-108459417D01*
X158508191Y-108478324D01*
X158544155Y-108527824D01*
X158561116Y-108580025D01*
X158650473Y-108755401D01*
X158650476Y-108755405D01*
X158766172Y-108914646D01*
X158905354Y-109053828D01*
X159064595Y-109169524D01*
X159239975Y-109258884D01*
X159427174Y-109319709D01*
X159427175Y-109319709D01*
X159427178Y-109319710D01*
X159621580Y-109350500D01*
X159621583Y-109350500D01*
X159818420Y-109350500D01*
X160012821Y-109319710D01*
X160012822Y-109319709D01*
X160012826Y-109319709D01*
X160200025Y-109258884D01*
X160375405Y-109169524D01*
X160534646Y-109053828D01*
X160673828Y-108914646D01*
X160789524Y-108755405D01*
X160878884Y-108580025D01*
X160939709Y-108392826D01*
X160941728Y-108380080D01*
X160970500Y-108198420D01*
X160970500Y-108001579D01*
X160939710Y-107807178D01*
X160939709Y-107807174D01*
X160878884Y-107619975D01*
X160789524Y-107444595D01*
X160673828Y-107285354D01*
X160534646Y-107146172D01*
X160396974Y-107046147D01*
X160361012Y-106996648D01*
X160361012Y-106935463D01*
X160363693Y-106928196D01*
X160373580Y-106904328D01*
X160400500Y-106768993D01*
X160400500Y-106631007D01*
X160373580Y-106495672D01*
X160320775Y-106368189D01*
X160320774Y-106368187D01*
X160320771Y-106368182D01*
X160244114Y-106253458D01*
X160229496Y-106238840D01*
X160201719Y-106184323D01*
X160200500Y-106168836D01*
X160200500Y-99248321D01*
X160219407Y-99190130D01*
X160229490Y-99178323D01*
X161200500Y-98207314D01*
X161266392Y-98093186D01*
X161300500Y-97965892D01*
X161300500Y-97834107D01*
X161266392Y-97706814D01*
X161266390Y-97706811D01*
X161266390Y-97706809D01*
X161213764Y-97615659D01*
X161200500Y-97566159D01*
X161200500Y-95892336D01*
X163257050Y-95892336D01*
X163257050Y-96107663D01*
X163290731Y-96320324D01*
X163357271Y-96525111D01*
X163452619Y-96712243D01*
X163455024Y-96716962D01*
X163581586Y-96891160D01*
X163733840Y-97043414D01*
X163908038Y-97169976D01*
X164099889Y-97267729D01*
X164304671Y-97334267D01*
X164304672Y-97334267D01*
X164304675Y-97334268D01*
X164517337Y-97367950D01*
X164517340Y-97367950D01*
X164732663Y-97367950D01*
X164945324Y-97334268D01*
X164945325Y-97334267D01*
X164945329Y-97334267D01*
X165150111Y-97267729D01*
X165341962Y-97169976D01*
X165516160Y-97043414D01*
X165668414Y-96891160D01*
X165794976Y-96716962D01*
X165892729Y-96525111D01*
X165959267Y-96320329D01*
X165992950Y-96107660D01*
X165992950Y-95892340D01*
X165992950Y-95892336D01*
X166432050Y-95892336D01*
X166432050Y-96107663D01*
X166465731Y-96320324D01*
X166532271Y-96525111D01*
X166627619Y-96712243D01*
X166630024Y-96716962D01*
X166756586Y-96891160D01*
X166908840Y-97043414D01*
X167083038Y-97169976D01*
X167274889Y-97267729D01*
X167479671Y-97334267D01*
X167479672Y-97334267D01*
X167479675Y-97334268D01*
X167692337Y-97367950D01*
X167692340Y-97367950D01*
X167907663Y-97367950D01*
X168120324Y-97334268D01*
X168120325Y-97334267D01*
X168120329Y-97334267D01*
X168325111Y-97267729D01*
X168516962Y-97169976D01*
X168691160Y-97043414D01*
X168843414Y-96891160D01*
X168969976Y-96716962D01*
X169067729Y-96525111D01*
X169134267Y-96320329D01*
X169167950Y-96107660D01*
X169167950Y-95892340D01*
X169167950Y-95892336D01*
X169134268Y-95679675D01*
X169117613Y-95628416D01*
X169067729Y-95474889D01*
X168969976Y-95283038D01*
X168843414Y-95108840D01*
X168691160Y-94956586D01*
X168516962Y-94830024D01*
X168516961Y-94830023D01*
X168516959Y-94830022D01*
X168325111Y-94732271D01*
X168120324Y-94665731D01*
X167907663Y-94632050D01*
X167907660Y-94632050D01*
X167692340Y-94632050D01*
X167692337Y-94632050D01*
X167479675Y-94665731D01*
X167274888Y-94732271D01*
X167083040Y-94830022D01*
X166908841Y-94956585D01*
X166756585Y-95108841D01*
X166630022Y-95283040D01*
X166532271Y-95474888D01*
X166465731Y-95679675D01*
X166432050Y-95892336D01*
X165992950Y-95892336D01*
X165959268Y-95679675D01*
X165942613Y-95628416D01*
X165892729Y-95474889D01*
X165794976Y-95283038D01*
X165668414Y-95108840D01*
X165516160Y-94956586D01*
X165341962Y-94830024D01*
X165341961Y-94830023D01*
X165341959Y-94830022D01*
X165150111Y-94732271D01*
X164945324Y-94665731D01*
X164732663Y-94632050D01*
X164732660Y-94632050D01*
X164517340Y-94632050D01*
X164517337Y-94632050D01*
X164304675Y-94665731D01*
X164099888Y-94732271D01*
X163908040Y-94830022D01*
X163733841Y-94956585D01*
X163581585Y-95108841D01*
X163455022Y-95283040D01*
X163357271Y-95474888D01*
X163290731Y-95679675D01*
X163257050Y-95892336D01*
X161200500Y-95892336D01*
X161200500Y-94634108D01*
X161196927Y-94620776D01*
X161196926Y-94620772D01*
X161166392Y-94506814D01*
X161163450Y-94501719D01*
X161131594Y-94446542D01*
X161131593Y-94446541D01*
X161100501Y-94392688D01*
X161100499Y-94392685D01*
X161007314Y-94299499D01*
X161007314Y-94299500D01*
X160307314Y-93599500D01*
X160307311Y-93599498D01*
X160307310Y-93599497D01*
X160307309Y-93599496D01*
X160193189Y-93533609D01*
X160193191Y-93533609D01*
X160143799Y-93520375D01*
X160065892Y-93499500D01*
X160065890Y-93499500D01*
X159731164Y-93499500D01*
X159723566Y-93497031D01*
X159715677Y-93498281D01*
X159695021Y-93487756D01*
X159672973Y-93480593D01*
X159661160Y-93470504D01*
X159646541Y-93455885D01*
X159553082Y-93393437D01*
X163949200Y-93393437D01*
X163949200Y-93526562D01*
X163950602Y-93533608D01*
X163971866Y-93640511D01*
X163975171Y-93657123D01*
X163975171Y-93657125D01*
X164026111Y-93780106D01*
X164026117Y-93780117D01*
X164053286Y-93820777D01*
X164100072Y-93890797D01*
X164194203Y-93984928D01*
X164260191Y-94029020D01*
X164304882Y-94058882D01*
X164304893Y-94058888D01*
X164313295Y-94062368D01*
X164427876Y-94109829D01*
X164558440Y-94135800D01*
X164558441Y-94135800D01*
X164691559Y-94135800D01*
X164691560Y-94135800D01*
X164822124Y-94109829D01*
X164945111Y-94058886D01*
X165055797Y-93984928D01*
X165149928Y-93890797D01*
X165223886Y-93780111D01*
X165274829Y-93657124D01*
X165300800Y-93526560D01*
X165300800Y-93393440D01*
X165274829Y-93262876D01*
X165257848Y-93221880D01*
X165223888Y-93139893D01*
X165223882Y-93139882D01*
X165193109Y-93093828D01*
X165149928Y-93029203D01*
X165055797Y-92935072D01*
X165008561Y-92903510D01*
X164945117Y-92861117D01*
X164945106Y-92861111D01*
X164822124Y-92810171D01*
X164691562Y-92784200D01*
X164691560Y-92784200D01*
X164558440Y-92784200D01*
X164558437Y-92784200D01*
X164427876Y-92810171D01*
X164427874Y-92810171D01*
X164304893Y-92861111D01*
X164304882Y-92861117D01*
X164194203Y-92935072D01*
X164194199Y-92935075D01*
X164100075Y-93029199D01*
X164100072Y-93029203D01*
X164026117Y-93139882D01*
X164026111Y-93139893D01*
X163975171Y-93262874D01*
X163975171Y-93262876D01*
X163949200Y-93393437D01*
X159553082Y-93393437D01*
X159531817Y-93379228D01*
X159531806Y-93379222D01*
X159404328Y-93326420D01*
X159268995Y-93299500D01*
X159268993Y-93299500D01*
X159131007Y-93299500D01*
X159131004Y-93299500D01*
X158995672Y-93326420D01*
X158995670Y-93326420D01*
X158868193Y-93379222D01*
X158868182Y-93379228D01*
X158753458Y-93455885D01*
X158655885Y-93553458D01*
X158579228Y-93668182D01*
X158579222Y-93668193D01*
X158526420Y-93795670D01*
X158526420Y-93795672D01*
X158499500Y-93931004D01*
X158499500Y-94068995D01*
X158526420Y-94204327D01*
X158526420Y-94204329D01*
X158579222Y-94331806D01*
X158579228Y-94331817D01*
X158631093Y-94409437D01*
X158655886Y-94446542D01*
X158753458Y-94544114D01*
X158836349Y-94599500D01*
X158868190Y-94620776D01*
X158868191Y-94620776D01*
X158870549Y-94621753D01*
X158871436Y-94622511D01*
X158872482Y-94623070D01*
X158872359Y-94623299D01*
X158917075Y-94661489D01*
X158931359Y-94720984D01*
X158914980Y-94768217D01*
X158897415Y-94794504D01*
X158840842Y-94931085D01*
X158812000Y-95076081D01*
X158812000Y-95223918D01*
X158840842Y-95368914D01*
X158894931Y-95499496D01*
X158897416Y-95505495D01*
X158979549Y-95628416D01*
X158983005Y-95631872D01*
X159010781Y-95686387D01*
X159012000Y-95701874D01*
X159012000Y-96880967D01*
X158993093Y-96939158D01*
X158983004Y-96950971D01*
X157469504Y-98464471D01*
X157414987Y-98492248D01*
X157354555Y-98482677D01*
X157311290Y-98439412D01*
X157300500Y-98394467D01*
X157300500Y-95234110D01*
X157300500Y-95234108D01*
X157299306Y-95229653D01*
X157266392Y-95106814D01*
X157213763Y-95015658D01*
X157200500Y-94966158D01*
X157200500Y-94831008D01*
X157200499Y-94831004D01*
X157200131Y-94829153D01*
X157173580Y-94695672D01*
X157155978Y-94653177D01*
X157120777Y-94568193D01*
X157120771Y-94568182D01*
X157044114Y-94453458D01*
X156946541Y-94355885D01*
X156831817Y-94279228D01*
X156831809Y-94279224D01*
X156748050Y-94244530D01*
X156701525Y-94204793D01*
X156688838Y-94172380D01*
X156688164Y-94168993D01*
X156673580Y-94095672D01*
X156652675Y-94045203D01*
X156620777Y-93968193D01*
X156620771Y-93968182D01*
X156544114Y-93853458D01*
X156544106Y-93853449D01*
X156446543Y-93755887D01*
X156446542Y-93755886D01*
X156444496Y-93754519D01*
X156443798Y-93753634D01*
X156442781Y-93752799D01*
X156442964Y-93752575D01*
X156406619Y-93706469D01*
X156400500Y-93672205D01*
X156400500Y-93531008D01*
X156400499Y-93531004D01*
X156373580Y-93395672D01*
X156344895Y-93326420D01*
X156320777Y-93268193D01*
X156320771Y-93268182D01*
X156244114Y-93153458D01*
X156146541Y-93055885D01*
X156031817Y-92979228D01*
X156031806Y-92979222D01*
X155904329Y-92926420D01*
X155827618Y-92911161D01*
X155813958Y-92903510D01*
X155798604Y-92900465D01*
X155788771Y-92889405D01*
X155774234Y-92881264D01*
X155757048Y-92855557D01*
X155756229Y-92853783D01*
X155720775Y-92768189D01*
X155707645Y-92748539D01*
X155704393Y-92741494D01*
X155701653Y-92718449D01*
X155695354Y-92696116D01*
X155698022Y-92687904D01*
X155697170Y-92680736D01*
X155704760Y-92667165D01*
X155711964Y-92644997D01*
X155720775Y-92631811D01*
X155773580Y-92504328D01*
X155800500Y-92368993D01*
X155800500Y-92231007D01*
X155773580Y-92095672D01*
X155744497Y-92025459D01*
X155720777Y-91968193D01*
X155720771Y-91968182D01*
X155644114Y-91853458D01*
X155546541Y-91755885D01*
X155431817Y-91679228D01*
X155431806Y-91679222D01*
X155304328Y-91626420D01*
X155168995Y-91599500D01*
X155168993Y-91599500D01*
X155031007Y-91599500D01*
X155031004Y-91599500D01*
X154895673Y-91626419D01*
X154825274Y-91655579D01*
X154764277Y-91660378D01*
X154732389Y-91646429D01*
X154662155Y-91599500D01*
X154631817Y-91579228D01*
X154631806Y-91579222D01*
X154504329Y-91526420D01*
X154504321Y-91526418D01*
X154480021Y-91521584D01*
X154426638Y-91491687D01*
X154401023Y-91436121D01*
X154400813Y-91434187D01*
X154400500Y-91431014D01*
X154400500Y-91431007D01*
X154373580Y-91295672D01*
X154350654Y-91240324D01*
X154320777Y-91168193D01*
X154320771Y-91168182D01*
X154244114Y-91053458D01*
X154146541Y-90955885D01*
X154049083Y-90890765D01*
X154031818Y-90879228D01*
X154031806Y-90879222D01*
X153904329Y-90826420D01*
X153860149Y-90817632D01*
X153850693Y-90812336D01*
X163257050Y-90812336D01*
X163257050Y-91027663D01*
X163290731Y-91240324D01*
X163357271Y-91445111D01*
X163452069Y-91631164D01*
X163455024Y-91636962D01*
X163581586Y-91811160D01*
X163733840Y-91963414D01*
X163908038Y-92089976D01*
X164099889Y-92187729D01*
X164304671Y-92254267D01*
X164304672Y-92254267D01*
X164304675Y-92254268D01*
X164517337Y-92287950D01*
X164517340Y-92287950D01*
X164732663Y-92287950D01*
X164945324Y-92254268D01*
X164945325Y-92254267D01*
X164945329Y-92254267D01*
X165150111Y-92187729D01*
X165341962Y-92089976D01*
X165516160Y-91963414D01*
X165668414Y-91811160D01*
X165794976Y-91636962D01*
X165892729Y-91445111D01*
X165959267Y-91240329D01*
X165964131Y-91209618D01*
X165992950Y-91027663D01*
X165992950Y-90812336D01*
X166432050Y-90812336D01*
X166432050Y-91027663D01*
X166465731Y-91240324D01*
X166532271Y-91445111D01*
X166627069Y-91631164D01*
X166630024Y-91636962D01*
X166756586Y-91811160D01*
X166908840Y-91963414D01*
X167083038Y-92089976D01*
X167274889Y-92187729D01*
X167479671Y-92254267D01*
X167479672Y-92254267D01*
X167479675Y-92254268D01*
X167692337Y-92287950D01*
X167692340Y-92287950D01*
X167907663Y-92287950D01*
X168120324Y-92254268D01*
X168120325Y-92254267D01*
X168120329Y-92254267D01*
X168325111Y-92187729D01*
X168516962Y-92089976D01*
X168691160Y-91963414D01*
X168843414Y-91811160D01*
X168969976Y-91636962D01*
X169067729Y-91445111D01*
X169134267Y-91240329D01*
X169139131Y-91209618D01*
X169167950Y-91027663D01*
X169167950Y-90812336D01*
X169134268Y-90599675D01*
X169124039Y-90568193D01*
X169067729Y-90394889D01*
X168969976Y-90203038D01*
X168843414Y-90028840D01*
X168691160Y-89876586D01*
X168516962Y-89750024D01*
X168516961Y-89750023D01*
X168516959Y-89750022D01*
X168325111Y-89652271D01*
X168120324Y-89585731D01*
X167907663Y-89552050D01*
X167907660Y-89552050D01*
X167692340Y-89552050D01*
X167692337Y-89552050D01*
X167479675Y-89585731D01*
X167274888Y-89652271D01*
X167083040Y-89750022D01*
X166908841Y-89876585D01*
X166756585Y-90028841D01*
X166630022Y-90203040D01*
X166532271Y-90394888D01*
X166465731Y-90599675D01*
X166432050Y-90812336D01*
X165992950Y-90812336D01*
X165959268Y-90599675D01*
X165949039Y-90568193D01*
X165892729Y-90394889D01*
X165794976Y-90203038D01*
X165668414Y-90028840D01*
X165516160Y-89876586D01*
X165341962Y-89750024D01*
X165341961Y-89750023D01*
X165341959Y-89750022D01*
X165150111Y-89652271D01*
X164945324Y-89585731D01*
X164732663Y-89552050D01*
X164732660Y-89552050D01*
X164517340Y-89552050D01*
X164517337Y-89552050D01*
X164304675Y-89585731D01*
X164099888Y-89652271D01*
X163908040Y-89750022D01*
X163733841Y-89876585D01*
X163581585Y-90028841D01*
X163455022Y-90203040D01*
X163357271Y-90394888D01*
X163290731Y-90599675D01*
X163257050Y-90812336D01*
X153850693Y-90812336D01*
X153806765Y-90787734D01*
X153782366Y-90739847D01*
X153773580Y-90695672D01*
X153720775Y-90568189D01*
X153720774Y-90568187D01*
X153720771Y-90568182D01*
X153644114Y-90453458D01*
X153546541Y-90355885D01*
X153431817Y-90279228D01*
X153431806Y-90279222D01*
X153304328Y-90226420D01*
X153168995Y-90199500D01*
X153168993Y-90199500D01*
X153031007Y-90199500D01*
X153031004Y-90199500D01*
X152895672Y-90226420D01*
X152895670Y-90226420D01*
X152768193Y-90279222D01*
X152768182Y-90279228D01*
X152653458Y-90355885D01*
X152555885Y-90453458D01*
X152479228Y-90568182D01*
X152479222Y-90568193D01*
X152426420Y-90695670D01*
X152426420Y-90695672D01*
X152399500Y-90831004D01*
X152399500Y-90968995D01*
X152409698Y-91020263D01*
X152407633Y-91037708D01*
X152410382Y-91055060D01*
X152404125Y-91067339D01*
X152402506Y-91081024D01*
X152382606Y-91109578D01*
X152369506Y-91122679D01*
X152314991Y-91150459D01*
X152254558Y-91140889D01*
X152211292Y-91097626D01*
X152200500Y-91052678D01*
X152200500Y-91031008D01*
X152200499Y-91031004D01*
X152200455Y-91030782D01*
X152173580Y-90895672D01*
X152138581Y-90811176D01*
X152120777Y-90768193D01*
X152120771Y-90768182D01*
X152044114Y-90653458D01*
X151946541Y-90555885D01*
X151831817Y-90479228D01*
X151831806Y-90479222D01*
X151704328Y-90426420D01*
X151568995Y-90399500D01*
X151568993Y-90399500D01*
X151431007Y-90399500D01*
X151431004Y-90399500D01*
X151295672Y-90426420D01*
X151295670Y-90426420D01*
X151168193Y-90479222D01*
X151168182Y-90479228D01*
X151053458Y-90555885D01*
X150955885Y-90653458D01*
X150879228Y-90768182D01*
X150879222Y-90768193D01*
X150826420Y-90895670D01*
X150826420Y-90895672D01*
X150799500Y-91031004D01*
X150799500Y-91168995D01*
X150826420Y-91304327D01*
X150826420Y-91304329D01*
X150879222Y-91431806D01*
X150879228Y-91431817D01*
X150955885Y-91546541D01*
X150970504Y-91561160D01*
X150998281Y-91615677D01*
X150999500Y-91631164D01*
X150999500Y-91904827D01*
X150980593Y-91963018D01*
X150931093Y-91998982D01*
X150881187Y-92001925D01*
X150868997Y-91999500D01*
X150868993Y-91999500D01*
X150731007Y-91999500D01*
X150731004Y-91999500D01*
X150595672Y-92026420D01*
X150595670Y-92026420D01*
X150468193Y-92079222D01*
X150468182Y-92079228D01*
X150353458Y-92155885D01*
X150353454Y-92155889D01*
X150338840Y-92170504D01*
X150284323Y-92198281D01*
X150268836Y-92199500D01*
X148593945Y-92199500D01*
X148535754Y-92180593D01*
X148499790Y-92131093D01*
X148499790Y-92069907D01*
X148511631Y-92045497D01*
X148520770Y-92031819D01*
X148520771Y-92031816D01*
X148520775Y-92031811D01*
X148573580Y-91904328D01*
X148600500Y-91768993D01*
X148600500Y-91631007D01*
X148573580Y-91495672D01*
X148548112Y-91434187D01*
X148520777Y-91368193D01*
X148520771Y-91368182D01*
X148444114Y-91253458D01*
X148346541Y-91155885D01*
X148231817Y-91079228D01*
X148231806Y-91079222D01*
X148104328Y-91026420D01*
X147968995Y-90999500D01*
X147968993Y-90999500D01*
X147948322Y-90999500D01*
X147890131Y-90980593D01*
X147878318Y-90970504D01*
X144829496Y-87921682D01*
X144801719Y-87867165D01*
X144800500Y-87851678D01*
X144800500Y-84634109D01*
X144796561Y-84619407D01*
X144766392Y-84506814D01*
X144766390Y-84506811D01*
X144766390Y-84506809D01*
X144700503Y-84392690D01*
X144700501Y-84392688D01*
X144700500Y-84392686D01*
X144607314Y-84299500D01*
X144607311Y-84299498D01*
X143407314Y-83099500D01*
X143407311Y-83099498D01*
X143407309Y-83099496D01*
X143293189Y-83033609D01*
X143293191Y-83033609D01*
X143241706Y-83019814D01*
X143165892Y-82999500D01*
X143165890Y-82999500D01*
X142184548Y-82999500D01*
X142126357Y-82980593D01*
X142090393Y-82931093D01*
X142090393Y-82869907D01*
X142126357Y-82820407D01*
X142153953Y-82806345D01*
X142300025Y-82758884D01*
X142475405Y-82669524D01*
X142634646Y-82553828D01*
X142773828Y-82414646D01*
X142889524Y-82255405D01*
X142978884Y-82080025D01*
X142995845Y-82027823D01*
X143031809Y-81978324D01*
X143090000Y-81959417D01*
X143148191Y-81978324D01*
X143184155Y-82027824D01*
X143201116Y-82080025D01*
X143290473Y-82255401D01*
X143290476Y-82255405D01*
X143406172Y-82414646D01*
X143545354Y-82553828D01*
X143704595Y-82669524D01*
X143879975Y-82758884D01*
X144067174Y-82819709D01*
X144067175Y-82819709D01*
X144067178Y-82819710D01*
X144261580Y-82850500D01*
X144261583Y-82850500D01*
X144458420Y-82850500D01*
X144652821Y-82819710D01*
X144652822Y-82819709D01*
X144652826Y-82819709D01*
X144840025Y-82758884D01*
X145015405Y-82669524D01*
X145174646Y-82553828D01*
X145313828Y-82414646D01*
X145429524Y-82255405D01*
X145518884Y-82080025D01*
X145535845Y-82027823D01*
X145571809Y-81978324D01*
X145630000Y-81959417D01*
X145688191Y-81978324D01*
X145724155Y-82027824D01*
X145741116Y-82080025D01*
X145830473Y-82255401D01*
X145830476Y-82255405D01*
X145946172Y-82414646D01*
X146085354Y-82553828D01*
X146244595Y-82669524D01*
X146419975Y-82758884D01*
X146607174Y-82819709D01*
X146607175Y-82819709D01*
X146607178Y-82819710D01*
X146801580Y-82850500D01*
X146801583Y-82850500D01*
X146998420Y-82850500D01*
X147192821Y-82819710D01*
X147192822Y-82819709D01*
X147192826Y-82819709D01*
X147380025Y-82758884D01*
X147555405Y-82669524D01*
X147714646Y-82553828D01*
X147853828Y-82414646D01*
X147969524Y-82255405D01*
X148058884Y-82080025D01*
X148075845Y-82027823D01*
X148111809Y-81978324D01*
X148170000Y-81959417D01*
X148228191Y-81978324D01*
X148264155Y-82027824D01*
X148281116Y-82080025D01*
X148370473Y-82255401D01*
X148370476Y-82255405D01*
X148486172Y-82414646D01*
X148625354Y-82553828D01*
X148784595Y-82669524D01*
X148959975Y-82758884D01*
X149147174Y-82819709D01*
X149147175Y-82819709D01*
X149147178Y-82819710D01*
X149341580Y-82850500D01*
X149341583Y-82850500D01*
X149538420Y-82850500D01*
X149732821Y-82819710D01*
X149732822Y-82819709D01*
X149732826Y-82819709D01*
X149920025Y-82758884D01*
X150095405Y-82669524D01*
X150254646Y-82553828D01*
X150393828Y-82414646D01*
X150509524Y-82255405D01*
X150598884Y-82080025D01*
X150615845Y-82027823D01*
X150651809Y-81978324D01*
X150710000Y-81959417D01*
X150768191Y-81978324D01*
X150804155Y-82027824D01*
X150821116Y-82080025D01*
X150910473Y-82255401D01*
X150910476Y-82255405D01*
X151026172Y-82414646D01*
X151165354Y-82553828D01*
X151324595Y-82669524D01*
X151499975Y-82758884D01*
X151687174Y-82819709D01*
X151687175Y-82819709D01*
X151687178Y-82819710D01*
X151881580Y-82850500D01*
X151881583Y-82850500D01*
X152078420Y-82850500D01*
X152272821Y-82819710D01*
X152272822Y-82819709D01*
X152272826Y-82819709D01*
X152460025Y-82758884D01*
X152635405Y-82669524D01*
X152794646Y-82553828D01*
X152933828Y-82414646D01*
X153049524Y-82255405D01*
X153138884Y-82080025D01*
X153155845Y-82027823D01*
X153191809Y-81978324D01*
X153250000Y-81959417D01*
X153308191Y-81978324D01*
X153344155Y-82027824D01*
X153361116Y-82080025D01*
X153450473Y-82255401D01*
X153450476Y-82255405D01*
X153566172Y-82414646D01*
X153705354Y-82553828D01*
X153864595Y-82669524D01*
X154039975Y-82758884D01*
X154227174Y-82819709D01*
X154227175Y-82819709D01*
X154227178Y-82819710D01*
X154421580Y-82850500D01*
X154421583Y-82850500D01*
X154618420Y-82850500D01*
X154812821Y-82819710D01*
X154812822Y-82819709D01*
X154812826Y-82819709D01*
X155000025Y-82758884D01*
X155175405Y-82669524D01*
X155334646Y-82553828D01*
X155473828Y-82414646D01*
X155589524Y-82255405D01*
X155678884Y-82080025D01*
X155695845Y-82027823D01*
X155731809Y-81978324D01*
X155790000Y-81959417D01*
X155848191Y-81978324D01*
X155884155Y-82027824D01*
X155901116Y-82080025D01*
X155990473Y-82255401D01*
X155990476Y-82255405D01*
X156106172Y-82414646D01*
X156245354Y-82553828D01*
X156404595Y-82669524D01*
X156579975Y-82758884D01*
X156767174Y-82819709D01*
X156767175Y-82819709D01*
X156767178Y-82819710D01*
X156961580Y-82850500D01*
X156961583Y-82850500D01*
X157158420Y-82850500D01*
X157352821Y-82819710D01*
X157352822Y-82819709D01*
X157352826Y-82819709D01*
X157540025Y-82758884D01*
X157715405Y-82669524D01*
X157874646Y-82553828D01*
X158013828Y-82414646D01*
X158129524Y-82255405D01*
X158162290Y-82191096D01*
X158205554Y-82147832D01*
X158265986Y-82138260D01*
X158320503Y-82166037D01*
X158348281Y-82220553D01*
X158349500Y-82236041D01*
X158349500Y-82481521D01*
X158349501Y-82481523D01*
X158364352Y-82575299D01*
X158364354Y-82575304D01*
X158421950Y-82688342D01*
X158511658Y-82778050D01*
X158624696Y-82835646D01*
X158718481Y-82850500D01*
X160481518Y-82850499D01*
X160481521Y-82850499D01*
X160481522Y-82850498D01*
X160533232Y-82842309D01*
X160575299Y-82835647D01*
X160575299Y-82835646D01*
X160575304Y-82835646D01*
X160688342Y-82778050D01*
X160778050Y-82688342D01*
X160835646Y-82575304D01*
X160850500Y-82481519D01*
X160850499Y-80718482D01*
X160850499Y-80718481D01*
X160850499Y-80718478D01*
X160850498Y-80718476D01*
X160835647Y-80624700D01*
X160835646Y-80624698D01*
X160835646Y-80624696D01*
X160778050Y-80511658D01*
X160688342Y-80421950D01*
X160575304Y-80364354D01*
X160575305Y-80364354D01*
X160481521Y-80349500D01*
X158718478Y-80349500D01*
X158718476Y-80349501D01*
X158624700Y-80364352D01*
X158624695Y-80364354D01*
X158511659Y-80421949D01*
X158421949Y-80511659D01*
X158364354Y-80624695D01*
X158349500Y-80718478D01*
X158349500Y-80963957D01*
X158330593Y-81022148D01*
X158281093Y-81058112D01*
X158219907Y-81058112D01*
X158170407Y-81022148D01*
X158162290Y-81008902D01*
X158129525Y-80944597D01*
X158129524Y-80944595D01*
X158013828Y-80785354D01*
X157874646Y-80646172D01*
X157715405Y-80530476D01*
X157715404Y-80530475D01*
X157715402Y-80530474D01*
X157540025Y-80441116D01*
X157352821Y-80380289D01*
X157158420Y-80349500D01*
X157158417Y-80349500D01*
X156961583Y-80349500D01*
X156961580Y-80349500D01*
X156767178Y-80380289D01*
X156579974Y-80441116D01*
X156404597Y-80530474D01*
X156245355Y-80646171D01*
X156106171Y-80785355D01*
X155990474Y-80944597D01*
X155901114Y-81119978D01*
X155901112Y-81119981D01*
X155884154Y-81172175D01*
X155848190Y-81221675D01*
X155789999Y-81240582D01*
X155731809Y-81221674D01*
X155695846Y-81172175D01*
X155678887Y-81119981D01*
X155678885Y-81119978D01*
X155678884Y-81119977D01*
X155678884Y-81119975D01*
X155589524Y-80944595D01*
X155473828Y-80785354D01*
X155334646Y-80646172D01*
X155175405Y-80530476D01*
X155175404Y-80530475D01*
X155175402Y-80530474D01*
X155000025Y-80441116D01*
X154812821Y-80380289D01*
X154618420Y-80349500D01*
X154618417Y-80349500D01*
X154421583Y-80349500D01*
X154421580Y-80349500D01*
X154227178Y-80380289D01*
X154039974Y-80441116D01*
X153864597Y-80530474D01*
X153705355Y-80646171D01*
X153566171Y-80785355D01*
X153450474Y-80944597D01*
X153361114Y-81119978D01*
X153361112Y-81119981D01*
X153344154Y-81172175D01*
X153308190Y-81221675D01*
X153249999Y-81240582D01*
X153191809Y-81221674D01*
X153155846Y-81172175D01*
X153138887Y-81119981D01*
X153138885Y-81119978D01*
X153138884Y-81119977D01*
X153138884Y-81119975D01*
X153049524Y-80944595D01*
X152933828Y-80785354D01*
X152794646Y-80646172D01*
X152635405Y-80530476D01*
X152635404Y-80530475D01*
X152635402Y-80530474D01*
X152460025Y-80441116D01*
X152272821Y-80380289D01*
X152078420Y-80349500D01*
X152078417Y-80349500D01*
X151881583Y-80349500D01*
X151881580Y-80349500D01*
X151687178Y-80380289D01*
X151499974Y-80441116D01*
X151324597Y-80530474D01*
X151165355Y-80646171D01*
X151026171Y-80785355D01*
X150910474Y-80944597D01*
X150821114Y-81119978D01*
X150821112Y-81119981D01*
X150804154Y-81172175D01*
X150768190Y-81221675D01*
X150709999Y-81240582D01*
X150651809Y-81221674D01*
X150615846Y-81172175D01*
X150598887Y-81119981D01*
X150598885Y-81119978D01*
X150598884Y-81119977D01*
X150598884Y-81119975D01*
X150509524Y-80944595D01*
X150393828Y-80785354D01*
X150254646Y-80646172D01*
X150095405Y-80530476D01*
X150095404Y-80530475D01*
X150095402Y-80530474D01*
X149920025Y-80441116D01*
X149732821Y-80380289D01*
X149538420Y-80349500D01*
X149538417Y-80349500D01*
X149341583Y-80349500D01*
X149341580Y-80349500D01*
X149147178Y-80380289D01*
X148959974Y-80441116D01*
X148784597Y-80530474D01*
X148625355Y-80646171D01*
X148486171Y-80785355D01*
X148370474Y-80944597D01*
X148281114Y-81119978D01*
X148281112Y-81119981D01*
X148264154Y-81172175D01*
X148228190Y-81221675D01*
X148169999Y-81240582D01*
X148111809Y-81221674D01*
X148075846Y-81172175D01*
X148058887Y-81119981D01*
X148058885Y-81119978D01*
X148058884Y-81119977D01*
X148058884Y-81119975D01*
X147969524Y-80944595D01*
X147853828Y-80785354D01*
X147714646Y-80646172D01*
X147555405Y-80530476D01*
X147555404Y-80530475D01*
X147555402Y-80530474D01*
X147380025Y-80441116D01*
X147192821Y-80380289D01*
X146998420Y-80349500D01*
X146998417Y-80349500D01*
X146801583Y-80349500D01*
X146801580Y-80349500D01*
X146607178Y-80380289D01*
X146419974Y-80441116D01*
X146244597Y-80530474D01*
X146085355Y-80646171D01*
X145946171Y-80785355D01*
X145830474Y-80944597D01*
X145741114Y-81119978D01*
X145741112Y-81119981D01*
X145724154Y-81172175D01*
X145688190Y-81221675D01*
X145629999Y-81240582D01*
X145571809Y-81221674D01*
X145535846Y-81172175D01*
X145518887Y-81119981D01*
X145518885Y-81119978D01*
X145518884Y-81119977D01*
X145518884Y-81119975D01*
X145429524Y-80944595D01*
X145313828Y-80785354D01*
X145174646Y-80646172D01*
X145015405Y-80530476D01*
X145015404Y-80530475D01*
X145015402Y-80530474D01*
X144840025Y-80441116D01*
X144652821Y-80380289D01*
X144458420Y-80349500D01*
X144458417Y-80349500D01*
X144261583Y-80349500D01*
X144261580Y-80349500D01*
X144067178Y-80380289D01*
X143879974Y-80441116D01*
X143704597Y-80530474D01*
X143545355Y-80646171D01*
X143406171Y-80785355D01*
X143290474Y-80944597D01*
X143201114Y-81119978D01*
X143201112Y-81119981D01*
X143184154Y-81172175D01*
X143148190Y-81221675D01*
X143089999Y-81240582D01*
X143031809Y-81221674D01*
X142995846Y-81172175D01*
X142978887Y-81119981D01*
X142978885Y-81119978D01*
X142978884Y-81119977D01*
X142978884Y-81119975D01*
X142889524Y-80944595D01*
X142773828Y-80785354D01*
X142634646Y-80646172D01*
X142475405Y-80530476D01*
X142475404Y-80530475D01*
X142475402Y-80530474D01*
X142300025Y-80441116D01*
X142112821Y-80380289D01*
X141918420Y-80349500D01*
X141918417Y-80349500D01*
X141721583Y-80349500D01*
X141721580Y-80349500D01*
X141527178Y-80380289D01*
X141339974Y-80441116D01*
X141164597Y-80530474D01*
X141005355Y-80646171D01*
X140866171Y-80785355D01*
X140750474Y-80944597D01*
X140661114Y-81119978D01*
X140661112Y-81119981D01*
X140644154Y-81172175D01*
X140608190Y-81221675D01*
X140549999Y-81240582D01*
X140491809Y-81221674D01*
X140455846Y-81172175D01*
X140438887Y-81119981D01*
X140438885Y-81119978D01*
X140438884Y-81119977D01*
X140438884Y-81119975D01*
X140349524Y-80944595D01*
X140233828Y-80785354D01*
X140094646Y-80646172D01*
X139935405Y-80530476D01*
X139935404Y-80530475D01*
X139935402Y-80530474D01*
X139760025Y-80441116D01*
X139572821Y-80380289D01*
X139378420Y-80349500D01*
X139378417Y-80349500D01*
X139181583Y-80349500D01*
X139181580Y-80349500D01*
X138987178Y-80380289D01*
X138799974Y-80441116D01*
X138624597Y-80530474D01*
X138465355Y-80646171D01*
X138326171Y-80785355D01*
X138210474Y-80944597D01*
X138121114Y-81119978D01*
X138121112Y-81119981D01*
X138104154Y-81172175D01*
X138068190Y-81221675D01*
X138009999Y-81240582D01*
X137951809Y-81221674D01*
X137915846Y-81172175D01*
X137898887Y-81119981D01*
X137898885Y-81119978D01*
X137898884Y-81119977D01*
X137898884Y-81119975D01*
X137809524Y-80944595D01*
X137693828Y-80785354D01*
X137554646Y-80646172D01*
X137395405Y-80530476D01*
X137395404Y-80530475D01*
X137395402Y-80530474D01*
X137220025Y-80441116D01*
X137032821Y-80380289D01*
X136838420Y-80349500D01*
X136838417Y-80349500D01*
X136641583Y-80349500D01*
X136641580Y-80349500D01*
X136447178Y-80380289D01*
X136259974Y-80441116D01*
X136084597Y-80530474D01*
X135925355Y-80646171D01*
X135786171Y-80785355D01*
X135670474Y-80944597D01*
X135581114Y-81119978D01*
X135581112Y-81119981D01*
X135564154Y-81172175D01*
X135528190Y-81221675D01*
X135469999Y-81240582D01*
X135411809Y-81221674D01*
X135375846Y-81172175D01*
X135358887Y-81119981D01*
X135358885Y-81119978D01*
X135358884Y-81119977D01*
X135358884Y-81119975D01*
X135269524Y-80944595D01*
X135153828Y-80785354D01*
X135014646Y-80646172D01*
X134855405Y-80530476D01*
X134855404Y-80530475D01*
X134855402Y-80530474D01*
X134680025Y-80441116D01*
X134492821Y-80380289D01*
X134298420Y-80349500D01*
X134298417Y-80349500D01*
X134101583Y-80349500D01*
X134101580Y-80349500D01*
X133907178Y-80380289D01*
X133719974Y-80441116D01*
X133544597Y-80530474D01*
X133385355Y-80646171D01*
X133246171Y-80785355D01*
X133130474Y-80944597D01*
X133041114Y-81119978D01*
X133041112Y-81119981D01*
X133024154Y-81172175D01*
X132988190Y-81221675D01*
X132929999Y-81240582D01*
X132871809Y-81221674D01*
X132835846Y-81172175D01*
X132818887Y-81119981D01*
X132818885Y-81119978D01*
X132818884Y-81119977D01*
X132818884Y-81119975D01*
X132729524Y-80944595D01*
X132613828Y-80785354D01*
X132474646Y-80646172D01*
X132315405Y-80530476D01*
X132315404Y-80530475D01*
X132315402Y-80530474D01*
X132140025Y-80441116D01*
X131952821Y-80380289D01*
X131758420Y-80349500D01*
X131758417Y-80349500D01*
X131561583Y-80349500D01*
X131561580Y-80349500D01*
X131367178Y-80380289D01*
X131179974Y-80441116D01*
X131004597Y-80530474D01*
X130845355Y-80646171D01*
X130706171Y-80785355D01*
X130590474Y-80944597D01*
X130501114Y-81119978D01*
X130501112Y-81119981D01*
X130484154Y-81172175D01*
X130448190Y-81221675D01*
X130389999Y-81240582D01*
X130331809Y-81221674D01*
X130295846Y-81172175D01*
X130278887Y-81119981D01*
X130278885Y-81119978D01*
X130278884Y-81119977D01*
X130278884Y-81119975D01*
X130189524Y-80944595D01*
X130073828Y-80785354D01*
X129934646Y-80646172D01*
X129775405Y-80530476D01*
X129775404Y-80530475D01*
X129775402Y-80530474D01*
X129600025Y-80441116D01*
X129412821Y-80380289D01*
X129218420Y-80349500D01*
X129218417Y-80349500D01*
X129021583Y-80349500D01*
X129021580Y-80349500D01*
X128827178Y-80380289D01*
X128639974Y-80441116D01*
X128464597Y-80530474D01*
X128305355Y-80646171D01*
X128166171Y-80785355D01*
X128050474Y-80944597D01*
X127961114Y-81119978D01*
X127961112Y-81119981D01*
X127944154Y-81172175D01*
X127908190Y-81221675D01*
X127849999Y-81240582D01*
X127791809Y-81221674D01*
X127755846Y-81172175D01*
X127738887Y-81119981D01*
X127738885Y-81119978D01*
X127738884Y-81119977D01*
X127738884Y-81119975D01*
X127649524Y-80944595D01*
X127533828Y-80785354D01*
X127394646Y-80646172D01*
X127235405Y-80530476D01*
X127235404Y-80530475D01*
X127235402Y-80530474D01*
X127060025Y-80441116D01*
X126872821Y-80380289D01*
X126678420Y-80349500D01*
X126678417Y-80349500D01*
X126481583Y-80349500D01*
X126481580Y-80349500D01*
X126287178Y-80380289D01*
X126099974Y-80441116D01*
X125924597Y-80530474D01*
X125765355Y-80646171D01*
X125626171Y-80785355D01*
X125510474Y-80944597D01*
X125421116Y-81119974D01*
X125360289Y-81307178D01*
X125331592Y-81488365D01*
X125303814Y-81542882D01*
X125249298Y-81570659D01*
X125188866Y-81561087D01*
X125145601Y-81517823D01*
X125136030Y-81488365D01*
X125112915Y-81342420D01*
X125059411Y-81177751D01*
X124980805Y-81023477D01*
X124916778Y-80935352D01*
X124483670Y-81368460D01*
X124440099Y-81292993D01*
X124347007Y-81199901D01*
X124271536Y-81156328D01*
X124704646Y-80723219D01*
X124616528Y-80659197D01*
X124616524Y-80659195D01*
X124462248Y-80580588D01*
X124297579Y-80527084D01*
X124126575Y-80500000D01*
X123953425Y-80500000D01*
X123782420Y-80527084D01*
X123617751Y-80580588D01*
X123463476Y-80659195D01*
X123375352Y-80723219D01*
X123808461Y-81156328D01*
X123732993Y-81199901D01*
X123639901Y-81292993D01*
X123596328Y-81368461D01*
X123163219Y-80935352D01*
X123099195Y-81023476D01*
X123020588Y-81177751D01*
X122967084Y-81342420D01*
X122940000Y-81513424D01*
X122940000Y-81686575D01*
X122967084Y-81857579D01*
X123020588Y-82022248D01*
X123099195Y-82176524D01*
X123099197Y-82176528D01*
X123163219Y-82264646D01*
X123596328Y-81831536D01*
X123639901Y-81907007D01*
X123732993Y-82000099D01*
X123808460Y-82043670D01*
X123375352Y-82476778D01*
X123463477Y-82540805D01*
X123617751Y-82619411D01*
X123782420Y-82672915D01*
X123953425Y-82700000D01*
X124126575Y-82700000D01*
X124297579Y-82672915D01*
X124462248Y-82619411D01*
X124616524Y-82540804D01*
X124616530Y-82540800D01*
X124704646Y-82476779D01*
X124704646Y-82476778D01*
X124271538Y-82043670D01*
X124347007Y-82000099D01*
X124440099Y-81907007D01*
X124483670Y-81831538D01*
X124916778Y-82264646D01*
X124916779Y-82264646D01*
X124980800Y-82176530D01*
X124980804Y-82176524D01*
X125059411Y-82022248D01*
X125112915Y-81857579D01*
X125136030Y-81711634D01*
X125163807Y-81657118D01*
X125218324Y-81629340D01*
X125278756Y-81638911D01*
X125322020Y-81682176D01*
X125331592Y-81711634D01*
X125360289Y-81892821D01*
X125421116Y-82080025D01*
X125510473Y-82255401D01*
X125510476Y-82255405D01*
X125626172Y-82414646D01*
X125765354Y-82553828D01*
X125924595Y-82669524D01*
X126099975Y-82758884D01*
X126287174Y-82819709D01*
X126287175Y-82819709D01*
X126287178Y-82819710D01*
X126481580Y-82850500D01*
X126481583Y-82850500D01*
X126678420Y-82850500D01*
X126872821Y-82819710D01*
X126872822Y-82819709D01*
X126872826Y-82819709D01*
X127060025Y-82758884D01*
X127235405Y-82669524D01*
X127394646Y-82553828D01*
X127533828Y-82414646D01*
X127649524Y-82255405D01*
X127738884Y-82080025D01*
X127755845Y-82027823D01*
X127791809Y-81978324D01*
X127850000Y-81959417D01*
X127908191Y-81978324D01*
X127944155Y-82027824D01*
X127961116Y-82080025D01*
X128050473Y-82255401D01*
X128050476Y-82255405D01*
X128166172Y-82414646D01*
X128305354Y-82553828D01*
X128464595Y-82669524D01*
X128639975Y-82758884D01*
X128827174Y-82819709D01*
X128827175Y-82819709D01*
X128827178Y-82819710D01*
X129021580Y-82850500D01*
X129021583Y-82850500D01*
X129218420Y-82850500D01*
X129412821Y-82819710D01*
X129412822Y-82819709D01*
X129412826Y-82819709D01*
X129600025Y-82758884D01*
X129775405Y-82669524D01*
X129934646Y-82553828D01*
X130073828Y-82414646D01*
X130189524Y-82255405D01*
X130278884Y-82080025D01*
X130295845Y-82027823D01*
X130331809Y-81978324D01*
X130390000Y-81959417D01*
X130448191Y-81978324D01*
X130484155Y-82027824D01*
X130501116Y-82080025D01*
X130590473Y-82255401D01*
X130590476Y-82255405D01*
X130706172Y-82414646D01*
X130845354Y-82553828D01*
X130999871Y-82666092D01*
X131035834Y-82715590D01*
X131035834Y-82776776D01*
X131023995Y-82801184D01*
X130979227Y-82868183D01*
X130979222Y-82868193D01*
X130926420Y-82995670D01*
X130926420Y-82995672D01*
X130899500Y-83131004D01*
X130899500Y-83268995D01*
X130926420Y-83404327D01*
X130926420Y-83404329D01*
X130979222Y-83531806D01*
X130979228Y-83531817D01*
X131055885Y-83646541D01*
X131153458Y-83744114D01*
X131268182Y-83820771D01*
X131268193Y-83820777D01*
X131315283Y-83840282D01*
X131395672Y-83873580D01*
X131531007Y-83900500D01*
X131551678Y-83900500D01*
X131609869Y-83919407D01*
X131621681Y-83929496D01*
X131692685Y-84000499D01*
X131692690Y-84000503D01*
X131806810Y-84066390D01*
X131806808Y-84066390D01*
X131806812Y-84066391D01*
X131806814Y-84066392D01*
X131934107Y-84100500D01*
X131934108Y-84100500D01*
X133216949Y-84100500D01*
X133275140Y-84119407D01*
X133286953Y-84129496D01*
X141270504Y-92113047D01*
X141298281Y-92167564D01*
X141299500Y-92183051D01*
X141299500Y-92265892D01*
X141316948Y-92331008D01*
X141333609Y-92393190D01*
X141399496Y-92507309D01*
X141399497Y-92507310D01*
X141399498Y-92507311D01*
X141399500Y-92507314D01*
X143799500Y-94907314D01*
X143799499Y-94907314D01*
X143892685Y-95000499D01*
X143892690Y-95000503D01*
X144006810Y-95066390D01*
X144006808Y-95066390D01*
X144006812Y-95066391D01*
X144006814Y-95066392D01*
X144134108Y-95100500D01*
X144134110Y-95100500D01*
X145865890Y-95100500D01*
X145865892Y-95100500D01*
X145993186Y-95066392D01*
X145993188Y-95066390D01*
X145993190Y-95066390D01*
X146107309Y-95000503D01*
X146107309Y-95000502D01*
X146107314Y-95000500D01*
X146446325Y-94661489D01*
X146578319Y-94529496D01*
X146632835Y-94501719D01*
X146648322Y-94500500D01*
X149463761Y-94500500D01*
X149521952Y-94519407D01*
X149557916Y-94568907D01*
X149562761Y-94599500D01*
X149562761Y-94697369D01*
X149562761Y-94829153D01*
X149583566Y-94906800D01*
X149596870Y-94956451D01*
X149662757Y-95070570D01*
X149662761Y-95070575D01*
X149822682Y-95230497D01*
X149850459Y-95285013D01*
X149840888Y-95345445D01*
X149797623Y-95388710D01*
X149752678Y-95399500D01*
X137765892Y-95399500D01*
X137634107Y-95399500D01*
X137556200Y-95420374D01*
X137506809Y-95433609D01*
X137392690Y-95499496D01*
X132721682Y-100170504D01*
X132667165Y-100198281D01*
X132651678Y-100199500D01*
X130265892Y-100199500D01*
X130134107Y-100199500D01*
X130056200Y-100220374D01*
X130006809Y-100233609D01*
X129892690Y-100299496D01*
X129892684Y-100299500D01*
X129892685Y-100299501D01*
X124221682Y-105970504D01*
X124167165Y-105998281D01*
X124151678Y-105999500D01*
X124131004Y-105999500D01*
X123995672Y-106026420D01*
X123995670Y-106026420D01*
X123868193Y-106079222D01*
X123868182Y-106079228D01*
X123753458Y-106155885D01*
X123655885Y-106253458D01*
X123579228Y-106368182D01*
X123579222Y-106368193D01*
X123526420Y-106495670D01*
X123526420Y-106495672D01*
X123499500Y-106631004D01*
X123499500Y-106750500D01*
X123480593Y-106808691D01*
X123431093Y-106844655D01*
X123400501Y-106849500D01*
X123278479Y-106849500D01*
X123278476Y-106849501D01*
X123184700Y-106864352D01*
X123184695Y-106864354D01*
X123071659Y-106921949D01*
X122981949Y-107011659D01*
X122924354Y-107124695D01*
X122909500Y-107218478D01*
X122909500Y-108981521D01*
X122909501Y-108981523D01*
X122924352Y-109075299D01*
X122924354Y-109075304D01*
X122981950Y-109188342D01*
X123071658Y-109278050D01*
X123184696Y-109335646D01*
X123278481Y-109350500D01*
X125041518Y-109350499D01*
X125041521Y-109350499D01*
X125041522Y-109350498D01*
X125088411Y-109343072D01*
X125135299Y-109335647D01*
X125135299Y-109335646D01*
X125135304Y-109335646D01*
X125248342Y-109278050D01*
X125338050Y-109188342D01*
X125395646Y-109075304D01*
X125410500Y-108981519D01*
X125410499Y-108736039D01*
X125429406Y-108677852D01*
X125478906Y-108641888D01*
X125540091Y-108641887D01*
X125589591Y-108677851D01*
X125597708Y-108691097D01*
X125630469Y-108755394D01*
X125630473Y-108755401D01*
X125630474Y-108755402D01*
X125630476Y-108755405D01*
X125746172Y-108914646D01*
X125885354Y-109053828D01*
X126044595Y-109169524D01*
X126219975Y-109258884D01*
X126407174Y-109319709D01*
X126407175Y-109319709D01*
X126407178Y-109319710D01*
X126601580Y-109350500D01*
X126601583Y-109350500D01*
X126798420Y-109350500D01*
X126992821Y-109319710D01*
X126992822Y-109319709D01*
X126992826Y-109319709D01*
X127180025Y-109258884D01*
X127355405Y-109169524D01*
X127514646Y-109053828D01*
X127653828Y-108914646D01*
X127769524Y-108755405D01*
X127858884Y-108580025D01*
X127875845Y-108527823D01*
X127911809Y-108478324D01*
X127970000Y-108459417D01*
X128028191Y-108478324D01*
X128064155Y-108527824D01*
X128081116Y-108580025D01*
X128170473Y-108755401D01*
X128170476Y-108755405D01*
X128286172Y-108914646D01*
X128425354Y-109053828D01*
X128584595Y-109169524D01*
X128759975Y-109258884D01*
X128947174Y-109319709D01*
X128947175Y-109319709D01*
X128947178Y-109319710D01*
X129141580Y-109350500D01*
X129141583Y-109350500D01*
X129338420Y-109350500D01*
X129532821Y-109319710D01*
X129532822Y-109319709D01*
X129532826Y-109319709D01*
X129720025Y-109258884D01*
X129895405Y-109169524D01*
X129971320Y-109114367D01*
X130029508Y-109095461D01*
X130087699Y-109114368D01*
X130123663Y-109163867D01*
X130125136Y-109168838D01*
X130154398Y-109278050D01*
X130155973Y-109283926D01*
X130218703Y-109392575D01*
X130218705Y-109392578D01*
X130507422Y-109681295D01*
X130507424Y-109681296D01*
X130587682Y-109727634D01*
X130628622Y-109773104D01*
X130635017Y-109833954D01*
X130604424Y-109886942D01*
X130548529Y-109911828D01*
X130537253Y-109912366D01*
X118576780Y-109800197D01*
X118576780Y-109800196D01*
X118568191Y-109800115D01*
X118565892Y-109799500D01*
X118502356Y-109799500D01*
X118501860Y-109799495D01*
X118501857Y-109799494D01*
X118501635Y-109799493D01*
X118501574Y-109799492D01*
X118501195Y-109799488D01*
X118497508Y-109799376D01*
X118161839Y-109782887D01*
X118152170Y-109781934D01*
X117822096Y-109732972D01*
X117812567Y-109731077D01*
X117488868Y-109649995D01*
X117479571Y-109647175D01*
X117165378Y-109534754D01*
X117156402Y-109531036D01*
X116854741Y-109388361D01*
X116846173Y-109383781D01*
X116559950Y-109212226D01*
X116551872Y-109206828D01*
X116283849Y-109008048D01*
X116276339Y-109001885D01*
X116029083Y-108777786D01*
X116022218Y-108770921D01*
X115798114Y-108523660D01*
X115791951Y-108516150D01*
X115607279Y-108267149D01*
X115593169Y-108248125D01*
X115587773Y-108240049D01*
X115458223Y-108023908D01*
X115416216Y-107953823D01*
X115411638Y-107945258D01*
X115314833Y-107740582D01*
X115268961Y-107643594D01*
X115265245Y-107634621D01*
X115251032Y-107594898D01*
X115152820Y-107320415D01*
X115150008Y-107311144D01*
X115068919Y-106987421D01*
X115067029Y-106977915D01*
X115018063Y-106647815D01*
X115017113Y-106638175D01*
X115000619Y-106302427D01*
X115000503Y-106298312D01*
X115000500Y-106297912D01*
X115000500Y-106234108D01*
X115000007Y-106232271D01*
X114942853Y-98580000D01*
X115827643Y-98580000D01*
X116302692Y-98580000D01*
X116282944Y-98614204D01*
X116262500Y-98690504D01*
X116262500Y-98769496D01*
X116282944Y-98845796D01*
X116302692Y-98880000D01*
X115827643Y-98880000D01*
X115841322Y-98948767D01*
X115897858Y-99085257D01*
X115979934Y-99208093D01*
X116084406Y-99312565D01*
X116207242Y-99394641D01*
X116343729Y-99451176D01*
X116343735Y-99451178D01*
X116488628Y-99479999D01*
X116488632Y-99480000D01*
X116812499Y-99480000D01*
X116812500Y-99479999D01*
X116812500Y-99030000D01*
X117112500Y-99030000D01*
X117112500Y-99479999D01*
X117112501Y-99480000D01*
X117436368Y-99480000D01*
X117436371Y-99479999D01*
X117581264Y-99451178D01*
X117581270Y-99451176D01*
X117717757Y-99394641D01*
X117840593Y-99312565D01*
X117945065Y-99208093D01*
X118027141Y-99085257D01*
X118083677Y-98948767D01*
X118097357Y-98880000D01*
X117622308Y-98880000D01*
X117642056Y-98845796D01*
X117662500Y-98769496D01*
X117662500Y-98690504D01*
X117642056Y-98614204D01*
X117622308Y-98580000D01*
X118097357Y-98580000D01*
X119857643Y-98580000D01*
X120332692Y-98580000D01*
X120312944Y-98614204D01*
X120292500Y-98690504D01*
X120292500Y-98769496D01*
X120312944Y-98845796D01*
X120332692Y-98880000D01*
X119857643Y-98880000D01*
X119871322Y-98948767D01*
X119927858Y-99085257D01*
X120009934Y-99208093D01*
X120114406Y-99312565D01*
X120237242Y-99394641D01*
X120373729Y-99451176D01*
X120373735Y-99451178D01*
X120518628Y-99479999D01*
X120518632Y-99480000D01*
X120992499Y-99480000D01*
X120992500Y-99479999D01*
X120992500Y-99030000D01*
X121292500Y-99030000D01*
X121292500Y-99479999D01*
X121292501Y-99480000D01*
X121766368Y-99480000D01*
X121766371Y-99479999D01*
X121911264Y-99451178D01*
X121911270Y-99451176D01*
X122047757Y-99394641D01*
X122170593Y-99312565D01*
X122275065Y-99208093D01*
X122357141Y-99085257D01*
X122413677Y-98948767D01*
X122427357Y-98880000D01*
X121952308Y-98880000D01*
X121972056Y-98845796D01*
X121992500Y-98769496D01*
X121992500Y-98690504D01*
X121972056Y-98614204D01*
X121952308Y-98580000D01*
X122427357Y-98580000D01*
X122413677Y-98511232D01*
X122357141Y-98374742D01*
X122275065Y-98251906D01*
X122170593Y-98147434D01*
X122047757Y-98065358D01*
X121911270Y-98008823D01*
X121911264Y-98008821D01*
X121766371Y-97980000D01*
X121292501Y-97980000D01*
X121292500Y-97980001D01*
X121292500Y-98430000D01*
X120992500Y-98430000D01*
X120992500Y-97980001D01*
X120992499Y-97980000D01*
X120809786Y-97980000D01*
X120751595Y-97961093D01*
X120715631Y-97911593D01*
X120715631Y-97850407D01*
X120751595Y-97800907D01*
X120784160Y-97785374D01*
X120837616Y-97771051D01*
X120837618Y-97771049D01*
X120837620Y-97771049D01*
X120901603Y-97734108D01*
X120952884Y-97704501D01*
X121047001Y-97610384D01*
X121113551Y-97495116D01*
X121148000Y-97366550D01*
X121148000Y-97233450D01*
X121113551Y-97104884D01*
X121113549Y-97104881D01*
X121113549Y-97104879D01*
X121056887Y-97006739D01*
X121047001Y-96989616D01*
X120952884Y-96895499D01*
X120952881Y-96895497D01*
X120837619Y-96828950D01*
X120837621Y-96828950D01*
X120787735Y-96815583D01*
X120709050Y-96794500D01*
X120575950Y-96794500D01*
X120497264Y-96815583D01*
X120447379Y-96828950D01*
X120332118Y-96895497D01*
X120237997Y-96989618D01*
X120171450Y-97104879D01*
X120171449Y-97104884D01*
X120137000Y-97233450D01*
X120137000Y-97366550D01*
X120153121Y-97426715D01*
X120171450Y-97495120D01*
X120227781Y-97592686D01*
X120237999Y-97610384D01*
X120332116Y-97704501D01*
X120332118Y-97704502D01*
X120447380Y-97771049D01*
X120447378Y-97771049D01*
X120447382Y-97771050D01*
X120447384Y-97771051D01*
X120515180Y-97789216D01*
X120566493Y-97822540D01*
X120588420Y-97879662D01*
X120572584Y-97938762D01*
X120525035Y-97977267D01*
X120508870Y-97981941D01*
X120373735Y-98008821D01*
X120373729Y-98008823D01*
X120237242Y-98065358D01*
X120114406Y-98147434D01*
X120009934Y-98251906D01*
X119927858Y-98374742D01*
X119871322Y-98511232D01*
X119857643Y-98580000D01*
X118097357Y-98580000D01*
X118083677Y-98511232D01*
X118027141Y-98374742D01*
X117945065Y-98251906D01*
X117840593Y-98147434D01*
X117717757Y-98065358D01*
X117581270Y-98008823D01*
X117581264Y-98008821D01*
X117436371Y-97980000D01*
X117112501Y-97980000D01*
X117112500Y-97980001D01*
X117112500Y-98430000D01*
X116812500Y-98430000D01*
X116812500Y-97980001D01*
X116812499Y-97980000D01*
X116488628Y-97980000D01*
X116343735Y-98008821D01*
X116343729Y-98008823D01*
X116207242Y-98065358D01*
X116084406Y-98147434D01*
X115979934Y-98251906D01*
X115897858Y-98374742D01*
X115841322Y-98511232D01*
X115827643Y-98580000D01*
X114942853Y-98580000D01*
X114902155Y-93131004D01*
X118699500Y-93131004D01*
X118699500Y-93131007D01*
X118699500Y-93268993D01*
X118724254Y-93393441D01*
X118726420Y-93404327D01*
X118726420Y-93404329D01*
X118779222Y-93531806D01*
X118779228Y-93531817D01*
X118855885Y-93646541D01*
X118953458Y-93744114D01*
X119068182Y-93820771D01*
X119068193Y-93820777D01*
X119081216Y-93826171D01*
X119195672Y-93873580D01*
X119331007Y-93900500D01*
X119331008Y-93900500D01*
X119468992Y-93900500D01*
X119468993Y-93900500D01*
X119604328Y-93873580D01*
X119731811Y-93820775D01*
X119731813Y-93820773D01*
X119731818Y-93820771D01*
X119792660Y-93780117D01*
X119846542Y-93744114D01*
X119846552Y-93744103D01*
X119850300Y-93741029D01*
X119850898Y-93741758D01*
X119890554Y-93718860D01*
X119912485Y-93712984D01*
X119922469Y-93707220D01*
X119935842Y-93699500D01*
X119998370Y-93663398D01*
X120038015Y-93640510D01*
X120559033Y-93119490D01*
X120609720Y-93092398D01*
X120704328Y-93073580D01*
X120831811Y-93020775D01*
X120946542Y-92944114D01*
X121044114Y-92846542D01*
X121120775Y-92731811D01*
X121173580Y-92604328D01*
X121200500Y-92468993D01*
X121200500Y-92331007D01*
X121173580Y-92195672D01*
X121129800Y-92089977D01*
X121120777Y-92068193D01*
X121120771Y-92068182D01*
X121074532Y-91998982D01*
X121044114Y-91953458D01*
X121044112Y-91953456D01*
X121041412Y-91949415D01*
X121043349Y-91948120D01*
X121024345Y-91899570D01*
X121039792Y-91840366D01*
X121044639Y-91833460D01*
X121046989Y-91830395D01*
X121047001Y-91830384D01*
X121113551Y-91715116D01*
X121148000Y-91586550D01*
X121148000Y-91453450D01*
X121113551Y-91324884D01*
X121113549Y-91324881D01*
X121113549Y-91324879D01*
X121047002Y-91209618D01*
X121047001Y-91209616D01*
X120952884Y-91115499D01*
X120942629Y-91109578D01*
X120837619Y-91048950D01*
X120837621Y-91048950D01*
X120818763Y-91043897D01*
X120784161Y-91034625D01*
X120732849Y-91001303D01*
X120710922Y-90944182D01*
X120726757Y-90885081D01*
X120774307Y-90846576D01*
X120809786Y-90840000D01*
X120992499Y-90840000D01*
X120992500Y-90839999D01*
X120992500Y-90390000D01*
X121292500Y-90390000D01*
X121292500Y-90839999D01*
X121292501Y-90840000D01*
X121766368Y-90840000D01*
X121766371Y-90839999D01*
X121911264Y-90811178D01*
X121911270Y-90811176D01*
X122047757Y-90754641D01*
X122170593Y-90672565D01*
X122275065Y-90568093D01*
X122357141Y-90445257D01*
X122413677Y-90308767D01*
X122427357Y-90240000D01*
X121952308Y-90240000D01*
X121972056Y-90205796D01*
X121992500Y-90129496D01*
X121992500Y-90050504D01*
X121972056Y-89974204D01*
X121952308Y-89940000D01*
X122427357Y-89940000D01*
X122413677Y-89871232D01*
X122357141Y-89734742D01*
X122275065Y-89611906D01*
X122170593Y-89507434D01*
X122047757Y-89425358D01*
X121911270Y-89368823D01*
X121911264Y-89368821D01*
X121766371Y-89340000D01*
X121292501Y-89340000D01*
X121292500Y-89340001D01*
X121292500Y-89790000D01*
X120992500Y-89790000D01*
X120992500Y-89340001D01*
X120992499Y-89340000D01*
X120518628Y-89340000D01*
X120373735Y-89368821D01*
X120373729Y-89368823D01*
X120237242Y-89425358D01*
X120114406Y-89507434D01*
X120009934Y-89611906D01*
X119927858Y-89734742D01*
X119871322Y-89871232D01*
X119857643Y-89940000D01*
X120332692Y-89940000D01*
X120312944Y-89974204D01*
X120292500Y-90050504D01*
X120292500Y-90129496D01*
X120312944Y-90205796D01*
X120332692Y-90240000D01*
X119857643Y-90240000D01*
X119871322Y-90308767D01*
X119927858Y-90445257D01*
X120009934Y-90568093D01*
X120114406Y-90672565D01*
X120237242Y-90754641D01*
X120373729Y-90811176D01*
X120373735Y-90811178D01*
X120508870Y-90838058D01*
X120562254Y-90867955D01*
X120587870Y-90923520D01*
X120575933Y-90983529D01*
X120531003Y-91025062D01*
X120515180Y-91030782D01*
X120447384Y-91048948D01*
X120447380Y-91048950D01*
X120332118Y-91115497D01*
X120237997Y-91209618D01*
X120171450Y-91324879D01*
X120159844Y-91368193D01*
X120137000Y-91453450D01*
X120137000Y-91586550D01*
X120156782Y-91660378D01*
X120167162Y-91699117D01*
X120163959Y-91760219D01*
X120126538Y-91807055D01*
X120120398Y-91811158D01*
X120069580Y-91845114D01*
X120053454Y-91855889D01*
X119955885Y-91953458D01*
X119879228Y-92068182D01*
X119879222Y-92068193D01*
X119826420Y-92195671D01*
X119807601Y-92290277D01*
X119780507Y-92340966D01*
X119634010Y-92487463D01*
X119579493Y-92515240D01*
X119544692Y-92514557D01*
X119468996Y-92499500D01*
X119468993Y-92499500D01*
X119331007Y-92499500D01*
X119331004Y-92499500D01*
X119195672Y-92526420D01*
X119195670Y-92526420D01*
X119068193Y-92579222D01*
X119068182Y-92579228D01*
X118953458Y-92655885D01*
X118855885Y-92753458D01*
X118779228Y-92868182D01*
X118779222Y-92868193D01*
X118726420Y-92995670D01*
X118726420Y-92995672D01*
X118699500Y-93131004D01*
X114902155Y-93131004D01*
X114878321Y-89940000D01*
X115827643Y-89940000D01*
X116302692Y-89940000D01*
X116282944Y-89974204D01*
X116262500Y-90050504D01*
X116262500Y-90129496D01*
X116282944Y-90205796D01*
X116302692Y-90240000D01*
X115827643Y-90240000D01*
X115841322Y-90308767D01*
X115897858Y-90445257D01*
X115979934Y-90568093D01*
X116084406Y-90672565D01*
X116207242Y-90754641D01*
X116343729Y-90811176D01*
X116343735Y-90811178D01*
X116488628Y-90839999D01*
X116488632Y-90840000D01*
X116812499Y-90840000D01*
X116812500Y-90839999D01*
X116812500Y-90390000D01*
X117112500Y-90390000D01*
X117112500Y-90839999D01*
X117112501Y-90840000D01*
X117436368Y-90840000D01*
X117436371Y-90839999D01*
X117581264Y-90811178D01*
X117581270Y-90811176D01*
X117717757Y-90754641D01*
X117840593Y-90672565D01*
X117945065Y-90568093D01*
X118027141Y-90445257D01*
X118083677Y-90308767D01*
X118097357Y-90240000D01*
X117622308Y-90240000D01*
X117642056Y-90205796D01*
X117662500Y-90129496D01*
X117662500Y-90050504D01*
X117642056Y-89974204D01*
X117622308Y-89940000D01*
X118097357Y-89940000D01*
X118083677Y-89871232D01*
X118027141Y-89734742D01*
X117945065Y-89611906D01*
X117840593Y-89507434D01*
X117717757Y-89425358D01*
X117581270Y-89368823D01*
X117581264Y-89368821D01*
X117436371Y-89340000D01*
X117112501Y-89340000D01*
X117112500Y-89340001D01*
X117112500Y-89790000D01*
X116812500Y-89790000D01*
X116812500Y-89340001D01*
X116812499Y-89340000D01*
X116488628Y-89340000D01*
X116343735Y-89368821D01*
X116343729Y-89368823D01*
X116207242Y-89425358D01*
X116084406Y-89507434D01*
X115979934Y-89611906D01*
X115897858Y-89734742D01*
X115841322Y-89871232D01*
X115827643Y-89940000D01*
X114878321Y-89940000D01*
X114828959Y-83330944D01*
X114829074Y-83325418D01*
X114845537Y-82990266D01*
X114846489Y-82980603D01*
X114846491Y-82980593D01*
X114895453Y-82650503D01*
X114897348Y-82640980D01*
X114902751Y-82619411D01*
X114978430Y-82317277D01*
X114981240Y-82308011D01*
X115093672Y-81993781D01*
X115097375Y-81984841D01*
X115240068Y-81683140D01*
X115244625Y-81674614D01*
X115416193Y-81388368D01*
X115421579Y-81380307D01*
X115620375Y-81112260D01*
X115626539Y-81104752D01*
X115630846Y-81100000D01*
X115850647Y-80857486D01*
X115857486Y-80850647D01*
X116104764Y-80626527D01*
X116112262Y-80620375D01*
X116380307Y-80421579D01*
X116388368Y-80416193D01*
X116674614Y-80244625D01*
X116683140Y-80240068D01*
X116984841Y-80097375D01*
X116993781Y-80093672D01*
X117308011Y-79981240D01*
X117317277Y-79978430D01*
X117640981Y-79897347D01*
X117650503Y-79895453D01*
X117980609Y-79846488D01*
X117990266Y-79845537D01*
X118325784Y-79829055D01*
X118330969Y-79828938D01*
X166427821Y-80000245D01*
G37*
%TD.AperFunction*%
%TA.AperFunction,Conductor*%
G36*
X146445445Y-103759111D02*
G01*
X146488710Y-103802376D01*
X146499500Y-103847321D01*
X146499500Y-106168836D01*
X146480593Y-106227027D01*
X146470504Y-106238840D01*
X146455889Y-106253454D01*
X146455885Y-106253458D01*
X146379228Y-106368182D01*
X146379222Y-106368193D01*
X146326420Y-106495670D01*
X146326420Y-106495672D01*
X146299500Y-106631004D01*
X146299500Y-106768995D01*
X146312717Y-106835438D01*
X146326419Y-106904325D01*
X146326420Y-106904327D01*
X146326420Y-106904329D01*
X146345549Y-106950510D01*
X146350350Y-107011507D01*
X146318380Y-107063675D01*
X146312276Y-107068487D01*
X146205359Y-107146167D01*
X146066171Y-107285355D01*
X145950474Y-107444597D01*
X145861114Y-107619978D01*
X145861112Y-107619981D01*
X145844154Y-107672175D01*
X145808190Y-107721675D01*
X145749999Y-107740582D01*
X145691809Y-107721674D01*
X145655846Y-107672175D01*
X145638887Y-107619981D01*
X145638885Y-107619978D01*
X145638884Y-107619977D01*
X145638884Y-107619975D01*
X145549524Y-107444595D01*
X145433828Y-107285354D01*
X145294646Y-107146172D01*
X145187722Y-107068486D01*
X145151759Y-107018987D01*
X145151759Y-106957802D01*
X145154437Y-106950542D01*
X145173580Y-106904328D01*
X145200500Y-106768993D01*
X145200500Y-106631007D01*
X145173580Y-106495672D01*
X145120775Y-106368189D01*
X145120774Y-106368187D01*
X145120771Y-106368182D01*
X145044114Y-106253458D01*
X145029496Y-106238840D01*
X145001719Y-106184323D01*
X145000500Y-106168836D01*
X145000500Y-105148321D01*
X145019407Y-105090130D01*
X145029490Y-105078323D01*
X146330496Y-103777316D01*
X146385013Y-103749540D01*
X146445445Y-103759111D01*
G37*
%TD.AperFunction*%
%TA.AperFunction,Conductor*%
G36*
X151217291Y-104710676D02*
G01*
X151251312Y-104761531D01*
X151253142Y-104807771D01*
X151249500Y-104826078D01*
X151249500Y-104973918D01*
X151278342Y-105118914D01*
X151311722Y-105199500D01*
X151334916Y-105255495D01*
X151417049Y-105378416D01*
X151521584Y-105482951D01*
X151644505Y-105565084D01*
X151781087Y-105621658D01*
X151926082Y-105650500D01*
X151926083Y-105650500D01*
X152073917Y-105650500D01*
X152073918Y-105650500D01*
X152212914Y-105622851D01*
X152273675Y-105630041D01*
X152318605Y-105671573D01*
X152330543Y-105731583D01*
X152304928Y-105787148D01*
X152302233Y-105789951D01*
X152121682Y-105970503D01*
X152067165Y-105998281D01*
X152051678Y-105999500D01*
X152031004Y-105999500D01*
X151895672Y-106026420D01*
X151895670Y-106026420D01*
X151768193Y-106079222D01*
X151768182Y-106079228D01*
X151653458Y-106155885D01*
X151555885Y-106253458D01*
X151479228Y-106368182D01*
X151479222Y-106368193D01*
X151426420Y-106495670D01*
X151426420Y-106495672D01*
X151399500Y-106631004D01*
X151399500Y-106768995D01*
X151426419Y-106904326D01*
X151440923Y-106939342D01*
X151445722Y-107000339D01*
X151413752Y-107052507D01*
X151407649Y-107057318D01*
X151285359Y-107146167D01*
X151146171Y-107285355D01*
X151030474Y-107444597D01*
X150941114Y-107619978D01*
X150941112Y-107619981D01*
X150924154Y-107672175D01*
X150888190Y-107721675D01*
X150829999Y-107740582D01*
X150771809Y-107721674D01*
X150735846Y-107672175D01*
X150718887Y-107619981D01*
X150718885Y-107619978D01*
X150718884Y-107619977D01*
X150718884Y-107619975D01*
X150629524Y-107444595D01*
X150513828Y-107285354D01*
X150374646Y-107146172D01*
X150283095Y-107079656D01*
X150247133Y-107030157D01*
X150247133Y-106968972D01*
X150249819Y-106961690D01*
X150273580Y-106904328D01*
X150300500Y-106768993D01*
X150300500Y-106631007D01*
X150273580Y-106495672D01*
X150220775Y-106368189D01*
X150220774Y-106368187D01*
X150220771Y-106368182D01*
X150144114Y-106253458D01*
X150046541Y-106155885D01*
X149931817Y-106079228D01*
X149931806Y-106079222D01*
X149804328Y-106026420D01*
X149668995Y-105999500D01*
X149668993Y-105999500D01*
X149648322Y-105999500D01*
X149590131Y-105980593D01*
X149578318Y-105970504D01*
X148688996Y-105081182D01*
X148685369Y-105074064D01*
X148678907Y-105069369D01*
X148671743Y-105047320D01*
X148661219Y-105026665D01*
X148660000Y-105011178D01*
X148660000Y-104999500D01*
X148678907Y-104941309D01*
X148728407Y-104905345D01*
X148759000Y-104900500D01*
X148836417Y-104900500D01*
X148836418Y-104900500D01*
X148981413Y-104871658D01*
X149117995Y-104815084D01*
X149122284Y-104812792D01*
X149123266Y-104814630D01*
X149169853Y-104800500D01*
X150826568Y-104800500D01*
X150826569Y-104800500D01*
X150952244Y-104775501D01*
X151070627Y-104726465D01*
X151100037Y-104706814D01*
X151100998Y-104706171D01*
X151159876Y-104689531D01*
X151217291Y-104710676D01*
G37*
%TD.AperFunction*%
%TA.AperFunction,Conductor*%
G36*
X132770598Y-101219407D02*
G01*
X132806562Y-101268907D01*
X132806562Y-101330093D01*
X132782411Y-101369504D01*
X127981411Y-106170504D01*
X127926894Y-106198281D01*
X127911407Y-106199500D01*
X127131164Y-106199500D01*
X127072973Y-106180593D01*
X127061160Y-106170504D01*
X127046541Y-106155885D01*
X126931817Y-106079228D01*
X126931806Y-106079222D01*
X126804328Y-106026420D01*
X126668995Y-105999500D01*
X126668993Y-105999500D01*
X126531007Y-105999500D01*
X126531004Y-105999500D01*
X126395672Y-106026420D01*
X126395670Y-106026420D01*
X126268193Y-106079222D01*
X126268182Y-106079228D01*
X126153458Y-106155885D01*
X126055885Y-106253458D01*
X125979228Y-106368182D01*
X125979222Y-106368193D01*
X125926420Y-106495670D01*
X125926420Y-106495672D01*
X125899500Y-106631004D01*
X125899500Y-106768995D01*
X125912717Y-106835438D01*
X125926419Y-106904325D01*
X125926420Y-106904327D01*
X125926420Y-106904329D01*
X125964055Y-106995188D01*
X125968856Y-107056185D01*
X125936886Y-107108353D01*
X125930783Y-107113165D01*
X125885356Y-107146170D01*
X125746171Y-107285355D01*
X125630473Y-107444598D01*
X125630469Y-107444605D01*
X125597708Y-107508903D01*
X125554444Y-107552168D01*
X125494012Y-107561739D01*
X125439495Y-107533961D01*
X125411718Y-107479445D01*
X125410499Y-107463958D01*
X125410499Y-107218478D01*
X125410498Y-107218476D01*
X125395647Y-107124700D01*
X125395646Y-107124698D01*
X125395646Y-107124696D01*
X125338050Y-107011658D01*
X125248342Y-106921950D01*
X125135304Y-106864354D01*
X125135305Y-106864354D01*
X125041522Y-106849500D01*
X125041519Y-106849500D01*
X124999500Y-106849500D01*
X124984588Y-106844655D01*
X124968907Y-106844655D01*
X124956221Y-106835438D01*
X124941309Y-106830593D01*
X124932092Y-106817907D01*
X124919407Y-106808691D01*
X124914561Y-106793778D01*
X124905345Y-106781093D01*
X124900500Y-106750500D01*
X124900500Y-106748322D01*
X124919407Y-106690131D01*
X124929496Y-106678318D01*
X130378318Y-101229496D01*
X130432835Y-101201719D01*
X130448322Y-101200500D01*
X132712407Y-101200500D01*
X132770598Y-101219407D01*
G37*
%TD.AperFunction*%
%TA.AperFunction,Conductor*%
G36*
X142434869Y-103595407D02*
G01*
X142470833Y-103644907D01*
X142470833Y-103706093D01*
X142446682Y-103745504D01*
X139957798Y-106234387D01*
X139903281Y-106262164D01*
X139842849Y-106252593D01*
X139832792Y-106246698D01*
X139731818Y-106179228D01*
X139731806Y-106179222D01*
X139604328Y-106126420D01*
X139468995Y-106099500D01*
X139468993Y-106099500D01*
X139331007Y-106099500D01*
X139331004Y-106099500D01*
X139195672Y-106126420D01*
X139195670Y-106126420D01*
X139068193Y-106179222D01*
X139068182Y-106179228D01*
X138953458Y-106255885D01*
X138855885Y-106353458D01*
X138779228Y-106468182D01*
X138779222Y-106468193D01*
X138726420Y-106595670D01*
X138726420Y-106595672D01*
X138699500Y-106731004D01*
X138699500Y-106868996D01*
X138720895Y-106976555D01*
X138718009Y-107000937D01*
X138718263Y-107025486D01*
X138714480Y-107030749D01*
X138713703Y-107037316D01*
X138682813Y-107075355D01*
X138682322Y-107075719D01*
X138585354Y-107146172D01*
X138579360Y-107152165D01*
X138573516Y-107156505D01*
X138551081Y-107164052D01*
X138529987Y-107174800D01*
X138522607Y-107173631D01*
X138515524Y-107176014D01*
X138492934Y-107168931D01*
X138469555Y-107165229D01*
X138464271Y-107159945D01*
X138457141Y-107157710D01*
X138443029Y-107138703D01*
X138426290Y-107121964D01*
X138424229Y-107113382D01*
X138420667Y-107108584D01*
X138420558Y-107098089D01*
X138415500Y-107077019D01*
X138415500Y-105799381D01*
X138434407Y-105741190D01*
X138444496Y-105729377D01*
X139644377Y-104529496D01*
X139698894Y-104501719D01*
X139714381Y-104500500D01*
X139768992Y-104500500D01*
X139768993Y-104500500D01*
X139904328Y-104473580D01*
X140031811Y-104420775D01*
X140146542Y-104344114D01*
X140244114Y-104246542D01*
X140320775Y-104131811D01*
X140373580Y-104004328D01*
X140400500Y-103868993D01*
X140400500Y-103731007D01*
X140393301Y-103694814D01*
X140400493Y-103634053D01*
X140442026Y-103589123D01*
X140490399Y-103576500D01*
X140737268Y-103576500D01*
X142376678Y-103576500D01*
X142434869Y-103595407D01*
G37*
%TD.AperFunction*%
%TA.AperFunction,Conductor*%
G36*
X138928276Y-103582567D02*
G01*
X138947845Y-103584185D01*
X138956690Y-103591799D01*
X138967792Y-103595407D01*
X138979335Y-103611294D01*
X138994214Y-103624104D01*
X138996894Y-103635462D01*
X139003756Y-103644907D01*
X139005299Y-103671087D01*
X139008265Y-103683654D01*
X139007799Y-103689280D01*
X138999500Y-103731007D01*
X138999500Y-103789707D01*
X138999164Y-103793773D01*
X138988845Y-103818409D01*
X138980593Y-103843810D01*
X138977164Y-103846300D01*
X138975528Y-103850209D01*
X138970504Y-103855623D01*
X137557701Y-105268426D01*
X137494971Y-105377076D01*
X137494972Y-105377077D01*
X137462500Y-105498268D01*
X137462500Y-106148150D01*
X137443593Y-106206341D01*
X137394093Y-106242305D01*
X137332907Y-106242305D01*
X137308498Y-106230465D01*
X137231818Y-106179228D01*
X137231806Y-106179222D01*
X137104328Y-106126420D01*
X136968995Y-106099500D01*
X136968993Y-106099500D01*
X136831007Y-106099500D01*
X136831004Y-106099500D01*
X136695672Y-106126420D01*
X136695670Y-106126420D01*
X136568193Y-106179222D01*
X136568182Y-106179228D01*
X136453458Y-106255885D01*
X136453454Y-106255889D01*
X136414840Y-106294504D01*
X136360323Y-106322281D01*
X136344836Y-106323500D01*
X133762732Y-106323500D01*
X133637268Y-106323500D01*
X133530386Y-106352137D01*
X133516073Y-106355973D01*
X133407424Y-106418703D01*
X132718702Y-107107425D01*
X132714754Y-107112571D01*
X132712534Y-107110867D01*
X132705935Y-107116802D01*
X132693880Y-107133469D01*
X132683699Y-107136800D01*
X132675736Y-107143963D01*
X132655279Y-107146101D01*
X132635730Y-107152499D01*
X132625563Y-107149207D01*
X132614882Y-107150324D01*
X132577499Y-107133714D01*
X132435405Y-107030476D01*
X132433264Y-107029385D01*
X132428197Y-107025720D01*
X132412285Y-107003916D01*
X132394756Y-106983393D01*
X132394357Y-106979350D01*
X132392129Y-106976296D01*
X132392086Y-106956297D01*
X132389121Y-106926194D01*
X132400500Y-106868993D01*
X132400500Y-106814380D01*
X132419407Y-106756189D01*
X132429496Y-106744376D01*
X135568376Y-103605496D01*
X135622893Y-103577719D01*
X135638380Y-103576500D01*
X138909601Y-103576500D01*
X138928276Y-103582567D01*
G37*
%TD.AperFunction*%
%TA.AperFunction,Conductor*%
G36*
X138963869Y-96966407D02*
G01*
X138999833Y-97015907D01*
X138999833Y-97077093D01*
X138975682Y-97116504D01*
X129921682Y-106170504D01*
X129867165Y-106198281D01*
X129851678Y-106199500D01*
X129731164Y-106199500D01*
X129672973Y-106180593D01*
X129661160Y-106170504D01*
X129646545Y-106155889D01*
X129646542Y-106155886D01*
X129606038Y-106128822D01*
X129568160Y-106080773D01*
X129565758Y-106019635D01*
X129591035Y-105976506D01*
X138591047Y-96976496D01*
X138645564Y-96948719D01*
X138661051Y-96947500D01*
X138905678Y-96947500D01*
X138963869Y-96966407D01*
G37*
%TD.AperFunction*%
%TA.AperFunction,Conductor*%
G36*
X155391956Y-102254387D02*
G01*
X155407444Y-102256840D01*
X155432503Y-102275046D01*
X155455902Y-102298445D01*
X155476485Y-102334091D01*
X155478126Y-102333412D01*
X155480609Y-102339407D01*
X155546496Y-102453527D01*
X155546498Y-102453529D01*
X155546500Y-102453532D01*
X156470505Y-103377537D01*
X156498281Y-103432052D01*
X156499500Y-103447539D01*
X156499500Y-103950378D01*
X156480593Y-104008569D01*
X156431093Y-104044533D01*
X156369907Y-104044533D01*
X156345626Y-104031252D01*
X156344959Y-104032251D01*
X156340917Y-104029550D01*
X156340916Y-104029549D01*
X156217995Y-103947416D01*
X156217993Y-103947415D01*
X156081414Y-103890842D01*
X155936418Y-103862000D01*
X155788582Y-103862000D01*
X155788581Y-103862000D01*
X155643585Y-103890842D01*
X155507006Y-103947415D01*
X155384085Y-104029548D01*
X155279548Y-104134085D01*
X155197415Y-104257006D01*
X155183175Y-104291385D01*
X155143439Y-104337911D01*
X155091711Y-104352500D01*
X153867381Y-104352500D01*
X153809190Y-104333593D01*
X153797378Y-104323504D01*
X153692578Y-104218705D01*
X153692576Y-104218703D01*
X153583926Y-104155973D01*
X153583923Y-104155972D01*
X153462732Y-104123500D01*
X152862732Y-104123500D01*
X152737268Y-104123500D01*
X152640232Y-104149500D01*
X152616073Y-104155973D01*
X152507424Y-104218703D01*
X152494299Y-104231828D01*
X152439781Y-104259604D01*
X152379349Y-104250030D01*
X152369295Y-104244137D01*
X152355492Y-104234914D01*
X152218914Y-104178342D01*
X152073918Y-104149500D01*
X151957520Y-104149500D01*
X151899329Y-104130593D01*
X151863365Y-104081093D01*
X151863365Y-104019907D01*
X151866056Y-104012614D01*
X151884158Y-103968913D01*
X151913000Y-103823918D01*
X151913000Y-103676082D01*
X151884158Y-103531087D01*
X151827584Y-103394505D01*
X151745451Y-103271584D01*
X151640916Y-103167049D01*
X151517995Y-103084916D01*
X151517996Y-103084916D01*
X151517994Y-103084915D01*
X151411885Y-103040964D01*
X151365359Y-103001228D01*
X151351075Y-102941733D01*
X151374489Y-102885205D01*
X151426658Y-102853235D01*
X151449770Y-102850500D01*
X154575619Y-102850500D01*
X154575621Y-102850500D01*
X154702915Y-102816392D01*
X154702917Y-102816390D01*
X154702919Y-102816390D01*
X154817038Y-102750503D01*
X154817038Y-102750502D01*
X154817043Y-102750500D01*
X155292497Y-102275045D01*
X155306465Y-102267928D01*
X155317554Y-102256840D01*
X155333042Y-102254387D01*
X155347012Y-102247269D01*
X155362499Y-102249721D01*
X155377986Y-102247269D01*
X155391956Y-102254387D01*
G37*
%TD.AperFunction*%
%TA.AperFunction,Conductor*%
G36*
X140768811Y-98095407D02*
G01*
X140804775Y-98144907D01*
X140804775Y-98206093D01*
X140780625Y-98245501D01*
X140056067Y-98970060D01*
X137913237Y-101112889D01*
X137862548Y-101139983D01*
X137734670Y-101165420D01*
X137607193Y-101218222D01*
X137607182Y-101218228D01*
X137492458Y-101294885D01*
X137394885Y-101392458D01*
X137318228Y-101507182D01*
X137318222Y-101507193D01*
X137265420Y-101634670D01*
X137265420Y-101634672D01*
X137238500Y-101770004D01*
X137238500Y-101907995D01*
X137265420Y-102043327D01*
X137265420Y-102043329D01*
X137318222Y-102170806D01*
X137318228Y-102170817D01*
X137394885Y-102285541D01*
X137492458Y-102383114D01*
X137580863Y-102442185D01*
X137618742Y-102490235D01*
X137621144Y-102551373D01*
X137587151Y-102602247D01*
X137529747Y-102623424D01*
X137525861Y-102623500D01*
X135689381Y-102623500D01*
X135631190Y-102604593D01*
X135595226Y-102555093D01*
X135595226Y-102493907D01*
X135619377Y-102454496D01*
X139968377Y-98105496D01*
X140022894Y-98077719D01*
X140038381Y-98076500D01*
X140710620Y-98076500D01*
X140768811Y-98095407D01*
G37*
%TD.AperFunction*%
%TA.AperFunction,Conductor*%
G36*
X145868811Y-98995407D02*
G01*
X145904775Y-99044907D01*
X145904775Y-99106093D01*
X145880624Y-99145504D01*
X142431623Y-102594504D01*
X142377106Y-102622281D01*
X142361619Y-102623500D01*
X138352139Y-102623500D01*
X138293948Y-102604593D01*
X138257984Y-102555093D01*
X138257984Y-102493907D01*
X138293948Y-102444407D01*
X138297137Y-102442185D01*
X138335656Y-102416446D01*
X138385542Y-102383114D01*
X138483114Y-102285542D01*
X138559775Y-102170811D01*
X138612580Y-102043328D01*
X138639500Y-101907993D01*
X138639500Y-101775380D01*
X138658407Y-101717189D01*
X138668496Y-101705376D01*
X141368377Y-99005496D01*
X141422894Y-98977719D01*
X141438381Y-98976500D01*
X145810620Y-98976500D01*
X145868811Y-98995407D01*
G37*
%TD.AperFunction*%
%TA.AperFunction,Conductor*%
G36*
X152074071Y-93065865D02*
G01*
X152098958Y-93121761D01*
X152099500Y-93132109D01*
X152099500Y-93800500D01*
X152080593Y-93858691D01*
X152031093Y-93894655D01*
X152000500Y-93899500D01*
X151931004Y-93899500D01*
X151795672Y-93926420D01*
X151795670Y-93926420D01*
X151668193Y-93979222D01*
X151668182Y-93979228D01*
X151590692Y-94031007D01*
X151553458Y-94055886D01*
X151553456Y-94055887D01*
X151549415Y-94058588D01*
X151548723Y-94057553D01*
X151496907Y-94077825D01*
X151437707Y-94062368D01*
X151398898Y-94015065D01*
X151393996Y-93998310D01*
X151388005Y-93968193D01*
X151373580Y-93895672D01*
X151320775Y-93768189D01*
X151320252Y-93766926D01*
X151319971Y-93766645D01*
X151319868Y-93766000D01*
X151318914Y-93763695D01*
X151319467Y-93763465D01*
X151315331Y-93737350D01*
X151310114Y-93708139D01*
X151310559Y-93707220D01*
X151310400Y-93706213D01*
X151323870Y-93679775D01*
X151336814Y-93653087D01*
X151338082Y-93651792D01*
X151355657Y-93634216D01*
X151376155Y-93618488D01*
X151407314Y-93600500D01*
X151900499Y-93107315D01*
X151908286Y-93093829D01*
X151914764Y-93082607D01*
X151960233Y-93041668D01*
X152021083Y-93035272D01*
X152074071Y-93065865D01*
G37*
%TD.AperFunction*%
%TA.AperFunction,Conductor*%
G36*
X137509869Y-83719407D02*
G01*
X137521682Y-83729496D01*
X137892687Y-84100500D01*
X138199498Y-84407311D01*
X138199500Y-84407314D01*
X138292686Y-84500500D01*
X138350031Y-84533608D01*
X138406814Y-84566392D01*
X138534107Y-84600500D01*
X138534108Y-84600500D01*
X142451678Y-84600500D01*
X142509869Y-84619407D01*
X142521682Y-84629496D01*
X143070504Y-85178318D01*
X143098281Y-85232835D01*
X143099500Y-85248322D01*
X143099500Y-88234108D01*
X143099500Y-88365892D01*
X143129579Y-88478151D01*
X143133609Y-88493190D01*
X143199496Y-88607309D01*
X143199498Y-88607311D01*
X143199500Y-88607314D01*
X143470505Y-88878319D01*
X143498281Y-88932834D01*
X143499500Y-88948321D01*
X143499500Y-88965892D01*
X143529579Y-89078151D01*
X143533609Y-89093190D01*
X143599496Y-89207309D01*
X143599497Y-89207310D01*
X143599498Y-89207311D01*
X143599500Y-89207314D01*
X145271408Y-90879222D01*
X146922682Y-92530496D01*
X146950459Y-92585013D01*
X146940888Y-92645445D01*
X146897623Y-92688710D01*
X146852678Y-92699500D01*
X145348322Y-92699500D01*
X145290131Y-92680593D01*
X145278318Y-92670504D01*
X139529496Y-86921682D01*
X139501719Y-86867165D01*
X139500500Y-86851678D01*
X139500500Y-86534109D01*
X139500500Y-86534108D01*
X139466392Y-86406814D01*
X139466390Y-86406811D01*
X139466390Y-86406809D01*
X139400503Y-86292690D01*
X139400501Y-86292688D01*
X139400500Y-86292686D01*
X139307314Y-86199500D01*
X139307311Y-86199498D01*
X137092878Y-83985065D01*
X137065101Y-83930548D01*
X137074672Y-83870116D01*
X137117937Y-83826851D01*
X137124982Y-83823603D01*
X137131811Y-83820775D01*
X137246542Y-83744114D01*
X137261160Y-83729496D01*
X137268277Y-83725869D01*
X137272973Y-83719407D01*
X137295021Y-83712243D01*
X137315677Y-83701719D01*
X137331164Y-83700500D01*
X137451678Y-83700500D01*
X137509869Y-83719407D01*
G37*
%TD.AperFunction*%
%TA.AperFunction,Conductor*%
G36*
X135909869Y-84219407D02*
G01*
X135921682Y-84229496D01*
X138470504Y-86778317D01*
X138498281Y-86832834D01*
X138499500Y-86848321D01*
X138499500Y-86892949D01*
X138480593Y-86951140D01*
X138431093Y-86987104D01*
X138369907Y-86987104D01*
X138330496Y-86962953D01*
X135737047Y-84369504D01*
X135726522Y-84348848D01*
X135712896Y-84330093D01*
X135712896Y-84322103D01*
X135709270Y-84314987D01*
X135712896Y-84292092D01*
X135712896Y-84268907D01*
X135717591Y-84262444D01*
X135718841Y-84254555D01*
X135735232Y-84238163D01*
X135748860Y-84219407D01*
X135756457Y-84216938D01*
X135762106Y-84211290D01*
X135807051Y-84200500D01*
X135851678Y-84200500D01*
X135909869Y-84219407D01*
G37*
%TD.AperFunction*%
%TD*%
M02*
