M48
; DRILL file {KiCad 9.0.4} date 2026-03-21T16:35:02+0530
; FORMAT={-:-/ absolute / metric / decimal}
; #@! TF.CreationDate,2026-03-21T16:35:02+05:30
; #@! TF.GenerationSoftware,Kicad,Pcbnew,9.0.4
; #@! TF.FileFunction,Plated,1,2,PTH
FMAT,2
METRIC
; #@! TA.AperFunction,Plated,PTH,ViaDrill
T1C0.300
; #@! TA.AperFunction,Plated,PTH,ComponentDrill
T2C0.500
; #@! TA.AperFunction,Plated,PTH,ComponentDrill
T3C0.600
; #@! TA.AperFunction,Plated,PTH,ComponentDrill
T4C1.000
; #@! TA.AperFunction,Plated,PTH,ComponentDrill
T5C3.200
%
G90
G05
T1
X116.1Y-102.5
X116.3Y-87.4
X116.3Y-94.8
X116.4Y-92.1
X116.4Y-100.9
X117.1Y-96.3
X118.5Y-92.3
X118.5Y-94.8
X118.7Y-87.9
X119.2Y-102.3
X119.4Y-93.2
X119.4Y-101.1
X120.5Y-92.4
X121.3Y-103.3
X121.8Y-86.3
X122.9Y-84.2
X122.9Y-97.65
X123.2Y-89.95
X123.2Y-90.65
X123.2Y-98.45
X123.462Y-85.65
X124.0Y-101.75
X124.2Y-106.7
X124.8Y-97.3
X124.8Y-98.7
X125.1Y-94.15
X125.6Y-104.0
X126.1Y-100.8
X126.4Y-102.2
X126.6Y-87.15
X126.6Y-106.7
X126.9Y-105.3
X127.1Y-98.7
X127.4Y-97.4
X127.8Y-84.9
X128.3Y-100.6
X128.6Y-87.15
X128.8Y-85.9
X128.8Y-96.3
X128.8Y-98.9
X129.2Y-106.7
X129.5Y-84.9
X129.7Y-97.4
X130.1Y-87.0
X130.3Y-99.5
X130.4Y-88.9
X130.6Y-85.9
X130.6Y-91.3
X130.8Y-87.9
X130.9Y-95.3
X131.0Y-96.2
X131.3Y-84.9
X131.6Y-83.2
X131.7Y-87.1
X131.7Y-98.8
X131.7Y-106.8
X132.2Y-90.7
X132.5Y-85.9
X132.8Y-97.4
X133.1Y-94.3
X133.2Y-89.0
X133.2Y-98.8
X133.3Y-84.9
X133.3Y-96.4
X133.7Y-95.4
X133.9Y-92.0
X134.2Y-83.2
X134.2Y-90.3
X134.5Y-93.8
X134.762Y-85.75
X134.9Y-105.7
X135.0Y-89.0
X135.1Y-92.1
X135.4Y-83.0
X135.963Y-93.55
X136.062Y-84.55
X136.4Y-95.8
X136.8Y-83.2
X136.9Y-106.8
X137.562Y-89.25
X137.562Y-90.55
X137.939Y-101.839
X138.0Y-100.4
X138.662Y-97.05
X138.9Y-99.8
X139.3Y-83.2
X139.3Y-94.4
X139.4Y-106.8
X139.6Y-93.7
X139.7Y-98.5
X139.7Y-103.8
X139.762Y-86.75
X139.8Y-102.0
X140.6Y-103.9
X140.662Y-86.75
X141.4Y-99.1
X141.6Y-103.7
X141.9Y-106.7
X143.062Y-88.95
X143.5Y-95.3
X144.5Y-106.7
X144.7Y-95.2
X145.862Y-87.25
X146.0Y-88.3
X146.2Y-89.2
X146.4Y-103.9
X147.0Y-106.7
X147.4Y-88.4
X147.562Y-87.25
X147.9Y-91.7
X148.2Y-89.3
X148.662Y-86.15
X148.662Y-88.35
X148.762Y-104.15
X149.6Y-106.7
X149.9Y-97.6
X149.9Y-98.4
X150.6Y-99.0
X150.7Y-94.1
X150.7Y-94.9
X150.8Y-92.7
X151.162Y-103.75
X151.5Y-91.1
X151.5Y-93.9
X151.8Y-95.4
X152.0Y-94.6
X152.0Y-96.2
X152.0Y-103.1
X152.0Y-104.9
X152.062Y-85.75
X152.1Y-106.7
X152.287Y-104.056
X153.1Y-90.9
X153.162Y-84.65
X153.7Y-91.5
X154.162Y-104.25
X154.3Y-92.2
X154.6Y-106.7
X155.1Y-92.3
X155.1Y-93.1
X155.362Y-102.35
X155.362Y-103.05
X155.7Y-84.0
X155.7Y-93.6
X155.7Y-103.6
X155.7Y-109.6
X155.862Y-104.612
X156.0Y-94.3
X156.5Y-94.9
X157.2Y-106.7
X157.662Y-100.55
X158.1Y-84.0
X158.6Y-86.9
X159.2Y-94.0
X159.3Y-98.3
X159.562Y-95.15
X159.6Y-88.6
X159.7Y-85.6
X159.7Y-106.7
X160.3Y-91.0
X160.4Y-103.1
X160.4Y-104.9
X161.1Y-87.5
X161.4Y-90.2
X161.5Y-98.0
X161.8Y-88.4
X162.0Y-86.6
X162.0Y-91.3
X162.0Y-109.8
X162.062Y-94.15
X162.1Y-83.2
X162.2Y-81.9
X162.2Y-84.8
X162.2Y-106.2
X162.3Y-108.2
X162.4Y-80.3
X162.5Y-102.7
X162.7Y-85.9
X162.8Y-109.2
X162.9Y-97.7
X163.3Y-88.0
X163.8Y-90.1
X163.8Y-95.8
X164.0Y-94.1
X164.3Y-87.0
X164.3Y-103.3
X164.7Y-91.2
X164.9Y-97.3
X165.0Y-95.5
X165.7Y-102.0
X166.5Y-102.8
X167.5Y-101.9
X168.7Y-103.1
X168.9Y-101.8
X169.6Y-104.3
T2
X116.1Y-83.5
X116.1Y-106.3
X116.803Y-81.803
X116.803Y-85.197
X116.803Y-104.603
X116.803Y-107.997
X118.5Y-81.1
X118.5Y-85.9
X118.5Y-103.9
X118.5Y-108.7
X120.197Y-81.803
X120.197Y-85.197
X120.197Y-104.603
X120.197Y-107.997
X120.9Y-83.5
X120.9Y-106.3
X164.1Y-83.5
X164.1Y-106.7
X164.803Y-81.803
X164.803Y-85.197
X164.803Y-105.003
X164.803Y-108.397
X166.5Y-81.1
X166.5Y-85.9
X166.5Y-104.3
X166.5Y-109.1
X168.197Y-81.803
X168.197Y-85.197
X168.197Y-105.003
X168.197Y-108.397
X168.9Y-83.5
X168.9Y-106.7
T4
X124.04Y-81.6
X124.16Y-108.1
X126.58Y-81.6
X126.7Y-108.1
X129.12Y-81.6
X129.24Y-108.1
X131.66Y-81.6
X131.78Y-108.1
X134.2Y-81.6
X134.32Y-108.1
X136.74Y-81.6
X136.86Y-108.1
X139.28Y-81.6
X139.4Y-108.1
X141.82Y-81.6
X141.94Y-108.1
X144.36Y-81.6
X144.48Y-108.1
X146.9Y-81.6
X147.02Y-108.1
X149.44Y-81.6
X149.56Y-108.1
X151.98Y-81.6
X152.1Y-108.1
X154.52Y-81.6
X154.64Y-108.1
X157.06Y-81.6
X157.18Y-108.1
X159.6Y-81.6
X159.72Y-108.1
X167.6Y-89.12
X167.6Y-91.66
X167.6Y-94.2
X167.6Y-96.74
X167.6Y-99.28
T5
X118.5Y-83.5
X118.5Y-106.3
X166.5Y-83.5
X166.5Y-106.7
T3
G00X117.362Y-90.09
M15
G01X116.562Y-90.09
M16
G05
G00X117.362Y-98.73
M15
G01X116.562Y-98.73
M16
G05
G00X121.692Y-90.09
M15
G01X120.593Y-90.09
M16
G05
G00X121.692Y-98.73
M15
G01X120.593Y-98.73
M16
G05
M30
