%TF.GenerationSoftware,KiCad,Pcbnew,9.0.4*%
%TF.CreationDate,2026-03-21T16:33:42+05:30*%
%TF.ProjectId,TI_MSP_DevKit,54495f4d-5350-45f4-9465-764b69742e6b,rev?*%
%TF.SameCoordinates,Original*%
%TF.FileFunction,Soldermask,Bot*%
%TF.FilePolarity,Negative*%
%FSLAX46Y46*%
G04 Gerber Fmt 4.6, Leading zero omitted, Abs format (unit mm)*
G04 Created by KiCad (PCBNEW 9.0.4) date 2026-03-21 16:33:42*
%MOMM*%
%LPD*%
G01*
G04 APERTURE LIST*
G04 APERTURE END LIST*
G36*
X166669565Y-103485066D02*
G01*
X166680547Y-103485066D01*
X166756826Y-103493660D01*
X166972466Y-103514899D01*
X167007924Y-103521951D01*
X167039370Y-103525495D01*
X167131814Y-103546594D01*
X167282376Y-103576543D01*
X167341182Y-103594381D01*
X167391410Y-103605846D01*
X167472418Y-103634192D01*
X167584774Y-103668275D01*
X167666146Y-103701980D01*
X167732241Y-103725108D01*
X167795328Y-103755489D01*
X167876706Y-103789197D01*
X167980256Y-103844546D01*
X168057575Y-103881781D01*
X168101200Y-103909192D01*
X168155385Y-103938155D01*
X168283008Y-104023429D01*
X168363322Y-104073894D01*
X168388065Y-104093626D01*
X168418120Y-104113708D01*
X168585590Y-104251147D01*
X168645636Y-104299032D01*
X168653405Y-104306801D01*
X168662384Y-104314170D01*
X168885829Y-104537615D01*
X168893197Y-104546593D01*
X168900968Y-104554364D01*
X168948858Y-104614417D01*
X169086291Y-104781879D01*
X169106371Y-104811931D01*
X169126106Y-104836678D01*
X169176575Y-104917000D01*
X169261844Y-105044614D01*
X169290804Y-105098795D01*
X169318219Y-105142425D01*
X169355457Y-105219751D01*
X169410802Y-105323293D01*
X169444506Y-105404663D01*
X169474892Y-105467759D01*
X169498022Y-105533862D01*
X169531724Y-105615225D01*
X169565802Y-105727566D01*
X169594154Y-105808590D01*
X169605620Y-105858826D01*
X169623456Y-105917623D01*
X169653398Y-106068157D01*
X169674505Y-106160630D01*
X169678049Y-106192085D01*
X169685100Y-106227533D01*
X169706337Y-106443153D01*
X169714934Y-106519453D01*
X169714934Y-106530435D01*
X169716073Y-106542000D01*
X169716073Y-106857999D01*
X169714934Y-106869563D01*
X169714934Y-106880547D01*
X169706336Y-106956853D01*
X169685100Y-107172466D01*
X169678049Y-107207912D01*
X169674505Y-107239370D01*
X169653397Y-107331848D01*
X169623456Y-107482376D01*
X169605621Y-107541169D01*
X169594154Y-107591410D01*
X169565800Y-107672440D01*
X169531724Y-107784774D01*
X169498025Y-107866130D01*
X169474892Y-107932241D01*
X169444503Y-107995342D01*
X169410802Y-108076706D01*
X169355462Y-108180238D01*
X169318219Y-108257575D01*
X169290800Y-108301210D01*
X169261844Y-108355385D01*
X169176586Y-108482982D01*
X169126106Y-108563322D01*
X169106367Y-108588073D01*
X169086291Y-108618120D01*
X168948887Y-108785547D01*
X168900968Y-108845636D01*
X168893192Y-108853411D01*
X168885829Y-108862384D01*
X168662384Y-109085829D01*
X168653411Y-109093192D01*
X168645636Y-109100968D01*
X168585547Y-109148887D01*
X168418120Y-109286291D01*
X168388073Y-109306367D01*
X168363322Y-109326106D01*
X168282982Y-109376586D01*
X168155385Y-109461844D01*
X168101210Y-109490800D01*
X168057575Y-109518219D01*
X167980238Y-109555462D01*
X167876706Y-109610802D01*
X167795342Y-109644503D01*
X167732241Y-109674892D01*
X167666130Y-109698025D01*
X167584774Y-109731724D01*
X167472440Y-109765800D01*
X167391410Y-109794154D01*
X167341169Y-109805621D01*
X167282376Y-109823456D01*
X167131848Y-109853397D01*
X167039370Y-109874505D01*
X167007912Y-109878049D01*
X166972466Y-109885100D01*
X166756848Y-109906337D01*
X166680547Y-109914934D01*
X166669564Y-109914934D01*
X166658000Y-109916073D01*
X166342000Y-109916073D01*
X166330436Y-109914934D01*
X166319453Y-109914934D01*
X166243153Y-109906337D01*
X166027533Y-109885100D01*
X165992085Y-109878049D01*
X165960630Y-109874505D01*
X165868157Y-109853398D01*
X165717623Y-109823456D01*
X165658826Y-109805620D01*
X165608590Y-109794154D01*
X165527566Y-109765802D01*
X165415225Y-109731724D01*
X165333862Y-109698022D01*
X165267759Y-109674892D01*
X165204663Y-109644506D01*
X165123293Y-109610802D01*
X165019751Y-109555457D01*
X164942425Y-109518219D01*
X164898795Y-109490804D01*
X164844614Y-109461844D01*
X164717000Y-109376575D01*
X164636678Y-109326106D01*
X164611931Y-109306371D01*
X164581879Y-109286291D01*
X164414417Y-109148858D01*
X164354364Y-109100968D01*
X164346593Y-109093197D01*
X164337615Y-109085829D01*
X164114170Y-108862384D01*
X164106801Y-108853405D01*
X164099032Y-108845636D01*
X164051147Y-108785590D01*
X163913708Y-108618120D01*
X163893626Y-108588065D01*
X163873894Y-108563322D01*
X163823429Y-108483008D01*
X163738155Y-108355385D01*
X163709192Y-108301200D01*
X163681781Y-108257575D01*
X163644546Y-108180256D01*
X163589197Y-108076706D01*
X163555489Y-107995328D01*
X163525108Y-107932241D01*
X163501980Y-107866146D01*
X163468275Y-107784774D01*
X163434192Y-107672418D01*
X163405846Y-107591410D01*
X163394381Y-107541182D01*
X163376543Y-107482376D01*
X163346594Y-107331814D01*
X163325495Y-107239370D01*
X163321951Y-107207924D01*
X163314899Y-107172466D01*
X163293661Y-106956831D01*
X163285066Y-106880547D01*
X163285066Y-106869563D01*
X163283927Y-106857999D01*
X163283927Y-106542000D01*
X163285066Y-106530435D01*
X163285066Y-106519453D01*
X163293660Y-106443175D01*
X163314899Y-106227533D01*
X163321952Y-106192073D01*
X163325495Y-106160630D01*
X163346593Y-106068191D01*
X163376543Y-105917623D01*
X163394382Y-105858813D01*
X163405846Y-105808590D01*
X163434189Y-105727587D01*
X163468275Y-105615225D01*
X163501982Y-105533847D01*
X163525108Y-105467759D01*
X163555486Y-105404678D01*
X163589197Y-105323293D01*
X163644551Y-105219733D01*
X163681781Y-105142425D01*
X163709188Y-105098805D01*
X163738155Y-105044614D01*
X163823440Y-104916975D01*
X163873894Y-104836678D01*
X163893622Y-104811939D01*
X163913708Y-104781879D01*
X164051175Y-104614374D01*
X164099032Y-104554364D01*
X164106797Y-104546598D01*
X164114170Y-104537615D01*
X164337615Y-104314170D01*
X164346598Y-104306797D01*
X164354364Y-104299032D01*
X164414374Y-104251175D01*
X164581879Y-104113708D01*
X164611939Y-104093622D01*
X164636678Y-104073894D01*
X164716975Y-104023440D01*
X164844614Y-103938155D01*
X164898805Y-103909188D01*
X164942425Y-103881781D01*
X165019733Y-103844551D01*
X165123293Y-103789197D01*
X165204678Y-103755486D01*
X165267759Y-103725108D01*
X165333847Y-103701982D01*
X165415225Y-103668275D01*
X165527587Y-103634189D01*
X165608590Y-103605846D01*
X165658813Y-103594382D01*
X165717623Y-103576543D01*
X165868191Y-103546593D01*
X165960630Y-103525495D01*
X165992073Y-103521952D01*
X166027533Y-103514899D01*
X166243175Y-103493660D01*
X166319453Y-103485066D01*
X166330435Y-103485066D01*
X166342000Y-103483927D01*
X166658000Y-103483927D01*
X166669565Y-103485066D01*
G37*
G36*
X118669565Y-103085066D02*
G01*
X118680547Y-103085066D01*
X118756826Y-103093660D01*
X118972466Y-103114899D01*
X119007924Y-103121951D01*
X119039370Y-103125495D01*
X119131814Y-103146594D01*
X119282376Y-103176543D01*
X119341182Y-103194381D01*
X119391410Y-103205846D01*
X119472418Y-103234192D01*
X119584774Y-103268275D01*
X119666146Y-103301980D01*
X119732241Y-103325108D01*
X119795328Y-103355489D01*
X119876706Y-103389197D01*
X119980256Y-103444546D01*
X120057575Y-103481781D01*
X120101200Y-103509192D01*
X120155385Y-103538155D01*
X120283008Y-103623429D01*
X120363322Y-103673894D01*
X120388065Y-103693626D01*
X120418120Y-103713708D01*
X120585590Y-103851147D01*
X120645636Y-103899032D01*
X120653405Y-103906801D01*
X120662384Y-103914170D01*
X120885829Y-104137615D01*
X120893197Y-104146593D01*
X120900968Y-104154364D01*
X120948858Y-104214417D01*
X121086291Y-104381879D01*
X121106371Y-104411931D01*
X121126106Y-104436678D01*
X121176575Y-104517000D01*
X121261844Y-104644614D01*
X121290804Y-104698795D01*
X121318219Y-104742425D01*
X121355457Y-104819751D01*
X121410802Y-104923293D01*
X121444506Y-105004663D01*
X121474892Y-105067759D01*
X121498022Y-105133862D01*
X121531724Y-105215225D01*
X121565802Y-105327566D01*
X121594154Y-105408590D01*
X121605620Y-105458826D01*
X121623456Y-105517623D01*
X121653398Y-105668157D01*
X121674505Y-105760630D01*
X121678049Y-105792085D01*
X121685100Y-105827533D01*
X121706337Y-106043153D01*
X121714934Y-106119453D01*
X121714934Y-106130435D01*
X121716073Y-106142000D01*
X121716073Y-106457999D01*
X121714934Y-106469563D01*
X121714934Y-106480547D01*
X121706336Y-106556853D01*
X121685100Y-106772466D01*
X121678049Y-106807912D01*
X121674505Y-106839370D01*
X121653397Y-106931848D01*
X121623456Y-107082376D01*
X121605621Y-107141169D01*
X121594154Y-107191410D01*
X121565800Y-107272440D01*
X121531724Y-107384774D01*
X121498025Y-107466130D01*
X121474892Y-107532241D01*
X121444503Y-107595342D01*
X121410802Y-107676706D01*
X121355462Y-107780238D01*
X121318219Y-107857575D01*
X121290800Y-107901210D01*
X121261844Y-107955385D01*
X121176586Y-108082982D01*
X121126106Y-108163322D01*
X121106367Y-108188073D01*
X121086291Y-108218120D01*
X120948887Y-108385547D01*
X120900968Y-108445636D01*
X120893192Y-108453411D01*
X120885829Y-108462384D01*
X120662384Y-108685829D01*
X120653411Y-108693192D01*
X120645636Y-108700968D01*
X120585547Y-108748887D01*
X120418120Y-108886291D01*
X120388073Y-108906367D01*
X120363322Y-108926106D01*
X120282982Y-108976586D01*
X120155385Y-109061844D01*
X120101210Y-109090800D01*
X120057575Y-109118219D01*
X119980238Y-109155462D01*
X119876706Y-109210802D01*
X119795342Y-109244503D01*
X119732241Y-109274892D01*
X119666130Y-109298025D01*
X119584774Y-109331724D01*
X119472440Y-109365800D01*
X119391410Y-109394154D01*
X119341169Y-109405621D01*
X119282376Y-109423456D01*
X119131848Y-109453397D01*
X119039370Y-109474505D01*
X119007912Y-109478049D01*
X118972466Y-109485100D01*
X118756848Y-109506337D01*
X118680547Y-109514934D01*
X118669564Y-109514934D01*
X118658000Y-109516073D01*
X118342000Y-109516073D01*
X118330436Y-109514934D01*
X118319453Y-109514934D01*
X118243153Y-109506337D01*
X118027533Y-109485100D01*
X117992085Y-109478049D01*
X117960630Y-109474505D01*
X117868157Y-109453398D01*
X117717623Y-109423456D01*
X117658826Y-109405620D01*
X117608590Y-109394154D01*
X117527566Y-109365802D01*
X117415225Y-109331724D01*
X117333862Y-109298022D01*
X117267759Y-109274892D01*
X117204663Y-109244506D01*
X117123293Y-109210802D01*
X117019751Y-109155457D01*
X116942425Y-109118219D01*
X116898795Y-109090804D01*
X116844614Y-109061844D01*
X116717000Y-108976575D01*
X116636678Y-108926106D01*
X116611931Y-108906371D01*
X116581879Y-108886291D01*
X116414417Y-108748858D01*
X116354364Y-108700968D01*
X116346593Y-108693197D01*
X116337615Y-108685829D01*
X116114170Y-108462384D01*
X116106801Y-108453405D01*
X116099032Y-108445636D01*
X116051147Y-108385590D01*
X115913708Y-108218120D01*
X115893626Y-108188065D01*
X115873894Y-108163322D01*
X115823429Y-108083008D01*
X115738155Y-107955385D01*
X115709192Y-107901200D01*
X115681781Y-107857575D01*
X115644546Y-107780256D01*
X115589197Y-107676706D01*
X115555489Y-107595328D01*
X115525108Y-107532241D01*
X115501980Y-107466146D01*
X115468275Y-107384774D01*
X115434192Y-107272418D01*
X115405846Y-107191410D01*
X115394381Y-107141182D01*
X115376543Y-107082376D01*
X115346594Y-106931814D01*
X115325495Y-106839370D01*
X115321951Y-106807924D01*
X115314899Y-106772466D01*
X115293661Y-106556831D01*
X115285066Y-106480547D01*
X115285066Y-106469563D01*
X115283927Y-106457999D01*
X115283927Y-106142000D01*
X115285066Y-106130435D01*
X115285066Y-106119453D01*
X115293660Y-106043175D01*
X115314899Y-105827533D01*
X115321952Y-105792073D01*
X115325495Y-105760630D01*
X115346593Y-105668191D01*
X115376543Y-105517623D01*
X115394382Y-105458813D01*
X115405846Y-105408590D01*
X115434189Y-105327587D01*
X115468275Y-105215225D01*
X115501982Y-105133847D01*
X115525108Y-105067759D01*
X115555486Y-105004678D01*
X115589197Y-104923293D01*
X115644551Y-104819733D01*
X115681781Y-104742425D01*
X115709188Y-104698805D01*
X115738155Y-104644614D01*
X115823440Y-104516975D01*
X115873894Y-104436678D01*
X115893622Y-104411939D01*
X115913708Y-104381879D01*
X116051175Y-104214374D01*
X116099032Y-104154364D01*
X116106797Y-104146598D01*
X116114170Y-104137615D01*
X116337615Y-103914170D01*
X116346598Y-103906797D01*
X116354364Y-103899032D01*
X116414374Y-103851175D01*
X116581879Y-103713708D01*
X116611939Y-103693622D01*
X116636678Y-103673894D01*
X116716975Y-103623440D01*
X116844614Y-103538155D01*
X116898805Y-103509188D01*
X116942425Y-103481781D01*
X117019733Y-103444551D01*
X117123293Y-103389197D01*
X117204678Y-103355486D01*
X117267759Y-103325108D01*
X117333847Y-103301982D01*
X117415225Y-103268275D01*
X117527587Y-103234189D01*
X117608590Y-103205846D01*
X117658813Y-103194382D01*
X117717623Y-103176543D01*
X117868191Y-103146593D01*
X117960630Y-103125495D01*
X117992073Y-103121952D01*
X118027533Y-103114899D01*
X118243175Y-103093660D01*
X118319453Y-103085066D01*
X118330435Y-103085066D01*
X118342000Y-103083927D01*
X118658000Y-103083927D01*
X118669565Y-103085066D01*
G37*
G36*
X125017654Y-107231522D02*
G01*
X125024142Y-107235858D01*
X125028478Y-107242346D01*
X125030000Y-107250000D01*
X125030000Y-108950000D01*
X125028478Y-108957654D01*
X125024142Y-108964142D01*
X125017654Y-108968478D01*
X125010000Y-108970000D01*
X123310000Y-108970000D01*
X123302346Y-108968478D01*
X123295858Y-108964142D01*
X123291522Y-108957654D01*
X123290000Y-108950000D01*
X123290000Y-107250000D01*
X123291522Y-107242346D01*
X123295858Y-107235858D01*
X123302346Y-107231522D01*
X123310000Y-107230000D01*
X125010000Y-107230000D01*
X125017654Y-107231522D01*
G37*
G36*
X126952548Y-107267462D02*
G01*
X127110115Y-107332729D01*
X127251922Y-107427481D01*
X127372519Y-107548078D01*
X127467271Y-107689885D01*
X127532538Y-107847452D01*
X127565811Y-108014725D01*
X127565811Y-108185275D01*
X127532538Y-108352548D01*
X127467271Y-108510115D01*
X127372519Y-108651922D01*
X127251922Y-108772519D01*
X127110115Y-108867271D01*
X126952548Y-108932538D01*
X126785275Y-108965811D01*
X126614725Y-108965811D01*
X126447452Y-108932538D01*
X126289885Y-108867271D01*
X126148078Y-108772519D01*
X126027481Y-108651922D01*
X125932729Y-108510115D01*
X125867462Y-108352548D01*
X125834189Y-108185275D01*
X125834189Y-108014725D01*
X125867462Y-107847452D01*
X125932729Y-107689885D01*
X126027481Y-107548078D01*
X126148078Y-107427481D01*
X126289885Y-107332729D01*
X126447452Y-107267462D01*
X126614725Y-107234189D01*
X126785275Y-107234189D01*
X126952548Y-107267462D01*
G37*
G36*
X129492548Y-107267462D02*
G01*
X129650115Y-107332729D01*
X129791922Y-107427481D01*
X129912519Y-107548078D01*
X130007271Y-107689885D01*
X130072538Y-107847452D01*
X130105811Y-108014725D01*
X130105811Y-108185275D01*
X130072538Y-108352548D01*
X130007271Y-108510115D01*
X129912519Y-108651922D01*
X129791922Y-108772519D01*
X129650115Y-108867271D01*
X129492548Y-108932538D01*
X129325275Y-108965811D01*
X129154725Y-108965811D01*
X128987452Y-108932538D01*
X128829885Y-108867271D01*
X128688078Y-108772519D01*
X128567481Y-108651922D01*
X128472729Y-108510115D01*
X128407462Y-108352548D01*
X128374189Y-108185275D01*
X128374189Y-108014725D01*
X128407462Y-107847452D01*
X128472729Y-107689885D01*
X128567481Y-107548078D01*
X128688078Y-107427481D01*
X128829885Y-107332729D01*
X128987452Y-107267462D01*
X129154725Y-107234189D01*
X129325275Y-107234189D01*
X129492548Y-107267462D01*
G37*
G36*
X132032548Y-107267462D02*
G01*
X132190115Y-107332729D01*
X132331922Y-107427481D01*
X132452519Y-107548078D01*
X132547271Y-107689885D01*
X132612538Y-107847452D01*
X132645811Y-108014725D01*
X132645811Y-108185275D01*
X132612538Y-108352548D01*
X132547271Y-108510115D01*
X132452519Y-108651922D01*
X132331922Y-108772519D01*
X132190115Y-108867271D01*
X132032548Y-108932538D01*
X131865275Y-108965811D01*
X131694725Y-108965811D01*
X131527452Y-108932538D01*
X131369885Y-108867271D01*
X131228078Y-108772519D01*
X131107481Y-108651922D01*
X131012729Y-108510115D01*
X130947462Y-108352548D01*
X130914189Y-108185275D01*
X130914189Y-108014725D01*
X130947462Y-107847452D01*
X131012729Y-107689885D01*
X131107481Y-107548078D01*
X131228078Y-107427481D01*
X131369885Y-107332729D01*
X131527452Y-107267462D01*
X131694725Y-107234189D01*
X131865275Y-107234189D01*
X132032548Y-107267462D01*
G37*
G36*
X134572548Y-107267462D02*
G01*
X134730115Y-107332729D01*
X134871922Y-107427481D01*
X134992519Y-107548078D01*
X135087271Y-107689885D01*
X135152538Y-107847452D01*
X135185811Y-108014725D01*
X135185811Y-108185275D01*
X135152538Y-108352548D01*
X135087271Y-108510115D01*
X134992519Y-108651922D01*
X134871922Y-108772519D01*
X134730115Y-108867271D01*
X134572548Y-108932538D01*
X134405275Y-108965811D01*
X134234725Y-108965811D01*
X134067452Y-108932538D01*
X133909885Y-108867271D01*
X133768078Y-108772519D01*
X133647481Y-108651922D01*
X133552729Y-108510115D01*
X133487462Y-108352548D01*
X133454189Y-108185275D01*
X133454189Y-108014725D01*
X133487462Y-107847452D01*
X133552729Y-107689885D01*
X133647481Y-107548078D01*
X133768078Y-107427481D01*
X133909885Y-107332729D01*
X134067452Y-107267462D01*
X134234725Y-107234189D01*
X134405275Y-107234189D01*
X134572548Y-107267462D01*
G37*
G36*
X137112548Y-107267462D02*
G01*
X137270115Y-107332729D01*
X137411922Y-107427481D01*
X137532519Y-107548078D01*
X137627271Y-107689885D01*
X137692538Y-107847452D01*
X137725811Y-108014725D01*
X137725811Y-108185275D01*
X137692538Y-108352548D01*
X137627271Y-108510115D01*
X137532519Y-108651922D01*
X137411922Y-108772519D01*
X137270115Y-108867271D01*
X137112548Y-108932538D01*
X136945275Y-108965811D01*
X136774725Y-108965811D01*
X136607452Y-108932538D01*
X136449885Y-108867271D01*
X136308078Y-108772519D01*
X136187481Y-108651922D01*
X136092729Y-108510115D01*
X136027462Y-108352548D01*
X135994189Y-108185275D01*
X135994189Y-108014725D01*
X136027462Y-107847452D01*
X136092729Y-107689885D01*
X136187481Y-107548078D01*
X136308078Y-107427481D01*
X136449885Y-107332729D01*
X136607452Y-107267462D01*
X136774725Y-107234189D01*
X136945275Y-107234189D01*
X137112548Y-107267462D01*
G37*
G36*
X139652548Y-107267462D02*
G01*
X139810115Y-107332729D01*
X139951922Y-107427481D01*
X140072519Y-107548078D01*
X140167271Y-107689885D01*
X140232538Y-107847452D01*
X140265811Y-108014725D01*
X140265811Y-108185275D01*
X140232538Y-108352548D01*
X140167271Y-108510115D01*
X140072519Y-108651922D01*
X139951922Y-108772519D01*
X139810115Y-108867271D01*
X139652548Y-108932538D01*
X139485275Y-108965811D01*
X139314725Y-108965811D01*
X139147452Y-108932538D01*
X138989885Y-108867271D01*
X138848078Y-108772519D01*
X138727481Y-108651922D01*
X138632729Y-108510115D01*
X138567462Y-108352548D01*
X138534189Y-108185275D01*
X138534189Y-108014725D01*
X138567462Y-107847452D01*
X138632729Y-107689885D01*
X138727481Y-107548078D01*
X138848078Y-107427481D01*
X138989885Y-107332729D01*
X139147452Y-107267462D01*
X139314725Y-107234189D01*
X139485275Y-107234189D01*
X139652548Y-107267462D01*
G37*
G36*
X142192548Y-107267462D02*
G01*
X142350115Y-107332729D01*
X142491922Y-107427481D01*
X142612519Y-107548078D01*
X142707271Y-107689885D01*
X142772538Y-107847452D01*
X142805811Y-108014725D01*
X142805811Y-108185275D01*
X142772538Y-108352548D01*
X142707271Y-108510115D01*
X142612519Y-108651922D01*
X142491922Y-108772519D01*
X142350115Y-108867271D01*
X142192548Y-108932538D01*
X142025275Y-108965811D01*
X141854725Y-108965811D01*
X141687452Y-108932538D01*
X141529885Y-108867271D01*
X141388078Y-108772519D01*
X141267481Y-108651922D01*
X141172729Y-108510115D01*
X141107462Y-108352548D01*
X141074189Y-108185275D01*
X141074189Y-108014725D01*
X141107462Y-107847452D01*
X141172729Y-107689885D01*
X141267481Y-107548078D01*
X141388078Y-107427481D01*
X141529885Y-107332729D01*
X141687452Y-107267462D01*
X141854725Y-107234189D01*
X142025275Y-107234189D01*
X142192548Y-107267462D01*
G37*
G36*
X144732548Y-107267462D02*
G01*
X144890115Y-107332729D01*
X145031922Y-107427481D01*
X145152519Y-107548078D01*
X145247271Y-107689885D01*
X145312538Y-107847452D01*
X145345811Y-108014725D01*
X145345811Y-108185275D01*
X145312538Y-108352548D01*
X145247271Y-108510115D01*
X145152519Y-108651922D01*
X145031922Y-108772519D01*
X144890115Y-108867271D01*
X144732548Y-108932538D01*
X144565275Y-108965811D01*
X144394725Y-108965811D01*
X144227452Y-108932538D01*
X144069885Y-108867271D01*
X143928078Y-108772519D01*
X143807481Y-108651922D01*
X143712729Y-108510115D01*
X143647462Y-108352548D01*
X143614189Y-108185275D01*
X143614189Y-108014725D01*
X143647462Y-107847452D01*
X143712729Y-107689885D01*
X143807481Y-107548078D01*
X143928078Y-107427481D01*
X144069885Y-107332729D01*
X144227452Y-107267462D01*
X144394725Y-107234189D01*
X144565275Y-107234189D01*
X144732548Y-107267462D01*
G37*
G36*
X147272548Y-107267462D02*
G01*
X147430115Y-107332729D01*
X147571922Y-107427481D01*
X147692519Y-107548078D01*
X147787271Y-107689885D01*
X147852538Y-107847452D01*
X147885811Y-108014725D01*
X147885811Y-108185275D01*
X147852538Y-108352548D01*
X147787271Y-108510115D01*
X147692519Y-108651922D01*
X147571922Y-108772519D01*
X147430115Y-108867271D01*
X147272548Y-108932538D01*
X147105275Y-108965811D01*
X146934725Y-108965811D01*
X146767452Y-108932538D01*
X146609885Y-108867271D01*
X146468078Y-108772519D01*
X146347481Y-108651922D01*
X146252729Y-108510115D01*
X146187462Y-108352548D01*
X146154189Y-108185275D01*
X146154189Y-108014725D01*
X146187462Y-107847452D01*
X146252729Y-107689885D01*
X146347481Y-107548078D01*
X146468078Y-107427481D01*
X146609885Y-107332729D01*
X146767452Y-107267462D01*
X146934725Y-107234189D01*
X147105275Y-107234189D01*
X147272548Y-107267462D01*
G37*
G36*
X149812548Y-107267462D02*
G01*
X149970115Y-107332729D01*
X150111922Y-107427481D01*
X150232519Y-107548078D01*
X150327271Y-107689885D01*
X150392538Y-107847452D01*
X150425811Y-108014725D01*
X150425811Y-108185275D01*
X150392538Y-108352548D01*
X150327271Y-108510115D01*
X150232519Y-108651922D01*
X150111922Y-108772519D01*
X149970115Y-108867271D01*
X149812548Y-108932538D01*
X149645275Y-108965811D01*
X149474725Y-108965811D01*
X149307452Y-108932538D01*
X149149885Y-108867271D01*
X149008078Y-108772519D01*
X148887481Y-108651922D01*
X148792729Y-108510115D01*
X148727462Y-108352548D01*
X148694189Y-108185275D01*
X148694189Y-108014725D01*
X148727462Y-107847452D01*
X148792729Y-107689885D01*
X148887481Y-107548078D01*
X149008078Y-107427481D01*
X149149885Y-107332729D01*
X149307452Y-107267462D01*
X149474725Y-107234189D01*
X149645275Y-107234189D01*
X149812548Y-107267462D01*
G37*
G36*
X152352548Y-107267462D02*
G01*
X152510115Y-107332729D01*
X152651922Y-107427481D01*
X152772519Y-107548078D01*
X152867271Y-107689885D01*
X152932538Y-107847452D01*
X152965811Y-108014725D01*
X152965811Y-108185275D01*
X152932538Y-108352548D01*
X152867271Y-108510115D01*
X152772519Y-108651922D01*
X152651922Y-108772519D01*
X152510115Y-108867271D01*
X152352548Y-108932538D01*
X152185275Y-108965811D01*
X152014725Y-108965811D01*
X151847452Y-108932538D01*
X151689885Y-108867271D01*
X151548078Y-108772519D01*
X151427481Y-108651922D01*
X151332729Y-108510115D01*
X151267462Y-108352548D01*
X151234189Y-108185275D01*
X151234189Y-108014725D01*
X151267462Y-107847452D01*
X151332729Y-107689885D01*
X151427481Y-107548078D01*
X151548078Y-107427481D01*
X151689885Y-107332729D01*
X151847452Y-107267462D01*
X152014725Y-107234189D01*
X152185275Y-107234189D01*
X152352548Y-107267462D01*
G37*
G36*
X154892548Y-107267462D02*
G01*
X155050115Y-107332729D01*
X155191922Y-107427481D01*
X155312519Y-107548078D01*
X155407271Y-107689885D01*
X155472538Y-107847452D01*
X155505811Y-108014725D01*
X155505811Y-108185275D01*
X155472538Y-108352548D01*
X155407271Y-108510115D01*
X155312519Y-108651922D01*
X155191922Y-108772519D01*
X155050115Y-108867271D01*
X154892548Y-108932538D01*
X154725275Y-108965811D01*
X154554725Y-108965811D01*
X154387452Y-108932538D01*
X154229885Y-108867271D01*
X154088078Y-108772519D01*
X153967481Y-108651922D01*
X153872729Y-108510115D01*
X153807462Y-108352548D01*
X153774189Y-108185275D01*
X153774189Y-108014725D01*
X153807462Y-107847452D01*
X153872729Y-107689885D01*
X153967481Y-107548078D01*
X154088078Y-107427481D01*
X154229885Y-107332729D01*
X154387452Y-107267462D01*
X154554725Y-107234189D01*
X154725275Y-107234189D01*
X154892548Y-107267462D01*
G37*
G36*
X157432548Y-107267462D02*
G01*
X157590115Y-107332729D01*
X157731922Y-107427481D01*
X157852519Y-107548078D01*
X157947271Y-107689885D01*
X158012538Y-107847452D01*
X158045811Y-108014725D01*
X158045811Y-108185275D01*
X158012538Y-108352548D01*
X157947271Y-108510115D01*
X157852519Y-108651922D01*
X157731922Y-108772519D01*
X157590115Y-108867271D01*
X157432548Y-108932538D01*
X157265275Y-108965811D01*
X157094725Y-108965811D01*
X156927452Y-108932538D01*
X156769885Y-108867271D01*
X156628078Y-108772519D01*
X156507481Y-108651922D01*
X156412729Y-108510115D01*
X156347462Y-108352548D01*
X156314189Y-108185275D01*
X156314189Y-108014725D01*
X156347462Y-107847452D01*
X156412729Y-107689885D01*
X156507481Y-107548078D01*
X156628078Y-107427481D01*
X156769885Y-107332729D01*
X156927452Y-107267462D01*
X157094725Y-107234189D01*
X157265275Y-107234189D01*
X157432548Y-107267462D01*
G37*
G36*
X159972548Y-107267462D02*
G01*
X160130115Y-107332729D01*
X160271922Y-107427481D01*
X160392519Y-107548078D01*
X160487271Y-107689885D01*
X160552538Y-107847452D01*
X160585811Y-108014725D01*
X160585811Y-108185275D01*
X160552538Y-108352548D01*
X160487271Y-108510115D01*
X160392519Y-108651922D01*
X160271922Y-108772519D01*
X160130115Y-108867271D01*
X159972548Y-108932538D01*
X159805275Y-108965811D01*
X159634725Y-108965811D01*
X159467452Y-108932538D01*
X159309885Y-108867271D01*
X159168078Y-108772519D01*
X159047481Y-108651922D01*
X158952729Y-108510115D01*
X158887462Y-108352548D01*
X158854189Y-108185275D01*
X158854189Y-108014725D01*
X158887462Y-107847452D01*
X158952729Y-107689885D01*
X159047481Y-107548078D01*
X159168078Y-107427481D01*
X159309885Y-107332729D01*
X159467452Y-107267462D01*
X159634725Y-107234189D01*
X159805275Y-107234189D01*
X159972548Y-107267462D01*
G37*
G36*
X167852548Y-98447462D02*
G01*
X168010115Y-98512729D01*
X168151922Y-98607481D01*
X168272519Y-98728078D01*
X168367271Y-98869885D01*
X168432538Y-99027452D01*
X168465811Y-99194725D01*
X168465811Y-99365275D01*
X168432538Y-99532548D01*
X168367271Y-99690115D01*
X168272519Y-99831922D01*
X168151922Y-99952519D01*
X168010115Y-100047271D01*
X167852548Y-100112538D01*
X167685275Y-100145811D01*
X167514725Y-100145811D01*
X167347452Y-100112538D01*
X167189885Y-100047271D01*
X167048078Y-99952519D01*
X166927481Y-99831922D01*
X166832729Y-99690115D01*
X166767462Y-99532548D01*
X166734189Y-99365275D01*
X166734189Y-99194725D01*
X166767462Y-99027452D01*
X166832729Y-98869885D01*
X166927481Y-98728078D01*
X167048078Y-98607481D01*
X167189885Y-98512729D01*
X167347452Y-98447462D01*
X167514725Y-98414189D01*
X167685275Y-98414189D01*
X167852548Y-98447462D01*
G37*
G36*
X117430374Y-98214449D02*
G01*
X117561495Y-98249583D01*
X117679056Y-98317456D01*
X117775044Y-98413444D01*
X117842917Y-98531005D01*
X117878051Y-98662126D01*
X117878051Y-98797874D01*
X117842917Y-98928995D01*
X117775044Y-99046556D01*
X117679056Y-99142544D01*
X117561495Y-99210417D01*
X117430374Y-99245551D01*
X117362500Y-99250000D01*
X117361196Y-99250000D01*
X116563804Y-99250000D01*
X116562500Y-99250000D01*
X116494626Y-99245551D01*
X116363505Y-99210417D01*
X116245944Y-99142544D01*
X116149956Y-99046556D01*
X116082083Y-98928995D01*
X116046949Y-98797874D01*
X116046949Y-98662126D01*
X116082083Y-98531005D01*
X116149956Y-98413444D01*
X116245944Y-98317456D01*
X116363505Y-98249583D01*
X116494626Y-98214449D01*
X116562500Y-98210000D01*
X117362500Y-98210000D01*
X117430374Y-98214449D01*
G37*
G36*
X121760374Y-98214449D02*
G01*
X121891495Y-98249583D01*
X122009056Y-98317456D01*
X122105044Y-98413444D01*
X122172917Y-98531005D01*
X122208051Y-98662126D01*
X122208051Y-98797874D01*
X122172917Y-98928995D01*
X122105044Y-99046556D01*
X122009056Y-99142544D01*
X121891495Y-99210417D01*
X121760374Y-99245551D01*
X121692500Y-99250000D01*
X121691196Y-99250000D01*
X120593804Y-99250000D01*
X120592500Y-99250000D01*
X120524626Y-99245551D01*
X120393505Y-99210417D01*
X120275944Y-99142544D01*
X120179956Y-99046556D01*
X120112083Y-98928995D01*
X120076949Y-98797874D01*
X120076949Y-98662126D01*
X120112083Y-98531005D01*
X120179956Y-98413444D01*
X120275944Y-98317456D01*
X120393505Y-98249583D01*
X120524626Y-98214449D01*
X120592500Y-98210000D01*
X121692500Y-98210000D01*
X121760374Y-98214449D01*
G37*
G36*
X120774526Y-96981262D02*
G01*
X120852523Y-97026293D01*
X120916207Y-97089977D01*
X120961238Y-97167974D01*
X120984548Y-97254968D01*
X120984548Y-97345032D01*
X120961238Y-97432026D01*
X120916207Y-97510023D01*
X120852523Y-97573707D01*
X120774526Y-97618738D01*
X120687532Y-97642048D01*
X120597468Y-97642048D01*
X120510474Y-97618738D01*
X120432477Y-97573707D01*
X120368793Y-97510023D01*
X120323762Y-97432026D01*
X120300452Y-97345032D01*
X120300452Y-97254968D01*
X120323762Y-97167974D01*
X120368793Y-97089977D01*
X120432477Y-97026293D01*
X120510474Y-96981262D01*
X120597468Y-96957952D01*
X120687532Y-96957952D01*
X120774526Y-96981262D01*
G37*
G36*
X167852548Y-95907462D02*
G01*
X168010115Y-95972729D01*
X168151922Y-96067481D01*
X168272519Y-96188078D01*
X168367271Y-96329885D01*
X168432538Y-96487452D01*
X168465811Y-96654725D01*
X168465811Y-96825275D01*
X168432538Y-96992548D01*
X168367271Y-97150115D01*
X168272519Y-97291922D01*
X168151922Y-97412519D01*
X168010115Y-97507271D01*
X167852548Y-97572538D01*
X167685275Y-97605811D01*
X167514725Y-97605811D01*
X167347452Y-97572538D01*
X167189885Y-97507271D01*
X167048078Y-97412519D01*
X166927481Y-97291922D01*
X166832729Y-97150115D01*
X166767462Y-96992548D01*
X166734189Y-96825275D01*
X166734189Y-96654725D01*
X166767462Y-96487452D01*
X166832729Y-96329885D01*
X166927481Y-96188078D01*
X167048078Y-96067481D01*
X167189885Y-95972729D01*
X167347452Y-95907462D01*
X167514725Y-95874189D01*
X167685275Y-95874189D01*
X167852548Y-95907462D01*
G37*
G36*
X167852548Y-93367462D02*
G01*
X168010115Y-93432729D01*
X168151922Y-93527481D01*
X168272519Y-93648078D01*
X168367271Y-93789885D01*
X168432538Y-93947452D01*
X168465811Y-94114725D01*
X168465811Y-94285275D01*
X168432538Y-94452548D01*
X168367271Y-94610115D01*
X168272519Y-94751922D01*
X168151922Y-94872519D01*
X168010115Y-94967271D01*
X167852548Y-95032538D01*
X167685275Y-95065811D01*
X167514725Y-95065811D01*
X167347452Y-95032538D01*
X167189885Y-94967271D01*
X167048078Y-94872519D01*
X166927481Y-94751922D01*
X166832729Y-94610115D01*
X166767462Y-94452548D01*
X166734189Y-94285275D01*
X166734189Y-94114725D01*
X166767462Y-93947452D01*
X166832729Y-93789885D01*
X166927481Y-93648078D01*
X167048078Y-93527481D01*
X167189885Y-93432729D01*
X167347452Y-93367462D01*
X167514725Y-93334189D01*
X167685275Y-93334189D01*
X167852548Y-93367462D01*
G37*
G36*
X167852548Y-90827462D02*
G01*
X168010115Y-90892729D01*
X168151922Y-90987481D01*
X168272519Y-91108078D01*
X168367271Y-91249885D01*
X168432538Y-91407452D01*
X168465811Y-91574725D01*
X168465811Y-91745275D01*
X168432538Y-91912548D01*
X168367271Y-92070115D01*
X168272519Y-92211922D01*
X168151922Y-92332519D01*
X168010115Y-92427271D01*
X167852548Y-92492538D01*
X167685275Y-92525811D01*
X167514725Y-92525811D01*
X167347452Y-92492538D01*
X167189885Y-92427271D01*
X167048078Y-92332519D01*
X166927481Y-92211922D01*
X166832729Y-92070115D01*
X166767462Y-91912548D01*
X166734189Y-91745275D01*
X166734189Y-91574725D01*
X166767462Y-91407452D01*
X166832729Y-91249885D01*
X166927481Y-91108078D01*
X167048078Y-90987481D01*
X167189885Y-90892729D01*
X167347452Y-90827462D01*
X167514725Y-90794189D01*
X167685275Y-90794189D01*
X167852548Y-90827462D01*
G37*
G36*
X120774526Y-91201262D02*
G01*
X120852523Y-91246293D01*
X120916207Y-91309977D01*
X120961238Y-91387974D01*
X120984548Y-91474968D01*
X120984548Y-91565032D01*
X120961238Y-91652026D01*
X120916207Y-91730023D01*
X120852523Y-91793707D01*
X120774526Y-91838738D01*
X120687532Y-91862048D01*
X120597468Y-91862048D01*
X120510474Y-91838738D01*
X120432477Y-91793707D01*
X120368793Y-91730023D01*
X120323762Y-91652026D01*
X120300452Y-91565032D01*
X120300452Y-91474968D01*
X120323762Y-91387974D01*
X120368793Y-91309977D01*
X120432477Y-91246293D01*
X120510474Y-91201262D01*
X120597468Y-91177952D01*
X120687532Y-91177952D01*
X120774526Y-91201262D01*
G37*
G36*
X117430374Y-89574449D02*
G01*
X117561495Y-89609583D01*
X117679056Y-89677456D01*
X117775044Y-89773444D01*
X117842917Y-89891005D01*
X117878051Y-90022126D01*
X117878051Y-90157874D01*
X117842917Y-90288995D01*
X117775044Y-90406556D01*
X117679056Y-90502544D01*
X117561495Y-90570417D01*
X117430374Y-90605551D01*
X117362500Y-90610000D01*
X117361196Y-90610000D01*
X116563804Y-90610000D01*
X116562500Y-90610000D01*
X116494626Y-90605551D01*
X116363505Y-90570417D01*
X116245944Y-90502544D01*
X116149956Y-90406556D01*
X116082083Y-90288995D01*
X116046949Y-90157874D01*
X116046949Y-90022126D01*
X116082083Y-89891005D01*
X116149956Y-89773444D01*
X116245944Y-89677456D01*
X116363505Y-89609583D01*
X116494626Y-89574449D01*
X116562500Y-89570000D01*
X117362500Y-89570000D01*
X117430374Y-89574449D01*
G37*
G36*
X121760374Y-89574449D02*
G01*
X121891495Y-89609583D01*
X122009056Y-89677456D01*
X122105044Y-89773444D01*
X122172917Y-89891005D01*
X122208051Y-90022126D01*
X122208051Y-90157874D01*
X122172917Y-90288995D01*
X122105044Y-90406556D01*
X122009056Y-90502544D01*
X121891495Y-90570417D01*
X121760374Y-90605551D01*
X121692500Y-90610000D01*
X121691196Y-90610000D01*
X120593804Y-90610000D01*
X120592500Y-90610000D01*
X120524626Y-90605551D01*
X120393505Y-90570417D01*
X120275944Y-90502544D01*
X120179956Y-90406556D01*
X120112083Y-90288995D01*
X120076949Y-90157874D01*
X120076949Y-90022126D01*
X120112083Y-89891005D01*
X120179956Y-89773444D01*
X120275944Y-89677456D01*
X120393505Y-89609583D01*
X120524626Y-89574449D01*
X120592500Y-89570000D01*
X121692500Y-89570000D01*
X121760374Y-89574449D01*
G37*
G36*
X168457654Y-88251522D02*
G01*
X168464142Y-88255858D01*
X168468478Y-88262346D01*
X168470000Y-88270000D01*
X168470000Y-89970000D01*
X168468478Y-89977654D01*
X168464142Y-89984142D01*
X168457654Y-89988478D01*
X168450000Y-89990000D01*
X166750000Y-89990000D01*
X166742346Y-89988478D01*
X166735858Y-89984142D01*
X166731522Y-89977654D01*
X166730000Y-89970000D01*
X166730000Y-88270000D01*
X166731522Y-88262346D01*
X166735858Y-88255858D01*
X166742346Y-88251522D01*
X166750000Y-88250000D01*
X168450000Y-88250000D01*
X168457654Y-88251522D01*
G37*
G36*
X118669565Y-80285066D02*
G01*
X118680547Y-80285066D01*
X118756826Y-80293660D01*
X118972466Y-80314899D01*
X119007924Y-80321951D01*
X119039370Y-80325495D01*
X119131814Y-80346594D01*
X119282376Y-80376543D01*
X119341182Y-80394381D01*
X119391410Y-80405846D01*
X119472418Y-80434192D01*
X119584774Y-80468275D01*
X119666146Y-80501980D01*
X119732241Y-80525108D01*
X119795328Y-80555489D01*
X119876706Y-80589197D01*
X119980256Y-80644546D01*
X120057575Y-80681781D01*
X120101200Y-80709192D01*
X120155385Y-80738155D01*
X120283008Y-80823429D01*
X120363322Y-80873894D01*
X120388065Y-80893626D01*
X120418120Y-80913708D01*
X120585590Y-81051147D01*
X120645636Y-81099032D01*
X120653405Y-81106801D01*
X120662384Y-81114170D01*
X120885829Y-81337615D01*
X120893197Y-81346593D01*
X120900968Y-81354364D01*
X120948858Y-81414417D01*
X121086291Y-81581879D01*
X121106371Y-81611931D01*
X121126106Y-81636678D01*
X121176575Y-81717000D01*
X121261844Y-81844614D01*
X121290804Y-81898795D01*
X121318219Y-81942425D01*
X121355457Y-82019751D01*
X121410802Y-82123293D01*
X121444506Y-82204663D01*
X121474892Y-82267759D01*
X121498022Y-82333862D01*
X121531724Y-82415225D01*
X121565802Y-82527566D01*
X121594154Y-82608590D01*
X121605620Y-82658826D01*
X121623456Y-82717623D01*
X121653398Y-82868157D01*
X121674505Y-82960630D01*
X121678049Y-82992085D01*
X121685100Y-83027533D01*
X121706337Y-83243153D01*
X121714934Y-83319453D01*
X121714934Y-83330435D01*
X121716073Y-83342000D01*
X121716073Y-83657999D01*
X121714934Y-83669563D01*
X121714934Y-83680547D01*
X121706336Y-83756853D01*
X121685100Y-83972466D01*
X121678049Y-84007912D01*
X121674505Y-84039370D01*
X121653397Y-84131848D01*
X121623456Y-84282376D01*
X121605621Y-84341169D01*
X121594154Y-84391410D01*
X121565800Y-84472440D01*
X121531724Y-84584774D01*
X121498025Y-84666130D01*
X121474892Y-84732241D01*
X121444503Y-84795342D01*
X121410802Y-84876706D01*
X121355462Y-84980238D01*
X121318219Y-85057575D01*
X121290800Y-85101210D01*
X121261844Y-85155385D01*
X121176586Y-85282982D01*
X121126106Y-85363322D01*
X121106367Y-85388073D01*
X121086291Y-85418120D01*
X120948887Y-85585547D01*
X120900968Y-85645636D01*
X120893192Y-85653411D01*
X120885829Y-85662384D01*
X120662384Y-85885829D01*
X120653411Y-85893192D01*
X120645636Y-85900968D01*
X120585547Y-85948887D01*
X120418120Y-86086291D01*
X120388073Y-86106367D01*
X120363322Y-86126106D01*
X120282982Y-86176586D01*
X120155385Y-86261844D01*
X120101210Y-86290800D01*
X120057575Y-86318219D01*
X119980238Y-86355462D01*
X119876706Y-86410802D01*
X119795342Y-86444503D01*
X119732241Y-86474892D01*
X119666130Y-86498025D01*
X119584774Y-86531724D01*
X119472440Y-86565800D01*
X119391410Y-86594154D01*
X119341169Y-86605621D01*
X119282376Y-86623456D01*
X119131848Y-86653397D01*
X119039370Y-86674505D01*
X119007912Y-86678049D01*
X118972466Y-86685100D01*
X118756848Y-86706337D01*
X118680547Y-86714934D01*
X118669564Y-86714934D01*
X118658000Y-86716073D01*
X118342000Y-86716073D01*
X118330436Y-86714934D01*
X118319453Y-86714934D01*
X118243153Y-86706337D01*
X118027533Y-86685100D01*
X117992085Y-86678049D01*
X117960630Y-86674505D01*
X117868157Y-86653398D01*
X117717623Y-86623456D01*
X117658826Y-86605620D01*
X117608590Y-86594154D01*
X117527566Y-86565802D01*
X117415225Y-86531724D01*
X117333862Y-86498022D01*
X117267759Y-86474892D01*
X117204663Y-86444506D01*
X117123293Y-86410802D01*
X117019751Y-86355457D01*
X116942425Y-86318219D01*
X116898795Y-86290804D01*
X116844614Y-86261844D01*
X116717000Y-86176575D01*
X116636678Y-86126106D01*
X116611931Y-86106371D01*
X116581879Y-86086291D01*
X116414417Y-85948858D01*
X116354364Y-85900968D01*
X116346593Y-85893197D01*
X116337615Y-85885829D01*
X116114170Y-85662384D01*
X116106801Y-85653405D01*
X116099032Y-85645636D01*
X116051147Y-85585590D01*
X115913708Y-85418120D01*
X115893626Y-85388065D01*
X115873894Y-85363322D01*
X115823429Y-85283008D01*
X115738155Y-85155385D01*
X115709192Y-85101200D01*
X115681781Y-85057575D01*
X115644546Y-84980256D01*
X115589197Y-84876706D01*
X115555489Y-84795328D01*
X115525108Y-84732241D01*
X115501980Y-84666146D01*
X115468275Y-84584774D01*
X115434192Y-84472418D01*
X115405846Y-84391410D01*
X115394381Y-84341182D01*
X115376543Y-84282376D01*
X115346594Y-84131814D01*
X115325495Y-84039370D01*
X115321951Y-84007924D01*
X115314899Y-83972466D01*
X115293661Y-83756831D01*
X115285066Y-83680547D01*
X115285066Y-83669563D01*
X115283927Y-83657999D01*
X115283927Y-83342000D01*
X115285066Y-83330435D01*
X115285066Y-83319453D01*
X115293660Y-83243175D01*
X115314899Y-83027533D01*
X115321952Y-82992073D01*
X115325495Y-82960630D01*
X115346593Y-82868191D01*
X115376543Y-82717623D01*
X115394382Y-82658813D01*
X115405846Y-82608590D01*
X115434189Y-82527587D01*
X115468275Y-82415225D01*
X115501982Y-82333847D01*
X115525108Y-82267759D01*
X115555486Y-82204678D01*
X115589197Y-82123293D01*
X115644551Y-82019733D01*
X115681781Y-81942425D01*
X115709188Y-81898805D01*
X115738155Y-81844614D01*
X115823440Y-81716975D01*
X115873894Y-81636678D01*
X115893622Y-81611939D01*
X115913708Y-81581879D01*
X116051175Y-81414374D01*
X116099032Y-81354364D01*
X116106797Y-81346598D01*
X116114170Y-81337615D01*
X116337615Y-81114170D01*
X116346598Y-81106797D01*
X116354364Y-81099032D01*
X116414374Y-81051175D01*
X116581879Y-80913708D01*
X116611939Y-80893622D01*
X116636678Y-80873894D01*
X116716975Y-80823440D01*
X116844614Y-80738155D01*
X116898805Y-80709188D01*
X116942425Y-80681781D01*
X117019733Y-80644551D01*
X117123293Y-80589197D01*
X117204678Y-80555486D01*
X117267759Y-80525108D01*
X117333847Y-80501982D01*
X117415225Y-80468275D01*
X117527587Y-80434189D01*
X117608590Y-80405846D01*
X117658813Y-80394382D01*
X117717623Y-80376543D01*
X117868191Y-80346593D01*
X117960630Y-80325495D01*
X117992073Y-80321952D01*
X118027533Y-80314899D01*
X118243175Y-80293660D01*
X118319453Y-80285066D01*
X118330435Y-80285066D01*
X118342000Y-80283927D01*
X118658000Y-80283927D01*
X118669565Y-80285066D01*
G37*
G36*
X166669565Y-80285066D02*
G01*
X166680547Y-80285066D01*
X166756826Y-80293660D01*
X166972466Y-80314899D01*
X167007924Y-80321951D01*
X167039370Y-80325495D01*
X167131814Y-80346594D01*
X167282376Y-80376543D01*
X167341182Y-80394381D01*
X167391410Y-80405846D01*
X167472418Y-80434192D01*
X167584774Y-80468275D01*
X167666146Y-80501980D01*
X167732241Y-80525108D01*
X167795328Y-80555489D01*
X167876706Y-80589197D01*
X167980256Y-80644546D01*
X168057575Y-80681781D01*
X168101200Y-80709192D01*
X168155385Y-80738155D01*
X168283008Y-80823429D01*
X168363322Y-80873894D01*
X168388065Y-80893626D01*
X168418120Y-80913708D01*
X168585590Y-81051147D01*
X168645636Y-81099032D01*
X168653405Y-81106801D01*
X168662384Y-81114170D01*
X168885829Y-81337615D01*
X168893197Y-81346593D01*
X168900968Y-81354364D01*
X168948858Y-81414417D01*
X169086291Y-81581879D01*
X169106371Y-81611931D01*
X169126106Y-81636678D01*
X169176575Y-81717000D01*
X169261844Y-81844614D01*
X169290804Y-81898795D01*
X169318219Y-81942425D01*
X169355457Y-82019751D01*
X169410802Y-82123293D01*
X169444506Y-82204663D01*
X169474892Y-82267759D01*
X169498022Y-82333862D01*
X169531724Y-82415225D01*
X169565802Y-82527566D01*
X169594154Y-82608590D01*
X169605620Y-82658826D01*
X169623456Y-82717623D01*
X169653398Y-82868157D01*
X169674505Y-82960630D01*
X169678049Y-82992085D01*
X169685100Y-83027533D01*
X169706337Y-83243153D01*
X169714934Y-83319453D01*
X169714934Y-83330435D01*
X169716073Y-83342000D01*
X169716073Y-83657999D01*
X169714934Y-83669563D01*
X169714934Y-83680547D01*
X169706336Y-83756853D01*
X169685100Y-83972466D01*
X169678049Y-84007912D01*
X169674505Y-84039370D01*
X169653397Y-84131848D01*
X169623456Y-84282376D01*
X169605621Y-84341169D01*
X169594154Y-84391410D01*
X169565800Y-84472440D01*
X169531724Y-84584774D01*
X169498025Y-84666130D01*
X169474892Y-84732241D01*
X169444503Y-84795342D01*
X169410802Y-84876706D01*
X169355462Y-84980238D01*
X169318219Y-85057575D01*
X169290800Y-85101210D01*
X169261844Y-85155385D01*
X169176586Y-85282982D01*
X169126106Y-85363322D01*
X169106367Y-85388073D01*
X169086291Y-85418120D01*
X168948887Y-85585547D01*
X168900968Y-85645636D01*
X168893192Y-85653411D01*
X168885829Y-85662384D01*
X168662384Y-85885829D01*
X168653411Y-85893192D01*
X168645636Y-85900968D01*
X168585547Y-85948887D01*
X168418120Y-86086291D01*
X168388073Y-86106367D01*
X168363322Y-86126106D01*
X168282982Y-86176586D01*
X168155385Y-86261844D01*
X168101210Y-86290800D01*
X168057575Y-86318219D01*
X167980238Y-86355462D01*
X167876706Y-86410802D01*
X167795342Y-86444503D01*
X167732241Y-86474892D01*
X167666130Y-86498025D01*
X167584774Y-86531724D01*
X167472440Y-86565800D01*
X167391410Y-86594154D01*
X167341169Y-86605621D01*
X167282376Y-86623456D01*
X167131848Y-86653397D01*
X167039370Y-86674505D01*
X167007912Y-86678049D01*
X166972466Y-86685100D01*
X166756848Y-86706337D01*
X166680547Y-86714934D01*
X166669564Y-86714934D01*
X166658000Y-86716073D01*
X166342000Y-86716073D01*
X166330436Y-86714934D01*
X166319453Y-86714934D01*
X166243153Y-86706337D01*
X166027533Y-86685100D01*
X165992085Y-86678049D01*
X165960630Y-86674505D01*
X165868157Y-86653398D01*
X165717623Y-86623456D01*
X165658826Y-86605620D01*
X165608590Y-86594154D01*
X165527566Y-86565802D01*
X165415225Y-86531724D01*
X165333862Y-86498022D01*
X165267759Y-86474892D01*
X165204663Y-86444506D01*
X165123293Y-86410802D01*
X165019751Y-86355457D01*
X164942425Y-86318219D01*
X164898795Y-86290804D01*
X164844614Y-86261844D01*
X164717000Y-86176575D01*
X164636678Y-86126106D01*
X164611931Y-86106371D01*
X164581879Y-86086291D01*
X164414417Y-85948858D01*
X164354364Y-85900968D01*
X164346593Y-85893197D01*
X164337615Y-85885829D01*
X164114170Y-85662384D01*
X164106801Y-85653405D01*
X164099032Y-85645636D01*
X164051147Y-85585590D01*
X163913708Y-85418120D01*
X163893626Y-85388065D01*
X163873894Y-85363322D01*
X163823429Y-85283008D01*
X163738155Y-85155385D01*
X163709192Y-85101200D01*
X163681781Y-85057575D01*
X163644546Y-84980256D01*
X163589197Y-84876706D01*
X163555489Y-84795328D01*
X163525108Y-84732241D01*
X163501980Y-84666146D01*
X163468275Y-84584774D01*
X163434192Y-84472418D01*
X163405846Y-84391410D01*
X163394381Y-84341182D01*
X163376543Y-84282376D01*
X163346594Y-84131814D01*
X163325495Y-84039370D01*
X163321951Y-84007924D01*
X163314899Y-83972466D01*
X163293661Y-83756831D01*
X163285066Y-83680547D01*
X163285066Y-83669563D01*
X163283927Y-83657999D01*
X163283927Y-83342000D01*
X163285066Y-83330435D01*
X163285066Y-83319453D01*
X163293660Y-83243175D01*
X163314899Y-83027533D01*
X163321952Y-82992073D01*
X163325495Y-82960630D01*
X163346593Y-82868191D01*
X163376543Y-82717623D01*
X163394382Y-82658813D01*
X163405846Y-82608590D01*
X163434189Y-82527587D01*
X163468275Y-82415225D01*
X163501982Y-82333847D01*
X163525108Y-82267759D01*
X163555486Y-82204678D01*
X163589197Y-82123293D01*
X163644551Y-82019733D01*
X163681781Y-81942425D01*
X163709188Y-81898805D01*
X163738155Y-81844614D01*
X163823440Y-81716975D01*
X163873894Y-81636678D01*
X163893622Y-81611939D01*
X163913708Y-81581879D01*
X164051175Y-81414374D01*
X164099032Y-81354364D01*
X164106797Y-81346598D01*
X164114170Y-81337615D01*
X164337615Y-81114170D01*
X164346598Y-81106797D01*
X164354364Y-81099032D01*
X164414374Y-81051175D01*
X164581879Y-80913708D01*
X164611939Y-80893622D01*
X164636678Y-80873894D01*
X164716975Y-80823440D01*
X164844614Y-80738155D01*
X164898805Y-80709188D01*
X164942425Y-80681781D01*
X165019733Y-80644551D01*
X165123293Y-80589197D01*
X165204678Y-80555486D01*
X165267759Y-80525108D01*
X165333847Y-80501982D01*
X165415225Y-80468275D01*
X165527587Y-80434189D01*
X165608590Y-80405846D01*
X165658813Y-80394382D01*
X165717623Y-80376543D01*
X165868191Y-80346593D01*
X165960630Y-80325495D01*
X165992073Y-80321952D01*
X166027533Y-80314899D01*
X166243175Y-80293660D01*
X166319453Y-80285066D01*
X166330435Y-80285066D01*
X166342000Y-80283927D01*
X166658000Y-80283927D01*
X166669565Y-80285066D01*
G37*
G36*
X160457654Y-80731522D02*
G01*
X160464142Y-80735858D01*
X160468478Y-80742346D01*
X160470000Y-80750000D01*
X160470000Y-82450000D01*
X160468478Y-82457654D01*
X160464142Y-82464142D01*
X160457654Y-82468478D01*
X160450000Y-82470000D01*
X158750000Y-82470000D01*
X158742346Y-82468478D01*
X158735858Y-82464142D01*
X158731522Y-82457654D01*
X158730000Y-82450000D01*
X158730000Y-80750000D01*
X158731522Y-80742346D01*
X158735858Y-80735858D01*
X158742346Y-80731522D01*
X158750000Y-80730000D01*
X160450000Y-80730000D01*
X160457654Y-80731522D01*
G37*
G36*
X124292548Y-80767462D02*
G01*
X124450115Y-80832729D01*
X124591922Y-80927481D01*
X124712519Y-81048078D01*
X124807271Y-81189885D01*
X124872538Y-81347452D01*
X124905811Y-81514725D01*
X124905811Y-81685275D01*
X124872538Y-81852548D01*
X124807271Y-82010115D01*
X124712519Y-82151922D01*
X124591922Y-82272519D01*
X124450115Y-82367271D01*
X124292548Y-82432538D01*
X124125275Y-82465811D01*
X123954725Y-82465811D01*
X123787452Y-82432538D01*
X123629885Y-82367271D01*
X123488078Y-82272519D01*
X123367481Y-82151922D01*
X123272729Y-82010115D01*
X123207462Y-81852548D01*
X123174189Y-81685275D01*
X123174189Y-81514725D01*
X123207462Y-81347452D01*
X123272729Y-81189885D01*
X123367481Y-81048078D01*
X123488078Y-80927481D01*
X123629885Y-80832729D01*
X123787452Y-80767462D01*
X123954725Y-80734189D01*
X124125275Y-80734189D01*
X124292548Y-80767462D01*
G37*
G36*
X126832548Y-80767462D02*
G01*
X126990115Y-80832729D01*
X127131922Y-80927481D01*
X127252519Y-81048078D01*
X127347271Y-81189885D01*
X127412538Y-81347452D01*
X127445811Y-81514725D01*
X127445811Y-81685275D01*
X127412538Y-81852548D01*
X127347271Y-82010115D01*
X127252519Y-82151922D01*
X127131922Y-82272519D01*
X126990115Y-82367271D01*
X126832548Y-82432538D01*
X126665275Y-82465811D01*
X126494725Y-82465811D01*
X126327452Y-82432538D01*
X126169885Y-82367271D01*
X126028078Y-82272519D01*
X125907481Y-82151922D01*
X125812729Y-82010115D01*
X125747462Y-81852548D01*
X125714189Y-81685275D01*
X125714189Y-81514725D01*
X125747462Y-81347452D01*
X125812729Y-81189885D01*
X125907481Y-81048078D01*
X126028078Y-80927481D01*
X126169885Y-80832729D01*
X126327452Y-80767462D01*
X126494725Y-80734189D01*
X126665275Y-80734189D01*
X126832548Y-80767462D01*
G37*
G36*
X129372548Y-80767462D02*
G01*
X129530115Y-80832729D01*
X129671922Y-80927481D01*
X129792519Y-81048078D01*
X129887271Y-81189885D01*
X129952538Y-81347452D01*
X129985811Y-81514725D01*
X129985811Y-81685275D01*
X129952538Y-81852548D01*
X129887271Y-82010115D01*
X129792519Y-82151922D01*
X129671922Y-82272519D01*
X129530115Y-82367271D01*
X129372548Y-82432538D01*
X129205275Y-82465811D01*
X129034725Y-82465811D01*
X128867452Y-82432538D01*
X128709885Y-82367271D01*
X128568078Y-82272519D01*
X128447481Y-82151922D01*
X128352729Y-82010115D01*
X128287462Y-81852548D01*
X128254189Y-81685275D01*
X128254189Y-81514725D01*
X128287462Y-81347452D01*
X128352729Y-81189885D01*
X128447481Y-81048078D01*
X128568078Y-80927481D01*
X128709885Y-80832729D01*
X128867452Y-80767462D01*
X129034725Y-80734189D01*
X129205275Y-80734189D01*
X129372548Y-80767462D01*
G37*
G36*
X131912548Y-80767462D02*
G01*
X132070115Y-80832729D01*
X132211922Y-80927481D01*
X132332519Y-81048078D01*
X132427271Y-81189885D01*
X132492538Y-81347452D01*
X132525811Y-81514725D01*
X132525811Y-81685275D01*
X132492538Y-81852548D01*
X132427271Y-82010115D01*
X132332519Y-82151922D01*
X132211922Y-82272519D01*
X132070115Y-82367271D01*
X131912548Y-82432538D01*
X131745275Y-82465811D01*
X131574725Y-82465811D01*
X131407452Y-82432538D01*
X131249885Y-82367271D01*
X131108078Y-82272519D01*
X130987481Y-82151922D01*
X130892729Y-82010115D01*
X130827462Y-81852548D01*
X130794189Y-81685275D01*
X130794189Y-81514725D01*
X130827462Y-81347452D01*
X130892729Y-81189885D01*
X130987481Y-81048078D01*
X131108078Y-80927481D01*
X131249885Y-80832729D01*
X131407452Y-80767462D01*
X131574725Y-80734189D01*
X131745275Y-80734189D01*
X131912548Y-80767462D01*
G37*
G36*
X134452548Y-80767462D02*
G01*
X134610115Y-80832729D01*
X134751922Y-80927481D01*
X134872519Y-81048078D01*
X134967271Y-81189885D01*
X135032538Y-81347452D01*
X135065811Y-81514725D01*
X135065811Y-81685275D01*
X135032538Y-81852548D01*
X134967271Y-82010115D01*
X134872519Y-82151922D01*
X134751922Y-82272519D01*
X134610115Y-82367271D01*
X134452548Y-82432538D01*
X134285275Y-82465811D01*
X134114725Y-82465811D01*
X133947452Y-82432538D01*
X133789885Y-82367271D01*
X133648078Y-82272519D01*
X133527481Y-82151922D01*
X133432729Y-82010115D01*
X133367462Y-81852548D01*
X133334189Y-81685275D01*
X133334189Y-81514725D01*
X133367462Y-81347452D01*
X133432729Y-81189885D01*
X133527481Y-81048078D01*
X133648078Y-80927481D01*
X133789885Y-80832729D01*
X133947452Y-80767462D01*
X134114725Y-80734189D01*
X134285275Y-80734189D01*
X134452548Y-80767462D01*
G37*
G36*
X136992548Y-80767462D02*
G01*
X137150115Y-80832729D01*
X137291922Y-80927481D01*
X137412519Y-81048078D01*
X137507271Y-81189885D01*
X137572538Y-81347452D01*
X137605811Y-81514725D01*
X137605811Y-81685275D01*
X137572538Y-81852548D01*
X137507271Y-82010115D01*
X137412519Y-82151922D01*
X137291922Y-82272519D01*
X137150115Y-82367271D01*
X136992548Y-82432538D01*
X136825275Y-82465811D01*
X136654725Y-82465811D01*
X136487452Y-82432538D01*
X136329885Y-82367271D01*
X136188078Y-82272519D01*
X136067481Y-82151922D01*
X135972729Y-82010115D01*
X135907462Y-81852548D01*
X135874189Y-81685275D01*
X135874189Y-81514725D01*
X135907462Y-81347452D01*
X135972729Y-81189885D01*
X136067481Y-81048078D01*
X136188078Y-80927481D01*
X136329885Y-80832729D01*
X136487452Y-80767462D01*
X136654725Y-80734189D01*
X136825275Y-80734189D01*
X136992548Y-80767462D01*
G37*
G36*
X139532548Y-80767462D02*
G01*
X139690115Y-80832729D01*
X139831922Y-80927481D01*
X139952519Y-81048078D01*
X140047271Y-81189885D01*
X140112538Y-81347452D01*
X140145811Y-81514725D01*
X140145811Y-81685275D01*
X140112538Y-81852548D01*
X140047271Y-82010115D01*
X139952519Y-82151922D01*
X139831922Y-82272519D01*
X139690115Y-82367271D01*
X139532548Y-82432538D01*
X139365275Y-82465811D01*
X139194725Y-82465811D01*
X139027452Y-82432538D01*
X138869885Y-82367271D01*
X138728078Y-82272519D01*
X138607481Y-82151922D01*
X138512729Y-82010115D01*
X138447462Y-81852548D01*
X138414189Y-81685275D01*
X138414189Y-81514725D01*
X138447462Y-81347452D01*
X138512729Y-81189885D01*
X138607481Y-81048078D01*
X138728078Y-80927481D01*
X138869885Y-80832729D01*
X139027452Y-80767462D01*
X139194725Y-80734189D01*
X139365275Y-80734189D01*
X139532548Y-80767462D01*
G37*
G36*
X142072548Y-80767462D02*
G01*
X142230115Y-80832729D01*
X142371922Y-80927481D01*
X142492519Y-81048078D01*
X142587271Y-81189885D01*
X142652538Y-81347452D01*
X142685811Y-81514725D01*
X142685811Y-81685275D01*
X142652538Y-81852548D01*
X142587271Y-82010115D01*
X142492519Y-82151922D01*
X142371922Y-82272519D01*
X142230115Y-82367271D01*
X142072548Y-82432538D01*
X141905275Y-82465811D01*
X141734725Y-82465811D01*
X141567452Y-82432538D01*
X141409885Y-82367271D01*
X141268078Y-82272519D01*
X141147481Y-82151922D01*
X141052729Y-82010115D01*
X140987462Y-81852548D01*
X140954189Y-81685275D01*
X140954189Y-81514725D01*
X140987462Y-81347452D01*
X141052729Y-81189885D01*
X141147481Y-81048078D01*
X141268078Y-80927481D01*
X141409885Y-80832729D01*
X141567452Y-80767462D01*
X141734725Y-80734189D01*
X141905275Y-80734189D01*
X142072548Y-80767462D01*
G37*
G36*
X144612548Y-80767462D02*
G01*
X144770115Y-80832729D01*
X144911922Y-80927481D01*
X145032519Y-81048078D01*
X145127271Y-81189885D01*
X145192538Y-81347452D01*
X145225811Y-81514725D01*
X145225811Y-81685275D01*
X145192538Y-81852548D01*
X145127271Y-82010115D01*
X145032519Y-82151922D01*
X144911922Y-82272519D01*
X144770115Y-82367271D01*
X144612548Y-82432538D01*
X144445275Y-82465811D01*
X144274725Y-82465811D01*
X144107452Y-82432538D01*
X143949885Y-82367271D01*
X143808078Y-82272519D01*
X143687481Y-82151922D01*
X143592729Y-82010115D01*
X143527462Y-81852548D01*
X143494189Y-81685275D01*
X143494189Y-81514725D01*
X143527462Y-81347452D01*
X143592729Y-81189885D01*
X143687481Y-81048078D01*
X143808078Y-80927481D01*
X143949885Y-80832729D01*
X144107452Y-80767462D01*
X144274725Y-80734189D01*
X144445275Y-80734189D01*
X144612548Y-80767462D01*
G37*
G36*
X147152548Y-80767462D02*
G01*
X147310115Y-80832729D01*
X147451922Y-80927481D01*
X147572519Y-81048078D01*
X147667271Y-81189885D01*
X147732538Y-81347452D01*
X147765811Y-81514725D01*
X147765811Y-81685275D01*
X147732538Y-81852548D01*
X147667271Y-82010115D01*
X147572519Y-82151922D01*
X147451922Y-82272519D01*
X147310115Y-82367271D01*
X147152548Y-82432538D01*
X146985275Y-82465811D01*
X146814725Y-82465811D01*
X146647452Y-82432538D01*
X146489885Y-82367271D01*
X146348078Y-82272519D01*
X146227481Y-82151922D01*
X146132729Y-82010115D01*
X146067462Y-81852548D01*
X146034189Y-81685275D01*
X146034189Y-81514725D01*
X146067462Y-81347452D01*
X146132729Y-81189885D01*
X146227481Y-81048078D01*
X146348078Y-80927481D01*
X146489885Y-80832729D01*
X146647452Y-80767462D01*
X146814725Y-80734189D01*
X146985275Y-80734189D01*
X147152548Y-80767462D01*
G37*
G36*
X149692548Y-80767462D02*
G01*
X149850115Y-80832729D01*
X149991922Y-80927481D01*
X150112519Y-81048078D01*
X150207271Y-81189885D01*
X150272538Y-81347452D01*
X150305811Y-81514725D01*
X150305811Y-81685275D01*
X150272538Y-81852548D01*
X150207271Y-82010115D01*
X150112519Y-82151922D01*
X149991922Y-82272519D01*
X149850115Y-82367271D01*
X149692548Y-82432538D01*
X149525275Y-82465811D01*
X149354725Y-82465811D01*
X149187452Y-82432538D01*
X149029885Y-82367271D01*
X148888078Y-82272519D01*
X148767481Y-82151922D01*
X148672729Y-82010115D01*
X148607462Y-81852548D01*
X148574189Y-81685275D01*
X148574189Y-81514725D01*
X148607462Y-81347452D01*
X148672729Y-81189885D01*
X148767481Y-81048078D01*
X148888078Y-80927481D01*
X149029885Y-80832729D01*
X149187452Y-80767462D01*
X149354725Y-80734189D01*
X149525275Y-80734189D01*
X149692548Y-80767462D01*
G37*
G36*
X152232548Y-80767462D02*
G01*
X152390115Y-80832729D01*
X152531922Y-80927481D01*
X152652519Y-81048078D01*
X152747271Y-81189885D01*
X152812538Y-81347452D01*
X152845811Y-81514725D01*
X152845811Y-81685275D01*
X152812538Y-81852548D01*
X152747271Y-82010115D01*
X152652519Y-82151922D01*
X152531922Y-82272519D01*
X152390115Y-82367271D01*
X152232548Y-82432538D01*
X152065275Y-82465811D01*
X151894725Y-82465811D01*
X151727452Y-82432538D01*
X151569885Y-82367271D01*
X151428078Y-82272519D01*
X151307481Y-82151922D01*
X151212729Y-82010115D01*
X151147462Y-81852548D01*
X151114189Y-81685275D01*
X151114189Y-81514725D01*
X151147462Y-81347452D01*
X151212729Y-81189885D01*
X151307481Y-81048078D01*
X151428078Y-80927481D01*
X151569885Y-80832729D01*
X151727452Y-80767462D01*
X151894725Y-80734189D01*
X152065275Y-80734189D01*
X152232548Y-80767462D01*
G37*
G36*
X154772548Y-80767462D02*
G01*
X154930115Y-80832729D01*
X155071922Y-80927481D01*
X155192519Y-81048078D01*
X155287271Y-81189885D01*
X155352538Y-81347452D01*
X155385811Y-81514725D01*
X155385811Y-81685275D01*
X155352538Y-81852548D01*
X155287271Y-82010115D01*
X155192519Y-82151922D01*
X155071922Y-82272519D01*
X154930115Y-82367271D01*
X154772548Y-82432538D01*
X154605275Y-82465811D01*
X154434725Y-82465811D01*
X154267452Y-82432538D01*
X154109885Y-82367271D01*
X153968078Y-82272519D01*
X153847481Y-82151922D01*
X153752729Y-82010115D01*
X153687462Y-81852548D01*
X153654189Y-81685275D01*
X153654189Y-81514725D01*
X153687462Y-81347452D01*
X153752729Y-81189885D01*
X153847481Y-81048078D01*
X153968078Y-80927481D01*
X154109885Y-80832729D01*
X154267452Y-80767462D01*
X154434725Y-80734189D01*
X154605275Y-80734189D01*
X154772548Y-80767462D01*
G37*
G36*
X157312548Y-80767462D02*
G01*
X157470115Y-80832729D01*
X157611922Y-80927481D01*
X157732519Y-81048078D01*
X157827271Y-81189885D01*
X157892538Y-81347452D01*
X157925811Y-81514725D01*
X157925811Y-81685275D01*
X157892538Y-81852548D01*
X157827271Y-82010115D01*
X157732519Y-82151922D01*
X157611922Y-82272519D01*
X157470115Y-82367271D01*
X157312548Y-82432538D01*
X157145275Y-82465811D01*
X156974725Y-82465811D01*
X156807452Y-82432538D01*
X156649885Y-82367271D01*
X156508078Y-82272519D01*
X156387481Y-82151922D01*
X156292729Y-82010115D01*
X156227462Y-81852548D01*
X156194189Y-81685275D01*
X156194189Y-81514725D01*
X156227462Y-81347452D01*
X156292729Y-81189885D01*
X156387481Y-81048078D01*
X156508078Y-80927481D01*
X156649885Y-80832729D01*
X156807452Y-80767462D01*
X156974725Y-80734189D01*
X157145275Y-80734189D01*
X157312548Y-80767462D01*
G37*
M02*
