%TF.GenerationSoftware,KiCad,Pcbnew,9.0.4*%
%TF.CreationDate,2026-03-21T16:33:42+05:30*%
%TF.ProjectId,TI_MSP_DevKit,54495f4d-5350-45f4-9465-764b69742e6b,rev?*%
%TF.SameCoordinates,Original*%
%TF.FileFunction,Legend,Top*%
%TF.FilePolarity,Positive*%
%FSLAX46Y46*%
G04 Gerber Fmt 4.6, Leading zero omitted, Abs format (unit mm)*
G04 Created by KiCad (PCBNEW 9.0.4) date 2026-03-21 16:33:42*
%MOMM*%
%LPD*%
G01*
G04 APERTURE LIST*
%ADD10C,0.100000*%
%ADD11C,0.200000*%
%ADD12C,0.150000*%
%ADD13C,0.125000*%
%ADD14C,0.120000*%
%ADD15C,0.000000*%
G04 APERTURE END LIST*
D10*
X139633609Y-106515163D02*
X139133609Y-106515163D01*
X139133609Y-106515163D02*
X139133609Y-106324687D01*
X139133609Y-106324687D02*
X139157419Y-106277068D01*
X139157419Y-106277068D02*
X139181228Y-106253258D01*
X139181228Y-106253258D02*
X139228847Y-106229449D01*
X139228847Y-106229449D02*
X139300276Y-106229449D01*
X139300276Y-106229449D02*
X139347895Y-106253258D01*
X139347895Y-106253258D02*
X139371704Y-106277068D01*
X139371704Y-106277068D02*
X139395514Y-106324687D01*
X139395514Y-106324687D02*
X139395514Y-106515163D01*
X139371704Y-105848496D02*
X139395514Y-105777068D01*
X139395514Y-105777068D02*
X139419323Y-105753258D01*
X139419323Y-105753258D02*
X139466942Y-105729449D01*
X139466942Y-105729449D02*
X139538371Y-105729449D01*
X139538371Y-105729449D02*
X139585990Y-105753258D01*
X139585990Y-105753258D02*
X139609800Y-105777068D01*
X139609800Y-105777068D02*
X139633609Y-105824687D01*
X139633609Y-105824687D02*
X139633609Y-106015163D01*
X139633609Y-106015163D02*
X139133609Y-106015163D01*
X139133609Y-106015163D02*
X139133609Y-105848496D01*
X139133609Y-105848496D02*
X139157419Y-105800877D01*
X139157419Y-105800877D02*
X139181228Y-105777068D01*
X139181228Y-105777068D02*
X139228847Y-105753258D01*
X139228847Y-105753258D02*
X139276466Y-105753258D01*
X139276466Y-105753258D02*
X139324085Y-105777068D01*
X139324085Y-105777068D02*
X139347895Y-105800877D01*
X139347895Y-105800877D02*
X139371704Y-105848496D01*
X139371704Y-105848496D02*
X139371704Y-106015163D01*
X139633609Y-105253258D02*
X139633609Y-105538972D01*
X139633609Y-105396115D02*
X139133609Y-105396115D01*
X139133609Y-105396115D02*
X139205038Y-105443734D01*
X139205038Y-105443734D02*
X139252657Y-105491353D01*
X139252657Y-105491353D02*
X139276466Y-105538972D01*
X139133609Y-105086592D02*
X139133609Y-104753259D01*
X139133609Y-104753259D02*
X139633609Y-104967544D01*
X149973609Y-85085163D02*
X149473609Y-85085163D01*
X149473609Y-85085163D02*
X149473609Y-84894687D01*
X149473609Y-84894687D02*
X149497419Y-84847068D01*
X149497419Y-84847068D02*
X149521228Y-84823258D01*
X149521228Y-84823258D02*
X149568847Y-84799449D01*
X149568847Y-84799449D02*
X149640276Y-84799449D01*
X149640276Y-84799449D02*
X149687895Y-84823258D01*
X149687895Y-84823258D02*
X149711704Y-84847068D01*
X149711704Y-84847068D02*
X149735514Y-84894687D01*
X149735514Y-84894687D02*
X149735514Y-85085163D01*
X149830752Y-84608972D02*
X149830752Y-84370877D01*
X149973609Y-84656591D02*
X149473609Y-84489925D01*
X149473609Y-84489925D02*
X149973609Y-84323258D01*
X149521228Y-84180401D02*
X149497419Y-84156592D01*
X149497419Y-84156592D02*
X149473609Y-84108973D01*
X149473609Y-84108973D02*
X149473609Y-83989925D01*
X149473609Y-83989925D02*
X149497419Y-83942306D01*
X149497419Y-83942306D02*
X149521228Y-83918497D01*
X149521228Y-83918497D02*
X149568847Y-83894687D01*
X149568847Y-83894687D02*
X149616466Y-83894687D01*
X149616466Y-83894687D02*
X149687895Y-83918497D01*
X149687895Y-83918497D02*
X149973609Y-84204211D01*
X149973609Y-84204211D02*
X149973609Y-83894687D01*
X149640276Y-83466116D02*
X149973609Y-83466116D01*
X149449800Y-83585164D02*
X149806942Y-83704211D01*
X149806942Y-83704211D02*
X149806942Y-83394688D01*
X152263609Y-85225163D02*
X151763609Y-85225163D01*
X151763609Y-85225163D02*
X151763609Y-85034687D01*
X151763609Y-85034687D02*
X151787419Y-84987068D01*
X151787419Y-84987068D02*
X151811228Y-84963258D01*
X151811228Y-84963258D02*
X151858847Y-84939449D01*
X151858847Y-84939449D02*
X151930276Y-84939449D01*
X151930276Y-84939449D02*
X151977895Y-84963258D01*
X151977895Y-84963258D02*
X152001704Y-84987068D01*
X152001704Y-84987068D02*
X152025514Y-85034687D01*
X152025514Y-85034687D02*
X152025514Y-85225163D01*
X152001704Y-84558496D02*
X152025514Y-84487068D01*
X152025514Y-84487068D02*
X152049323Y-84463258D01*
X152049323Y-84463258D02*
X152096942Y-84439449D01*
X152096942Y-84439449D02*
X152168371Y-84439449D01*
X152168371Y-84439449D02*
X152215990Y-84463258D01*
X152215990Y-84463258D02*
X152239800Y-84487068D01*
X152239800Y-84487068D02*
X152263609Y-84534687D01*
X152263609Y-84534687D02*
X152263609Y-84725163D01*
X152263609Y-84725163D02*
X151763609Y-84725163D01*
X151763609Y-84725163D02*
X151763609Y-84558496D01*
X151763609Y-84558496D02*
X151787419Y-84510877D01*
X151787419Y-84510877D02*
X151811228Y-84487068D01*
X151811228Y-84487068D02*
X151858847Y-84463258D01*
X151858847Y-84463258D02*
X151906466Y-84463258D01*
X151906466Y-84463258D02*
X151954085Y-84487068D01*
X151954085Y-84487068D02*
X151977895Y-84510877D01*
X151977895Y-84510877D02*
X152001704Y-84558496D01*
X152001704Y-84558496D02*
X152001704Y-84725163D01*
X151811228Y-84248972D02*
X151787419Y-84225163D01*
X151787419Y-84225163D02*
X151763609Y-84177544D01*
X151763609Y-84177544D02*
X151763609Y-84058496D01*
X151763609Y-84058496D02*
X151787419Y-84010877D01*
X151787419Y-84010877D02*
X151811228Y-83987068D01*
X151811228Y-83987068D02*
X151858847Y-83963258D01*
X151858847Y-83963258D02*
X151906466Y-83963258D01*
X151906466Y-83963258D02*
X151977895Y-83987068D01*
X151977895Y-83987068D02*
X152263609Y-84272782D01*
X152263609Y-84272782D02*
X152263609Y-83963258D01*
X151930276Y-83534687D02*
X152263609Y-83534687D01*
X151739800Y-83653735D02*
X152096942Y-83772782D01*
X152096942Y-83772782D02*
X152096942Y-83463259D01*
D11*
X126074435Y-102900552D02*
X126312530Y-103567219D01*
X126312530Y-103567219D02*
X126550625Y-102900552D01*
X127455387Y-103567219D02*
X126883959Y-103567219D01*
X127169673Y-103567219D02*
X127169673Y-102567219D01*
X127169673Y-102567219D02*
X127074435Y-102710076D01*
X127074435Y-102710076D02*
X126979197Y-102805314D01*
X126979197Y-102805314D02*
X126883959Y-102852933D01*
X127883959Y-103471980D02*
X127931578Y-103519600D01*
X127931578Y-103519600D02*
X127883959Y-103567219D01*
X127883959Y-103567219D02*
X127836340Y-103519600D01*
X127836340Y-103519600D02*
X127883959Y-103471980D01*
X127883959Y-103471980D02*
X127883959Y-103567219D01*
X128550625Y-102567219D02*
X128645863Y-102567219D01*
X128645863Y-102567219D02*
X128741101Y-102614838D01*
X128741101Y-102614838D02*
X128788720Y-102662457D01*
X128788720Y-102662457D02*
X128836339Y-102757695D01*
X128836339Y-102757695D02*
X128883958Y-102948171D01*
X128883958Y-102948171D02*
X128883958Y-103186266D01*
X128883958Y-103186266D02*
X128836339Y-103376742D01*
X128836339Y-103376742D02*
X128788720Y-103471980D01*
X128788720Y-103471980D02*
X128741101Y-103519600D01*
X128741101Y-103519600D02*
X128645863Y-103567219D01*
X128645863Y-103567219D02*
X128550625Y-103567219D01*
X128550625Y-103567219D02*
X128455387Y-103519600D01*
X128455387Y-103519600D02*
X128407768Y-103471980D01*
X128407768Y-103471980D02*
X128360149Y-103376742D01*
X128360149Y-103376742D02*
X128312530Y-103186266D01*
X128312530Y-103186266D02*
X128312530Y-102948171D01*
X128312530Y-102948171D02*
X128360149Y-102757695D01*
X128360149Y-102757695D02*
X128407768Y-102662457D01*
X128407768Y-102662457D02*
X128455387Y-102614838D01*
X128455387Y-102614838D02*
X128550625Y-102567219D01*
D10*
X142133609Y-106415163D02*
X141633609Y-106415163D01*
X141633609Y-106415163D02*
X141633609Y-106224687D01*
X141633609Y-106224687D02*
X141657419Y-106177068D01*
X141657419Y-106177068D02*
X141681228Y-106153258D01*
X141681228Y-106153258D02*
X141728847Y-106129449D01*
X141728847Y-106129449D02*
X141800276Y-106129449D01*
X141800276Y-106129449D02*
X141847895Y-106153258D01*
X141847895Y-106153258D02*
X141871704Y-106177068D01*
X141871704Y-106177068D02*
X141895514Y-106224687D01*
X141895514Y-106224687D02*
X141895514Y-106415163D01*
X141990752Y-105938972D02*
X141990752Y-105700877D01*
X142133609Y-105986591D02*
X141633609Y-105819925D01*
X141633609Y-105819925D02*
X142133609Y-105653258D01*
X142133609Y-105224687D02*
X142133609Y-105510401D01*
X142133609Y-105367544D02*
X141633609Y-105367544D01*
X141633609Y-105367544D02*
X141705038Y-105415163D01*
X141705038Y-105415163D02*
X141752657Y-105462782D01*
X141752657Y-105462782D02*
X141776466Y-105510401D01*
X141847895Y-104938973D02*
X141824085Y-104986592D01*
X141824085Y-104986592D02*
X141800276Y-105010402D01*
X141800276Y-105010402D02*
X141752657Y-105034211D01*
X141752657Y-105034211D02*
X141728847Y-105034211D01*
X141728847Y-105034211D02*
X141681228Y-105010402D01*
X141681228Y-105010402D02*
X141657419Y-104986592D01*
X141657419Y-104986592D02*
X141633609Y-104938973D01*
X141633609Y-104938973D02*
X141633609Y-104843735D01*
X141633609Y-104843735D02*
X141657419Y-104796116D01*
X141657419Y-104796116D02*
X141681228Y-104772307D01*
X141681228Y-104772307D02*
X141728847Y-104748497D01*
X141728847Y-104748497D02*
X141752657Y-104748497D01*
X141752657Y-104748497D02*
X141800276Y-104772307D01*
X141800276Y-104772307D02*
X141824085Y-104796116D01*
X141824085Y-104796116D02*
X141847895Y-104843735D01*
X141847895Y-104843735D02*
X141847895Y-104938973D01*
X141847895Y-104938973D02*
X141871704Y-104986592D01*
X141871704Y-104986592D02*
X141895514Y-105010402D01*
X141895514Y-105010402D02*
X141943133Y-105034211D01*
X141943133Y-105034211D02*
X142038371Y-105034211D01*
X142038371Y-105034211D02*
X142085990Y-105010402D01*
X142085990Y-105010402D02*
X142109800Y-104986592D01*
X142109800Y-104986592D02*
X142133609Y-104938973D01*
X142133609Y-104938973D02*
X142133609Y-104843735D01*
X142133609Y-104843735D02*
X142109800Y-104796116D01*
X142109800Y-104796116D02*
X142085990Y-104772307D01*
X142085990Y-104772307D02*
X142038371Y-104748497D01*
X142038371Y-104748497D02*
X141943133Y-104748497D01*
X141943133Y-104748497D02*
X141895514Y-104772307D01*
X141895514Y-104772307D02*
X141871704Y-104796116D01*
X141871704Y-104796116D02*
X141847895Y-104843735D01*
X137693609Y-84985163D02*
X137193609Y-84985163D01*
X137193609Y-84985163D02*
X137193609Y-84794687D01*
X137193609Y-84794687D02*
X137217419Y-84747068D01*
X137217419Y-84747068D02*
X137241228Y-84723258D01*
X137241228Y-84723258D02*
X137288847Y-84699449D01*
X137288847Y-84699449D02*
X137360276Y-84699449D01*
X137360276Y-84699449D02*
X137407895Y-84723258D01*
X137407895Y-84723258D02*
X137431704Y-84747068D01*
X137431704Y-84747068D02*
X137455514Y-84794687D01*
X137455514Y-84794687D02*
X137455514Y-84985163D01*
X137550752Y-84508972D02*
X137550752Y-84270877D01*
X137693609Y-84556591D02*
X137193609Y-84389925D01*
X137193609Y-84389925D02*
X137693609Y-84223258D01*
X137193609Y-84104211D02*
X137193609Y-83794687D01*
X137193609Y-83794687D02*
X137384085Y-83961354D01*
X137384085Y-83961354D02*
X137384085Y-83889925D01*
X137384085Y-83889925D02*
X137407895Y-83842306D01*
X137407895Y-83842306D02*
X137431704Y-83818497D01*
X137431704Y-83818497D02*
X137479323Y-83794687D01*
X137479323Y-83794687D02*
X137598371Y-83794687D01*
X137598371Y-83794687D02*
X137645990Y-83818497D01*
X137645990Y-83818497D02*
X137669800Y-83842306D01*
X137669800Y-83842306D02*
X137693609Y-83889925D01*
X137693609Y-83889925D02*
X137693609Y-84032782D01*
X137693609Y-84032782D02*
X137669800Y-84080401D01*
X137669800Y-84080401D02*
X137645990Y-84104211D01*
X137693609Y-83318497D02*
X137693609Y-83604211D01*
X137693609Y-83461354D02*
X137193609Y-83461354D01*
X137193609Y-83461354D02*
X137265038Y-83508973D01*
X137265038Y-83508973D02*
X137312657Y-83556592D01*
X137312657Y-83556592D02*
X137336466Y-83604211D01*
X160033609Y-106215163D02*
X159533609Y-106215163D01*
X159533609Y-106215163D02*
X159533609Y-106024687D01*
X159533609Y-106024687D02*
X159557419Y-105977068D01*
X159557419Y-105977068D02*
X159581228Y-105953258D01*
X159581228Y-105953258D02*
X159628847Y-105929449D01*
X159628847Y-105929449D02*
X159700276Y-105929449D01*
X159700276Y-105929449D02*
X159747895Y-105953258D01*
X159747895Y-105953258D02*
X159771704Y-105977068D01*
X159771704Y-105977068D02*
X159795514Y-106024687D01*
X159795514Y-106024687D02*
X159795514Y-106215163D01*
X159771704Y-105548496D02*
X159795514Y-105477068D01*
X159795514Y-105477068D02*
X159819323Y-105453258D01*
X159819323Y-105453258D02*
X159866942Y-105429449D01*
X159866942Y-105429449D02*
X159938371Y-105429449D01*
X159938371Y-105429449D02*
X159985990Y-105453258D01*
X159985990Y-105453258D02*
X160009800Y-105477068D01*
X160009800Y-105477068D02*
X160033609Y-105524687D01*
X160033609Y-105524687D02*
X160033609Y-105715163D01*
X160033609Y-105715163D02*
X159533609Y-105715163D01*
X159533609Y-105715163D02*
X159533609Y-105548496D01*
X159533609Y-105548496D02*
X159557419Y-105500877D01*
X159557419Y-105500877D02*
X159581228Y-105477068D01*
X159581228Y-105477068D02*
X159628847Y-105453258D01*
X159628847Y-105453258D02*
X159676466Y-105453258D01*
X159676466Y-105453258D02*
X159724085Y-105477068D01*
X159724085Y-105477068D02*
X159747895Y-105500877D01*
X159747895Y-105500877D02*
X159771704Y-105548496D01*
X159771704Y-105548496D02*
X159771704Y-105715163D01*
X160033609Y-104953258D02*
X160033609Y-105238972D01*
X160033609Y-105096115D02*
X159533609Y-105096115D01*
X159533609Y-105096115D02*
X159605038Y-105143734D01*
X159605038Y-105143734D02*
X159652657Y-105191353D01*
X159652657Y-105191353D02*
X159676466Y-105238972D01*
X159533609Y-104524687D02*
X159533609Y-104619925D01*
X159533609Y-104619925D02*
X159557419Y-104667544D01*
X159557419Y-104667544D02*
X159581228Y-104691354D01*
X159581228Y-104691354D02*
X159652657Y-104738973D01*
X159652657Y-104738973D02*
X159747895Y-104762782D01*
X159747895Y-104762782D02*
X159938371Y-104762782D01*
X159938371Y-104762782D02*
X159985990Y-104738973D01*
X159985990Y-104738973D02*
X160009800Y-104715163D01*
X160009800Y-104715163D02*
X160033609Y-104667544D01*
X160033609Y-104667544D02*
X160033609Y-104572306D01*
X160033609Y-104572306D02*
X160009800Y-104524687D01*
X160009800Y-104524687D02*
X159985990Y-104500878D01*
X159985990Y-104500878D02*
X159938371Y-104477068D01*
X159938371Y-104477068D02*
X159819323Y-104477068D01*
X159819323Y-104477068D02*
X159771704Y-104500878D01*
X159771704Y-104500878D02*
X159747895Y-104524687D01*
X159747895Y-104524687D02*
X159724085Y-104572306D01*
X159724085Y-104572306D02*
X159724085Y-104667544D01*
X159724085Y-104667544D02*
X159747895Y-104715163D01*
X159747895Y-104715163D02*
X159771704Y-104738973D01*
X159771704Y-104738973D02*
X159819323Y-104762782D01*
X153784836Y-106433609D02*
X153784836Y-105933609D01*
X153784836Y-105933609D02*
X153975312Y-105933609D01*
X153975312Y-105933609D02*
X154022931Y-105957419D01*
X154022931Y-105957419D02*
X154046741Y-105981228D01*
X154046741Y-105981228D02*
X154070550Y-106028847D01*
X154070550Y-106028847D02*
X154070550Y-106100276D01*
X154070550Y-106100276D02*
X154046741Y-106147895D01*
X154046741Y-106147895D02*
X154022931Y-106171704D01*
X154022931Y-106171704D02*
X153975312Y-106195514D01*
X153975312Y-106195514D02*
X153784836Y-106195514D01*
X154261027Y-106290752D02*
X154499122Y-106290752D01*
X154213408Y-106433609D02*
X154380074Y-105933609D01*
X154380074Y-105933609D02*
X154546741Y-106433609D01*
X154975312Y-106433609D02*
X154689598Y-106433609D01*
X154832455Y-106433609D02*
X154832455Y-105933609D01*
X154832455Y-105933609D02*
X154784836Y-106005038D01*
X154784836Y-106005038D02*
X154737217Y-106052657D01*
X154737217Y-106052657D02*
X154689598Y-106076466D01*
X155141978Y-105933609D02*
X155451502Y-105933609D01*
X155451502Y-105933609D02*
X155284835Y-106124085D01*
X155284835Y-106124085D02*
X155356264Y-106124085D01*
X155356264Y-106124085D02*
X155403883Y-106147895D01*
X155403883Y-106147895D02*
X155427692Y-106171704D01*
X155427692Y-106171704D02*
X155451502Y-106219323D01*
X155451502Y-106219323D02*
X155451502Y-106338371D01*
X155451502Y-106338371D02*
X155427692Y-106385990D01*
X155427692Y-106385990D02*
X155403883Y-106409800D01*
X155403883Y-106409800D02*
X155356264Y-106433609D01*
X155356264Y-106433609D02*
X155213407Y-106433609D01*
X155213407Y-106433609D02*
X155165788Y-106409800D01*
X155165788Y-106409800D02*
X155141978Y-106385990D01*
X158934836Y-84053609D02*
X158934836Y-83553609D01*
X158934836Y-83553609D02*
X159125312Y-83553609D01*
X159125312Y-83553609D02*
X159172931Y-83577419D01*
X159172931Y-83577419D02*
X159196741Y-83601228D01*
X159196741Y-83601228D02*
X159220550Y-83648847D01*
X159220550Y-83648847D02*
X159220550Y-83720276D01*
X159220550Y-83720276D02*
X159196741Y-83767895D01*
X159196741Y-83767895D02*
X159172931Y-83791704D01*
X159172931Y-83791704D02*
X159125312Y-83815514D01*
X159125312Y-83815514D02*
X158934836Y-83815514D01*
X159601503Y-83791704D02*
X159672931Y-83815514D01*
X159672931Y-83815514D02*
X159696741Y-83839323D01*
X159696741Y-83839323D02*
X159720550Y-83886942D01*
X159720550Y-83886942D02*
X159720550Y-83958371D01*
X159720550Y-83958371D02*
X159696741Y-84005990D01*
X159696741Y-84005990D02*
X159672931Y-84029800D01*
X159672931Y-84029800D02*
X159625312Y-84053609D01*
X159625312Y-84053609D02*
X159434836Y-84053609D01*
X159434836Y-84053609D02*
X159434836Y-83553609D01*
X159434836Y-83553609D02*
X159601503Y-83553609D01*
X159601503Y-83553609D02*
X159649122Y-83577419D01*
X159649122Y-83577419D02*
X159672931Y-83601228D01*
X159672931Y-83601228D02*
X159696741Y-83648847D01*
X159696741Y-83648847D02*
X159696741Y-83696466D01*
X159696741Y-83696466D02*
X159672931Y-83744085D01*
X159672931Y-83744085D02*
X159649122Y-83767895D01*
X159649122Y-83767895D02*
X159601503Y-83791704D01*
X159601503Y-83791704D02*
X159434836Y-83791704D01*
X160196741Y-84053609D02*
X159911027Y-84053609D01*
X160053884Y-84053609D02*
X160053884Y-83553609D01*
X160053884Y-83553609D02*
X160006265Y-83625038D01*
X160006265Y-83625038D02*
X159958646Y-83672657D01*
X159958646Y-83672657D02*
X159911027Y-83696466D01*
X160482455Y-83767895D02*
X160434836Y-83744085D01*
X160434836Y-83744085D02*
X160411026Y-83720276D01*
X160411026Y-83720276D02*
X160387217Y-83672657D01*
X160387217Y-83672657D02*
X160387217Y-83648847D01*
X160387217Y-83648847D02*
X160411026Y-83601228D01*
X160411026Y-83601228D02*
X160434836Y-83577419D01*
X160434836Y-83577419D02*
X160482455Y-83553609D01*
X160482455Y-83553609D02*
X160577693Y-83553609D01*
X160577693Y-83553609D02*
X160625312Y-83577419D01*
X160625312Y-83577419D02*
X160649121Y-83601228D01*
X160649121Y-83601228D02*
X160672931Y-83648847D01*
X160672931Y-83648847D02*
X160672931Y-83672657D01*
X160672931Y-83672657D02*
X160649121Y-83720276D01*
X160649121Y-83720276D02*
X160625312Y-83744085D01*
X160625312Y-83744085D02*
X160577693Y-83767895D01*
X160577693Y-83767895D02*
X160482455Y-83767895D01*
X160482455Y-83767895D02*
X160434836Y-83791704D01*
X160434836Y-83791704D02*
X160411026Y-83815514D01*
X160411026Y-83815514D02*
X160387217Y-83863133D01*
X160387217Y-83863133D02*
X160387217Y-83958371D01*
X160387217Y-83958371D02*
X160411026Y-84005990D01*
X160411026Y-84005990D02*
X160434836Y-84029800D01*
X160434836Y-84029800D02*
X160482455Y-84053609D01*
X160482455Y-84053609D02*
X160577693Y-84053609D01*
X160577693Y-84053609D02*
X160625312Y-84029800D01*
X160625312Y-84029800D02*
X160649121Y-84005990D01*
X160649121Y-84005990D02*
X160672931Y-83958371D01*
X160672931Y-83958371D02*
X160672931Y-83863133D01*
X160672931Y-83863133D02*
X160649121Y-83815514D01*
X160649121Y-83815514D02*
X160625312Y-83791704D01*
X160625312Y-83791704D02*
X160577693Y-83767895D01*
X149833609Y-106415163D02*
X149333609Y-106415163D01*
X149333609Y-106415163D02*
X149333609Y-106224687D01*
X149333609Y-106224687D02*
X149357419Y-106177068D01*
X149357419Y-106177068D02*
X149381228Y-106153258D01*
X149381228Y-106153258D02*
X149428847Y-106129449D01*
X149428847Y-106129449D02*
X149500276Y-106129449D01*
X149500276Y-106129449D02*
X149547895Y-106153258D01*
X149547895Y-106153258D02*
X149571704Y-106177068D01*
X149571704Y-106177068D02*
X149595514Y-106224687D01*
X149595514Y-106224687D02*
X149595514Y-106415163D01*
X149690752Y-105938972D02*
X149690752Y-105700877D01*
X149833609Y-105986591D02*
X149333609Y-105819925D01*
X149333609Y-105819925D02*
X149833609Y-105653258D01*
X149833609Y-105224687D02*
X149833609Y-105510401D01*
X149833609Y-105367544D02*
X149333609Y-105367544D01*
X149333609Y-105367544D02*
X149405038Y-105415163D01*
X149405038Y-105415163D02*
X149452657Y-105462782D01*
X149452657Y-105462782D02*
X149476466Y-105510401D01*
X149333609Y-104772307D02*
X149333609Y-105010402D01*
X149333609Y-105010402D02*
X149571704Y-105034211D01*
X149571704Y-105034211D02*
X149547895Y-105010402D01*
X149547895Y-105010402D02*
X149524085Y-104962783D01*
X149524085Y-104962783D02*
X149524085Y-104843735D01*
X149524085Y-104843735D02*
X149547895Y-104796116D01*
X149547895Y-104796116D02*
X149571704Y-104772307D01*
X149571704Y-104772307D02*
X149619323Y-104748497D01*
X149619323Y-104748497D02*
X149738371Y-104748497D01*
X149738371Y-104748497D02*
X149785990Y-104772307D01*
X149785990Y-104772307D02*
X149809800Y-104796116D01*
X149809800Y-104796116D02*
X149833609Y-104843735D01*
X149833609Y-104843735D02*
X149833609Y-104962783D01*
X149833609Y-104962783D02*
X149809800Y-105010402D01*
X149809800Y-105010402D02*
X149785990Y-105034211D01*
X144733609Y-106415163D02*
X144233609Y-106415163D01*
X144233609Y-106415163D02*
X144233609Y-106224687D01*
X144233609Y-106224687D02*
X144257419Y-106177068D01*
X144257419Y-106177068D02*
X144281228Y-106153258D01*
X144281228Y-106153258D02*
X144328847Y-106129449D01*
X144328847Y-106129449D02*
X144400276Y-106129449D01*
X144400276Y-106129449D02*
X144447895Y-106153258D01*
X144447895Y-106153258D02*
X144471704Y-106177068D01*
X144471704Y-106177068D02*
X144495514Y-106224687D01*
X144495514Y-106224687D02*
X144495514Y-106415163D01*
X144590752Y-105938972D02*
X144590752Y-105700877D01*
X144733609Y-105986591D02*
X144233609Y-105819925D01*
X144233609Y-105819925D02*
X144733609Y-105653258D01*
X144733609Y-105224687D02*
X144733609Y-105510401D01*
X144733609Y-105367544D02*
X144233609Y-105367544D01*
X144233609Y-105367544D02*
X144305038Y-105415163D01*
X144305038Y-105415163D02*
X144352657Y-105462782D01*
X144352657Y-105462782D02*
X144376466Y-105510401D01*
X144233609Y-105058021D02*
X144233609Y-104724688D01*
X144233609Y-104724688D02*
X144733609Y-104938973D01*
X129393609Y-85185163D02*
X128893609Y-85185163D01*
X128893609Y-85185163D02*
X128893609Y-84994687D01*
X128893609Y-84994687D02*
X128917419Y-84947068D01*
X128917419Y-84947068D02*
X128941228Y-84923258D01*
X128941228Y-84923258D02*
X128988847Y-84899449D01*
X128988847Y-84899449D02*
X129060276Y-84899449D01*
X129060276Y-84899449D02*
X129107895Y-84923258D01*
X129107895Y-84923258D02*
X129131704Y-84947068D01*
X129131704Y-84947068D02*
X129155514Y-84994687D01*
X129155514Y-84994687D02*
X129155514Y-85185163D01*
X129131704Y-84518496D02*
X129155514Y-84447068D01*
X129155514Y-84447068D02*
X129179323Y-84423258D01*
X129179323Y-84423258D02*
X129226942Y-84399449D01*
X129226942Y-84399449D02*
X129298371Y-84399449D01*
X129298371Y-84399449D02*
X129345990Y-84423258D01*
X129345990Y-84423258D02*
X129369800Y-84447068D01*
X129369800Y-84447068D02*
X129393609Y-84494687D01*
X129393609Y-84494687D02*
X129393609Y-84685163D01*
X129393609Y-84685163D02*
X128893609Y-84685163D01*
X128893609Y-84685163D02*
X128893609Y-84518496D01*
X128893609Y-84518496D02*
X128917419Y-84470877D01*
X128917419Y-84470877D02*
X128941228Y-84447068D01*
X128941228Y-84447068D02*
X128988847Y-84423258D01*
X128988847Y-84423258D02*
X129036466Y-84423258D01*
X129036466Y-84423258D02*
X129084085Y-84447068D01*
X129084085Y-84447068D02*
X129107895Y-84470877D01*
X129107895Y-84470877D02*
X129131704Y-84518496D01*
X129131704Y-84518496D02*
X129131704Y-84685163D01*
X129393609Y-83923258D02*
X129393609Y-84208972D01*
X129393609Y-84066115D02*
X128893609Y-84066115D01*
X128893609Y-84066115D02*
X128965038Y-84113734D01*
X128965038Y-84113734D02*
X129012657Y-84161353D01*
X129012657Y-84161353D02*
X129036466Y-84208972D01*
X128893609Y-83470878D02*
X128893609Y-83708973D01*
X128893609Y-83708973D02*
X129131704Y-83732782D01*
X129131704Y-83732782D02*
X129107895Y-83708973D01*
X129107895Y-83708973D02*
X129084085Y-83661354D01*
X129084085Y-83661354D02*
X129084085Y-83542306D01*
X129084085Y-83542306D02*
X129107895Y-83494687D01*
X129107895Y-83494687D02*
X129131704Y-83470878D01*
X129131704Y-83470878D02*
X129179323Y-83447068D01*
X129179323Y-83447068D02*
X129298371Y-83447068D01*
X129298371Y-83447068D02*
X129345990Y-83470878D01*
X129345990Y-83470878D02*
X129369800Y-83494687D01*
X129369800Y-83494687D02*
X129393609Y-83542306D01*
X129393609Y-83542306D02*
X129393609Y-83661354D01*
X129393609Y-83661354D02*
X129369800Y-83708973D01*
X129369800Y-83708973D02*
X129345990Y-83732782D01*
X123057419Y-84493258D02*
X123033609Y-84540877D01*
X123033609Y-84540877D02*
X123033609Y-84612306D01*
X123033609Y-84612306D02*
X123057419Y-84683734D01*
X123057419Y-84683734D02*
X123105038Y-84731353D01*
X123105038Y-84731353D02*
X123152657Y-84755163D01*
X123152657Y-84755163D02*
X123247895Y-84778972D01*
X123247895Y-84778972D02*
X123319323Y-84778972D01*
X123319323Y-84778972D02*
X123414561Y-84755163D01*
X123414561Y-84755163D02*
X123462180Y-84731353D01*
X123462180Y-84731353D02*
X123509800Y-84683734D01*
X123509800Y-84683734D02*
X123533609Y-84612306D01*
X123533609Y-84612306D02*
X123533609Y-84564687D01*
X123533609Y-84564687D02*
X123509800Y-84493258D01*
X123509800Y-84493258D02*
X123485990Y-84469449D01*
X123485990Y-84469449D02*
X123319323Y-84469449D01*
X123319323Y-84469449D02*
X123319323Y-84564687D01*
X123533609Y-84255163D02*
X123033609Y-84255163D01*
X123033609Y-84255163D02*
X123533609Y-83969449D01*
X123533609Y-83969449D02*
X123033609Y-83969449D01*
X123533609Y-83731353D02*
X123033609Y-83731353D01*
X123033609Y-83731353D02*
X123033609Y-83612305D01*
X123033609Y-83612305D02*
X123057419Y-83540877D01*
X123057419Y-83540877D02*
X123105038Y-83493258D01*
X123105038Y-83493258D02*
X123152657Y-83469448D01*
X123152657Y-83469448D02*
X123247895Y-83445639D01*
X123247895Y-83445639D02*
X123319323Y-83445639D01*
X123319323Y-83445639D02*
X123414561Y-83469448D01*
X123414561Y-83469448D02*
X123462180Y-83493258D01*
X123462180Y-83493258D02*
X123509800Y-83540877D01*
X123509800Y-83540877D02*
X123533609Y-83612305D01*
X123533609Y-83612305D02*
X123533609Y-83731353D01*
X137133609Y-106415163D02*
X136633609Y-106415163D01*
X136633609Y-106415163D02*
X136633609Y-106224687D01*
X136633609Y-106224687D02*
X136657419Y-106177068D01*
X136657419Y-106177068D02*
X136681228Y-106153258D01*
X136681228Y-106153258D02*
X136728847Y-106129449D01*
X136728847Y-106129449D02*
X136800276Y-106129449D01*
X136800276Y-106129449D02*
X136847895Y-106153258D01*
X136847895Y-106153258D02*
X136871704Y-106177068D01*
X136871704Y-106177068D02*
X136895514Y-106224687D01*
X136895514Y-106224687D02*
X136895514Y-106415163D01*
X136990752Y-105938972D02*
X136990752Y-105700877D01*
X137133609Y-105986591D02*
X136633609Y-105819925D01*
X136633609Y-105819925D02*
X137133609Y-105653258D01*
X136633609Y-105534211D02*
X136633609Y-105200878D01*
X136633609Y-105200878D02*
X137133609Y-105415163D01*
X128684836Y-106533609D02*
X128684836Y-106033609D01*
X128684836Y-106033609D02*
X128875312Y-106033609D01*
X128875312Y-106033609D02*
X128922931Y-106057419D01*
X128922931Y-106057419D02*
X128946741Y-106081228D01*
X128946741Y-106081228D02*
X128970550Y-106128847D01*
X128970550Y-106128847D02*
X128970550Y-106200276D01*
X128970550Y-106200276D02*
X128946741Y-106247895D01*
X128946741Y-106247895D02*
X128922931Y-106271704D01*
X128922931Y-106271704D02*
X128875312Y-106295514D01*
X128875312Y-106295514D02*
X128684836Y-106295514D01*
X129351503Y-106271704D02*
X129422931Y-106295514D01*
X129422931Y-106295514D02*
X129446741Y-106319323D01*
X129446741Y-106319323D02*
X129470550Y-106366942D01*
X129470550Y-106366942D02*
X129470550Y-106438371D01*
X129470550Y-106438371D02*
X129446741Y-106485990D01*
X129446741Y-106485990D02*
X129422931Y-106509800D01*
X129422931Y-106509800D02*
X129375312Y-106533609D01*
X129375312Y-106533609D02*
X129184836Y-106533609D01*
X129184836Y-106533609D02*
X129184836Y-106033609D01*
X129184836Y-106033609D02*
X129351503Y-106033609D01*
X129351503Y-106033609D02*
X129399122Y-106057419D01*
X129399122Y-106057419D02*
X129422931Y-106081228D01*
X129422931Y-106081228D02*
X129446741Y-106128847D01*
X129446741Y-106128847D02*
X129446741Y-106176466D01*
X129446741Y-106176466D02*
X129422931Y-106224085D01*
X129422931Y-106224085D02*
X129399122Y-106247895D01*
X129399122Y-106247895D02*
X129351503Y-106271704D01*
X129351503Y-106271704D02*
X129184836Y-106271704D01*
X129899122Y-106033609D02*
X129803884Y-106033609D01*
X129803884Y-106033609D02*
X129756265Y-106057419D01*
X129756265Y-106057419D02*
X129732455Y-106081228D01*
X129732455Y-106081228D02*
X129684836Y-106152657D01*
X129684836Y-106152657D02*
X129661027Y-106247895D01*
X129661027Y-106247895D02*
X129661027Y-106438371D01*
X129661027Y-106438371D02*
X129684836Y-106485990D01*
X129684836Y-106485990D02*
X129708646Y-106509800D01*
X129708646Y-106509800D02*
X129756265Y-106533609D01*
X129756265Y-106533609D02*
X129851503Y-106533609D01*
X129851503Y-106533609D02*
X129899122Y-106509800D01*
X129899122Y-106509800D02*
X129922931Y-106485990D01*
X129922931Y-106485990D02*
X129946741Y-106438371D01*
X129946741Y-106438371D02*
X129946741Y-106319323D01*
X129946741Y-106319323D02*
X129922931Y-106271704D01*
X129922931Y-106271704D02*
X129899122Y-106247895D01*
X129899122Y-106247895D02*
X129851503Y-106224085D01*
X129851503Y-106224085D02*
X129756265Y-106224085D01*
X129756265Y-106224085D02*
X129708646Y-106247895D01*
X129708646Y-106247895D02*
X129684836Y-106271704D01*
X129684836Y-106271704D02*
X129661027Y-106319323D01*
X123684836Y-106233609D02*
X123684836Y-105733609D01*
X123684836Y-105733609D02*
X123875312Y-105733609D01*
X123875312Y-105733609D02*
X123922931Y-105757419D01*
X123922931Y-105757419D02*
X123946741Y-105781228D01*
X123946741Y-105781228D02*
X123970550Y-105828847D01*
X123970550Y-105828847D02*
X123970550Y-105900276D01*
X123970550Y-105900276D02*
X123946741Y-105947895D01*
X123946741Y-105947895D02*
X123922931Y-105971704D01*
X123922931Y-105971704D02*
X123875312Y-105995514D01*
X123875312Y-105995514D02*
X123684836Y-105995514D01*
X124351503Y-105971704D02*
X124422931Y-105995514D01*
X124422931Y-105995514D02*
X124446741Y-106019323D01*
X124446741Y-106019323D02*
X124470550Y-106066942D01*
X124470550Y-106066942D02*
X124470550Y-106138371D01*
X124470550Y-106138371D02*
X124446741Y-106185990D01*
X124446741Y-106185990D02*
X124422931Y-106209800D01*
X124422931Y-106209800D02*
X124375312Y-106233609D01*
X124375312Y-106233609D02*
X124184836Y-106233609D01*
X124184836Y-106233609D02*
X124184836Y-105733609D01*
X124184836Y-105733609D02*
X124351503Y-105733609D01*
X124351503Y-105733609D02*
X124399122Y-105757419D01*
X124399122Y-105757419D02*
X124422931Y-105781228D01*
X124422931Y-105781228D02*
X124446741Y-105828847D01*
X124446741Y-105828847D02*
X124446741Y-105876466D01*
X124446741Y-105876466D02*
X124422931Y-105924085D01*
X124422931Y-105924085D02*
X124399122Y-105947895D01*
X124399122Y-105947895D02*
X124351503Y-105971704D01*
X124351503Y-105971704D02*
X124184836Y-105971704D01*
X124946741Y-106233609D02*
X124661027Y-106233609D01*
X124803884Y-106233609D02*
X124803884Y-105733609D01*
X124803884Y-105733609D02*
X124756265Y-105805038D01*
X124756265Y-105805038D02*
X124708646Y-105852657D01*
X124708646Y-105852657D02*
X124661027Y-105876466D01*
X125375312Y-105900276D02*
X125375312Y-106233609D01*
X125256264Y-105709800D02*
X125137217Y-106066942D01*
X125137217Y-106066942D02*
X125446740Y-106066942D01*
X139496109Y-85005163D02*
X138996109Y-85005163D01*
X138996109Y-85005163D02*
X138996109Y-84814687D01*
X138996109Y-84814687D02*
X139019919Y-84767068D01*
X139019919Y-84767068D02*
X139043728Y-84743258D01*
X139043728Y-84743258D02*
X139091347Y-84719449D01*
X139091347Y-84719449D02*
X139162776Y-84719449D01*
X139162776Y-84719449D02*
X139210395Y-84743258D01*
X139210395Y-84743258D02*
X139234204Y-84767068D01*
X139234204Y-84767068D02*
X139258014Y-84814687D01*
X139258014Y-84814687D02*
X139258014Y-85005163D01*
X139353252Y-84528972D02*
X139353252Y-84290877D01*
X139496109Y-84576591D02*
X138996109Y-84409925D01*
X138996109Y-84409925D02*
X139496109Y-84243258D01*
X139043728Y-84100401D02*
X139019919Y-84076592D01*
X139019919Y-84076592D02*
X138996109Y-84028973D01*
X138996109Y-84028973D02*
X138996109Y-83909925D01*
X138996109Y-83909925D02*
X139019919Y-83862306D01*
X139019919Y-83862306D02*
X139043728Y-83838497D01*
X139043728Y-83838497D02*
X139091347Y-83814687D01*
X139091347Y-83814687D02*
X139138966Y-83814687D01*
X139138966Y-83814687D02*
X139210395Y-83838497D01*
X139210395Y-83838497D02*
X139496109Y-84124211D01*
X139496109Y-84124211D02*
X139496109Y-83814687D01*
X139210395Y-83528973D02*
X139186585Y-83576592D01*
X139186585Y-83576592D02*
X139162776Y-83600402D01*
X139162776Y-83600402D02*
X139115157Y-83624211D01*
X139115157Y-83624211D02*
X139091347Y-83624211D01*
X139091347Y-83624211D02*
X139043728Y-83600402D01*
X139043728Y-83600402D02*
X139019919Y-83576592D01*
X139019919Y-83576592D02*
X138996109Y-83528973D01*
X138996109Y-83528973D02*
X138996109Y-83433735D01*
X138996109Y-83433735D02*
X139019919Y-83386116D01*
X139019919Y-83386116D02*
X139043728Y-83362307D01*
X139043728Y-83362307D02*
X139091347Y-83338497D01*
X139091347Y-83338497D02*
X139115157Y-83338497D01*
X139115157Y-83338497D02*
X139162776Y-83362307D01*
X139162776Y-83362307D02*
X139186585Y-83386116D01*
X139186585Y-83386116D02*
X139210395Y-83433735D01*
X139210395Y-83433735D02*
X139210395Y-83528973D01*
X139210395Y-83528973D02*
X139234204Y-83576592D01*
X139234204Y-83576592D02*
X139258014Y-83600402D01*
X139258014Y-83600402D02*
X139305633Y-83624211D01*
X139305633Y-83624211D02*
X139400871Y-83624211D01*
X139400871Y-83624211D02*
X139448490Y-83600402D01*
X139448490Y-83600402D02*
X139472300Y-83576592D01*
X139472300Y-83576592D02*
X139496109Y-83528973D01*
X139496109Y-83528973D02*
X139496109Y-83433735D01*
X139496109Y-83433735D02*
X139472300Y-83386116D01*
X139472300Y-83386116D02*
X139448490Y-83362307D01*
X139448490Y-83362307D02*
X139400871Y-83338497D01*
X139400871Y-83338497D02*
X139305633Y-83338497D01*
X139305633Y-83338497D02*
X139258014Y-83362307D01*
X139258014Y-83362307D02*
X139234204Y-83386116D01*
X139234204Y-83386116D02*
X139210395Y-83433735D01*
X169933609Y-97415163D02*
X169433609Y-97415163D01*
X169433609Y-97415163D02*
X169933609Y-97129449D01*
X169933609Y-97129449D02*
X169433609Y-97129449D01*
X169933609Y-96605639D02*
X169695514Y-96772305D01*
X169933609Y-96891353D02*
X169433609Y-96891353D01*
X169433609Y-96891353D02*
X169433609Y-96700877D01*
X169433609Y-96700877D02*
X169457419Y-96653258D01*
X169457419Y-96653258D02*
X169481228Y-96629448D01*
X169481228Y-96629448D02*
X169528847Y-96605639D01*
X169528847Y-96605639D02*
X169600276Y-96605639D01*
X169600276Y-96605639D02*
X169647895Y-96629448D01*
X169647895Y-96629448D02*
X169671704Y-96653258D01*
X169671704Y-96653258D02*
X169695514Y-96700877D01*
X169695514Y-96700877D02*
X169695514Y-96891353D01*
X169909800Y-96415162D02*
X169933609Y-96343734D01*
X169933609Y-96343734D02*
X169933609Y-96224686D01*
X169933609Y-96224686D02*
X169909800Y-96177067D01*
X169909800Y-96177067D02*
X169885990Y-96153258D01*
X169885990Y-96153258D02*
X169838371Y-96129448D01*
X169838371Y-96129448D02*
X169790752Y-96129448D01*
X169790752Y-96129448D02*
X169743133Y-96153258D01*
X169743133Y-96153258D02*
X169719323Y-96177067D01*
X169719323Y-96177067D02*
X169695514Y-96224686D01*
X169695514Y-96224686D02*
X169671704Y-96319924D01*
X169671704Y-96319924D02*
X169647895Y-96367543D01*
X169647895Y-96367543D02*
X169624085Y-96391353D01*
X169624085Y-96391353D02*
X169576466Y-96415162D01*
X169576466Y-96415162D02*
X169528847Y-96415162D01*
X169528847Y-96415162D02*
X169481228Y-96391353D01*
X169481228Y-96391353D02*
X169457419Y-96367543D01*
X169457419Y-96367543D02*
X169433609Y-96319924D01*
X169433609Y-96319924D02*
X169433609Y-96200877D01*
X169433609Y-96200877D02*
X169457419Y-96129448D01*
X169433609Y-95986591D02*
X169433609Y-95700877D01*
X169933609Y-95843734D02*
X169433609Y-95843734D01*
X147233609Y-106415163D02*
X146733609Y-106415163D01*
X146733609Y-106415163D02*
X146733609Y-106224687D01*
X146733609Y-106224687D02*
X146757419Y-106177068D01*
X146757419Y-106177068D02*
X146781228Y-106153258D01*
X146781228Y-106153258D02*
X146828847Y-106129449D01*
X146828847Y-106129449D02*
X146900276Y-106129449D01*
X146900276Y-106129449D02*
X146947895Y-106153258D01*
X146947895Y-106153258D02*
X146971704Y-106177068D01*
X146971704Y-106177068D02*
X146995514Y-106224687D01*
X146995514Y-106224687D02*
X146995514Y-106415163D01*
X147090752Y-105938972D02*
X147090752Y-105700877D01*
X147233609Y-105986591D02*
X146733609Y-105819925D01*
X146733609Y-105819925D02*
X147233609Y-105653258D01*
X147233609Y-105224687D02*
X147233609Y-105510401D01*
X147233609Y-105367544D02*
X146733609Y-105367544D01*
X146733609Y-105367544D02*
X146805038Y-105415163D01*
X146805038Y-105415163D02*
X146852657Y-105462782D01*
X146852657Y-105462782D02*
X146876466Y-105510401D01*
X146733609Y-104796116D02*
X146733609Y-104891354D01*
X146733609Y-104891354D02*
X146757419Y-104938973D01*
X146757419Y-104938973D02*
X146781228Y-104962783D01*
X146781228Y-104962783D02*
X146852657Y-105010402D01*
X146852657Y-105010402D02*
X146947895Y-105034211D01*
X146947895Y-105034211D02*
X147138371Y-105034211D01*
X147138371Y-105034211D02*
X147185990Y-105010402D01*
X147185990Y-105010402D02*
X147209800Y-104986592D01*
X147209800Y-104986592D02*
X147233609Y-104938973D01*
X147233609Y-104938973D02*
X147233609Y-104843735D01*
X147233609Y-104843735D02*
X147209800Y-104796116D01*
X147209800Y-104796116D02*
X147185990Y-104772307D01*
X147185990Y-104772307D02*
X147138371Y-104748497D01*
X147138371Y-104748497D02*
X147019323Y-104748497D01*
X147019323Y-104748497D02*
X146971704Y-104772307D01*
X146971704Y-104772307D02*
X146947895Y-104796116D01*
X146947895Y-104796116D02*
X146924085Y-104843735D01*
X146924085Y-104843735D02*
X146924085Y-104938973D01*
X146924085Y-104938973D02*
X146947895Y-104986592D01*
X146947895Y-104986592D02*
X146971704Y-105010402D01*
X146971704Y-105010402D02*
X147019323Y-105034211D01*
X141853609Y-85105163D02*
X141353609Y-85105163D01*
X141353609Y-85105163D02*
X141353609Y-84914687D01*
X141353609Y-84914687D02*
X141377419Y-84867068D01*
X141377419Y-84867068D02*
X141401228Y-84843258D01*
X141401228Y-84843258D02*
X141448847Y-84819449D01*
X141448847Y-84819449D02*
X141520276Y-84819449D01*
X141520276Y-84819449D02*
X141567895Y-84843258D01*
X141567895Y-84843258D02*
X141591704Y-84867068D01*
X141591704Y-84867068D02*
X141615514Y-84914687D01*
X141615514Y-84914687D02*
X141615514Y-85105163D01*
X141710752Y-84628972D02*
X141710752Y-84390877D01*
X141853609Y-84676591D02*
X141353609Y-84509925D01*
X141353609Y-84509925D02*
X141853609Y-84343258D01*
X141401228Y-84200401D02*
X141377419Y-84176592D01*
X141377419Y-84176592D02*
X141353609Y-84128973D01*
X141353609Y-84128973D02*
X141353609Y-84009925D01*
X141353609Y-84009925D02*
X141377419Y-83962306D01*
X141377419Y-83962306D02*
X141401228Y-83938497D01*
X141401228Y-83938497D02*
X141448847Y-83914687D01*
X141448847Y-83914687D02*
X141496466Y-83914687D01*
X141496466Y-83914687D02*
X141567895Y-83938497D01*
X141567895Y-83938497D02*
X141853609Y-84224211D01*
X141853609Y-84224211D02*
X141853609Y-83914687D01*
X141353609Y-83748021D02*
X141353609Y-83414688D01*
X141353609Y-83414688D02*
X141853609Y-83628973D01*
X147383609Y-85145163D02*
X146883609Y-85145163D01*
X146883609Y-85145163D02*
X146883609Y-84954687D01*
X146883609Y-84954687D02*
X146907419Y-84907068D01*
X146907419Y-84907068D02*
X146931228Y-84883258D01*
X146931228Y-84883258D02*
X146978847Y-84859449D01*
X146978847Y-84859449D02*
X147050276Y-84859449D01*
X147050276Y-84859449D02*
X147097895Y-84883258D01*
X147097895Y-84883258D02*
X147121704Y-84907068D01*
X147121704Y-84907068D02*
X147145514Y-84954687D01*
X147145514Y-84954687D02*
X147145514Y-85145163D01*
X147240752Y-84668972D02*
X147240752Y-84430877D01*
X147383609Y-84716591D02*
X146883609Y-84549925D01*
X146883609Y-84549925D02*
X147383609Y-84383258D01*
X146931228Y-84240401D02*
X146907419Y-84216592D01*
X146907419Y-84216592D02*
X146883609Y-84168973D01*
X146883609Y-84168973D02*
X146883609Y-84049925D01*
X146883609Y-84049925D02*
X146907419Y-84002306D01*
X146907419Y-84002306D02*
X146931228Y-83978497D01*
X146931228Y-83978497D02*
X146978847Y-83954687D01*
X146978847Y-83954687D02*
X147026466Y-83954687D01*
X147026466Y-83954687D02*
X147097895Y-83978497D01*
X147097895Y-83978497D02*
X147383609Y-84264211D01*
X147383609Y-84264211D02*
X147383609Y-83954687D01*
X146883609Y-83502307D02*
X146883609Y-83740402D01*
X146883609Y-83740402D02*
X147121704Y-83764211D01*
X147121704Y-83764211D02*
X147097895Y-83740402D01*
X147097895Y-83740402D02*
X147074085Y-83692783D01*
X147074085Y-83692783D02*
X147074085Y-83573735D01*
X147074085Y-83573735D02*
X147097895Y-83526116D01*
X147097895Y-83526116D02*
X147121704Y-83502307D01*
X147121704Y-83502307D02*
X147169323Y-83478497D01*
X147169323Y-83478497D02*
X147288371Y-83478497D01*
X147288371Y-83478497D02*
X147335990Y-83502307D01*
X147335990Y-83502307D02*
X147359800Y-83526116D01*
X147359800Y-83526116D02*
X147383609Y-83573735D01*
X147383609Y-83573735D02*
X147383609Y-83692783D01*
X147383609Y-83692783D02*
X147359800Y-83740402D01*
X147359800Y-83740402D02*
X147335990Y-83764211D01*
X169909800Y-92438972D02*
X169933609Y-92367544D01*
X169933609Y-92367544D02*
X169933609Y-92248496D01*
X169933609Y-92248496D02*
X169909800Y-92200877D01*
X169909800Y-92200877D02*
X169885990Y-92177068D01*
X169885990Y-92177068D02*
X169838371Y-92153258D01*
X169838371Y-92153258D02*
X169790752Y-92153258D01*
X169790752Y-92153258D02*
X169743133Y-92177068D01*
X169743133Y-92177068D02*
X169719323Y-92200877D01*
X169719323Y-92200877D02*
X169695514Y-92248496D01*
X169695514Y-92248496D02*
X169671704Y-92343734D01*
X169671704Y-92343734D02*
X169647895Y-92391353D01*
X169647895Y-92391353D02*
X169624085Y-92415163D01*
X169624085Y-92415163D02*
X169576466Y-92438972D01*
X169576466Y-92438972D02*
X169528847Y-92438972D01*
X169528847Y-92438972D02*
X169481228Y-92415163D01*
X169481228Y-92415163D02*
X169457419Y-92391353D01*
X169457419Y-92391353D02*
X169433609Y-92343734D01*
X169433609Y-92343734D02*
X169433609Y-92224687D01*
X169433609Y-92224687D02*
X169457419Y-92153258D01*
X169933609Y-91938973D02*
X169433609Y-91938973D01*
X169433609Y-91938973D02*
X169433609Y-91819925D01*
X169433609Y-91819925D02*
X169457419Y-91748497D01*
X169457419Y-91748497D02*
X169505038Y-91700878D01*
X169505038Y-91700878D02*
X169552657Y-91677068D01*
X169552657Y-91677068D02*
X169647895Y-91653259D01*
X169647895Y-91653259D02*
X169719323Y-91653259D01*
X169719323Y-91653259D02*
X169814561Y-91677068D01*
X169814561Y-91677068D02*
X169862180Y-91700878D01*
X169862180Y-91700878D02*
X169909800Y-91748497D01*
X169909800Y-91748497D02*
X169933609Y-91819925D01*
X169933609Y-91819925D02*
X169933609Y-91938973D01*
X169933609Y-91438973D02*
X169433609Y-91438973D01*
X169433609Y-91105640D02*
X169433609Y-91010402D01*
X169433609Y-91010402D02*
X169457419Y-90962783D01*
X169457419Y-90962783D02*
X169505038Y-90915164D01*
X169505038Y-90915164D02*
X169600276Y-90891354D01*
X169600276Y-90891354D02*
X169766942Y-90891354D01*
X169766942Y-90891354D02*
X169862180Y-90915164D01*
X169862180Y-90915164D02*
X169909800Y-90962783D01*
X169909800Y-90962783D02*
X169933609Y-91010402D01*
X169933609Y-91010402D02*
X169933609Y-91105640D01*
X169933609Y-91105640D02*
X169909800Y-91153259D01*
X169909800Y-91153259D02*
X169862180Y-91200878D01*
X169862180Y-91200878D02*
X169766942Y-91224687D01*
X169766942Y-91224687D02*
X169600276Y-91224687D01*
X169600276Y-91224687D02*
X169505038Y-91200878D01*
X169505038Y-91200878D02*
X169457419Y-91153259D01*
X169457419Y-91153259D02*
X169433609Y-91105640D01*
X144653609Y-85105163D02*
X144153609Y-85105163D01*
X144153609Y-85105163D02*
X144153609Y-84914687D01*
X144153609Y-84914687D02*
X144177419Y-84867068D01*
X144177419Y-84867068D02*
X144201228Y-84843258D01*
X144201228Y-84843258D02*
X144248847Y-84819449D01*
X144248847Y-84819449D02*
X144320276Y-84819449D01*
X144320276Y-84819449D02*
X144367895Y-84843258D01*
X144367895Y-84843258D02*
X144391704Y-84867068D01*
X144391704Y-84867068D02*
X144415514Y-84914687D01*
X144415514Y-84914687D02*
X144415514Y-85105163D01*
X144510752Y-84628972D02*
X144510752Y-84390877D01*
X144653609Y-84676591D02*
X144153609Y-84509925D01*
X144153609Y-84509925D02*
X144653609Y-84343258D01*
X144201228Y-84200401D02*
X144177419Y-84176592D01*
X144177419Y-84176592D02*
X144153609Y-84128973D01*
X144153609Y-84128973D02*
X144153609Y-84009925D01*
X144153609Y-84009925D02*
X144177419Y-83962306D01*
X144177419Y-83962306D02*
X144201228Y-83938497D01*
X144201228Y-83938497D02*
X144248847Y-83914687D01*
X144248847Y-83914687D02*
X144296466Y-83914687D01*
X144296466Y-83914687D02*
X144367895Y-83938497D01*
X144367895Y-83938497D02*
X144653609Y-84224211D01*
X144653609Y-84224211D02*
X144653609Y-83914687D01*
X144153609Y-83486116D02*
X144153609Y-83581354D01*
X144153609Y-83581354D02*
X144177419Y-83628973D01*
X144177419Y-83628973D02*
X144201228Y-83652783D01*
X144201228Y-83652783D02*
X144272657Y-83700402D01*
X144272657Y-83700402D02*
X144367895Y-83724211D01*
X144367895Y-83724211D02*
X144558371Y-83724211D01*
X144558371Y-83724211D02*
X144605990Y-83700402D01*
X144605990Y-83700402D02*
X144629800Y-83676592D01*
X144629800Y-83676592D02*
X144653609Y-83628973D01*
X144653609Y-83628973D02*
X144653609Y-83533735D01*
X144653609Y-83533735D02*
X144629800Y-83486116D01*
X144629800Y-83486116D02*
X144605990Y-83462307D01*
X144605990Y-83462307D02*
X144558371Y-83438497D01*
X144558371Y-83438497D02*
X144439323Y-83438497D01*
X144439323Y-83438497D02*
X144391704Y-83462307D01*
X144391704Y-83462307D02*
X144367895Y-83486116D01*
X144367895Y-83486116D02*
X144344085Y-83533735D01*
X144344085Y-83533735D02*
X144344085Y-83628973D01*
X144344085Y-83628973D02*
X144367895Y-83676592D01*
X144367895Y-83676592D02*
X144391704Y-83700402D01*
X144391704Y-83700402D02*
X144439323Y-83724211D01*
X131843609Y-84675163D02*
X131343609Y-84675163D01*
X131343609Y-84675163D02*
X131343609Y-84484687D01*
X131343609Y-84484687D02*
X131367419Y-84437068D01*
X131367419Y-84437068D02*
X131391228Y-84413258D01*
X131391228Y-84413258D02*
X131438847Y-84389449D01*
X131438847Y-84389449D02*
X131510276Y-84389449D01*
X131510276Y-84389449D02*
X131557895Y-84413258D01*
X131557895Y-84413258D02*
X131581704Y-84437068D01*
X131581704Y-84437068D02*
X131605514Y-84484687D01*
X131605514Y-84484687D02*
X131605514Y-84675163D01*
X131700752Y-84198972D02*
X131700752Y-83960877D01*
X131843609Y-84246591D02*
X131343609Y-84079925D01*
X131343609Y-84079925D02*
X131843609Y-83913258D01*
X131510276Y-83532306D02*
X131843609Y-83532306D01*
X131319800Y-83651354D02*
X131676942Y-83770401D01*
X131676942Y-83770401D02*
X131676942Y-83460878D01*
X169457419Y-99753258D02*
X169433609Y-99800877D01*
X169433609Y-99800877D02*
X169433609Y-99872306D01*
X169433609Y-99872306D02*
X169457419Y-99943734D01*
X169457419Y-99943734D02*
X169505038Y-99991353D01*
X169505038Y-99991353D02*
X169552657Y-100015163D01*
X169552657Y-100015163D02*
X169647895Y-100038972D01*
X169647895Y-100038972D02*
X169719323Y-100038972D01*
X169719323Y-100038972D02*
X169814561Y-100015163D01*
X169814561Y-100015163D02*
X169862180Y-99991353D01*
X169862180Y-99991353D02*
X169909800Y-99943734D01*
X169909800Y-99943734D02*
X169933609Y-99872306D01*
X169933609Y-99872306D02*
X169933609Y-99824687D01*
X169933609Y-99824687D02*
X169909800Y-99753258D01*
X169909800Y-99753258D02*
X169885990Y-99729449D01*
X169885990Y-99729449D02*
X169719323Y-99729449D01*
X169719323Y-99729449D02*
X169719323Y-99824687D01*
X169933609Y-99515163D02*
X169433609Y-99515163D01*
X169433609Y-99515163D02*
X169933609Y-99229449D01*
X169933609Y-99229449D02*
X169433609Y-99229449D01*
X169933609Y-98991353D02*
X169433609Y-98991353D01*
X169433609Y-98991353D02*
X169433609Y-98872305D01*
X169433609Y-98872305D02*
X169457419Y-98800877D01*
X169457419Y-98800877D02*
X169505038Y-98753258D01*
X169505038Y-98753258D02*
X169552657Y-98729448D01*
X169552657Y-98729448D02*
X169647895Y-98705639D01*
X169647895Y-98705639D02*
X169719323Y-98705639D01*
X169719323Y-98705639D02*
X169814561Y-98729448D01*
X169814561Y-98729448D02*
X169862180Y-98753258D01*
X169862180Y-98753258D02*
X169909800Y-98800877D01*
X169909800Y-98800877D02*
X169933609Y-98872305D01*
X169933609Y-98872305D02*
X169933609Y-98991353D01*
X169433609Y-94762782D02*
X169433609Y-94453258D01*
X169433609Y-94453258D02*
X169624085Y-94619925D01*
X169624085Y-94619925D02*
X169624085Y-94548496D01*
X169624085Y-94548496D02*
X169647895Y-94500877D01*
X169647895Y-94500877D02*
X169671704Y-94477068D01*
X169671704Y-94477068D02*
X169719323Y-94453258D01*
X169719323Y-94453258D02*
X169838371Y-94453258D01*
X169838371Y-94453258D02*
X169885990Y-94477068D01*
X169885990Y-94477068D02*
X169909800Y-94500877D01*
X169909800Y-94500877D02*
X169933609Y-94548496D01*
X169933609Y-94548496D02*
X169933609Y-94691353D01*
X169933609Y-94691353D02*
X169909800Y-94738972D01*
X169909800Y-94738972D02*
X169885990Y-94762782D01*
X169433609Y-94310401D02*
X169933609Y-94143735D01*
X169933609Y-94143735D02*
X169433609Y-93977068D01*
X169433609Y-93858021D02*
X169433609Y-93548497D01*
X169433609Y-93548497D02*
X169624085Y-93715164D01*
X169624085Y-93715164D02*
X169624085Y-93643735D01*
X169624085Y-93643735D02*
X169647895Y-93596116D01*
X169647895Y-93596116D02*
X169671704Y-93572307D01*
X169671704Y-93572307D02*
X169719323Y-93548497D01*
X169719323Y-93548497D02*
X169838371Y-93548497D01*
X169838371Y-93548497D02*
X169885990Y-93572307D01*
X169885990Y-93572307D02*
X169909800Y-93596116D01*
X169909800Y-93596116D02*
X169933609Y-93643735D01*
X169933609Y-93643735D02*
X169933609Y-93786592D01*
X169933609Y-93786592D02*
X169909800Y-93834211D01*
X169909800Y-93834211D02*
X169885990Y-93858021D01*
X153764836Y-84053609D02*
X153764836Y-83553609D01*
X153764836Y-83553609D02*
X153955312Y-83553609D01*
X153955312Y-83553609D02*
X154002931Y-83577419D01*
X154002931Y-83577419D02*
X154026741Y-83601228D01*
X154026741Y-83601228D02*
X154050550Y-83648847D01*
X154050550Y-83648847D02*
X154050550Y-83720276D01*
X154050550Y-83720276D02*
X154026741Y-83767895D01*
X154026741Y-83767895D02*
X154002931Y-83791704D01*
X154002931Y-83791704D02*
X153955312Y-83815514D01*
X153955312Y-83815514D02*
X153764836Y-83815514D01*
X154431503Y-83791704D02*
X154502931Y-83815514D01*
X154502931Y-83815514D02*
X154526741Y-83839323D01*
X154526741Y-83839323D02*
X154550550Y-83886942D01*
X154550550Y-83886942D02*
X154550550Y-83958371D01*
X154550550Y-83958371D02*
X154526741Y-84005990D01*
X154526741Y-84005990D02*
X154502931Y-84029800D01*
X154502931Y-84029800D02*
X154455312Y-84053609D01*
X154455312Y-84053609D02*
X154264836Y-84053609D01*
X154264836Y-84053609D02*
X154264836Y-83553609D01*
X154264836Y-83553609D02*
X154431503Y-83553609D01*
X154431503Y-83553609D02*
X154479122Y-83577419D01*
X154479122Y-83577419D02*
X154502931Y-83601228D01*
X154502931Y-83601228D02*
X154526741Y-83648847D01*
X154526741Y-83648847D02*
X154526741Y-83696466D01*
X154526741Y-83696466D02*
X154502931Y-83744085D01*
X154502931Y-83744085D02*
X154479122Y-83767895D01*
X154479122Y-83767895D02*
X154431503Y-83791704D01*
X154431503Y-83791704D02*
X154264836Y-83791704D01*
X154741027Y-83601228D02*
X154764836Y-83577419D01*
X154764836Y-83577419D02*
X154812455Y-83553609D01*
X154812455Y-83553609D02*
X154931503Y-83553609D01*
X154931503Y-83553609D02*
X154979122Y-83577419D01*
X154979122Y-83577419D02*
X155002931Y-83601228D01*
X155002931Y-83601228D02*
X155026741Y-83648847D01*
X155026741Y-83648847D02*
X155026741Y-83696466D01*
X155026741Y-83696466D02*
X155002931Y-83767895D01*
X155002931Y-83767895D02*
X154717217Y-84053609D01*
X154717217Y-84053609D02*
X155026741Y-84053609D01*
X155336264Y-83553609D02*
X155383883Y-83553609D01*
X155383883Y-83553609D02*
X155431502Y-83577419D01*
X155431502Y-83577419D02*
X155455312Y-83601228D01*
X155455312Y-83601228D02*
X155479121Y-83648847D01*
X155479121Y-83648847D02*
X155502931Y-83744085D01*
X155502931Y-83744085D02*
X155502931Y-83863133D01*
X155502931Y-83863133D02*
X155479121Y-83958371D01*
X155479121Y-83958371D02*
X155455312Y-84005990D01*
X155455312Y-84005990D02*
X155431502Y-84029800D01*
X155431502Y-84029800D02*
X155383883Y-84053609D01*
X155383883Y-84053609D02*
X155336264Y-84053609D01*
X155336264Y-84053609D02*
X155288645Y-84029800D01*
X155288645Y-84029800D02*
X155264836Y-84005990D01*
X155264836Y-84005990D02*
X155241026Y-83958371D01*
X155241026Y-83958371D02*
X155217217Y-83863133D01*
X155217217Y-83863133D02*
X155217217Y-83744085D01*
X155217217Y-83744085D02*
X155241026Y-83648847D01*
X155241026Y-83648847D02*
X155264836Y-83601228D01*
X155264836Y-83601228D02*
X155288645Y-83577419D01*
X155288645Y-83577419D02*
X155336264Y-83553609D01*
X131284836Y-106533609D02*
X131284836Y-106033609D01*
X131284836Y-106033609D02*
X131475312Y-106033609D01*
X131475312Y-106033609D02*
X131522931Y-106057419D01*
X131522931Y-106057419D02*
X131546741Y-106081228D01*
X131546741Y-106081228D02*
X131570550Y-106128847D01*
X131570550Y-106128847D02*
X131570550Y-106200276D01*
X131570550Y-106200276D02*
X131546741Y-106247895D01*
X131546741Y-106247895D02*
X131522931Y-106271704D01*
X131522931Y-106271704D02*
X131475312Y-106295514D01*
X131475312Y-106295514D02*
X131284836Y-106295514D01*
X131951503Y-106271704D02*
X132022931Y-106295514D01*
X132022931Y-106295514D02*
X132046741Y-106319323D01*
X132046741Y-106319323D02*
X132070550Y-106366942D01*
X132070550Y-106366942D02*
X132070550Y-106438371D01*
X132070550Y-106438371D02*
X132046741Y-106485990D01*
X132046741Y-106485990D02*
X132022931Y-106509800D01*
X132022931Y-106509800D02*
X131975312Y-106533609D01*
X131975312Y-106533609D02*
X131784836Y-106533609D01*
X131784836Y-106533609D02*
X131784836Y-106033609D01*
X131784836Y-106033609D02*
X131951503Y-106033609D01*
X131951503Y-106033609D02*
X131999122Y-106057419D01*
X131999122Y-106057419D02*
X132022931Y-106081228D01*
X132022931Y-106081228D02*
X132046741Y-106128847D01*
X132046741Y-106128847D02*
X132046741Y-106176466D01*
X132046741Y-106176466D02*
X132022931Y-106224085D01*
X132022931Y-106224085D02*
X131999122Y-106247895D01*
X131999122Y-106247895D02*
X131951503Y-106271704D01*
X131951503Y-106271704D02*
X131784836Y-106271704D01*
X132237217Y-106033609D02*
X132546741Y-106033609D01*
X132546741Y-106033609D02*
X132380074Y-106224085D01*
X132380074Y-106224085D02*
X132451503Y-106224085D01*
X132451503Y-106224085D02*
X132499122Y-106247895D01*
X132499122Y-106247895D02*
X132522931Y-106271704D01*
X132522931Y-106271704D02*
X132546741Y-106319323D01*
X132546741Y-106319323D02*
X132546741Y-106438371D01*
X132546741Y-106438371D02*
X132522931Y-106485990D01*
X132522931Y-106485990D02*
X132499122Y-106509800D01*
X132499122Y-106509800D02*
X132451503Y-106533609D01*
X132451503Y-106533609D02*
X132308646Y-106533609D01*
X132308646Y-106533609D02*
X132261027Y-106509800D01*
X132261027Y-106509800D02*
X132237217Y-106485990D01*
X126184836Y-106533609D02*
X126184836Y-106033609D01*
X126184836Y-106033609D02*
X126375312Y-106033609D01*
X126375312Y-106033609D02*
X126422931Y-106057419D01*
X126422931Y-106057419D02*
X126446741Y-106081228D01*
X126446741Y-106081228D02*
X126470550Y-106128847D01*
X126470550Y-106128847D02*
X126470550Y-106200276D01*
X126470550Y-106200276D02*
X126446741Y-106247895D01*
X126446741Y-106247895D02*
X126422931Y-106271704D01*
X126422931Y-106271704D02*
X126375312Y-106295514D01*
X126375312Y-106295514D02*
X126184836Y-106295514D01*
X126851503Y-106271704D02*
X126922931Y-106295514D01*
X126922931Y-106295514D02*
X126946741Y-106319323D01*
X126946741Y-106319323D02*
X126970550Y-106366942D01*
X126970550Y-106366942D02*
X126970550Y-106438371D01*
X126970550Y-106438371D02*
X126946741Y-106485990D01*
X126946741Y-106485990D02*
X126922931Y-106509800D01*
X126922931Y-106509800D02*
X126875312Y-106533609D01*
X126875312Y-106533609D02*
X126684836Y-106533609D01*
X126684836Y-106533609D02*
X126684836Y-106033609D01*
X126684836Y-106033609D02*
X126851503Y-106033609D01*
X126851503Y-106033609D02*
X126899122Y-106057419D01*
X126899122Y-106057419D02*
X126922931Y-106081228D01*
X126922931Y-106081228D02*
X126946741Y-106128847D01*
X126946741Y-106128847D02*
X126946741Y-106176466D01*
X126946741Y-106176466D02*
X126922931Y-106224085D01*
X126922931Y-106224085D02*
X126899122Y-106247895D01*
X126899122Y-106247895D02*
X126851503Y-106271704D01*
X126851503Y-106271704D02*
X126684836Y-106271704D01*
X127137217Y-106033609D02*
X127470550Y-106033609D01*
X127470550Y-106033609D02*
X127256265Y-106533609D01*
X156274836Y-84063609D02*
X156274836Y-83563609D01*
X156274836Y-83563609D02*
X156465312Y-83563609D01*
X156465312Y-83563609D02*
X156512931Y-83587419D01*
X156512931Y-83587419D02*
X156536741Y-83611228D01*
X156536741Y-83611228D02*
X156560550Y-83658847D01*
X156560550Y-83658847D02*
X156560550Y-83730276D01*
X156560550Y-83730276D02*
X156536741Y-83777895D01*
X156536741Y-83777895D02*
X156512931Y-83801704D01*
X156512931Y-83801704D02*
X156465312Y-83825514D01*
X156465312Y-83825514D02*
X156274836Y-83825514D01*
X156941503Y-83801704D02*
X157012931Y-83825514D01*
X157012931Y-83825514D02*
X157036741Y-83849323D01*
X157036741Y-83849323D02*
X157060550Y-83896942D01*
X157060550Y-83896942D02*
X157060550Y-83968371D01*
X157060550Y-83968371D02*
X157036741Y-84015990D01*
X157036741Y-84015990D02*
X157012931Y-84039800D01*
X157012931Y-84039800D02*
X156965312Y-84063609D01*
X156965312Y-84063609D02*
X156774836Y-84063609D01*
X156774836Y-84063609D02*
X156774836Y-83563609D01*
X156774836Y-83563609D02*
X156941503Y-83563609D01*
X156941503Y-83563609D02*
X156989122Y-83587419D01*
X156989122Y-83587419D02*
X157012931Y-83611228D01*
X157012931Y-83611228D02*
X157036741Y-83658847D01*
X157036741Y-83658847D02*
X157036741Y-83706466D01*
X157036741Y-83706466D02*
X157012931Y-83754085D01*
X157012931Y-83754085D02*
X156989122Y-83777895D01*
X156989122Y-83777895D02*
X156941503Y-83801704D01*
X156941503Y-83801704D02*
X156774836Y-83801704D01*
X157536741Y-84063609D02*
X157251027Y-84063609D01*
X157393884Y-84063609D02*
X157393884Y-83563609D01*
X157393884Y-83563609D02*
X157346265Y-83635038D01*
X157346265Y-83635038D02*
X157298646Y-83682657D01*
X157298646Y-83682657D02*
X157251027Y-83706466D01*
X157774836Y-84063609D02*
X157870074Y-84063609D01*
X157870074Y-84063609D02*
X157917693Y-84039800D01*
X157917693Y-84039800D02*
X157941502Y-84015990D01*
X157941502Y-84015990D02*
X157989121Y-83944561D01*
X157989121Y-83944561D02*
X158012931Y-83849323D01*
X158012931Y-83849323D02*
X158012931Y-83658847D01*
X158012931Y-83658847D02*
X157989121Y-83611228D01*
X157989121Y-83611228D02*
X157965312Y-83587419D01*
X157965312Y-83587419D02*
X157917693Y-83563609D01*
X157917693Y-83563609D02*
X157822455Y-83563609D01*
X157822455Y-83563609D02*
X157774836Y-83587419D01*
X157774836Y-83587419D02*
X157751026Y-83611228D01*
X157751026Y-83611228D02*
X157727217Y-83658847D01*
X157727217Y-83658847D02*
X157727217Y-83777895D01*
X157727217Y-83777895D02*
X157751026Y-83825514D01*
X157751026Y-83825514D02*
X157774836Y-83849323D01*
X157774836Y-83849323D02*
X157822455Y-83873133D01*
X157822455Y-83873133D02*
X157917693Y-83873133D01*
X157917693Y-83873133D02*
X157965312Y-83849323D01*
X157965312Y-83849323D02*
X157989121Y-83825514D01*
X157989121Y-83825514D02*
X158012931Y-83777895D01*
X156584836Y-106433609D02*
X156584836Y-105933609D01*
X156584836Y-105933609D02*
X156775312Y-105933609D01*
X156775312Y-105933609D02*
X156822931Y-105957419D01*
X156822931Y-105957419D02*
X156846741Y-105981228D01*
X156846741Y-105981228D02*
X156870550Y-106028847D01*
X156870550Y-106028847D02*
X156870550Y-106100276D01*
X156870550Y-106100276D02*
X156846741Y-106147895D01*
X156846741Y-106147895D02*
X156822931Y-106171704D01*
X156822931Y-106171704D02*
X156775312Y-106195514D01*
X156775312Y-106195514D02*
X156584836Y-106195514D01*
X157061027Y-106290752D02*
X157299122Y-106290752D01*
X157013408Y-106433609D02*
X157180074Y-105933609D01*
X157180074Y-105933609D02*
X157346741Y-106433609D01*
X157775312Y-106433609D02*
X157489598Y-106433609D01*
X157632455Y-106433609D02*
X157632455Y-105933609D01*
X157632455Y-105933609D02*
X157584836Y-106005038D01*
X157584836Y-106005038D02*
X157537217Y-106052657D01*
X157537217Y-106052657D02*
X157489598Y-106076466D01*
X157965788Y-105981228D02*
X157989597Y-105957419D01*
X157989597Y-105957419D02*
X158037216Y-105933609D01*
X158037216Y-105933609D02*
X158156264Y-105933609D01*
X158156264Y-105933609D02*
X158203883Y-105957419D01*
X158203883Y-105957419D02*
X158227692Y-105981228D01*
X158227692Y-105981228D02*
X158251502Y-106028847D01*
X158251502Y-106028847D02*
X158251502Y-106076466D01*
X158251502Y-106076466D02*
X158227692Y-106147895D01*
X158227692Y-106147895D02*
X157941978Y-106433609D01*
X157941978Y-106433609D02*
X158251502Y-106433609D01*
X169909800Y-90038972D02*
X169933609Y-89967544D01*
X169933609Y-89967544D02*
X169933609Y-89848496D01*
X169933609Y-89848496D02*
X169909800Y-89800877D01*
X169909800Y-89800877D02*
X169885990Y-89777068D01*
X169885990Y-89777068D02*
X169838371Y-89753258D01*
X169838371Y-89753258D02*
X169790752Y-89753258D01*
X169790752Y-89753258D02*
X169743133Y-89777068D01*
X169743133Y-89777068D02*
X169719323Y-89800877D01*
X169719323Y-89800877D02*
X169695514Y-89848496D01*
X169695514Y-89848496D02*
X169671704Y-89943734D01*
X169671704Y-89943734D02*
X169647895Y-89991353D01*
X169647895Y-89991353D02*
X169624085Y-90015163D01*
X169624085Y-90015163D02*
X169576466Y-90038972D01*
X169576466Y-90038972D02*
X169528847Y-90038972D01*
X169528847Y-90038972D02*
X169481228Y-90015163D01*
X169481228Y-90015163D02*
X169457419Y-89991353D01*
X169457419Y-89991353D02*
X169433609Y-89943734D01*
X169433609Y-89943734D02*
X169433609Y-89824687D01*
X169433609Y-89824687D02*
X169457419Y-89753258D01*
X169885990Y-89253259D02*
X169909800Y-89277068D01*
X169909800Y-89277068D02*
X169933609Y-89348497D01*
X169933609Y-89348497D02*
X169933609Y-89396116D01*
X169933609Y-89396116D02*
X169909800Y-89467544D01*
X169909800Y-89467544D02*
X169862180Y-89515163D01*
X169862180Y-89515163D02*
X169814561Y-89538973D01*
X169814561Y-89538973D02*
X169719323Y-89562782D01*
X169719323Y-89562782D02*
X169647895Y-89562782D01*
X169647895Y-89562782D02*
X169552657Y-89538973D01*
X169552657Y-89538973D02*
X169505038Y-89515163D01*
X169505038Y-89515163D02*
X169457419Y-89467544D01*
X169457419Y-89467544D02*
X169433609Y-89396116D01*
X169433609Y-89396116D02*
X169433609Y-89348497D01*
X169433609Y-89348497D02*
X169457419Y-89277068D01*
X169457419Y-89277068D02*
X169481228Y-89253259D01*
X169933609Y-88800878D02*
X169933609Y-89038973D01*
X169933609Y-89038973D02*
X169433609Y-89038973D01*
X169933609Y-88634211D02*
X169433609Y-88634211D01*
X169933609Y-88348497D02*
X169647895Y-88562782D01*
X169433609Y-88348497D02*
X169719323Y-88634211D01*
X134833609Y-106415163D02*
X134333609Y-106415163D01*
X134333609Y-106415163D02*
X134333609Y-106224687D01*
X134333609Y-106224687D02*
X134357419Y-106177068D01*
X134357419Y-106177068D02*
X134381228Y-106153258D01*
X134381228Y-106153258D02*
X134428847Y-106129449D01*
X134428847Y-106129449D02*
X134500276Y-106129449D01*
X134500276Y-106129449D02*
X134547895Y-106153258D01*
X134547895Y-106153258D02*
X134571704Y-106177068D01*
X134571704Y-106177068D02*
X134595514Y-106224687D01*
X134595514Y-106224687D02*
X134595514Y-106415163D01*
X134571704Y-105748496D02*
X134595514Y-105677068D01*
X134595514Y-105677068D02*
X134619323Y-105653258D01*
X134619323Y-105653258D02*
X134666942Y-105629449D01*
X134666942Y-105629449D02*
X134738371Y-105629449D01*
X134738371Y-105629449D02*
X134785990Y-105653258D01*
X134785990Y-105653258D02*
X134809800Y-105677068D01*
X134809800Y-105677068D02*
X134833609Y-105724687D01*
X134833609Y-105724687D02*
X134833609Y-105915163D01*
X134833609Y-105915163D02*
X134333609Y-105915163D01*
X134333609Y-105915163D02*
X134333609Y-105748496D01*
X134333609Y-105748496D02*
X134357419Y-105700877D01*
X134357419Y-105700877D02*
X134381228Y-105677068D01*
X134381228Y-105677068D02*
X134428847Y-105653258D01*
X134428847Y-105653258D02*
X134476466Y-105653258D01*
X134476466Y-105653258D02*
X134524085Y-105677068D01*
X134524085Y-105677068D02*
X134547895Y-105700877D01*
X134547895Y-105700877D02*
X134571704Y-105748496D01*
X134571704Y-105748496D02*
X134571704Y-105915163D01*
X134381228Y-105438972D02*
X134357419Y-105415163D01*
X134357419Y-105415163D02*
X134333609Y-105367544D01*
X134333609Y-105367544D02*
X134333609Y-105248496D01*
X134333609Y-105248496D02*
X134357419Y-105200877D01*
X134357419Y-105200877D02*
X134381228Y-105177068D01*
X134381228Y-105177068D02*
X134428847Y-105153258D01*
X134428847Y-105153258D02*
X134476466Y-105153258D01*
X134476466Y-105153258D02*
X134547895Y-105177068D01*
X134547895Y-105177068D02*
X134833609Y-105462782D01*
X134833609Y-105462782D02*
X134833609Y-105153258D01*
X126433609Y-84702782D02*
X126433609Y-84393258D01*
X126433609Y-84393258D02*
X126624085Y-84559925D01*
X126624085Y-84559925D02*
X126624085Y-84488496D01*
X126624085Y-84488496D02*
X126647895Y-84440877D01*
X126647895Y-84440877D02*
X126671704Y-84417068D01*
X126671704Y-84417068D02*
X126719323Y-84393258D01*
X126719323Y-84393258D02*
X126838371Y-84393258D01*
X126838371Y-84393258D02*
X126885990Y-84417068D01*
X126885990Y-84417068D02*
X126909800Y-84440877D01*
X126909800Y-84440877D02*
X126933609Y-84488496D01*
X126933609Y-84488496D02*
X126933609Y-84631353D01*
X126933609Y-84631353D02*
X126909800Y-84678972D01*
X126909800Y-84678972D02*
X126885990Y-84702782D01*
X126433609Y-84250401D02*
X126933609Y-84083735D01*
X126933609Y-84083735D02*
X126433609Y-83917068D01*
X126433609Y-83798021D02*
X126433609Y-83488497D01*
X126433609Y-83488497D02*
X126624085Y-83655164D01*
X126624085Y-83655164D02*
X126624085Y-83583735D01*
X126624085Y-83583735D02*
X126647895Y-83536116D01*
X126647895Y-83536116D02*
X126671704Y-83512307D01*
X126671704Y-83512307D02*
X126719323Y-83488497D01*
X126719323Y-83488497D02*
X126838371Y-83488497D01*
X126838371Y-83488497D02*
X126885990Y-83512307D01*
X126885990Y-83512307D02*
X126909800Y-83536116D01*
X126909800Y-83536116D02*
X126933609Y-83583735D01*
X126933609Y-83583735D02*
X126933609Y-83726592D01*
X126933609Y-83726592D02*
X126909800Y-83774211D01*
X126909800Y-83774211D02*
X126885990Y-83798021D01*
X152333609Y-106415163D02*
X151833609Y-106415163D01*
X151833609Y-106415163D02*
X151833609Y-106224687D01*
X151833609Y-106224687D02*
X151857419Y-106177068D01*
X151857419Y-106177068D02*
X151881228Y-106153258D01*
X151881228Y-106153258D02*
X151928847Y-106129449D01*
X151928847Y-106129449D02*
X152000276Y-106129449D01*
X152000276Y-106129449D02*
X152047895Y-106153258D01*
X152047895Y-106153258D02*
X152071704Y-106177068D01*
X152071704Y-106177068D02*
X152095514Y-106224687D01*
X152095514Y-106224687D02*
X152095514Y-106415163D01*
X152190752Y-105938972D02*
X152190752Y-105700877D01*
X152333609Y-105986591D02*
X151833609Y-105819925D01*
X151833609Y-105819925D02*
X152333609Y-105653258D01*
X152333609Y-105224687D02*
X152333609Y-105510401D01*
X152333609Y-105367544D02*
X151833609Y-105367544D01*
X151833609Y-105367544D02*
X151905038Y-105415163D01*
X151905038Y-105415163D02*
X151952657Y-105462782D01*
X151952657Y-105462782D02*
X151976466Y-105510401D01*
X152000276Y-104796116D02*
X152333609Y-104796116D01*
X151809800Y-104915164D02*
X152166942Y-105034211D01*
X152166942Y-105034211D02*
X152166942Y-104724688D01*
X134423609Y-84795163D02*
X133923609Y-84795163D01*
X133923609Y-84795163D02*
X133923609Y-84604687D01*
X133923609Y-84604687D02*
X133947419Y-84557068D01*
X133947419Y-84557068D02*
X133971228Y-84533258D01*
X133971228Y-84533258D02*
X134018847Y-84509449D01*
X134018847Y-84509449D02*
X134090276Y-84509449D01*
X134090276Y-84509449D02*
X134137895Y-84533258D01*
X134137895Y-84533258D02*
X134161704Y-84557068D01*
X134161704Y-84557068D02*
X134185514Y-84604687D01*
X134185514Y-84604687D02*
X134185514Y-84795163D01*
X134280752Y-84318972D02*
X134280752Y-84080877D01*
X134423609Y-84366591D02*
X133923609Y-84199925D01*
X133923609Y-84199925D02*
X134423609Y-84033258D01*
X133923609Y-83914211D02*
X133923609Y-83604687D01*
X133923609Y-83604687D02*
X134114085Y-83771354D01*
X134114085Y-83771354D02*
X134114085Y-83699925D01*
X134114085Y-83699925D02*
X134137895Y-83652306D01*
X134137895Y-83652306D02*
X134161704Y-83628497D01*
X134161704Y-83628497D02*
X134209323Y-83604687D01*
X134209323Y-83604687D02*
X134328371Y-83604687D01*
X134328371Y-83604687D02*
X134375990Y-83628497D01*
X134375990Y-83628497D02*
X134399800Y-83652306D01*
X134399800Y-83652306D02*
X134423609Y-83699925D01*
X134423609Y-83699925D02*
X134423609Y-83842782D01*
X134423609Y-83842782D02*
X134399800Y-83890401D01*
X134399800Y-83890401D02*
X134375990Y-83914211D01*
D12*
X150352080Y-101416666D02*
X150399700Y-101464285D01*
X150399700Y-101464285D02*
X150447319Y-101607142D01*
X150447319Y-101607142D02*
X150447319Y-101702380D01*
X150447319Y-101702380D02*
X150399700Y-101845237D01*
X150399700Y-101845237D02*
X150304461Y-101940475D01*
X150304461Y-101940475D02*
X150209223Y-101988094D01*
X150209223Y-101988094D02*
X150018747Y-102035713D01*
X150018747Y-102035713D02*
X149875890Y-102035713D01*
X149875890Y-102035713D02*
X149685414Y-101988094D01*
X149685414Y-101988094D02*
X149590176Y-101940475D01*
X149590176Y-101940475D02*
X149494938Y-101845237D01*
X149494938Y-101845237D02*
X149447319Y-101702380D01*
X149447319Y-101702380D02*
X149447319Y-101607142D01*
X149447319Y-101607142D02*
X149494938Y-101464285D01*
X149494938Y-101464285D02*
X149542557Y-101416666D01*
X150447319Y-100940475D02*
X150447319Y-100749999D01*
X150447319Y-100749999D02*
X150399700Y-100654761D01*
X150399700Y-100654761D02*
X150352080Y-100607142D01*
X150352080Y-100607142D02*
X150209223Y-100511904D01*
X150209223Y-100511904D02*
X150018747Y-100464285D01*
X150018747Y-100464285D02*
X149637795Y-100464285D01*
X149637795Y-100464285D02*
X149542557Y-100511904D01*
X149542557Y-100511904D02*
X149494938Y-100559523D01*
X149494938Y-100559523D02*
X149447319Y-100654761D01*
X149447319Y-100654761D02*
X149447319Y-100845237D01*
X149447319Y-100845237D02*
X149494938Y-100940475D01*
X149494938Y-100940475D02*
X149542557Y-100988094D01*
X149542557Y-100988094D02*
X149637795Y-101035713D01*
X149637795Y-101035713D02*
X149875890Y-101035713D01*
X149875890Y-101035713D02*
X149971128Y-100988094D01*
X149971128Y-100988094D02*
X150018747Y-100940475D01*
X150018747Y-100940475D02*
X150066366Y-100845237D01*
X150066366Y-100845237D02*
X150066366Y-100654761D01*
X150066366Y-100654761D02*
X150018747Y-100559523D01*
X150018747Y-100559523D02*
X149971128Y-100511904D01*
X149971128Y-100511904D02*
X149875890Y-100464285D01*
X121628571Y-86131009D02*
X121295238Y-86131009D01*
X121295238Y-86654819D02*
X121295238Y-85654819D01*
X121295238Y-85654819D02*
X121771428Y-85654819D01*
X122152381Y-86654819D02*
X122152381Y-85654819D01*
X122628571Y-86654819D02*
X122628571Y-85654819D01*
X122628571Y-85654819D02*
X122866666Y-85654819D01*
X122866666Y-85654819D02*
X123009523Y-85702438D01*
X123009523Y-85702438D02*
X123104761Y-85797676D01*
X123104761Y-85797676D02*
X123152380Y-85892914D01*
X123152380Y-85892914D02*
X123199999Y-86083390D01*
X123199999Y-86083390D02*
X123199999Y-86226247D01*
X123199999Y-86226247D02*
X123152380Y-86416723D01*
X123152380Y-86416723D02*
X123104761Y-86511961D01*
X123104761Y-86511961D02*
X123009523Y-86607200D01*
X123009523Y-86607200D02*
X122866666Y-86654819D01*
X122866666Y-86654819D02*
X122628571Y-86654819D01*
X124152380Y-86654819D02*
X123580952Y-86654819D01*
X123866666Y-86654819D02*
X123866666Y-85654819D01*
X123866666Y-85654819D02*
X123771428Y-85797676D01*
X123771428Y-85797676D02*
X123676190Y-85892914D01*
X123676190Y-85892914D02*
X123580952Y-85940533D01*
X120133333Y-101054819D02*
X119800000Y-100578628D01*
X119561905Y-101054819D02*
X119561905Y-100054819D01*
X119561905Y-100054819D02*
X119942857Y-100054819D01*
X119942857Y-100054819D02*
X120038095Y-100102438D01*
X120038095Y-100102438D02*
X120085714Y-100150057D01*
X120085714Y-100150057D02*
X120133333Y-100245295D01*
X120133333Y-100245295D02*
X120133333Y-100388152D01*
X120133333Y-100388152D02*
X120085714Y-100483390D01*
X120085714Y-100483390D02*
X120038095Y-100531009D01*
X120038095Y-100531009D02*
X119942857Y-100578628D01*
X119942857Y-100578628D02*
X119561905Y-100578628D01*
X120514286Y-100150057D02*
X120561905Y-100102438D01*
X120561905Y-100102438D02*
X120657143Y-100054819D01*
X120657143Y-100054819D02*
X120895238Y-100054819D01*
X120895238Y-100054819D02*
X120990476Y-100102438D01*
X120990476Y-100102438D02*
X121038095Y-100150057D01*
X121038095Y-100150057D02*
X121085714Y-100245295D01*
X121085714Y-100245295D02*
X121085714Y-100340533D01*
X121085714Y-100340533D02*
X121038095Y-100483390D01*
X121038095Y-100483390D02*
X120466667Y-101054819D01*
X120466667Y-101054819D02*
X121085714Y-101054819D01*
X143359580Y-89866666D02*
X143407200Y-89914285D01*
X143407200Y-89914285D02*
X143454819Y-90057142D01*
X143454819Y-90057142D02*
X143454819Y-90152380D01*
X143454819Y-90152380D02*
X143407200Y-90295237D01*
X143407200Y-90295237D02*
X143311961Y-90390475D01*
X143311961Y-90390475D02*
X143216723Y-90438094D01*
X143216723Y-90438094D02*
X143026247Y-90485713D01*
X143026247Y-90485713D02*
X142883390Y-90485713D01*
X142883390Y-90485713D02*
X142692914Y-90438094D01*
X142692914Y-90438094D02*
X142597676Y-90390475D01*
X142597676Y-90390475D02*
X142502438Y-90295237D01*
X142502438Y-90295237D02*
X142454819Y-90152380D01*
X142454819Y-90152380D02*
X142454819Y-90057142D01*
X142454819Y-90057142D02*
X142502438Y-89914285D01*
X142502438Y-89914285D02*
X142550057Y-89866666D01*
X142454819Y-88961904D02*
X142454819Y-89438094D01*
X142454819Y-89438094D02*
X142931009Y-89485713D01*
X142931009Y-89485713D02*
X142883390Y-89438094D01*
X142883390Y-89438094D02*
X142835771Y-89342856D01*
X142835771Y-89342856D02*
X142835771Y-89104761D01*
X142835771Y-89104761D02*
X142883390Y-89009523D01*
X142883390Y-89009523D02*
X142931009Y-88961904D01*
X142931009Y-88961904D02*
X143026247Y-88914285D01*
X143026247Y-88914285D02*
X143264342Y-88914285D01*
X143264342Y-88914285D02*
X143359580Y-88961904D01*
X143359580Y-88961904D02*
X143407200Y-89009523D01*
X143407200Y-89009523D02*
X143454819Y-89104761D01*
X143454819Y-89104761D02*
X143454819Y-89342856D01*
X143454819Y-89342856D02*
X143407200Y-89438094D01*
X143407200Y-89438094D02*
X143359580Y-89485713D01*
X134738095Y-91954819D02*
X134738095Y-92764342D01*
X134738095Y-92764342D02*
X134785714Y-92859580D01*
X134785714Y-92859580D02*
X134833333Y-92907200D01*
X134833333Y-92907200D02*
X134928571Y-92954819D01*
X134928571Y-92954819D02*
X135119047Y-92954819D01*
X135119047Y-92954819D02*
X135214285Y-92907200D01*
X135214285Y-92907200D02*
X135261904Y-92859580D01*
X135261904Y-92859580D02*
X135309523Y-92764342D01*
X135309523Y-92764342D02*
X135309523Y-91954819D01*
X135738095Y-92050057D02*
X135785714Y-92002438D01*
X135785714Y-92002438D02*
X135880952Y-91954819D01*
X135880952Y-91954819D02*
X136119047Y-91954819D01*
X136119047Y-91954819D02*
X136214285Y-92002438D01*
X136214285Y-92002438D02*
X136261904Y-92050057D01*
X136261904Y-92050057D02*
X136309523Y-92145295D01*
X136309523Y-92145295D02*
X136309523Y-92240533D01*
X136309523Y-92240533D02*
X136261904Y-92383390D01*
X136261904Y-92383390D02*
X135690476Y-92954819D01*
X135690476Y-92954819D02*
X136309523Y-92954819D01*
X151783333Y-100274819D02*
X151450000Y-99798628D01*
X151211905Y-100274819D02*
X151211905Y-99274819D01*
X151211905Y-99274819D02*
X151592857Y-99274819D01*
X151592857Y-99274819D02*
X151688095Y-99322438D01*
X151688095Y-99322438D02*
X151735714Y-99370057D01*
X151735714Y-99370057D02*
X151783333Y-99465295D01*
X151783333Y-99465295D02*
X151783333Y-99608152D01*
X151783333Y-99608152D02*
X151735714Y-99703390D01*
X151735714Y-99703390D02*
X151688095Y-99751009D01*
X151688095Y-99751009D02*
X151592857Y-99798628D01*
X151592857Y-99798628D02*
X151211905Y-99798628D01*
X152116667Y-99274819D02*
X152783333Y-99274819D01*
X152783333Y-99274819D02*
X152354762Y-100274819D01*
X134742080Y-86916666D02*
X134789700Y-86964285D01*
X134789700Y-86964285D02*
X134837319Y-87107142D01*
X134837319Y-87107142D02*
X134837319Y-87202380D01*
X134837319Y-87202380D02*
X134789700Y-87345237D01*
X134789700Y-87345237D02*
X134694461Y-87440475D01*
X134694461Y-87440475D02*
X134599223Y-87488094D01*
X134599223Y-87488094D02*
X134408747Y-87535713D01*
X134408747Y-87535713D02*
X134265890Y-87535713D01*
X134265890Y-87535713D02*
X134075414Y-87488094D01*
X134075414Y-87488094D02*
X133980176Y-87440475D01*
X133980176Y-87440475D02*
X133884938Y-87345237D01*
X133884938Y-87345237D02*
X133837319Y-87202380D01*
X133837319Y-87202380D02*
X133837319Y-87107142D01*
X133837319Y-87107142D02*
X133884938Y-86964285D01*
X133884938Y-86964285D02*
X133932557Y-86916666D01*
X133837319Y-86583332D02*
X133837319Y-85964285D01*
X133837319Y-85964285D02*
X134218271Y-86297618D01*
X134218271Y-86297618D02*
X134218271Y-86154761D01*
X134218271Y-86154761D02*
X134265890Y-86059523D01*
X134265890Y-86059523D02*
X134313509Y-86011904D01*
X134313509Y-86011904D02*
X134408747Y-85964285D01*
X134408747Y-85964285D02*
X134646842Y-85964285D01*
X134646842Y-85964285D02*
X134742080Y-86011904D01*
X134742080Y-86011904D02*
X134789700Y-86059523D01*
X134789700Y-86059523D02*
X134837319Y-86154761D01*
X134837319Y-86154761D02*
X134837319Y-86440475D01*
X134837319Y-86440475D02*
X134789700Y-86535713D01*
X134789700Y-86535713D02*
X134742080Y-86583332D01*
D13*
X149094804Y-85877190D02*
X149070995Y-85901000D01*
X149070995Y-85901000D02*
X148999566Y-85924809D01*
X148999566Y-85924809D02*
X148951947Y-85924809D01*
X148951947Y-85924809D02*
X148880519Y-85901000D01*
X148880519Y-85901000D02*
X148832900Y-85853380D01*
X148832900Y-85853380D02*
X148809090Y-85805761D01*
X148809090Y-85805761D02*
X148785281Y-85710523D01*
X148785281Y-85710523D02*
X148785281Y-85639095D01*
X148785281Y-85639095D02*
X148809090Y-85543857D01*
X148809090Y-85543857D02*
X148832900Y-85496238D01*
X148832900Y-85496238D02*
X148880519Y-85448619D01*
X148880519Y-85448619D02*
X148951947Y-85424809D01*
X148951947Y-85424809D02*
X148999566Y-85424809D01*
X148999566Y-85424809D02*
X149070995Y-85448619D01*
X149070995Y-85448619D02*
X149094804Y-85472428D01*
X149570995Y-85924809D02*
X149285281Y-85924809D01*
X149428138Y-85924809D02*
X149428138Y-85424809D01*
X149428138Y-85424809D02*
X149380519Y-85496238D01*
X149380519Y-85496238D02*
X149332900Y-85543857D01*
X149332900Y-85543857D02*
X149285281Y-85567666D01*
X149761471Y-85472428D02*
X149785280Y-85448619D01*
X149785280Y-85448619D02*
X149832899Y-85424809D01*
X149832899Y-85424809D02*
X149951947Y-85424809D01*
X149951947Y-85424809D02*
X149999566Y-85448619D01*
X149999566Y-85448619D02*
X150023375Y-85472428D01*
X150023375Y-85472428D02*
X150047185Y-85520047D01*
X150047185Y-85520047D02*
X150047185Y-85567666D01*
X150047185Y-85567666D02*
X150023375Y-85639095D01*
X150023375Y-85639095D02*
X149737661Y-85924809D01*
X149737661Y-85924809D02*
X150047185Y-85924809D01*
D12*
X129933333Y-92104819D02*
X129600000Y-91628628D01*
X129361905Y-92104819D02*
X129361905Y-91104819D01*
X129361905Y-91104819D02*
X129742857Y-91104819D01*
X129742857Y-91104819D02*
X129838095Y-91152438D01*
X129838095Y-91152438D02*
X129885714Y-91200057D01*
X129885714Y-91200057D02*
X129933333Y-91295295D01*
X129933333Y-91295295D02*
X129933333Y-91438152D01*
X129933333Y-91438152D02*
X129885714Y-91533390D01*
X129885714Y-91533390D02*
X129838095Y-91581009D01*
X129838095Y-91581009D02*
X129742857Y-91628628D01*
X129742857Y-91628628D02*
X129361905Y-91628628D01*
X130885714Y-92104819D02*
X130314286Y-92104819D01*
X130600000Y-92104819D02*
X130600000Y-91104819D01*
X130600000Y-91104819D02*
X130504762Y-91247676D01*
X130504762Y-91247676D02*
X130409524Y-91342914D01*
X130409524Y-91342914D02*
X130314286Y-91390533D01*
X136895833Y-91609580D02*
X136848214Y-91657200D01*
X136848214Y-91657200D02*
X136705357Y-91704819D01*
X136705357Y-91704819D02*
X136610119Y-91704819D01*
X136610119Y-91704819D02*
X136467262Y-91657200D01*
X136467262Y-91657200D02*
X136372024Y-91561961D01*
X136372024Y-91561961D02*
X136324405Y-91466723D01*
X136324405Y-91466723D02*
X136276786Y-91276247D01*
X136276786Y-91276247D02*
X136276786Y-91133390D01*
X136276786Y-91133390D02*
X136324405Y-90942914D01*
X136324405Y-90942914D02*
X136372024Y-90847676D01*
X136372024Y-90847676D02*
X136467262Y-90752438D01*
X136467262Y-90752438D02*
X136610119Y-90704819D01*
X136610119Y-90704819D02*
X136705357Y-90704819D01*
X136705357Y-90704819D02*
X136848214Y-90752438D01*
X136848214Y-90752438D02*
X136895833Y-90800057D01*
X137229167Y-90704819D02*
X137895833Y-90704819D01*
X137895833Y-90704819D02*
X137467262Y-91704819D01*
X146354819Y-89633332D02*
X145354819Y-89633332D01*
X145354819Y-89633332D02*
X145354819Y-89252380D01*
X145354819Y-89252380D02*
X145402438Y-89157142D01*
X145402438Y-89157142D02*
X145450057Y-89109523D01*
X145450057Y-89109523D02*
X145545295Y-89061904D01*
X145545295Y-89061904D02*
X145688152Y-89061904D01*
X145688152Y-89061904D02*
X145783390Y-89109523D01*
X145783390Y-89109523D02*
X145831009Y-89157142D01*
X145831009Y-89157142D02*
X145878628Y-89252380D01*
X145878628Y-89252380D02*
X145878628Y-89633332D01*
X145354819Y-88728570D02*
X146354819Y-88490475D01*
X146354819Y-88490475D02*
X145640533Y-88299999D01*
X145640533Y-88299999D02*
X146354819Y-88109523D01*
X146354819Y-88109523D02*
X145354819Y-87871428D01*
X146354819Y-86919047D02*
X145878628Y-87252380D01*
X146354819Y-87490475D02*
X145354819Y-87490475D01*
X145354819Y-87490475D02*
X145354819Y-87109523D01*
X145354819Y-87109523D02*
X145402438Y-87014285D01*
X145402438Y-87014285D02*
X145450057Y-86966666D01*
X145450057Y-86966666D02*
X145545295Y-86919047D01*
X145545295Y-86919047D02*
X145688152Y-86919047D01*
X145688152Y-86919047D02*
X145783390Y-86966666D01*
X145783390Y-86966666D02*
X145831009Y-87014285D01*
X145831009Y-87014285D02*
X145878628Y-87109523D01*
X145878628Y-87109523D02*
X145878628Y-87490475D01*
X124145180Y-93826666D02*
X123430895Y-93826666D01*
X123430895Y-93826666D02*
X123288038Y-93779047D01*
X123288038Y-93779047D02*
X123192800Y-93683809D01*
X123192800Y-93683809D02*
X123145180Y-93540952D01*
X123145180Y-93540952D02*
X123145180Y-93445714D01*
X123145180Y-94826666D02*
X123145180Y-94255238D01*
X123145180Y-94540952D02*
X124145180Y-94540952D01*
X124145180Y-94540952D02*
X124002323Y-94445714D01*
X124002323Y-94445714D02*
X123907085Y-94350476D01*
X123907085Y-94350476D02*
X123859466Y-94255238D01*
X164466666Y-87454819D02*
X164466666Y-88169104D01*
X164466666Y-88169104D02*
X164419047Y-88311961D01*
X164419047Y-88311961D02*
X164323809Y-88407200D01*
X164323809Y-88407200D02*
X164180952Y-88454819D01*
X164180952Y-88454819D02*
X164085714Y-88454819D01*
X165419047Y-87454819D02*
X164942857Y-87454819D01*
X164942857Y-87454819D02*
X164895238Y-87931009D01*
X164895238Y-87931009D02*
X164942857Y-87883390D01*
X164942857Y-87883390D02*
X165038095Y-87835771D01*
X165038095Y-87835771D02*
X165276190Y-87835771D01*
X165276190Y-87835771D02*
X165371428Y-87883390D01*
X165371428Y-87883390D02*
X165419047Y-87931009D01*
X165419047Y-87931009D02*
X165466666Y-88026247D01*
X165466666Y-88026247D02*
X165466666Y-88264342D01*
X165466666Y-88264342D02*
X165419047Y-88359580D01*
X165419047Y-88359580D02*
X165371428Y-88407200D01*
X165371428Y-88407200D02*
X165276190Y-88454819D01*
X165276190Y-88454819D02*
X165038095Y-88454819D01*
X165038095Y-88454819D02*
X164942857Y-88407200D01*
X164942857Y-88407200D02*
X164895238Y-88359580D01*
X136895833Y-89609580D02*
X136848214Y-89657200D01*
X136848214Y-89657200D02*
X136705357Y-89704819D01*
X136705357Y-89704819D02*
X136610119Y-89704819D01*
X136610119Y-89704819D02*
X136467262Y-89657200D01*
X136467262Y-89657200D02*
X136372024Y-89561961D01*
X136372024Y-89561961D02*
X136324405Y-89466723D01*
X136324405Y-89466723D02*
X136276786Y-89276247D01*
X136276786Y-89276247D02*
X136276786Y-89133390D01*
X136276786Y-89133390D02*
X136324405Y-88942914D01*
X136324405Y-88942914D02*
X136372024Y-88847676D01*
X136372024Y-88847676D02*
X136467262Y-88752438D01*
X136467262Y-88752438D02*
X136610119Y-88704819D01*
X136610119Y-88704819D02*
X136705357Y-88704819D01*
X136705357Y-88704819D02*
X136848214Y-88752438D01*
X136848214Y-88752438D02*
X136895833Y-88800057D01*
X137752976Y-89038152D02*
X137752976Y-89704819D01*
X137514881Y-88657200D02*
X137276786Y-89371485D01*
X137276786Y-89371485D02*
X137895833Y-89371485D01*
X156800595Y-88204819D02*
X156800595Y-89014342D01*
X156800595Y-89014342D02*
X156848214Y-89109580D01*
X156848214Y-89109580D02*
X156895833Y-89157200D01*
X156895833Y-89157200D02*
X156991071Y-89204819D01*
X156991071Y-89204819D02*
X157181547Y-89204819D01*
X157181547Y-89204819D02*
X157276785Y-89157200D01*
X157276785Y-89157200D02*
X157324404Y-89109580D01*
X157324404Y-89109580D02*
X157372023Y-89014342D01*
X157372023Y-89014342D02*
X157372023Y-88204819D01*
X157752976Y-88204819D02*
X158372023Y-88204819D01*
X158372023Y-88204819D02*
X158038690Y-88585771D01*
X158038690Y-88585771D02*
X158181547Y-88585771D01*
X158181547Y-88585771D02*
X158276785Y-88633390D01*
X158276785Y-88633390D02*
X158324404Y-88681009D01*
X158324404Y-88681009D02*
X158372023Y-88776247D01*
X158372023Y-88776247D02*
X158372023Y-89014342D01*
X158372023Y-89014342D02*
X158324404Y-89109580D01*
X158324404Y-89109580D02*
X158276785Y-89157200D01*
X158276785Y-89157200D02*
X158181547Y-89204819D01*
X158181547Y-89204819D02*
X157895833Y-89204819D01*
X157895833Y-89204819D02*
X157800595Y-89157200D01*
X157800595Y-89157200D02*
X157752976Y-89109580D01*
X129861905Y-94104819D02*
X129861905Y-93104819D01*
X129861905Y-93104819D02*
X130100000Y-93104819D01*
X130100000Y-93104819D02*
X130242857Y-93152438D01*
X130242857Y-93152438D02*
X130338095Y-93247676D01*
X130338095Y-93247676D02*
X130385714Y-93342914D01*
X130385714Y-93342914D02*
X130433333Y-93533390D01*
X130433333Y-93533390D02*
X130433333Y-93676247D01*
X130433333Y-93676247D02*
X130385714Y-93866723D01*
X130385714Y-93866723D02*
X130338095Y-93961961D01*
X130338095Y-93961961D02*
X130242857Y-94057200D01*
X130242857Y-94057200D02*
X130100000Y-94104819D01*
X130100000Y-94104819D02*
X129861905Y-94104819D01*
X131385714Y-94104819D02*
X130814286Y-94104819D01*
X131100000Y-94104819D02*
X131100000Y-93104819D01*
X131100000Y-93104819D02*
X131004762Y-93247676D01*
X131004762Y-93247676D02*
X130909524Y-93342914D01*
X130909524Y-93342914D02*
X130814286Y-93390533D01*
X122154819Y-105933333D02*
X122869104Y-105933333D01*
X122869104Y-105933333D02*
X123011961Y-105980952D01*
X123011961Y-105980952D02*
X123107200Y-106076190D01*
X123107200Y-106076190D02*
X123154819Y-106219047D01*
X123154819Y-106219047D02*
X123154819Y-106314285D01*
X122488152Y-105028571D02*
X123154819Y-105028571D01*
X122107200Y-105266666D02*
X122821485Y-105504761D01*
X122821485Y-105504761D02*
X122821485Y-104885714D01*
X156395833Y-86204819D02*
X156062500Y-85728628D01*
X155824405Y-86204819D02*
X155824405Y-85204819D01*
X155824405Y-85204819D02*
X156205357Y-85204819D01*
X156205357Y-85204819D02*
X156300595Y-85252438D01*
X156300595Y-85252438D02*
X156348214Y-85300057D01*
X156348214Y-85300057D02*
X156395833Y-85395295D01*
X156395833Y-85395295D02*
X156395833Y-85538152D01*
X156395833Y-85538152D02*
X156348214Y-85633390D01*
X156348214Y-85633390D02*
X156300595Y-85681009D01*
X156300595Y-85681009D02*
X156205357Y-85728628D01*
X156205357Y-85728628D02*
X155824405Y-85728628D01*
X157300595Y-85204819D02*
X156824405Y-85204819D01*
X156824405Y-85204819D02*
X156776786Y-85681009D01*
X156776786Y-85681009D02*
X156824405Y-85633390D01*
X156824405Y-85633390D02*
X156919643Y-85585771D01*
X156919643Y-85585771D02*
X157157738Y-85585771D01*
X157157738Y-85585771D02*
X157252976Y-85633390D01*
X157252976Y-85633390D02*
X157300595Y-85681009D01*
X157300595Y-85681009D02*
X157348214Y-85776247D01*
X157348214Y-85776247D02*
X157348214Y-86014342D01*
X157348214Y-86014342D02*
X157300595Y-86109580D01*
X157300595Y-86109580D02*
X157252976Y-86157200D01*
X157252976Y-86157200D02*
X157157738Y-86204819D01*
X157157738Y-86204819D02*
X156919643Y-86204819D01*
X156919643Y-86204819D02*
X156824405Y-86157200D01*
X156824405Y-86157200D02*
X156776786Y-86109580D01*
X161824819Y-81933333D02*
X162539104Y-81933333D01*
X162539104Y-81933333D02*
X162681961Y-81980952D01*
X162681961Y-81980952D02*
X162777200Y-82076190D01*
X162777200Y-82076190D02*
X162824819Y-82219047D01*
X162824819Y-82219047D02*
X162824819Y-82314285D01*
X161824819Y-81552380D02*
X161824819Y-80933333D01*
X161824819Y-80933333D02*
X162205771Y-81266666D01*
X162205771Y-81266666D02*
X162205771Y-81123809D01*
X162205771Y-81123809D02*
X162253390Y-81028571D01*
X162253390Y-81028571D02*
X162301009Y-80980952D01*
X162301009Y-80980952D02*
X162396247Y-80933333D01*
X162396247Y-80933333D02*
X162634342Y-80933333D01*
X162634342Y-80933333D02*
X162729580Y-80980952D01*
X162729580Y-80980952D02*
X162777200Y-81028571D01*
X162777200Y-81028571D02*
X162824819Y-81123809D01*
X162824819Y-81123809D02*
X162824819Y-81409523D01*
X162824819Y-81409523D02*
X162777200Y-81504761D01*
X162777200Y-81504761D02*
X162729580Y-81552380D01*
X144252976Y-97704819D02*
X144919642Y-98704819D01*
X144919642Y-97704819D02*
X144252976Y-98704819D01*
X145824404Y-98704819D02*
X145252976Y-98704819D01*
X145538690Y-98704819D02*
X145538690Y-97704819D01*
X145538690Y-97704819D02*
X145443452Y-97847676D01*
X145443452Y-97847676D02*
X145348214Y-97942914D01*
X145348214Y-97942914D02*
X145252976Y-97990533D01*
X145159580Y-93842857D02*
X145207200Y-93890476D01*
X145207200Y-93890476D02*
X145254819Y-94033333D01*
X145254819Y-94033333D02*
X145254819Y-94128571D01*
X145254819Y-94128571D02*
X145207200Y-94271428D01*
X145207200Y-94271428D02*
X145111961Y-94366666D01*
X145111961Y-94366666D02*
X145016723Y-94414285D01*
X145016723Y-94414285D02*
X144826247Y-94461904D01*
X144826247Y-94461904D02*
X144683390Y-94461904D01*
X144683390Y-94461904D02*
X144492914Y-94414285D01*
X144492914Y-94414285D02*
X144397676Y-94366666D01*
X144397676Y-94366666D02*
X144302438Y-94271428D01*
X144302438Y-94271428D02*
X144254819Y-94128571D01*
X144254819Y-94128571D02*
X144254819Y-94033333D01*
X144254819Y-94033333D02*
X144302438Y-93890476D01*
X144302438Y-93890476D02*
X144350057Y-93842857D01*
X145254819Y-92890476D02*
X145254819Y-93461904D01*
X145254819Y-93176190D02*
X144254819Y-93176190D01*
X144254819Y-93176190D02*
X144397676Y-93271428D01*
X144397676Y-93271428D02*
X144492914Y-93366666D01*
X144492914Y-93366666D02*
X144540533Y-93461904D01*
X145254819Y-91938095D02*
X145254819Y-92509523D01*
X145254819Y-92223809D02*
X144254819Y-92223809D01*
X144254819Y-92223809D02*
X144397676Y-92319047D01*
X144397676Y-92319047D02*
X144492914Y-92414285D01*
X144492914Y-92414285D02*
X144540533Y-92509523D01*
X155395833Y-100204819D02*
X155062500Y-99728628D01*
X154824405Y-100204819D02*
X154824405Y-99204819D01*
X154824405Y-99204819D02*
X155205357Y-99204819D01*
X155205357Y-99204819D02*
X155300595Y-99252438D01*
X155300595Y-99252438D02*
X155348214Y-99300057D01*
X155348214Y-99300057D02*
X155395833Y-99395295D01*
X155395833Y-99395295D02*
X155395833Y-99538152D01*
X155395833Y-99538152D02*
X155348214Y-99633390D01*
X155348214Y-99633390D02*
X155300595Y-99681009D01*
X155300595Y-99681009D02*
X155205357Y-99728628D01*
X155205357Y-99728628D02*
X154824405Y-99728628D01*
X156252976Y-99204819D02*
X156062500Y-99204819D01*
X156062500Y-99204819D02*
X155967262Y-99252438D01*
X155967262Y-99252438D02*
X155919643Y-99300057D01*
X155919643Y-99300057D02*
X155824405Y-99442914D01*
X155824405Y-99442914D02*
X155776786Y-99633390D01*
X155776786Y-99633390D02*
X155776786Y-100014342D01*
X155776786Y-100014342D02*
X155824405Y-100109580D01*
X155824405Y-100109580D02*
X155872024Y-100157200D01*
X155872024Y-100157200D02*
X155967262Y-100204819D01*
X155967262Y-100204819D02*
X156157738Y-100204819D01*
X156157738Y-100204819D02*
X156252976Y-100157200D01*
X156252976Y-100157200D02*
X156300595Y-100109580D01*
X156300595Y-100109580D02*
X156348214Y-100014342D01*
X156348214Y-100014342D02*
X156348214Y-99776247D01*
X156348214Y-99776247D02*
X156300595Y-99681009D01*
X156300595Y-99681009D02*
X156252976Y-99633390D01*
X156252976Y-99633390D02*
X156157738Y-99585771D01*
X156157738Y-99585771D02*
X155967262Y-99585771D01*
X155967262Y-99585771D02*
X155872024Y-99633390D01*
X155872024Y-99633390D02*
X155824405Y-99681009D01*
X155824405Y-99681009D02*
X155776786Y-99776247D01*
X164052380Y-103154819D02*
X163719047Y-102678628D01*
X163480952Y-103154819D02*
X163480952Y-102154819D01*
X163480952Y-102154819D02*
X163861904Y-102154819D01*
X163861904Y-102154819D02*
X163957142Y-102202438D01*
X163957142Y-102202438D02*
X164004761Y-102250057D01*
X164004761Y-102250057D02*
X164052380Y-102345295D01*
X164052380Y-102345295D02*
X164052380Y-102488152D01*
X164052380Y-102488152D02*
X164004761Y-102583390D01*
X164004761Y-102583390D02*
X163957142Y-102631009D01*
X163957142Y-102631009D02*
X163861904Y-102678628D01*
X163861904Y-102678628D02*
X163480952Y-102678628D01*
X164433333Y-103107200D02*
X164576190Y-103154819D01*
X164576190Y-103154819D02*
X164814285Y-103154819D01*
X164814285Y-103154819D02*
X164909523Y-103107200D01*
X164909523Y-103107200D02*
X164957142Y-103059580D01*
X164957142Y-103059580D02*
X165004761Y-102964342D01*
X165004761Y-102964342D02*
X165004761Y-102869104D01*
X165004761Y-102869104D02*
X164957142Y-102773866D01*
X164957142Y-102773866D02*
X164909523Y-102726247D01*
X164909523Y-102726247D02*
X164814285Y-102678628D01*
X164814285Y-102678628D02*
X164623809Y-102631009D01*
X164623809Y-102631009D02*
X164528571Y-102583390D01*
X164528571Y-102583390D02*
X164480952Y-102535771D01*
X164480952Y-102535771D02*
X164433333Y-102440533D01*
X164433333Y-102440533D02*
X164433333Y-102345295D01*
X164433333Y-102345295D02*
X164480952Y-102250057D01*
X164480952Y-102250057D02*
X164528571Y-102202438D01*
X164528571Y-102202438D02*
X164623809Y-102154819D01*
X164623809Y-102154819D02*
X164861904Y-102154819D01*
X164861904Y-102154819D02*
X165004761Y-102202438D01*
X165290476Y-102154819D02*
X165861904Y-102154819D01*
X165576190Y-103154819D02*
X165576190Y-102154819D01*
X125529580Y-89316666D02*
X125577200Y-89364285D01*
X125577200Y-89364285D02*
X125624819Y-89507142D01*
X125624819Y-89507142D02*
X125624819Y-89602380D01*
X125624819Y-89602380D02*
X125577200Y-89745237D01*
X125577200Y-89745237D02*
X125481961Y-89840475D01*
X125481961Y-89840475D02*
X125386723Y-89888094D01*
X125386723Y-89888094D02*
X125196247Y-89935713D01*
X125196247Y-89935713D02*
X125053390Y-89935713D01*
X125053390Y-89935713D02*
X124862914Y-89888094D01*
X124862914Y-89888094D02*
X124767676Y-89840475D01*
X124767676Y-89840475D02*
X124672438Y-89745237D01*
X124672438Y-89745237D02*
X124624819Y-89602380D01*
X124624819Y-89602380D02*
X124624819Y-89507142D01*
X124624819Y-89507142D02*
X124672438Y-89364285D01*
X124672438Y-89364285D02*
X124720057Y-89316666D01*
X125624819Y-88364285D02*
X125624819Y-88935713D01*
X125624819Y-88649999D02*
X124624819Y-88649999D01*
X124624819Y-88649999D02*
X124767676Y-88745237D01*
X124767676Y-88745237D02*
X124862914Y-88840475D01*
X124862914Y-88840475D02*
X124910533Y-88935713D01*
X134690476Y-104131009D02*
X134833333Y-104178628D01*
X134833333Y-104178628D02*
X134880952Y-104226247D01*
X134880952Y-104226247D02*
X134928571Y-104321485D01*
X134928571Y-104321485D02*
X134928571Y-104464342D01*
X134928571Y-104464342D02*
X134880952Y-104559580D01*
X134880952Y-104559580D02*
X134833333Y-104607200D01*
X134833333Y-104607200D02*
X134738095Y-104654819D01*
X134738095Y-104654819D02*
X134357143Y-104654819D01*
X134357143Y-104654819D02*
X134357143Y-103654819D01*
X134357143Y-103654819D02*
X134690476Y-103654819D01*
X134690476Y-103654819D02*
X134785714Y-103702438D01*
X134785714Y-103702438D02*
X134833333Y-103750057D01*
X134833333Y-103750057D02*
X134880952Y-103845295D01*
X134880952Y-103845295D02*
X134880952Y-103940533D01*
X134880952Y-103940533D02*
X134833333Y-104035771D01*
X134833333Y-104035771D02*
X134785714Y-104083390D01*
X134785714Y-104083390D02*
X134690476Y-104131009D01*
X134690476Y-104131009D02*
X134357143Y-104131009D01*
X135833333Y-104654819D02*
X135357143Y-104654819D01*
X135357143Y-104654819D02*
X135357143Y-103654819D01*
X136119048Y-104607200D02*
X136261905Y-104654819D01*
X136261905Y-104654819D02*
X136500000Y-104654819D01*
X136500000Y-104654819D02*
X136595238Y-104607200D01*
X136595238Y-104607200D02*
X136642857Y-104559580D01*
X136642857Y-104559580D02*
X136690476Y-104464342D01*
X136690476Y-104464342D02*
X136690476Y-104369104D01*
X136690476Y-104369104D02*
X136642857Y-104273866D01*
X136642857Y-104273866D02*
X136595238Y-104226247D01*
X136595238Y-104226247D02*
X136500000Y-104178628D01*
X136500000Y-104178628D02*
X136309524Y-104131009D01*
X136309524Y-104131009D02*
X136214286Y-104083390D01*
X136214286Y-104083390D02*
X136166667Y-104035771D01*
X136166667Y-104035771D02*
X136119048Y-103940533D01*
X136119048Y-103940533D02*
X136119048Y-103845295D01*
X136119048Y-103845295D02*
X136166667Y-103750057D01*
X136166667Y-103750057D02*
X136214286Y-103702438D01*
X136214286Y-103702438D02*
X136309524Y-103654819D01*
X136309524Y-103654819D02*
X136547619Y-103654819D01*
X136547619Y-103654819D02*
X136690476Y-103702438D01*
X157857142Y-103359580D02*
X157809523Y-103407200D01*
X157809523Y-103407200D02*
X157666666Y-103454819D01*
X157666666Y-103454819D02*
X157571428Y-103454819D01*
X157571428Y-103454819D02*
X157428571Y-103407200D01*
X157428571Y-103407200D02*
X157333333Y-103311961D01*
X157333333Y-103311961D02*
X157285714Y-103216723D01*
X157285714Y-103216723D02*
X157238095Y-103026247D01*
X157238095Y-103026247D02*
X157238095Y-102883390D01*
X157238095Y-102883390D02*
X157285714Y-102692914D01*
X157285714Y-102692914D02*
X157333333Y-102597676D01*
X157333333Y-102597676D02*
X157428571Y-102502438D01*
X157428571Y-102502438D02*
X157571428Y-102454819D01*
X157571428Y-102454819D02*
X157666666Y-102454819D01*
X157666666Y-102454819D02*
X157809523Y-102502438D01*
X157809523Y-102502438D02*
X157857142Y-102550057D01*
X158809523Y-103454819D02*
X158238095Y-103454819D01*
X158523809Y-103454819D02*
X158523809Y-102454819D01*
X158523809Y-102454819D02*
X158428571Y-102597676D01*
X158428571Y-102597676D02*
X158333333Y-102692914D01*
X158333333Y-102692914D02*
X158238095Y-102740533D01*
X159142857Y-102454819D02*
X159761904Y-102454819D01*
X159761904Y-102454819D02*
X159428571Y-102835771D01*
X159428571Y-102835771D02*
X159571428Y-102835771D01*
X159571428Y-102835771D02*
X159666666Y-102883390D01*
X159666666Y-102883390D02*
X159714285Y-102931009D01*
X159714285Y-102931009D02*
X159761904Y-103026247D01*
X159761904Y-103026247D02*
X159761904Y-103264342D01*
X159761904Y-103264342D02*
X159714285Y-103359580D01*
X159714285Y-103359580D02*
X159666666Y-103407200D01*
X159666666Y-103407200D02*
X159571428Y-103454819D01*
X159571428Y-103454819D02*
X159285714Y-103454819D01*
X159285714Y-103454819D02*
X159190476Y-103407200D01*
X159190476Y-103407200D02*
X159142857Y-103359580D01*
D13*
X140289047Y-83993595D02*
X140289047Y-84641214D01*
X140289047Y-84641214D02*
X140312857Y-84717404D01*
X140312857Y-84717404D02*
X140336666Y-84755500D01*
X140336666Y-84755500D02*
X140384285Y-84793595D01*
X140384285Y-84793595D02*
X140479523Y-84793595D01*
X140479523Y-84793595D02*
X140527142Y-84755500D01*
X140527142Y-84755500D02*
X140550952Y-84717404D01*
X140550952Y-84717404D02*
X140574761Y-84641214D01*
X140574761Y-84641214D02*
X140574761Y-83993595D01*
X141074762Y-84793595D02*
X140789048Y-84793595D01*
X140931905Y-84793595D02*
X140931905Y-83993595D01*
X140931905Y-83993595D02*
X140884286Y-84107880D01*
X140884286Y-84107880D02*
X140836667Y-84184071D01*
X140836667Y-84184071D02*
X140789048Y-84222166D01*
D12*
X140492080Y-101416666D02*
X140539700Y-101464285D01*
X140539700Y-101464285D02*
X140587319Y-101607142D01*
X140587319Y-101607142D02*
X140587319Y-101702380D01*
X140587319Y-101702380D02*
X140539700Y-101845237D01*
X140539700Y-101845237D02*
X140444461Y-101940475D01*
X140444461Y-101940475D02*
X140349223Y-101988094D01*
X140349223Y-101988094D02*
X140158747Y-102035713D01*
X140158747Y-102035713D02*
X140015890Y-102035713D01*
X140015890Y-102035713D02*
X139825414Y-101988094D01*
X139825414Y-101988094D02*
X139730176Y-101940475D01*
X139730176Y-101940475D02*
X139634938Y-101845237D01*
X139634938Y-101845237D02*
X139587319Y-101702380D01*
X139587319Y-101702380D02*
X139587319Y-101607142D01*
X139587319Y-101607142D02*
X139634938Y-101464285D01*
X139634938Y-101464285D02*
X139682557Y-101416666D01*
X140015890Y-100845237D02*
X139968271Y-100940475D01*
X139968271Y-100940475D02*
X139920652Y-100988094D01*
X139920652Y-100988094D02*
X139825414Y-101035713D01*
X139825414Y-101035713D02*
X139777795Y-101035713D01*
X139777795Y-101035713D02*
X139682557Y-100988094D01*
X139682557Y-100988094D02*
X139634938Y-100940475D01*
X139634938Y-100940475D02*
X139587319Y-100845237D01*
X139587319Y-100845237D02*
X139587319Y-100654761D01*
X139587319Y-100654761D02*
X139634938Y-100559523D01*
X139634938Y-100559523D02*
X139682557Y-100511904D01*
X139682557Y-100511904D02*
X139777795Y-100464285D01*
X139777795Y-100464285D02*
X139825414Y-100464285D01*
X139825414Y-100464285D02*
X139920652Y-100511904D01*
X139920652Y-100511904D02*
X139968271Y-100559523D01*
X139968271Y-100559523D02*
X140015890Y-100654761D01*
X140015890Y-100654761D02*
X140015890Y-100845237D01*
X140015890Y-100845237D02*
X140063509Y-100940475D01*
X140063509Y-100940475D02*
X140111128Y-100988094D01*
X140111128Y-100988094D02*
X140206366Y-101035713D01*
X140206366Y-101035713D02*
X140396842Y-101035713D01*
X140396842Y-101035713D02*
X140492080Y-100988094D01*
X140492080Y-100988094D02*
X140539700Y-100940475D01*
X140539700Y-100940475D02*
X140587319Y-100845237D01*
X140587319Y-100845237D02*
X140587319Y-100654761D01*
X140587319Y-100654761D02*
X140539700Y-100559523D01*
X140539700Y-100559523D02*
X140492080Y-100511904D01*
X140492080Y-100511904D02*
X140396842Y-100464285D01*
X140396842Y-100464285D02*
X140206366Y-100464285D01*
X140206366Y-100464285D02*
X140111128Y-100511904D01*
X140111128Y-100511904D02*
X140063509Y-100559523D01*
X140063509Y-100559523D02*
X140015890Y-100654761D01*
X136895833Y-96609580D02*
X136848214Y-96657200D01*
X136848214Y-96657200D02*
X136705357Y-96704819D01*
X136705357Y-96704819D02*
X136610119Y-96704819D01*
X136610119Y-96704819D02*
X136467262Y-96657200D01*
X136467262Y-96657200D02*
X136372024Y-96561961D01*
X136372024Y-96561961D02*
X136324405Y-96466723D01*
X136324405Y-96466723D02*
X136276786Y-96276247D01*
X136276786Y-96276247D02*
X136276786Y-96133390D01*
X136276786Y-96133390D02*
X136324405Y-95942914D01*
X136324405Y-95942914D02*
X136372024Y-95847676D01*
X136372024Y-95847676D02*
X136467262Y-95752438D01*
X136467262Y-95752438D02*
X136610119Y-95704819D01*
X136610119Y-95704819D02*
X136705357Y-95704819D01*
X136705357Y-95704819D02*
X136848214Y-95752438D01*
X136848214Y-95752438D02*
X136895833Y-95800057D01*
X137752976Y-95704819D02*
X137562500Y-95704819D01*
X137562500Y-95704819D02*
X137467262Y-95752438D01*
X137467262Y-95752438D02*
X137419643Y-95800057D01*
X137419643Y-95800057D02*
X137324405Y-95942914D01*
X137324405Y-95942914D02*
X137276786Y-96133390D01*
X137276786Y-96133390D02*
X137276786Y-96514342D01*
X137276786Y-96514342D02*
X137324405Y-96609580D01*
X137324405Y-96609580D02*
X137372024Y-96657200D01*
X137372024Y-96657200D02*
X137467262Y-96704819D01*
X137467262Y-96704819D02*
X137657738Y-96704819D01*
X137657738Y-96704819D02*
X137752976Y-96657200D01*
X137752976Y-96657200D02*
X137800595Y-96609580D01*
X137800595Y-96609580D02*
X137848214Y-96514342D01*
X137848214Y-96514342D02*
X137848214Y-96276247D01*
X137848214Y-96276247D02*
X137800595Y-96181009D01*
X137800595Y-96181009D02*
X137752976Y-96133390D01*
X137752976Y-96133390D02*
X137657738Y-96085771D01*
X137657738Y-96085771D02*
X137467262Y-96085771D01*
X137467262Y-96085771D02*
X137372024Y-96133390D01*
X137372024Y-96133390D02*
X137324405Y-96181009D01*
X137324405Y-96181009D02*
X137276786Y-96276247D01*
X160754819Y-98566666D02*
X160278628Y-98899999D01*
X160754819Y-99138094D02*
X159754819Y-99138094D01*
X159754819Y-99138094D02*
X159754819Y-98757142D01*
X159754819Y-98757142D02*
X159802438Y-98661904D01*
X159802438Y-98661904D02*
X159850057Y-98614285D01*
X159850057Y-98614285D02*
X159945295Y-98566666D01*
X159945295Y-98566666D02*
X160088152Y-98566666D01*
X160088152Y-98566666D02*
X160183390Y-98614285D01*
X160183390Y-98614285D02*
X160231009Y-98661904D01*
X160231009Y-98661904D02*
X160278628Y-98757142D01*
X160278628Y-98757142D02*
X160278628Y-99138094D01*
X160183390Y-97995237D02*
X160135771Y-98090475D01*
X160135771Y-98090475D02*
X160088152Y-98138094D01*
X160088152Y-98138094D02*
X159992914Y-98185713D01*
X159992914Y-98185713D02*
X159945295Y-98185713D01*
X159945295Y-98185713D02*
X159850057Y-98138094D01*
X159850057Y-98138094D02*
X159802438Y-98090475D01*
X159802438Y-98090475D02*
X159754819Y-97995237D01*
X159754819Y-97995237D02*
X159754819Y-97804761D01*
X159754819Y-97804761D02*
X159802438Y-97709523D01*
X159802438Y-97709523D02*
X159850057Y-97661904D01*
X159850057Y-97661904D02*
X159945295Y-97614285D01*
X159945295Y-97614285D02*
X159992914Y-97614285D01*
X159992914Y-97614285D02*
X160088152Y-97661904D01*
X160088152Y-97661904D02*
X160135771Y-97709523D01*
X160135771Y-97709523D02*
X160183390Y-97804761D01*
X160183390Y-97804761D02*
X160183390Y-97995237D01*
X160183390Y-97995237D02*
X160231009Y-98090475D01*
X160231009Y-98090475D02*
X160278628Y-98138094D01*
X160278628Y-98138094D02*
X160373866Y-98185713D01*
X160373866Y-98185713D02*
X160564342Y-98185713D01*
X160564342Y-98185713D02*
X160659580Y-98138094D01*
X160659580Y-98138094D02*
X160707200Y-98090475D01*
X160707200Y-98090475D02*
X160754819Y-97995237D01*
X160754819Y-97995237D02*
X160754819Y-97804761D01*
X160754819Y-97804761D02*
X160707200Y-97709523D01*
X160707200Y-97709523D02*
X160659580Y-97661904D01*
X160659580Y-97661904D02*
X160564342Y-97614285D01*
X160564342Y-97614285D02*
X160373866Y-97614285D01*
X160373866Y-97614285D02*
X160278628Y-97661904D01*
X160278628Y-97661904D02*
X160231009Y-97709523D01*
X160231009Y-97709523D02*
X160183390Y-97804761D01*
X159357142Y-93259580D02*
X159309523Y-93307200D01*
X159309523Y-93307200D02*
X159166666Y-93354819D01*
X159166666Y-93354819D02*
X159071428Y-93354819D01*
X159071428Y-93354819D02*
X158928571Y-93307200D01*
X158928571Y-93307200D02*
X158833333Y-93211961D01*
X158833333Y-93211961D02*
X158785714Y-93116723D01*
X158785714Y-93116723D02*
X158738095Y-92926247D01*
X158738095Y-92926247D02*
X158738095Y-92783390D01*
X158738095Y-92783390D02*
X158785714Y-92592914D01*
X158785714Y-92592914D02*
X158833333Y-92497676D01*
X158833333Y-92497676D02*
X158928571Y-92402438D01*
X158928571Y-92402438D02*
X159071428Y-92354819D01*
X159071428Y-92354819D02*
X159166666Y-92354819D01*
X159166666Y-92354819D02*
X159309523Y-92402438D01*
X159309523Y-92402438D02*
X159357142Y-92450057D01*
X160309523Y-93354819D02*
X159738095Y-93354819D01*
X160023809Y-93354819D02*
X160023809Y-92354819D01*
X160023809Y-92354819D02*
X159928571Y-92497676D01*
X159928571Y-92497676D02*
X159833333Y-92592914D01*
X159833333Y-92592914D02*
X159738095Y-92640533D01*
X161166666Y-92688152D02*
X161166666Y-93354819D01*
X160928571Y-92307200D02*
X160690476Y-93021485D01*
X160690476Y-93021485D02*
X161309523Y-93021485D01*
X153450595Y-101904819D02*
X153450595Y-102714342D01*
X153450595Y-102714342D02*
X153498214Y-102809580D01*
X153498214Y-102809580D02*
X153545833Y-102857200D01*
X153545833Y-102857200D02*
X153641071Y-102904819D01*
X153641071Y-102904819D02*
X153831547Y-102904819D01*
X153831547Y-102904819D02*
X153926785Y-102857200D01*
X153926785Y-102857200D02*
X153974404Y-102809580D01*
X153974404Y-102809580D02*
X154022023Y-102714342D01*
X154022023Y-102714342D02*
X154022023Y-101904819D01*
X154926785Y-102238152D02*
X154926785Y-102904819D01*
X154688690Y-101857200D02*
X154450595Y-102571485D01*
X154450595Y-102571485D02*
X155069642Y-102571485D01*
X119933333Y-88604819D02*
X119600000Y-88128628D01*
X119361905Y-88604819D02*
X119361905Y-87604819D01*
X119361905Y-87604819D02*
X119742857Y-87604819D01*
X119742857Y-87604819D02*
X119838095Y-87652438D01*
X119838095Y-87652438D02*
X119885714Y-87700057D01*
X119885714Y-87700057D02*
X119933333Y-87795295D01*
X119933333Y-87795295D02*
X119933333Y-87938152D01*
X119933333Y-87938152D02*
X119885714Y-88033390D01*
X119885714Y-88033390D02*
X119838095Y-88081009D01*
X119838095Y-88081009D02*
X119742857Y-88128628D01*
X119742857Y-88128628D02*
X119361905Y-88128628D01*
X120266667Y-87604819D02*
X120885714Y-87604819D01*
X120885714Y-87604819D02*
X120552381Y-87985771D01*
X120552381Y-87985771D02*
X120695238Y-87985771D01*
X120695238Y-87985771D02*
X120790476Y-88033390D01*
X120790476Y-88033390D02*
X120838095Y-88081009D01*
X120838095Y-88081009D02*
X120885714Y-88176247D01*
X120885714Y-88176247D02*
X120885714Y-88414342D01*
X120885714Y-88414342D02*
X120838095Y-88509580D01*
X120838095Y-88509580D02*
X120790476Y-88557200D01*
X120790476Y-88557200D02*
X120695238Y-88604819D01*
X120695238Y-88604819D02*
X120409524Y-88604819D01*
X120409524Y-88604819D02*
X120314286Y-88557200D01*
X120314286Y-88557200D02*
X120266667Y-88509580D01*
X130459580Y-89316666D02*
X130507200Y-89364285D01*
X130507200Y-89364285D02*
X130554819Y-89507142D01*
X130554819Y-89507142D02*
X130554819Y-89602380D01*
X130554819Y-89602380D02*
X130507200Y-89745237D01*
X130507200Y-89745237D02*
X130411961Y-89840475D01*
X130411961Y-89840475D02*
X130316723Y-89888094D01*
X130316723Y-89888094D02*
X130126247Y-89935713D01*
X130126247Y-89935713D02*
X129983390Y-89935713D01*
X129983390Y-89935713D02*
X129792914Y-89888094D01*
X129792914Y-89888094D02*
X129697676Y-89840475D01*
X129697676Y-89840475D02*
X129602438Y-89745237D01*
X129602438Y-89745237D02*
X129554819Y-89602380D01*
X129554819Y-89602380D02*
X129554819Y-89507142D01*
X129554819Y-89507142D02*
X129602438Y-89364285D01*
X129602438Y-89364285D02*
X129650057Y-89316666D01*
X129650057Y-88935713D02*
X129602438Y-88888094D01*
X129602438Y-88888094D02*
X129554819Y-88792856D01*
X129554819Y-88792856D02*
X129554819Y-88554761D01*
X129554819Y-88554761D02*
X129602438Y-88459523D01*
X129602438Y-88459523D02*
X129650057Y-88411904D01*
X129650057Y-88411904D02*
X129745295Y-88364285D01*
X129745295Y-88364285D02*
X129840533Y-88364285D01*
X129840533Y-88364285D02*
X129983390Y-88411904D01*
X129983390Y-88411904D02*
X130554819Y-88983332D01*
X130554819Y-88983332D02*
X130554819Y-88364285D01*
X119928571Y-102231009D02*
X119595238Y-102231009D01*
X119595238Y-102754819D02*
X119595238Y-101754819D01*
X119595238Y-101754819D02*
X120071428Y-101754819D01*
X120452381Y-102754819D02*
X120452381Y-101754819D01*
X120928571Y-102754819D02*
X120928571Y-101754819D01*
X120928571Y-101754819D02*
X121166666Y-101754819D01*
X121166666Y-101754819D02*
X121309523Y-101802438D01*
X121309523Y-101802438D02*
X121404761Y-101897676D01*
X121404761Y-101897676D02*
X121452380Y-101992914D01*
X121452380Y-101992914D02*
X121499999Y-102183390D01*
X121499999Y-102183390D02*
X121499999Y-102326247D01*
X121499999Y-102326247D02*
X121452380Y-102516723D01*
X121452380Y-102516723D02*
X121404761Y-102611961D01*
X121404761Y-102611961D02*
X121309523Y-102707200D01*
X121309523Y-102707200D02*
X121166666Y-102754819D01*
X121166666Y-102754819D02*
X120928571Y-102754819D01*
X121880952Y-101850057D02*
X121928571Y-101802438D01*
X121928571Y-101802438D02*
X122023809Y-101754819D01*
X122023809Y-101754819D02*
X122261904Y-101754819D01*
X122261904Y-101754819D02*
X122357142Y-101802438D01*
X122357142Y-101802438D02*
X122404761Y-101850057D01*
X122404761Y-101850057D02*
X122452380Y-101945295D01*
X122452380Y-101945295D02*
X122452380Y-102040533D01*
X122452380Y-102040533D02*
X122404761Y-102183390D01*
X122404761Y-102183390D02*
X121833333Y-102754819D01*
X121833333Y-102754819D02*
X122452380Y-102754819D01*
X143395833Y-97204819D02*
X143062500Y-96728628D01*
X142824405Y-97204819D02*
X142824405Y-96204819D01*
X142824405Y-96204819D02*
X143205357Y-96204819D01*
X143205357Y-96204819D02*
X143300595Y-96252438D01*
X143300595Y-96252438D02*
X143348214Y-96300057D01*
X143348214Y-96300057D02*
X143395833Y-96395295D01*
X143395833Y-96395295D02*
X143395833Y-96538152D01*
X143395833Y-96538152D02*
X143348214Y-96633390D01*
X143348214Y-96633390D02*
X143300595Y-96681009D01*
X143300595Y-96681009D02*
X143205357Y-96728628D01*
X143205357Y-96728628D02*
X142824405Y-96728628D01*
X144252976Y-96538152D02*
X144252976Y-97204819D01*
X144014881Y-96157200D02*
X143776786Y-96871485D01*
X143776786Y-96871485D02*
X144395833Y-96871485D01*
X161931009Y-108271428D02*
X161931009Y-108604761D01*
X162454819Y-108604761D02*
X161454819Y-108604761D01*
X161454819Y-108604761D02*
X161454819Y-108128571D01*
X162454819Y-107747618D02*
X161454819Y-107747618D01*
X162454819Y-107271428D02*
X161454819Y-107271428D01*
X161454819Y-107271428D02*
X161454819Y-107033333D01*
X161454819Y-107033333D02*
X161502438Y-106890476D01*
X161502438Y-106890476D02*
X161597676Y-106795238D01*
X161597676Y-106795238D02*
X161692914Y-106747619D01*
X161692914Y-106747619D02*
X161883390Y-106700000D01*
X161883390Y-106700000D02*
X162026247Y-106700000D01*
X162026247Y-106700000D02*
X162216723Y-106747619D01*
X162216723Y-106747619D02*
X162311961Y-106795238D01*
X162311961Y-106795238D02*
X162407200Y-106890476D01*
X162407200Y-106890476D02*
X162454819Y-107033333D01*
X162454819Y-107033333D02*
X162454819Y-107271428D01*
X161454819Y-106366666D02*
X161454819Y-105747619D01*
X161454819Y-105747619D02*
X161835771Y-106080952D01*
X161835771Y-106080952D02*
X161835771Y-105938095D01*
X161835771Y-105938095D02*
X161883390Y-105842857D01*
X161883390Y-105842857D02*
X161931009Y-105795238D01*
X161931009Y-105795238D02*
X162026247Y-105747619D01*
X162026247Y-105747619D02*
X162264342Y-105747619D01*
X162264342Y-105747619D02*
X162359580Y-105795238D01*
X162359580Y-105795238D02*
X162407200Y-105842857D01*
X162407200Y-105842857D02*
X162454819Y-105938095D01*
X162454819Y-105938095D02*
X162454819Y-106223809D01*
X162454819Y-106223809D02*
X162407200Y-106319047D01*
X162407200Y-106319047D02*
X162359580Y-106366666D01*
X156419642Y-87609580D02*
X156372023Y-87657200D01*
X156372023Y-87657200D02*
X156229166Y-87704819D01*
X156229166Y-87704819D02*
X156133928Y-87704819D01*
X156133928Y-87704819D02*
X155991071Y-87657200D01*
X155991071Y-87657200D02*
X155895833Y-87561961D01*
X155895833Y-87561961D02*
X155848214Y-87466723D01*
X155848214Y-87466723D02*
X155800595Y-87276247D01*
X155800595Y-87276247D02*
X155800595Y-87133390D01*
X155800595Y-87133390D02*
X155848214Y-86942914D01*
X155848214Y-86942914D02*
X155895833Y-86847676D01*
X155895833Y-86847676D02*
X155991071Y-86752438D01*
X155991071Y-86752438D02*
X156133928Y-86704819D01*
X156133928Y-86704819D02*
X156229166Y-86704819D01*
X156229166Y-86704819D02*
X156372023Y-86752438D01*
X156372023Y-86752438D02*
X156419642Y-86800057D01*
X157372023Y-87704819D02*
X156800595Y-87704819D01*
X157086309Y-87704819D02*
X157086309Y-86704819D01*
X157086309Y-86704819D02*
X156991071Y-86847676D01*
X156991071Y-86847676D02*
X156895833Y-86942914D01*
X156895833Y-86942914D02*
X156800595Y-86990533D01*
X157991071Y-86704819D02*
X158086309Y-86704819D01*
X158086309Y-86704819D02*
X158181547Y-86752438D01*
X158181547Y-86752438D02*
X158229166Y-86800057D01*
X158229166Y-86800057D02*
X158276785Y-86895295D01*
X158276785Y-86895295D02*
X158324404Y-87085771D01*
X158324404Y-87085771D02*
X158324404Y-87323866D01*
X158324404Y-87323866D02*
X158276785Y-87514342D01*
X158276785Y-87514342D02*
X158229166Y-87609580D01*
X158229166Y-87609580D02*
X158181547Y-87657200D01*
X158181547Y-87657200D02*
X158086309Y-87704819D01*
X158086309Y-87704819D02*
X157991071Y-87704819D01*
X157991071Y-87704819D02*
X157895833Y-87657200D01*
X157895833Y-87657200D02*
X157848214Y-87609580D01*
X157848214Y-87609580D02*
X157800595Y-87514342D01*
X157800595Y-87514342D02*
X157752976Y-87323866D01*
X157752976Y-87323866D02*
X157752976Y-87085771D01*
X157752976Y-87085771D02*
X157800595Y-86895295D01*
X157800595Y-86895295D02*
X157848214Y-86800057D01*
X157848214Y-86800057D02*
X157895833Y-86752438D01*
X157895833Y-86752438D02*
X157991071Y-86704819D01*
D14*
%TO.C,C9*%
X148052500Y-101103733D02*
X148052500Y-101396267D01*
X149072500Y-101103733D02*
X149072500Y-101396267D01*
%TO.C,R2*%
X122845276Y-100127500D02*
X123354724Y-100127500D01*
X122845276Y-101172500D02*
X123354724Y-101172500D01*
%TO.C,C5*%
X142327500Y-86488748D02*
X142327500Y-87011252D01*
X143797500Y-86488748D02*
X143797500Y-87011252D01*
D15*
%TO.C,G\u002A\u002A\u002A*%
G36*
X133499981Y-102158547D02*
G01*
X133503781Y-102220056D01*
X133499504Y-102252971D01*
X133493123Y-102258489D01*
X133489543Y-102224590D01*
X133489238Y-102199582D01*
X133491562Y-102153868D01*
X133496894Y-102146932D01*
X133499981Y-102158547D01*
G37*
G36*
X129627512Y-102137713D02*
G01*
X129635312Y-102188740D01*
X129635515Y-102199582D01*
X129629586Y-102254192D01*
X129615007Y-102281490D01*
X129611910Y-102282203D01*
X129596307Y-102261452D01*
X129588507Y-102210425D01*
X129588304Y-102199582D01*
X129594233Y-102144973D01*
X129608812Y-102117675D01*
X129611910Y-102116962D01*
X129627512Y-102137713D01*
G37*
G36*
X130994199Y-96083869D02*
G01*
X131037940Y-96107266D01*
X131051708Y-96156638D01*
X131051872Y-96166187D01*
X131035154Y-96229626D01*
X130989075Y-96258270D01*
X130919753Y-96248475D01*
X130916138Y-96247053D01*
X130894834Y-96216898D01*
X130887276Y-96164232D01*
X130894105Y-96111897D01*
X130911578Y-96084813D01*
X130951923Y-96078209D01*
X130994199Y-96083869D01*
G37*
G36*
X131013103Y-97989107D02*
G01*
X131037470Y-98042097D01*
X131040069Y-98071114D01*
X131031846Y-98122202D01*
X130998912Y-98143281D01*
X130980171Y-98146345D01*
X130928607Y-98145715D01*
X130903452Y-98136509D01*
X130886997Y-98091893D01*
X130894234Y-98033492D01*
X130921798Y-97986212D01*
X130924018Y-97984279D01*
X130971732Y-97967175D01*
X131013103Y-97989107D01*
G37*
G36*
X132928913Y-96090248D02*
G01*
X132948428Y-96113609D01*
X132952151Y-96168263D01*
X132945898Y-96227064D01*
X132922528Y-96252751D01*
X132904939Y-96256920D01*
X132850069Y-96252410D01*
X132826330Y-96242556D01*
X132805470Y-96205449D01*
X132802724Y-96153898D01*
X132815625Y-96104961D01*
X132849541Y-96087270D01*
X132881333Y-96085642D01*
X132928913Y-96090248D01*
G37*
G36*
X135613218Y-102122841D02*
G01*
X135617764Y-102133757D01*
X135615852Y-102135104D01*
X135593019Y-102169231D01*
X135578078Y-102223265D01*
X135567682Y-102294006D01*
X135564145Y-102219254D01*
X135553258Y-102163698D01*
X135531857Y-102132924D01*
X135531101Y-102132595D01*
X135530007Y-102124110D01*
X135566802Y-102119346D01*
X135572411Y-102119187D01*
X135613218Y-102122841D01*
G37*
G36*
X132916955Y-97974185D02*
G01*
X132952038Y-97996763D01*
X132960865Y-98042840D01*
X132959398Y-98064658D01*
X132946132Y-98119499D01*
X132912827Y-98142703D01*
X132892253Y-98146345D01*
X132840689Y-98145715D01*
X132815534Y-98136509D01*
X132799305Y-98092495D01*
X132805469Y-98034564D01*
X132831009Y-97988589D01*
X132832989Y-97986861D01*
X132882143Y-97970245D01*
X132916955Y-97974185D01*
G37*
G36*
X133765418Y-102123478D02*
G01*
X133776484Y-102130398D01*
X133772458Y-102132595D01*
X133751216Y-102162350D01*
X133742950Y-102213353D01*
X133735933Y-102262219D01*
X133719344Y-102282203D01*
X133702590Y-102261736D01*
X133695739Y-102213353D01*
X133686660Y-102160124D01*
X133666231Y-102132595D01*
X133666659Y-102124960D01*
X133704601Y-102120894D01*
X133719344Y-102120689D01*
X133765418Y-102123478D01*
G37*
G36*
X134532837Y-102126097D02*
G01*
X134498465Y-102136973D01*
X134445303Y-102167024D01*
X134434339Y-102205932D01*
X134466258Y-102242702D01*
X134491169Y-102254343D01*
X134557356Y-102278476D01*
X134491698Y-102280340D01*
X134438526Y-102270626D01*
X134412983Y-102248173D01*
X134404774Y-102181771D01*
X134436028Y-102138329D01*
X134486740Y-102124135D01*
X134532148Y-102121950D01*
X134532837Y-102126097D01*
G37*
G36*
X135000850Y-102134350D02*
G01*
X135006577Y-102141714D01*
X135033146Y-102152315D01*
X135055182Y-102138823D01*
X135082491Y-102127401D01*
X135087141Y-102145618D01*
X135067175Y-102177157D01*
X135044017Y-102217767D01*
X135034504Y-102246794D01*
X135025443Y-102279424D01*
X135021621Y-102266641D01*
X135020410Y-102248653D01*
X135002824Y-102195594D01*
X134978604Y-102160131D01*
X134958229Y-102128262D01*
X134965408Y-102116962D01*
X135000850Y-102134350D01*
G37*
G36*
X129362105Y-102162349D02*
G01*
X129419178Y-102215966D01*
X129429708Y-102160562D01*
X129437024Y-102139165D01*
X129441939Y-102164782D01*
X129443453Y-102193681D01*
X129440261Y-102259041D01*
X129424032Y-102279121D01*
X129394381Y-102254127D01*
X129377102Y-102229090D01*
X129343391Y-102175976D01*
X129326565Y-102234991D01*
X129315838Y-102265613D01*
X129310197Y-102256796D01*
X129307473Y-102204741D01*
X129307385Y-102201369D01*
X129305032Y-102108732D01*
X129362105Y-102162349D01*
G37*
G36*
X128300818Y-102159172D02*
G01*
X128309515Y-102176476D01*
X128332266Y-102234291D01*
X128326330Y-102261985D01*
X128285282Y-102271070D01*
X128256144Y-102272103D01*
X128202512Y-102271062D01*
X128186635Y-102256371D01*
X128199070Y-102215453D01*
X128204173Y-102202894D01*
X128205982Y-102199582D01*
X128242765Y-102199582D01*
X128254568Y-102211385D01*
X128266370Y-102199582D01*
X128254568Y-102187779D01*
X128242765Y-102199582D01*
X128205982Y-102199582D01*
X128237723Y-102141475D01*
X128269640Y-102126975D01*
X128300818Y-102159172D01*
G37*
G36*
X130967200Y-102156990D02*
G01*
X130976987Y-102176476D01*
X130999750Y-102234292D01*
X130993959Y-102261984D01*
X130953350Y-102271045D01*
X130924898Y-102272049D01*
X130845274Y-102273698D01*
X130875416Y-102202011D01*
X130878851Y-102195648D01*
X130918105Y-102195648D01*
X130921346Y-102209682D01*
X130933843Y-102211385D01*
X130953273Y-102202748D01*
X130949580Y-102195648D01*
X130921565Y-102192823D01*
X130918105Y-102195648D01*
X130878851Y-102195648D01*
X130908305Y-102141093D01*
X130937982Y-102126316D01*
X130967200Y-102156990D01*
G37*
G36*
X129145989Y-102124294D02*
G01*
X129137127Y-102132341D01*
X129133889Y-102133234D01*
X129097040Y-102155199D01*
X129101333Y-102182847D01*
X129122086Y-102195752D01*
X129139482Y-102206417D01*
X129122086Y-102209522D01*
X129094580Y-102223508D01*
X129101707Y-102248399D01*
X129133889Y-102265931D01*
X129147098Y-102274235D01*
X129115514Y-102279215D01*
X129110283Y-102279465D01*
X129066657Y-102276321D01*
X129048727Y-102252691D01*
X129045367Y-102199582D01*
X129049283Y-102144223D01*
X129068444Y-102122212D01*
X129110283Y-102119700D01*
X129145989Y-102124294D01*
G37*
G36*
X132757699Y-102124294D02*
G01*
X132748837Y-102132341D01*
X132745599Y-102133234D01*
X132708750Y-102155199D01*
X132713043Y-102182847D01*
X132733796Y-102195752D01*
X132751192Y-102206417D01*
X132733796Y-102209522D01*
X132706290Y-102223508D01*
X132713417Y-102248399D01*
X132745599Y-102265931D01*
X132758808Y-102274235D01*
X132727224Y-102279215D01*
X132721993Y-102279465D01*
X132678367Y-102276321D01*
X132660437Y-102252691D01*
X132657077Y-102199582D01*
X132660993Y-102144223D01*
X132680154Y-102122212D01*
X132721993Y-102119700D01*
X132757699Y-102124294D01*
G37*
G36*
X130194602Y-102120553D02*
G01*
X130192550Y-102127848D01*
X130158995Y-102141951D01*
X130120320Y-102174517D01*
X130113617Y-102216468D01*
X130140567Y-102249265D01*
X130148961Y-102252712D01*
X130168210Y-102246436D01*
X130164140Y-102225161D01*
X130166307Y-102193779D01*
X130189461Y-102187779D01*
X130221189Y-102200250D01*
X130222009Y-102228481D01*
X130197846Y-102258704D01*
X130154626Y-102277148D01*
X130150769Y-102277674D01*
X130097185Y-102271749D01*
X130073717Y-102239689D01*
X130069097Y-102172517D01*
X130100707Y-102129800D01*
X130151470Y-102118458D01*
X130194602Y-102120553D01*
G37*
G36*
X132191189Y-102147922D02*
G01*
X132218218Y-102198358D01*
X132219778Y-102202011D01*
X132249921Y-102273698D01*
X132170297Y-102272049D01*
X132116828Y-102266621D01*
X132091028Y-102255514D01*
X132090604Y-102253807D01*
X132100962Y-102212613D01*
X132109609Y-102195648D01*
X132145615Y-102195648D01*
X132148855Y-102209682D01*
X132161352Y-102211385D01*
X132180782Y-102202748D01*
X132177089Y-102195648D01*
X132149074Y-102192823D01*
X132145615Y-102195648D01*
X132109609Y-102195648D01*
X132125078Y-102165297D01*
X132152108Y-102130235D01*
X132167759Y-102123032D01*
X132191189Y-102147922D01*
G37*
G36*
X129910784Y-102137713D02*
G01*
X129918583Y-102188740D01*
X129918787Y-102199582D01*
X129910999Y-102261475D01*
X129889886Y-102279658D01*
X129858823Y-102252792D01*
X129844345Y-102229090D01*
X129815453Y-102175976D01*
X129798655Y-102234991D01*
X129787929Y-102265725D01*
X129782303Y-102256991D01*
X129779587Y-102204999D01*
X129779504Y-102201825D01*
X129779348Y-102143719D01*
X129787406Y-102125490D01*
X129810309Y-102139830D01*
X129824363Y-102152371D01*
X129858420Y-102179923D01*
X129870378Y-102174800D01*
X129871575Y-102156029D01*
X129883271Y-102122335D01*
X129895181Y-102116962D01*
X129910784Y-102137713D01*
G37*
G36*
X131545441Y-102130194D02*
G01*
X131567346Y-102172050D01*
X131561173Y-102224530D01*
X131534211Y-102270825D01*
X131488133Y-102282203D01*
X131448511Y-102275950D01*
X131432294Y-102247950D01*
X131430455Y-102215320D01*
X131453173Y-102215320D01*
X131464963Y-102253273D01*
X131495207Y-102250672D01*
X131521392Y-102226320D01*
X131534693Y-102191146D01*
X131516209Y-102167510D01*
X131478549Y-102153224D01*
X131456779Y-102181383D01*
X131453173Y-102215320D01*
X131430455Y-102215320D01*
X131429568Y-102199582D01*
X131434050Y-102143636D01*
X131453916Y-102120747D01*
X131487189Y-102116962D01*
X131545441Y-102130194D01*
G37*
G36*
X135341318Y-102130910D02*
G01*
X135366564Y-102161803D01*
X135368160Y-102193213D01*
X135351980Y-102206176D01*
X135312546Y-102229863D01*
X135288718Y-102250588D01*
X135265691Y-102268131D01*
X135255788Y-102253107D01*
X135253731Y-102201269D01*
X135256940Y-102164173D01*
X135277337Y-102164173D01*
X135295301Y-102187093D01*
X135300943Y-102187779D01*
X135323863Y-102169816D01*
X135324549Y-102164173D01*
X135306585Y-102141254D01*
X135300943Y-102140568D01*
X135278023Y-102158531D01*
X135277337Y-102164173D01*
X135256940Y-102164173D01*
X135258709Y-102143728D01*
X135278450Y-102120119D01*
X135301684Y-102116962D01*
X135341318Y-102130910D01*
G37*
G36*
X135905945Y-102134651D02*
G01*
X135924350Y-102162343D01*
X135926501Y-102199582D01*
X135919306Y-102251346D01*
X135888716Y-102273203D01*
X135861450Y-102277883D01*
X135803697Y-102271578D01*
X135782734Y-102249754D01*
X135776965Y-102208789D01*
X135810813Y-102208789D01*
X135824995Y-102230270D01*
X135861188Y-102242485D01*
X135892612Y-102222581D01*
X135901682Y-102183876D01*
X135898966Y-102174251D01*
X135872948Y-102142842D01*
X135837096Y-102157489D01*
X135823726Y-102171817D01*
X135810813Y-102208789D01*
X135776965Y-102208789D01*
X135773361Y-102183198D01*
X135802260Y-102141205D01*
X135856006Y-102128765D01*
X135905945Y-102134651D01*
G37*
G36*
X127933224Y-102136081D02*
G01*
X127935887Y-102152371D01*
X127950694Y-102182651D01*
X127981880Y-102184159D01*
X128009597Y-102158393D01*
X128014039Y-102146469D01*
X128020547Y-102140781D01*
X128024392Y-102174562D01*
X128024834Y-102199582D01*
X128022637Y-102248102D01*
X128017093Y-102260511D01*
X128014039Y-102252696D01*
X127990862Y-102219547D01*
X127958646Y-102213252D01*
X127937240Y-102235308D01*
X127935887Y-102246794D01*
X127923141Y-102278208D01*
X127912281Y-102282203D01*
X127896678Y-102261452D01*
X127888879Y-102210425D01*
X127888675Y-102199582D01*
X127894604Y-102144973D01*
X127909183Y-102117675D01*
X127912281Y-102116962D01*
X127933224Y-102136081D01*
G37*
G36*
X130600696Y-102136081D02*
G01*
X130603359Y-102152371D01*
X130618166Y-102182651D01*
X130649352Y-102184159D01*
X130677069Y-102158393D01*
X130681511Y-102146469D01*
X130688019Y-102140781D01*
X130691864Y-102174562D01*
X130692306Y-102199582D01*
X130690109Y-102248102D01*
X130684565Y-102260511D01*
X130681511Y-102252696D01*
X130658334Y-102219547D01*
X130626118Y-102213252D01*
X130604712Y-102235308D01*
X130603359Y-102246794D01*
X130590613Y-102278208D01*
X130579753Y-102282203D01*
X130564151Y-102261452D01*
X130556351Y-102210425D01*
X130556147Y-102199582D01*
X130562076Y-102144973D01*
X130576655Y-102117675D01*
X130579753Y-102116962D01*
X130600696Y-102136081D01*
G37*
G36*
X133952741Y-102136081D02*
G01*
X133955404Y-102152371D01*
X133970211Y-102182651D01*
X134001397Y-102184159D01*
X134029113Y-102158393D01*
X134033556Y-102146469D01*
X134040064Y-102140781D01*
X134043908Y-102174562D01*
X134044351Y-102199582D01*
X134042154Y-102248102D01*
X134036610Y-102260511D01*
X134033556Y-102252696D01*
X134010379Y-102219547D01*
X133978162Y-102213252D01*
X133956757Y-102235308D01*
X133955404Y-102246794D01*
X133942657Y-102278208D01*
X133931798Y-102282203D01*
X133916195Y-102261452D01*
X133908396Y-102210425D01*
X133908192Y-102199582D01*
X133914121Y-102144973D01*
X133928700Y-102117675D01*
X133931798Y-102116962D01*
X133952741Y-102136081D01*
G37*
G36*
X128827012Y-102121295D02*
G01*
X128873710Y-102134524D01*
X128890520Y-102169823D01*
X128891928Y-102199582D01*
X128884727Y-102251354D01*
X128854142Y-102273212D01*
X128827012Y-102277870D01*
X128784060Y-102278533D01*
X128765947Y-102258472D01*
X128762331Y-102208113D01*
X128789616Y-102208113D01*
X128792232Y-102249354D01*
X128813222Y-102253358D01*
X128840756Y-102223879D01*
X128844716Y-102203517D01*
X128833656Y-102164720D01*
X128810788Y-102163167D01*
X128791582Y-102197567D01*
X128789616Y-102208113D01*
X128762331Y-102208113D01*
X128762103Y-102204935D01*
X128762095Y-102199582D01*
X128765334Y-102143214D01*
X128782098Y-102121216D01*
X128822959Y-102120839D01*
X128827012Y-102121295D01*
G37*
G36*
X134740302Y-102121221D02*
G01*
X134778937Y-102137594D01*
X134795135Y-102181002D01*
X134797311Y-102206710D01*
X134796989Y-102256950D01*
X134785441Y-102268204D01*
X134766005Y-102255440D01*
X134732829Y-102238849D01*
X134709357Y-102260115D01*
X134695009Y-102268522D01*
X134688315Y-102233667D01*
X134687550Y-102203842D01*
X134689610Y-102164173D01*
X134710794Y-102164173D01*
X134728758Y-102187093D01*
X134734400Y-102187779D01*
X134757320Y-102169816D01*
X134758006Y-102164173D01*
X134740043Y-102141254D01*
X134734400Y-102140568D01*
X134711480Y-102158531D01*
X134710794Y-102164173D01*
X134689610Y-102164173D01*
X134690583Y-102145423D01*
X134705486Y-102121910D01*
X134739999Y-102121178D01*
X134740302Y-102121221D01*
G37*
G36*
X135655812Y-99730775D02*
G01*
X135694394Y-99770890D01*
X135720386Y-99819928D01*
X135717246Y-99860213D01*
X135700095Y-99894821D01*
X135646745Y-99946681D01*
X135573320Y-99964592D01*
X135517772Y-99953192D01*
X135486608Y-99922938D01*
X135464032Y-99880538D01*
X135459513Y-99838988D01*
X135537002Y-99838988D01*
X135548444Y-99885662D01*
X135582247Y-99898002D01*
X135624771Y-99884609D01*
X135637785Y-99868495D01*
X135638446Y-99814818D01*
X135604086Y-99783333D01*
X135581689Y-99779973D01*
X135546251Y-99795241D01*
X135537002Y-99838988D01*
X135459513Y-99838988D01*
X135456370Y-99810086D01*
X135483370Y-99754337D01*
X135533379Y-99718838D01*
X135594744Y-99709135D01*
X135655812Y-99730775D01*
G37*
G36*
X132450525Y-102121221D02*
G01*
X132488610Y-102136807D01*
X132503146Y-102178145D01*
X132504438Y-102205484D01*
X132498886Y-102262077D01*
X132483781Y-102282144D01*
X132463737Y-102260758D01*
X132460191Y-102252696D01*
X132443962Y-102237665D01*
X132423176Y-102258597D01*
X132406881Y-102271964D01*
X132399280Y-102247681D01*
X132397773Y-102203842D01*
X132399833Y-102164173D01*
X132421017Y-102164173D01*
X132438981Y-102187093D01*
X132444623Y-102187779D01*
X132467543Y-102169816D01*
X132468229Y-102164173D01*
X132450266Y-102141254D01*
X132444623Y-102140568D01*
X132421703Y-102158531D01*
X132421017Y-102164173D01*
X132399833Y-102164173D01*
X132400806Y-102145423D01*
X132415709Y-102121910D01*
X132450222Y-102121178D01*
X132450525Y-102121221D01*
G37*
G36*
X128583009Y-102123072D02*
G01*
X128598772Y-102134666D01*
X128606032Y-102222754D01*
X128602689Y-102269243D01*
X128586963Y-102278917D01*
X128557072Y-102256557D01*
X128554363Y-102253876D01*
X128530972Y-102237453D01*
X128526036Y-102253876D01*
X128510600Y-102280444D01*
X128502430Y-102282203D01*
X128486827Y-102261452D01*
X128479028Y-102210425D01*
X128478824Y-102199582D01*
X128481618Y-102164173D01*
X128526036Y-102164173D01*
X128543999Y-102187093D01*
X128549642Y-102187779D01*
X128572562Y-102169816D01*
X128573248Y-102164173D01*
X128555284Y-102141254D01*
X128549642Y-102140568D01*
X128526722Y-102158531D01*
X128526036Y-102164173D01*
X128481618Y-102164173D01*
X128483233Y-102143709D01*
X128503075Y-102120836D01*
X128537839Y-102116962D01*
X128583009Y-102123072D01*
G37*
G36*
X131250481Y-102123072D02*
G01*
X131266244Y-102134666D01*
X131273504Y-102222754D01*
X131270162Y-102269243D01*
X131254435Y-102278917D01*
X131224544Y-102256557D01*
X131221835Y-102253876D01*
X131198444Y-102237453D01*
X131193508Y-102253876D01*
X131178072Y-102280444D01*
X131169902Y-102282203D01*
X131154299Y-102261452D01*
X131146500Y-102210425D01*
X131146296Y-102199582D01*
X131149090Y-102164173D01*
X131193508Y-102164173D01*
X131211472Y-102187093D01*
X131217114Y-102187779D01*
X131240034Y-102169816D01*
X131240720Y-102164173D01*
X131222756Y-102141254D01*
X131217114Y-102140568D01*
X131194194Y-102158531D01*
X131193508Y-102164173D01*
X131149090Y-102164173D01*
X131150705Y-102143709D01*
X131170547Y-102120836D01*
X131205311Y-102116962D01*
X131250481Y-102123072D01*
G37*
G36*
X131854888Y-102151244D02*
G01*
X131855225Y-102158272D01*
X131858864Y-102184868D01*
X131874589Y-102174240D01*
X131890390Y-102154094D01*
X131922162Y-102120747D01*
X131934410Y-102130205D01*
X131926987Y-102182216D01*
X131921063Y-102205484D01*
X131899556Y-102257633D01*
X131875672Y-102281732D01*
X131858213Y-102272320D01*
X131854475Y-102246794D01*
X131844778Y-102214463D01*
X131818190Y-102224361D01*
X131795732Y-102250414D01*
X131774891Y-102270967D01*
X131758395Y-102257629D01*
X131739910Y-102211177D01*
X131725004Y-102155198D01*
X131724297Y-102123525D01*
X131735121Y-102123517D01*
X131754805Y-102162535D01*
X131756203Y-102166260D01*
X131776975Y-102222413D01*
X131793710Y-102169687D01*
X131817124Y-102126916D01*
X131841440Y-102120040D01*
X131854888Y-102151244D01*
G37*
G36*
X133332434Y-102135549D02*
G01*
X133325050Y-102182743D01*
X133299885Y-102245691D01*
X133293169Y-102258597D01*
X133275497Y-102280378D01*
X133260470Y-102258729D01*
X133258090Y-102252696D01*
X133233280Y-102217132D01*
X133209148Y-102216833D01*
X133200014Y-102246794D01*
X133191022Y-102279703D01*
X133169415Y-102274737D01*
X133143242Y-102236471D01*
X133131505Y-102207863D01*
X133112068Y-102150069D01*
X133107889Y-102124103D01*
X133118646Y-102117224D01*
X133129196Y-102116962D01*
X133149582Y-102136482D01*
X133153552Y-102158272D01*
X133156612Y-102186665D01*
X133171261Y-102176749D01*
X133185662Y-102158272D01*
X133222468Y-102121522D01*
X133243372Y-102127107D01*
X133247226Y-102152371D01*
X133259972Y-102183785D01*
X133270831Y-102187779D01*
X133291774Y-102168660D01*
X133294437Y-102152371D01*
X133308025Y-102120970D01*
X133319634Y-102116962D01*
X133332434Y-102135549D01*
G37*
G36*
X132012830Y-96849160D02*
G01*
X132074949Y-96901211D01*
X132110642Y-96973772D01*
X132115589Y-97055232D01*
X132085474Y-97133981D01*
X132055125Y-97169448D01*
X132014253Y-97220916D01*
X131996159Y-97270587D01*
X131996110Y-97272617D01*
X131984067Y-97350117D01*
X131949578Y-97390679D01*
X131925292Y-97395772D01*
X131882020Y-97377452D01*
X131868803Y-97358432D01*
X131856586Y-97303617D01*
X131854067Y-97269910D01*
X131837309Y-97218794D01*
X131797310Y-97165316D01*
X131795052Y-97163136D01*
X131744770Y-97088277D01*
X131738591Y-97043382D01*
X131855438Y-97043382D01*
X131870212Y-97073157D01*
X131914033Y-97089161D01*
X131961462Y-97074885D01*
X131982649Y-97049295D01*
X131980655Y-97001095D01*
X131947799Y-96965496D01*
X131900296Y-96958711D01*
X131894075Y-96960720D01*
X131861658Y-96994238D01*
X131855438Y-97043382D01*
X131738591Y-97043382D01*
X131733517Y-97006514D01*
X131756766Y-96929163D01*
X131809990Y-96867541D01*
X131888665Y-96832965D01*
X131928600Y-96829229D01*
X132012830Y-96849160D01*
G37*
G36*
X135717963Y-100199503D02*
G01*
X135729805Y-100237455D01*
X135737903Y-100303753D01*
X135742700Y-100402695D01*
X135744638Y-100538579D01*
X135744159Y-100715703D01*
X135743433Y-100795029D01*
X135737653Y-101349768D01*
X135593044Y-101356720D01*
X135508919Y-101358181D01*
X135460661Y-101350969D01*
X135437376Y-101332935D01*
X135433704Y-101325282D01*
X135428289Y-101287721D01*
X135424204Y-101212375D01*
X135421399Y-101107586D01*
X135419825Y-100981696D01*
X135419433Y-100843049D01*
X135420173Y-100699986D01*
X135421997Y-100560850D01*
X135424856Y-100433983D01*
X135428699Y-100327730D01*
X135433478Y-100250430D01*
X135439144Y-100210429D01*
X135440301Y-100207757D01*
X135471240Y-100187724D01*
X135487151Y-100191446D01*
X135496900Y-100218221D01*
X135504323Y-100286064D01*
X135509497Y-100396524D01*
X135512495Y-100551151D01*
X135513397Y-100737407D01*
X135513397Y-101267147D01*
X135584214Y-101267147D01*
X135655032Y-101267147D01*
X135655032Y-100737407D01*
X135656060Y-100540008D01*
X135659194Y-100388227D01*
X135664508Y-100280514D01*
X135672077Y-100215321D01*
X135681277Y-100191446D01*
X135701935Y-100185599D01*
X135717963Y-100199503D01*
G37*
G36*
X136078719Y-100194257D02*
G01*
X136095740Y-100220173D01*
X136132315Y-100281801D01*
X136185218Y-100373503D01*
X136251222Y-100489640D01*
X136327100Y-100624572D01*
X136408612Y-100770832D01*
X136511050Y-100957456D01*
X136589812Y-101105612D01*
X136645801Y-101217147D01*
X136679917Y-101293903D01*
X136693060Y-101337727D01*
X136691061Y-101349178D01*
X136673848Y-101357980D01*
X136652932Y-101348730D01*
X136624301Y-101316310D01*
X136583944Y-101255607D01*
X136527850Y-101161504D01*
X136483829Y-101084879D01*
X136373180Y-100890807D01*
X136244264Y-101125561D01*
X136179221Y-101239421D01*
X136129940Y-101313722D01*
X136093049Y-101352064D01*
X136065176Y-101358050D01*
X136044880Y-101338530D01*
X136050525Y-101310310D01*
X136076385Y-101250384D01*
X136118306Y-101167487D01*
X136172139Y-101070352D01*
X136173319Y-101068306D01*
X136228515Y-100971299D01*
X136273777Y-100889118D01*
X136304479Y-100830349D01*
X136315996Y-100803580D01*
X136315999Y-100803459D01*
X136305156Y-100777384D01*
X136275434Y-100718224D01*
X136231045Y-100634074D01*
X136176200Y-100533029D01*
X136160478Y-100504502D01*
X136093149Y-100379153D01*
X136049804Y-100289419D01*
X136028750Y-100231297D01*
X136028294Y-100200783D01*
X136030645Y-100197519D01*
X136065464Y-100185746D01*
X136078719Y-100194257D01*
G37*
G36*
X136722218Y-100193715D02*
G01*
X136724232Y-100233333D01*
X136698790Y-100303571D01*
X136647772Y-100403194D01*
X136594565Y-100511231D01*
X136569203Y-100590858D01*
X136572253Y-100639147D01*
X136599305Y-100653393D01*
X136617587Y-100634091D01*
X136653521Y-100581570D01*
X136701874Y-100503905D01*
X136756120Y-100411432D01*
X136814589Y-100310073D01*
X136854145Y-100245421D01*
X136878786Y-100212904D01*
X136892510Y-100207949D01*
X136899316Y-100225983D01*
X136901653Y-100245004D01*
X136898089Y-100294386D01*
X136876583Y-100359117D01*
X136833811Y-100447355D01*
X136779387Y-100544965D01*
X136649812Y-100769392D01*
X136779665Y-101005256D01*
X136846934Y-101134381D01*
X136887329Y-101229177D01*
X136902257Y-101293120D01*
X136901931Y-101307247D01*
X136894344Y-101373374D01*
X136844203Y-101290753D01*
X136791332Y-101201268D01*
X136727872Y-101090119D01*
X136657419Y-100964007D01*
X136583566Y-100829631D01*
X136509910Y-100693692D01*
X136440045Y-100562888D01*
X136377567Y-100443920D01*
X136326070Y-100343487D01*
X136289149Y-100268290D01*
X136270399Y-100225029D01*
X136268787Y-100218384D01*
X136278353Y-100186124D01*
X136305519Y-100194688D01*
X136347983Y-100242090D01*
X136403444Y-100326339D01*
X136413636Y-100343561D01*
X136499471Y-100490498D01*
X136585935Y-100335886D01*
X136630102Y-100261572D01*
X136667630Y-100206796D01*
X136691381Y-100181819D01*
X136693456Y-100181274D01*
X136722218Y-100193715D01*
G37*
G36*
X131540060Y-100182143D02*
G01*
X131618888Y-100215657D01*
X131693708Y-100273437D01*
X131752212Y-100343023D01*
X131782093Y-100411953D01*
X131783657Y-100428790D01*
X131775709Y-100477219D01*
X131752760Y-100481710D01*
X131716150Y-100442620D01*
X131691678Y-100404373D01*
X131616595Y-100318460D01*
X131520123Y-100272516D01*
X131409831Y-100269675D01*
X131381429Y-100275947D01*
X131326618Y-100293494D01*
X131284432Y-100316909D01*
X131253019Y-100352223D01*
X131230527Y-100405471D01*
X131215106Y-100482686D01*
X131204903Y-100589901D01*
X131198068Y-100733149D01*
X131193508Y-100888304D01*
X131181705Y-101349768D01*
X131034168Y-101356796D01*
X130886631Y-101363824D01*
X130883301Y-100908283D01*
X130881860Y-100707898D01*
X130880849Y-100549621D01*
X130880336Y-100428348D01*
X130880392Y-100338977D01*
X130881088Y-100276403D01*
X130882494Y-100235524D01*
X130884681Y-100211238D01*
X130887719Y-100198440D01*
X130891678Y-100192028D01*
X130893204Y-100190438D01*
X130913023Y-100178438D01*
X130928510Y-100189397D01*
X130940136Y-100227327D01*
X130948371Y-100296239D01*
X130953688Y-100400144D01*
X130956556Y-100543054D01*
X130957447Y-100728981D01*
X130957449Y-100737407D01*
X130957449Y-101267147D01*
X131028266Y-101267147D01*
X131099084Y-101267147D01*
X131099172Y-100848142D01*
X131099691Y-100694731D01*
X131101653Y-100580807D01*
X131105777Y-100498654D01*
X131112782Y-100440551D01*
X131123389Y-100398780D01*
X131138316Y-100365624D01*
X131145257Y-100353700D01*
X131229783Y-100256690D01*
X131338429Y-100195121D01*
X131460949Y-100173444D01*
X131540060Y-100182143D01*
G37*
G36*
X134930951Y-99860850D02*
G01*
X134941879Y-99896752D01*
X134946411Y-99967083D01*
X134946854Y-100014675D01*
X134946854Y-100178559D01*
X135047179Y-100185818D01*
X135117303Y-100197332D01*
X135146139Y-100219934D01*
X135147504Y-100228486D01*
X135129255Y-100254556D01*
X135071129Y-100268939D01*
X135047179Y-100271153D01*
X134946854Y-100278412D01*
X134946854Y-100772780D01*
X134947187Y-100944708D01*
X134948924Y-101074253D01*
X134953168Y-101166241D01*
X134961024Y-101225499D01*
X134973597Y-101256853D01*
X134991990Y-101265132D01*
X135017309Y-101255162D01*
X135050657Y-101231769D01*
X135051691Y-101230988D01*
X135102934Y-101200290D01*
X135129358Y-101207208D01*
X135135701Y-101242935D01*
X135114307Y-101288592D01*
X135058949Y-101328101D01*
X134982864Y-101354276D01*
X134918519Y-101360823D01*
X134844370Y-101345721D01*
X134773917Y-101310347D01*
X134772796Y-101309520D01*
X134728375Y-101271315D01*
X134694942Y-101227198D01*
X134670994Y-101170183D01*
X134655027Y-101093284D01*
X134645540Y-100989514D01*
X134641027Y-100851889D01*
X134639976Y-100692313D01*
X134639706Y-100543816D01*
X134638398Y-100435813D01*
X134635301Y-100361590D01*
X134629667Y-100314430D01*
X134620749Y-100287618D01*
X134607796Y-100274437D01*
X134592765Y-100268858D01*
X134552081Y-100244113D01*
X134552304Y-100212021D01*
X134591526Y-100188438D01*
X134624138Y-100166283D01*
X134640849Y-100114292D01*
X134644639Y-100078519D01*
X134656468Y-100009249D01*
X134679926Y-99981586D01*
X134687188Y-99980623D01*
X134698320Y-99986351D01*
X134707253Y-100006939D01*
X134714390Y-100047495D01*
X134720134Y-100113125D01*
X134724888Y-100208936D01*
X134729055Y-100340036D01*
X134733039Y-100511531D01*
X134734400Y-100578798D01*
X134746203Y-101176973D01*
X134805218Y-101224734D01*
X134864233Y-101272495D01*
X134870481Y-100561643D01*
X134872548Y-100356981D01*
X134874934Y-100194822D01*
X134877912Y-100070460D01*
X134881756Y-99979185D01*
X134886740Y-99916290D01*
X134893136Y-99877066D01*
X134901219Y-99856806D01*
X134911263Y-99850801D01*
X134911791Y-99850791D01*
X134930951Y-99860850D01*
G37*
G36*
X128803566Y-100196079D02*
G01*
X128892714Y-100231407D01*
X129020877Y-100319836D01*
X129117477Y-100436403D01*
X129181318Y-100573093D01*
X129211205Y-100721896D01*
X129205943Y-100874798D01*
X129164336Y-101023786D01*
X129085187Y-101160849D01*
X129039345Y-101214091D01*
X128933821Y-101294699D01*
X128804361Y-101350664D01*
X128666473Y-101377684D01*
X128535667Y-101371454D01*
X128502277Y-101363121D01*
X128350525Y-101294171D01*
X128346379Y-101290753D01*
X128573248Y-101290753D01*
X128632263Y-101290753D01*
X128691278Y-101290753D01*
X128691278Y-100771423D01*
X128691278Y-100767702D01*
X128691278Y-100272677D01*
X128785701Y-100272677D01*
X128785701Y-100767702D01*
X128785815Y-100932285D01*
X128786557Y-101055449D01*
X128788526Y-101142989D01*
X128792320Y-101200700D01*
X128798539Y-101234374D01*
X128807781Y-101249806D01*
X128820647Y-101252791D01*
X128835534Y-101249696D01*
X128881143Y-101226248D01*
X128941659Y-101181080D01*
X128974799Y-101151581D01*
X129061868Y-101037885D01*
X129114920Y-100901375D01*
X129129914Y-100755710D01*
X129118267Y-100666535D01*
X129063586Y-100518099D01*
X128976583Y-100399278D01*
X128879801Y-100325564D01*
X128785701Y-100272677D01*
X128691278Y-100272677D01*
X128691278Y-100252092D01*
X128632263Y-100252092D01*
X128573248Y-100252092D01*
X128573248Y-100771423D01*
X128573248Y-101290753D01*
X128346379Y-101290753D01*
X128226700Y-101192086D01*
X128134685Y-101063969D01*
X128078364Y-100916924D01*
X128067465Y-100813516D01*
X128150272Y-100813516D01*
X128176006Y-100951328D01*
X128199943Y-101007143D01*
X128241805Y-101069563D01*
X128301756Y-101137223D01*
X128368493Y-101199651D01*
X128430710Y-101246378D01*
X128477103Y-101266934D01*
X128480659Y-101267147D01*
X128487553Y-101244498D01*
X128493424Y-101180359D01*
X128498023Y-101080450D01*
X128501099Y-100950488D01*
X128502403Y-100796189D01*
X128502428Y-100771423D01*
X128502430Y-100769026D01*
X128502430Y-100270904D01*
X128402105Y-100329580D01*
X128292264Y-100419243D01*
X128211567Y-100536861D01*
X128163181Y-100671823D01*
X128150272Y-100813516D01*
X128067465Y-100813516D01*
X128061620Y-100758053D01*
X128086116Y-100601927D01*
X128150793Y-100455108D01*
X128247298Y-100335427D01*
X128368229Y-100246283D01*
X128506185Y-100191078D01*
X128653764Y-100173210D01*
X128803566Y-100196079D01*
G37*
G36*
X132207065Y-100281599D02*
G01*
X132234117Y-100341082D01*
X132276298Y-100431311D01*
X132328088Y-100540577D01*
X132383967Y-100657170D01*
X132390528Y-100670773D01*
X132529956Y-100959621D01*
X132703358Y-100581410D01*
X132760806Y-100457980D01*
X132812764Y-100349847D01*
X132855633Y-100264224D01*
X132885816Y-100208326D01*
X132898808Y-100189572D01*
X132932753Y-100191027D01*
X132944431Y-100199520D01*
X132940737Y-100225999D01*
X132918964Y-100289155D01*
X132881754Y-100383243D01*
X132831747Y-100502515D01*
X132771586Y-100641228D01*
X132703910Y-100793635D01*
X132631361Y-100953991D01*
X132556581Y-101116550D01*
X132482211Y-101275566D01*
X132410891Y-101425295D01*
X132345263Y-101559990D01*
X132287968Y-101673906D01*
X132241647Y-101761297D01*
X132208942Y-101816418D01*
X132193219Y-101833690D01*
X132165537Y-101814542D01*
X132161352Y-101795858D01*
X132170955Y-101758791D01*
X132196698Y-101690974D01*
X132233979Y-101604068D01*
X132255776Y-101556531D01*
X132296981Y-101465725D01*
X132329074Y-101389523D01*
X132347514Y-101338989D01*
X132350199Y-101326513D01*
X132340653Y-101298016D01*
X132313803Y-101232874D01*
X132272338Y-101137212D01*
X132218943Y-101017158D01*
X132156305Y-100878836D01*
X132102255Y-100761116D01*
X132034888Y-100613319D01*
X131975533Y-100479381D01*
X131926716Y-100365311D01*
X131899441Y-100298032D01*
X131996110Y-100298032D01*
X132005552Y-100325299D01*
X132031934Y-100388716D01*
X132072335Y-100481603D01*
X132123840Y-100597278D01*
X132183528Y-100729059D01*
X132202098Y-100769654D01*
X132270930Y-100919021D01*
X132323262Y-101029954D01*
X132361861Y-101107121D01*
X132389495Y-101155189D01*
X132408931Y-101178825D01*
X132422937Y-101182696D01*
X132434282Y-101171471D01*
X132437321Y-101166325D01*
X132460589Y-101109784D01*
X132467393Y-101073836D01*
X132457865Y-101040356D01*
X132430914Y-100972147D01*
X132389841Y-100876899D01*
X132337948Y-100762304D01*
X132287513Y-100654831D01*
X132221256Y-100517252D01*
X132170891Y-100417023D01*
X132132882Y-100348462D01*
X132103691Y-100305889D01*
X132079782Y-100283625D01*
X132057619Y-100275988D01*
X132051453Y-100275698D01*
X132008872Y-100283806D01*
X131996110Y-100298032D01*
X131899441Y-100298032D01*
X131890963Y-100277118D01*
X131870799Y-100220810D01*
X131867589Y-100202758D01*
X131896542Y-100191303D01*
X131958093Y-100183509D01*
X132021948Y-100181274D01*
X132163030Y-100181274D01*
X132207065Y-100281599D01*
G37*
G36*
X131965494Y-96393108D02*
G01*
X132033643Y-96425556D01*
X132108876Y-96469887D01*
X132196739Y-96521895D01*
X132286015Y-96567171D01*
X132346711Y-96592018D01*
X132453050Y-96637208D01*
X132519581Y-96694232D01*
X132553653Y-96772695D01*
X132562653Y-96874152D01*
X132554027Y-97019922D01*
X132530416Y-97163376D01*
X132495219Y-97286833D01*
X132473721Y-97336757D01*
X132438176Y-97389313D01*
X132377181Y-97462911D01*
X132300004Y-97547971D01*
X132215908Y-97634911D01*
X132134160Y-97714152D01*
X132064025Y-97776112D01*
X132014987Y-97811098D01*
X131960317Y-97835123D01*
X131911761Y-97842105D01*
X131861880Y-97828444D01*
X131803231Y-97790539D01*
X131728376Y-97724790D01*
X131629873Y-97627595D01*
X131624455Y-97622110D01*
X131508624Y-97499923D01*
X131424306Y-97396631D01*
X131366078Y-97301721D01*
X131328517Y-97204680D01*
X131306202Y-97094996D01*
X131295148Y-96983639D01*
X131292568Y-96907162D01*
X131419917Y-96907162D01*
X131420058Y-96964065D01*
X131424093Y-97069965D01*
X131435952Y-97147731D01*
X131459894Y-97216306D01*
X131490361Y-97276824D01*
X131534413Y-97342880D01*
X131598566Y-97420902D01*
X131674424Y-97502664D01*
X131753589Y-97579937D01*
X131827664Y-97644492D01*
X131888252Y-97688101D01*
X131924917Y-97702649D01*
X131955747Y-97686617D01*
X132010515Y-97643232D01*
X132080845Y-97579561D01*
X132141765Y-97519703D01*
X132244455Y-97411609D01*
X132316954Y-97323131D01*
X132364844Y-97243073D01*
X132393708Y-97160240D01*
X132409127Y-97063438D01*
X132415418Y-96970865D01*
X132424817Y-96770214D01*
X132239971Y-96683386D01*
X132146073Y-96637875D01*
X132060981Y-96594176D01*
X131999756Y-96560089D01*
X131989284Y-96553554D01*
X131945983Y-96528181D01*
X131912599Y-96524600D01*
X131869491Y-96544225D01*
X131835845Y-96564606D01*
X131763246Y-96605755D01*
X131672630Y-96652322D01*
X131618415Y-96678156D01*
X131542567Y-96713403D01*
X131480787Y-96742986D01*
X131453173Y-96756955D01*
X131434435Y-96779171D01*
X131423818Y-96826308D01*
X131419917Y-96907162D01*
X131292568Y-96907162D01*
X131290930Y-96858612D01*
X131302564Y-96769018D01*
X131335508Y-96704233D01*
X131395222Y-96653635D01*
X131487167Y-96606602D01*
X131489455Y-96605588D01*
X131584256Y-96558740D01*
X131687851Y-96500310D01*
X131744622Y-96464710D01*
X131818641Y-96420556D01*
X131883975Y-96390133D01*
X131921038Y-96380716D01*
X131965494Y-96393108D01*
G37*
G36*
X132185134Y-96099228D02*
G01*
X132328915Y-96100908D01*
X132454571Y-96103437D01*
X132554672Y-96106800D01*
X132621793Y-96110981D01*
X132647994Y-96115511D01*
X132674499Y-96149903D01*
X132692096Y-96191869D01*
X132728799Y-96268552D01*
X132779997Y-96319347D01*
X132824291Y-96333504D01*
X132874471Y-96349388D01*
X132903253Y-96370599D01*
X132914203Y-96386872D01*
X132922803Y-96414723D01*
X132929319Y-96459342D01*
X132934019Y-96525924D01*
X132937170Y-96619659D01*
X132939041Y-96745739D01*
X132939897Y-96909356D01*
X132940026Y-97084679D01*
X132939456Y-97261259D01*
X132938008Y-97424411D01*
X132935811Y-97567598D01*
X132932997Y-97684281D01*
X132929696Y-97767923D01*
X132926040Y-97811987D01*
X132925402Y-97815036D01*
X132890237Y-97864059D01*
X132849005Y-97883123D01*
X132758672Y-97924627D01*
X132703305Y-97997092D01*
X132692737Y-98028732D01*
X132671527Y-98081845D01*
X132649304Y-98109254D01*
X132620156Y-98113223D01*
X132551096Y-98116526D01*
X132449420Y-98119155D01*
X132322422Y-98121103D01*
X132177400Y-98122365D01*
X132021647Y-98122932D01*
X131862459Y-98122798D01*
X131707132Y-98121957D01*
X131562961Y-98120400D01*
X131437242Y-98118122D01*
X131337269Y-98115115D01*
X131270340Y-98111373D01*
X131261794Y-98110561D01*
X131203764Y-98098692D01*
X131171721Y-98069378D01*
X131149961Y-98012449D01*
X131117598Y-97943004D01*
X131062506Y-97895170D01*
X130975153Y-97858969D01*
X130963546Y-97852335D01*
X130954331Y-97837383D01*
X130947235Y-97809179D01*
X130941983Y-97762789D01*
X130938304Y-97693278D01*
X130935923Y-97595711D01*
X130934569Y-97465155D01*
X130933967Y-97296674D01*
X130933843Y-97112657D01*
X130933843Y-97112501D01*
X131028266Y-97112501D01*
X131028266Y-97745198D01*
X131111856Y-97794517D01*
X131177609Y-97845269D01*
X131230210Y-97905663D01*
X131235788Y-97914729D01*
X131276129Y-97985622D01*
X131919391Y-97985771D01*
X132103591Y-97985041D01*
X132263209Y-97982865D01*
X132393542Y-97979401D01*
X132489888Y-97974808D01*
X132547543Y-97969243D01*
X132562653Y-97964126D01*
X132579353Y-97926091D01*
X132620706Y-97873675D01*
X132673590Y-97820815D01*
X132724883Y-97781450D01*
X132743506Y-97772019D01*
X132798712Y-97751030D01*
X132798712Y-97112501D01*
X132798712Y-96473972D01*
X132743506Y-96452982D01*
X132697049Y-96423929D01*
X132643247Y-96375270D01*
X132595224Y-96320943D01*
X132566099Y-96274887D01*
X132562653Y-96260875D01*
X132539833Y-96254640D01*
X132474509Y-96249247D01*
X132371383Y-96244855D01*
X132235158Y-96241622D01*
X132070536Y-96239707D01*
X131919391Y-96239230D01*
X131276129Y-96239379D01*
X131235788Y-96310272D01*
X131187774Y-96369872D01*
X131122412Y-96423901D01*
X131111856Y-96430484D01*
X131028266Y-96479803D01*
X131028266Y-97112501D01*
X130933843Y-97112501D01*
X130933843Y-96479803D01*
X130933843Y-96379548D01*
X130998716Y-96354883D01*
X131093494Y-96301164D01*
X131147623Y-96226288D01*
X131157945Y-96192569D01*
X131171581Y-96153374D01*
X131199290Y-96131102D01*
X131254378Y-96117989D01*
X131295018Y-96112601D01*
X131357720Y-96107886D01*
X131454287Y-96104132D01*
X131577291Y-96101324D01*
X131719305Y-96099446D01*
X131872902Y-96098481D01*
X132030654Y-96098414D01*
X132185134Y-96099228D01*
G37*
G36*
X130377660Y-99737635D02*
G01*
X130407785Y-99746991D01*
X130488968Y-99780672D01*
X130567338Y-99823852D01*
X130631195Y-99868808D01*
X130668840Y-99907819D01*
X130674177Y-99922810D01*
X130656414Y-99942428D01*
X130616231Y-99942610D01*
X130573289Y-99925322D01*
X130557221Y-99911099D01*
X130506096Y-99875209D01*
X130422101Y-99842270D01*
X130319568Y-99816253D01*
X130212828Y-99801128D01*
X130152303Y-99798938D01*
X130027328Y-99813764D01*
X129902860Y-99850764D01*
X129795489Y-99903818D01*
X129733116Y-99953636D01*
X129684435Y-100005454D01*
X130180293Y-100580228D01*
X130300421Y-100720570D01*
X130409530Y-100850151D01*
X130504020Y-100964528D01*
X130580290Y-101059258D01*
X130634740Y-101129897D01*
X130663771Y-101172003D01*
X130667555Y-101181567D01*
X130643450Y-101204519D01*
X130588107Y-101239932D01*
X130513130Y-101280436D01*
X130507228Y-101283379D01*
X130351896Y-101344485D01*
X130202661Y-101373090D01*
X130084028Y-101369088D01*
X129896933Y-101314822D01*
X129730812Y-101222861D01*
X129591179Y-101098484D01*
X129483549Y-100946969D01*
X129413437Y-100773596D01*
X129399773Y-100714088D01*
X129383991Y-100534482D01*
X129471969Y-100534482D01*
X129476987Y-100634740D01*
X129488939Y-100727475D01*
X129506651Y-100797962D01*
X129585775Y-100957603D01*
X129698095Y-101091511D01*
X129836451Y-101194477D01*
X129993682Y-101261290D01*
X130162630Y-101286740D01*
X130178452Y-101286821D01*
X130257798Y-101282808D01*
X130326118Y-101273736D01*
X130340983Y-101270272D01*
X130355770Y-101263544D01*
X130361028Y-101251129D01*
X130353817Y-101229070D01*
X130331198Y-101193411D01*
X130290230Y-101140193D01*
X130227975Y-101065460D01*
X130141492Y-100965254D01*
X130027842Y-100835619D01*
X129965703Y-100765097D01*
X129852457Y-100637357D01*
X129749088Y-100522052D01*
X129659755Y-100423715D01*
X129588615Y-100346882D01*
X129539826Y-100296087D01*
X129517546Y-100275864D01*
X129516950Y-100275698D01*
X129496376Y-100297309D01*
X129481878Y-100354892D01*
X129473671Y-100437575D01*
X129471969Y-100534482D01*
X129383991Y-100534482D01*
X129382253Y-100514700D01*
X129408759Y-100327520D01*
X129465001Y-100180714D01*
X129568835Y-100180714D01*
X129585913Y-100203371D01*
X129630383Y-100256610D01*
X129698218Y-100335773D01*
X129785392Y-100436201D01*
X129887879Y-100553234D01*
X130001653Y-100682215D01*
X130025014Y-100708591D01*
X130158644Y-100858686D01*
X130264968Y-100976300D01*
X130347396Y-101064804D01*
X130409338Y-101127571D01*
X130454204Y-101167971D01*
X130485405Y-101189377D01*
X130506351Y-101195160D01*
X130514837Y-101192850D01*
X130548910Y-101169074D01*
X130556147Y-101157756D01*
X130541345Y-101137195D01*
X130499450Y-101085396D01*
X130434227Y-101006853D01*
X130349444Y-100906058D01*
X130248867Y-100787505D01*
X130136262Y-100655686D01*
X130091988Y-100604082D01*
X129960199Y-100450933D01*
X129855558Y-100330342D01*
X129774624Y-100238901D01*
X129713958Y-100173203D01*
X129670121Y-100129841D01*
X129639674Y-100105410D01*
X129619176Y-100096501D01*
X129605189Y-100099707D01*
X129594498Y-100111299D01*
X129571600Y-100155950D01*
X129568835Y-100180714D01*
X129465001Y-100180714D01*
X129473271Y-100159127D01*
X129575807Y-100001476D01*
X129706827Y-99874726D01*
X129859426Y-99781922D01*
X130026701Y-99726109D01*
X130201747Y-99710332D01*
X130377660Y-99737635D01*
G37*
G36*
X127574813Y-99730224D02*
G01*
X127708095Y-99791333D01*
X127815089Y-99889330D01*
X127892184Y-100021067D01*
X127931379Y-100156479D01*
X127942340Y-100229825D01*
X127936895Y-100273314D01*
X127906936Y-100293803D01*
X127844354Y-100298145D01*
X127767832Y-100294743D01*
X127687899Y-100284632D01*
X127651843Y-100268817D01*
X127660330Y-100251686D01*
X127714026Y-100237629D01*
X127758486Y-100233094D01*
X127825471Y-100223626D01*
X127858813Y-100201184D01*
X127861310Y-100157554D01*
X127835760Y-100084520D01*
X127820698Y-100050465D01*
X127743705Y-99930894D01*
X127642495Y-99847189D01*
X127524874Y-99800529D01*
X127398653Y-99792091D01*
X127271638Y-99823053D01*
X127151639Y-99894593D01*
X127100582Y-99941832D01*
X127032471Y-100013483D01*
X127485061Y-100480975D01*
X127623750Y-100624246D01*
X127732516Y-100738125D01*
X127813923Y-100827478D01*
X127870530Y-100897173D01*
X127904899Y-100952079D01*
X127919593Y-100997063D01*
X127917172Y-101036992D01*
X127900197Y-101076734D01*
X127871232Y-101121157D01*
X127842862Y-101160921D01*
X127754605Y-101251831D01*
X127640462Y-101321867D01*
X127513888Y-101366001D01*
X127388343Y-101379206D01*
X127298374Y-101364344D01*
X127156753Y-101300870D01*
X127047357Y-101215093D01*
X127032178Y-101198110D01*
X126974194Y-101110946D01*
X126929000Y-101009153D01*
X126903467Y-100910915D01*
X126901228Y-100851568D01*
X126909074Y-100811024D01*
X126929164Y-100790833D01*
X126974503Y-100783932D01*
X127027058Y-100783226D01*
X127101283Y-100787016D01*
X127137535Y-100800140D01*
X127145088Y-100818634D01*
X127122971Y-100847790D01*
X127065557Y-100861650D01*
X127013547Y-100869741D01*
X126994436Y-100890409D01*
X126997383Y-100938924D01*
X126999819Y-100954258D01*
X127040610Y-101067096D01*
X127118149Y-101164695D01*
X127222554Y-101239197D01*
X127343940Y-101282745D01*
X127423030Y-101290753D01*
X127504980Y-101281305D01*
X127593406Y-101256939D01*
X127672014Y-101223626D01*
X127724512Y-101187335D01*
X127732335Y-101177418D01*
X127719633Y-101156123D01*
X127677576Y-101106397D01*
X127610489Y-101032892D01*
X127522700Y-100940263D01*
X127418532Y-100833163D01*
X127320833Y-100734715D01*
X127190891Y-100604643D01*
X127090649Y-100503098D01*
X127016266Y-100425380D01*
X126963901Y-100366789D01*
X126929714Y-100322625D01*
X126909865Y-100288188D01*
X126900513Y-100258778D01*
X126897818Y-100229694D01*
X126897744Y-100216929D01*
X126899592Y-100206356D01*
X126975703Y-100206356D01*
X126977622Y-100230694D01*
X126989331Y-100258954D01*
X127014564Y-100295767D01*
X127057056Y-100345766D01*
X127120540Y-100413584D01*
X127208752Y-100503853D01*
X127325426Y-100621205D01*
X127372437Y-100668292D01*
X127486168Y-100781568D01*
X127588993Y-100882848D01*
X127676210Y-100967592D01*
X127743113Y-101031259D01*
X127785000Y-101069307D01*
X127797147Y-101078300D01*
X127814259Y-101058610D01*
X127825738Y-101027107D01*
X127828164Y-101000995D01*
X127820049Y-100970409D01*
X127798080Y-100931368D01*
X127758940Y-100879891D01*
X127699315Y-100811996D01*
X127615890Y-100723701D01*
X127505350Y-100611024D01*
X127364381Y-100469985D01*
X127349904Y-100455581D01*
X126996746Y-100104331D01*
X126979839Y-100181308D01*
X126975703Y-100206356D01*
X126899592Y-100206356D01*
X126921326Y-100081980D01*
X126987797Y-99952051D01*
X127083618Y-99843836D01*
X127173893Y-99771126D01*
X127255791Y-99729577D01*
X127348013Y-99711674D01*
X127418851Y-99709155D01*
X127574813Y-99730224D01*
G37*
G36*
X133416344Y-100176050D02*
G01*
X133439879Y-100202202D01*
X133466340Y-100232906D01*
X133499634Y-100231556D01*
X133529174Y-100218076D01*
X133665455Y-100174622D01*
X133812868Y-100172252D01*
X133961272Y-100209899D01*
X134086504Y-100276570D01*
X134165149Y-100345191D01*
X134231605Y-100438851D01*
X134264069Y-100500008D01*
X134304407Y-100587361D01*
X134325601Y-100654904D01*
X134331979Y-100723792D01*
X134328037Y-100812799D01*
X134316111Y-100908183D01*
X134296572Y-100995791D01*
X134277232Y-101048607D01*
X134202891Y-101155309D01*
X134100880Y-101253478D01*
X133989810Y-101325244D01*
X133988533Y-101325855D01*
X133886874Y-101357613D01*
X133767459Y-101370352D01*
X133649332Y-101363857D01*
X133551536Y-101337912D01*
X133537173Y-101330952D01*
X133461229Y-101290343D01*
X133454553Y-101556115D01*
X133447876Y-101821887D01*
X133300339Y-101828915D01*
X133152802Y-101835943D01*
X133150349Y-101179752D01*
X133149403Y-101000218D01*
X133147987Y-100828976D01*
X133146205Y-100673841D01*
X133144161Y-100542629D01*
X133141959Y-100443157D01*
X133139751Y-100384024D01*
X133140099Y-100287254D01*
X133152038Y-100214229D01*
X133173330Y-100172732D01*
X133201198Y-100170203D01*
X133207265Y-100197121D01*
X133212544Y-100267319D01*
X133216926Y-100376868D01*
X133220298Y-100521841D01*
X133222550Y-100698309D01*
X133223570Y-100902345D01*
X133223620Y-100961663D01*
X133223620Y-101739266D01*
X133294437Y-101739266D01*
X133365255Y-101739266D01*
X133365255Y-101268154D01*
X133627053Y-101268154D01*
X133629394Y-101270412D01*
X133689366Y-101287524D01*
X133775013Y-101287509D01*
X133868579Y-101271754D01*
X133943601Y-101245863D01*
X134063657Y-101172931D01*
X134149888Y-101076956D01*
X134195769Y-100991443D01*
X134227540Y-100886774D01*
X134241036Y-100769608D01*
X134234823Y-100661015D01*
X134221732Y-100610557D01*
X134212597Y-100594124D01*
X134198571Y-100590304D01*
X134175416Y-100602955D01*
X134138892Y-100635929D01*
X134084760Y-100693084D01*
X134008782Y-100778274D01*
X133906717Y-100895354D01*
X133899777Y-100903355D01*
X133789026Y-101032770D01*
X133708586Y-101130959D01*
X133656251Y-101200920D01*
X133629809Y-101245652D01*
X133627053Y-101268154D01*
X133365255Y-101268154D01*
X133365255Y-101116514D01*
X133463584Y-101116514D01*
X133463791Y-101165864D01*
X133480190Y-101206447D01*
X133500249Y-101218360D01*
X133520571Y-101200788D01*
X133566608Y-101152659D01*
X133633463Y-101079358D01*
X133716242Y-100986272D01*
X133810047Y-100878787D01*
X133831473Y-100853980D01*
X133926237Y-100743010D01*
X134009462Y-100643546D01*
X134076513Y-100561295D01*
X134122754Y-100501961D01*
X134143551Y-100471251D01*
X134144252Y-100468947D01*
X134128099Y-100436290D01*
X134112059Y-100420003D01*
X134094674Y-100417153D01*
X134066081Y-100432740D01*
X134022405Y-100470419D01*
X133959770Y-100533845D01*
X133874300Y-100626673D01*
X133775675Y-100737219D01*
X133680915Y-100845668D01*
X133597375Y-100943770D01*
X133530038Y-101025467D01*
X133483890Y-101084701D01*
X133463915Y-101115414D01*
X133463584Y-101116514D01*
X133365255Y-101116514D01*
X133365255Y-100961663D01*
X133365939Y-100744129D01*
X133367927Y-100556434D01*
X133371122Y-100401940D01*
X133373230Y-100344207D01*
X133459679Y-100344207D01*
X133460579Y-100646337D01*
X133461479Y-100948467D01*
X133572707Y-100829037D01*
X133639496Y-100756548D01*
X133723449Y-100664334D01*
X133810396Y-100567988D01*
X133845282Y-100529053D01*
X133911106Y-100451727D01*
X133960972Y-100386034D01*
X133988838Y-100340386D01*
X133991966Y-100324775D01*
X133957328Y-100301102D01*
X133892353Y-100278135D01*
X133813753Y-100260492D01*
X133738241Y-100252786D01*
X133731147Y-100252742D01*
X133665145Y-100262939D01*
X133585482Y-100287989D01*
X133560004Y-100298668D01*
X133459679Y-100344207D01*
X133373230Y-100344207D01*
X133375427Y-100284009D01*
X133380744Y-100206003D01*
X133386977Y-100171284D01*
X133388089Y-100169948D01*
X133416344Y-100176050D01*
G37*
G36*
X132951184Y-95127396D02*
G01*
X133017144Y-95182931D01*
X133054410Y-95259600D01*
X133058378Y-95294843D01*
X133036940Y-95377727D01*
X132980551Y-95443193D01*
X132901102Y-95479735D01*
X132863217Y-95483690D01*
X132777063Y-95505236D01*
X132707379Y-95562317D01*
X132664956Y-95643600D01*
X132657077Y-95700165D01*
X132657077Y-95784224D01*
X132824477Y-95796201D01*
X132948431Y-95812904D01*
X133040237Y-95847223D01*
X133113832Y-95906528D01*
X133170506Y-95979175D01*
X133201534Y-96036275D01*
X133217934Y-96102566D01*
X133223480Y-96195091D01*
X133223620Y-96218966D01*
X133223620Y-96380716D01*
X133325430Y-96380716D01*
X133422502Y-96361495D01*
X133498900Y-96309585D01*
X133544978Y-96233619D01*
X133554103Y-96176056D01*
X133555768Y-96168263D01*
X133695739Y-96168263D01*
X133712430Y-96207716D01*
X133742950Y-96215475D01*
X133782403Y-96198783D01*
X133790162Y-96168263D01*
X133773470Y-96128810D01*
X133742950Y-96121051D01*
X133703498Y-96137743D01*
X133695739Y-96168263D01*
X133555768Y-96168263D01*
X133573261Y-96086403D01*
X133623504Y-96021109D01*
X133693989Y-95984877D01*
X133773869Y-95982413D01*
X133852300Y-96018419D01*
X133873856Y-96037357D01*
X133920392Y-96111373D01*
X133928600Y-96191143D01*
X133903559Y-96265429D01*
X133850346Y-96322992D01*
X133774041Y-96352594D01*
X133730958Y-96353593D01*
X133673879Y-96355743D01*
X133623482Y-96378999D01*
X133562566Y-96431476D01*
X133559497Y-96434464D01*
X133499719Y-96487454D01*
X133447877Y-96513513D01*
X133381575Y-96521885D01*
X133346555Y-96522352D01*
X133223620Y-96522352D01*
X133223620Y-96640382D01*
X133223620Y-96758411D01*
X133334456Y-96758411D01*
X133417007Y-96751248D01*
X133476774Y-96724293D01*
X133510997Y-96695462D01*
X133592626Y-96642658D01*
X133676058Y-96633821D01*
X133753347Y-96668913D01*
X133782095Y-96696779D01*
X133819606Y-96752349D01*
X133837190Y-96801957D01*
X133837374Y-96805829D01*
X133818856Y-96892555D01*
X133770475Y-96958146D01*
X133702997Y-96998637D01*
X133627184Y-97010062D01*
X133553800Y-96988457D01*
X133494975Y-96931971D01*
X133464395Y-96896106D01*
X133424200Y-96880915D01*
X133356988Y-96880448D01*
X133346195Y-96881105D01*
X133235423Y-96888244D01*
X133228666Y-97118402D01*
X133221910Y-97348560D01*
X133341535Y-97348560D01*
X133422739Y-97343288D01*
X133465590Y-97326056D01*
X133475083Y-97312278D01*
X133513444Y-97267227D01*
X133578570Y-97232735D01*
X133650044Y-97217731D01*
X133684105Y-97220879D01*
X133750679Y-97256862D01*
X133806175Y-97319045D01*
X133835756Y-97389353D01*
X133837374Y-97407575D01*
X133817423Y-97477023D01*
X133767449Y-97543224D01*
X133702269Y-97588154D01*
X133683825Y-97594341D01*
X133603435Y-97592045D01*
X133526552Y-97551348D01*
X133487004Y-97508851D01*
X133454495Y-97480329D01*
X133402046Y-97469940D01*
X133345369Y-97471287D01*
X133235423Y-97478393D01*
X133228228Y-97590521D01*
X133221033Y-97702649D01*
X133340288Y-97702649D01*
X133416549Y-97706998D01*
X133473069Y-97725908D01*
X133531469Y-97768174D01*
X133557222Y-97790897D01*
X133640160Y-97853150D01*
X133703682Y-97872482D01*
X133709440Y-97871997D01*
X133796849Y-97882001D01*
X133870249Y-97929038D01*
X133918354Y-98003008D01*
X133931047Y-98070328D01*
X133911904Y-98149351D01*
X133860810Y-98207598D01*
X133789996Y-98240931D01*
X133711697Y-98245210D01*
X133638144Y-98216295D01*
X133601753Y-98181767D01*
X133564616Y-98109295D01*
X133558355Y-98053094D01*
X133557981Y-98051073D01*
X133695739Y-98051073D01*
X133702344Y-98095746D01*
X133709849Y-98110193D01*
X133742594Y-98117293D01*
X133774707Y-98095863D01*
X133785149Y-98059944D01*
X133785149Y-98059941D01*
X133763375Y-98024279D01*
X133729052Y-98013346D01*
X133701296Y-98029038D01*
X133695739Y-98051073D01*
X133557981Y-98051073D01*
X133544585Y-97978654D01*
X133495468Y-97911657D01*
X133422730Y-97863178D01*
X133338096Y-97844287D01*
X133337233Y-97844285D01*
X133279900Y-97846679D01*
X133254218Y-97862884D01*
X133247472Y-97906430D01*
X133247226Y-97940059D01*
X133230574Y-98105865D01*
X133180752Y-98238138D01*
X133097955Y-98336674D01*
X132982379Y-98401270D01*
X132834220Y-98431724D01*
X132769205Y-98434302D01*
X132657077Y-98434434D01*
X132657077Y-98536244D01*
X132665159Y-98614466D01*
X132696394Y-98672627D01*
X132726485Y-98704552D01*
X132784360Y-98747746D01*
X132829470Y-98757905D01*
X132832917Y-98756843D01*
X132881430Y-98754239D01*
X132932728Y-98766507D01*
X133009095Y-98815161D01*
X133050223Y-98881958D01*
X133058213Y-98956149D01*
X133035166Y-99026987D01*
X132983184Y-99083724D01*
X132904368Y-99115610D01*
X132863821Y-99119006D01*
X132781469Y-99098585D01*
X132718539Y-99045158D01*
X132686063Y-98970475D01*
X132684997Y-98936044D01*
X132820301Y-98936044D01*
X132831555Y-98977255D01*
X132838548Y-98985731D01*
X132872016Y-98995943D01*
X132898716Y-98970656D01*
X132904939Y-98940318D01*
X132886444Y-98899357D01*
X132863629Y-98887441D01*
X132832730Y-98899298D01*
X132820301Y-98936044D01*
X132684997Y-98936044D01*
X132684755Y-98928233D01*
X132676002Y-98871279D01*
X132634654Y-98804444D01*
X132603409Y-98767727D01*
X132550537Y-98703200D01*
X132524288Y-98648237D01*
X132515832Y-98581227D01*
X132515441Y-98552395D01*
X132515441Y-98434434D01*
X132397411Y-98434434D01*
X132279382Y-98434434D01*
X132279382Y-98539587D01*
X132287958Y-98622403D01*
X132318959Y-98682297D01*
X132338397Y-98703756D01*
X132385628Y-98777923D01*
X132395793Y-98858350D01*
X132373194Y-98933524D01*
X132322132Y-98991927D01*
X132246907Y-99022044D01*
X132218845Y-99023832D01*
X132135807Y-99003907D01*
X132074979Y-98953812D01*
X132039988Y-98885045D01*
X132036400Y-98835735D01*
X132161352Y-98835735D01*
X132172134Y-98873592D01*
X132212241Y-98878991D01*
X132214465Y-98878687D01*
X132255992Y-98859393D01*
X132267579Y-98835735D01*
X132247485Y-98805197D01*
X132214465Y-98792783D01*
X132173035Y-98797149D01*
X132161364Y-98833622D01*
X132161352Y-98835735D01*
X132036400Y-98835735D01*
X132034462Y-98809103D01*
X132062026Y-98737485D01*
X132113274Y-98689162D01*
X132144744Y-98657249D01*
X132158979Y-98603838D01*
X132161352Y-98546785D01*
X132161352Y-98434434D01*
X131925292Y-98434434D01*
X131689233Y-98434434D01*
X131689233Y-98543855D01*
X131695964Y-98623891D01*
X131721092Y-98678591D01*
X131748248Y-98707970D01*
X131796215Y-98779214D01*
X131806315Y-98858198D01*
X131783097Y-98933021D01*
X131731108Y-98991780D01*
X131654897Y-99022575D01*
X131627246Y-99024582D01*
X131547825Y-99004644D01*
X131489067Y-98953044D01*
X131455318Y-98882103D01*
X131453626Y-98852100D01*
X131575264Y-98852100D01*
X131580174Y-98872274D01*
X131607786Y-98904036D01*
X131646282Y-98891063D01*
X131664769Y-98872178D01*
X131680834Y-98827736D01*
X131659230Y-98795273D01*
X131630218Y-98788523D01*
X131587981Y-98807224D01*
X131575264Y-98852100D01*
X131453626Y-98852100D01*
X131450922Y-98804143D01*
X131480224Y-98731484D01*
X131512188Y-98698317D01*
X131551728Y-98655990D01*
X131568690Y-98599918D01*
X131571203Y-98546235D01*
X131571203Y-98440574D01*
X131459102Y-98427938D01*
X131389551Y-98422609D01*
X131340573Y-98423457D01*
X131329269Y-98426261D01*
X131319272Y-98454139D01*
X131312842Y-98513740D01*
X131311538Y-98561029D01*
X131307734Y-98639638D01*
X131290375Y-98693127D01*
X131250537Y-98743362D01*
X131227956Y-98765848D01*
X131178019Y-98824320D01*
X131150402Y-98876997D01*
X131147949Y-98894410D01*
X131148277Y-98974999D01*
X131130326Y-99029330D01*
X131094633Y-99070875D01*
X131019759Y-99112960D01*
X130938023Y-99116046D01*
X130864541Y-99080970D01*
X130841132Y-99056808D01*
X130801361Y-98975111D01*
X130801493Y-98942008D01*
X130913972Y-98942008D01*
X130929928Y-98980745D01*
X130967036Y-98997410D01*
X130974811Y-98996549D01*
X131014207Y-98969327D01*
X131023838Y-98947521D01*
X131013039Y-98907782D01*
X130976625Y-98887487D01*
X130935228Y-98896587D01*
X130929121Y-98901831D01*
X130913972Y-98942008D01*
X130801493Y-98942008D01*
X130801685Y-98893791D01*
X130836817Y-98823651D01*
X130901472Y-98775489D01*
X130986416Y-98759958D01*
X131076861Y-98741863D01*
X131144952Y-98686010D01*
X131185071Y-98598788D01*
X131193508Y-98524441D01*
X131193508Y-98410828D01*
X131034168Y-98410740D01*
X130884950Y-98395477D01*
X130770950Y-98348994D01*
X130690850Y-98269974D01*
X130643330Y-98157098D01*
X130627072Y-98009046D01*
X130627054Y-98003625D01*
X130626965Y-97844285D01*
X130516129Y-97844285D01*
X130408074Y-97862346D01*
X130328329Y-97913370D01*
X130282249Y-97992621D01*
X130272876Y-98059442D01*
X130252093Y-98144386D01*
X130197213Y-98209497D01*
X130119435Y-98243273D01*
X130091575Y-98245586D01*
X130026576Y-98225180D01*
X129966482Y-98174430D01*
X129926620Y-98109042D01*
X129921197Y-98081001D01*
X130038333Y-98081001D01*
X130053370Y-98112635D01*
X130092371Y-98124712D01*
X130132512Y-98104760D01*
X130150996Y-98071099D01*
X130141573Y-98022541D01*
X130102514Y-97998407D01*
X130068465Y-98002433D01*
X130042346Y-98033466D01*
X130038333Y-98081001D01*
X129921197Y-98081001D01*
X129918787Y-98068542D01*
X129940135Y-97995588D01*
X129995151Y-97934387D01*
X130070297Y-97897233D01*
X130113734Y-97891497D01*
X130179956Y-97879525D01*
X130242977Y-97837747D01*
X130272876Y-97808876D01*
X130326675Y-97759129D01*
X130375905Y-97734621D01*
X130442044Y-97726709D01*
X130478157Y-97726255D01*
X130603359Y-97726255D01*
X130603359Y-97596423D01*
X130603359Y-97466590D01*
X130493938Y-97466590D01*
X130413902Y-97473321D01*
X130359202Y-97498448D01*
X130329824Y-97525605D01*
X130256892Y-97575125D01*
X130175365Y-97585623D01*
X130099064Y-97557261D01*
X130062136Y-97522421D01*
X130019558Y-97439432D01*
X130021180Y-97409214D01*
X130134791Y-97409214D01*
X130140211Y-97432311D01*
X130170483Y-97459911D01*
X130215487Y-97464793D01*
X130250968Y-97445955D01*
X130255629Y-97437082D01*
X130256368Y-97383607D01*
X130222767Y-97351953D01*
X130200926Y-97348560D01*
X130150670Y-97365621D01*
X130134791Y-97409214D01*
X130021180Y-97409214D01*
X130023843Y-97359598D01*
X130071153Y-97288472D01*
X130147657Y-97239626D01*
X130228773Y-97235136D01*
X130305021Y-97274962D01*
X130320088Y-97289545D01*
X130368167Y-97328419D01*
X130428015Y-97345643D01*
X130489444Y-97348560D01*
X130603359Y-97348560D01*
X130603359Y-97116132D01*
X130744995Y-97116132D01*
X130744995Y-98154794D01*
X130814713Y-98224512D01*
X130884431Y-98294230D01*
X131923675Y-98287613D01*
X132962918Y-98280995D01*
X133028353Y-98215566D01*
X133093787Y-98150137D01*
X133099044Y-97404679D01*
X133606809Y-97404679D01*
X133617184Y-97446054D01*
X133646686Y-97466535D01*
X133648527Y-97466590D01*
X133677675Y-97447644D01*
X133687811Y-97429594D01*
X133688808Y-97385959D01*
X133665331Y-97357652D01*
X133631507Y-97358310D01*
X133621786Y-97365858D01*
X133606809Y-97404679D01*
X133099044Y-97404679D01*
X133100658Y-97175824D01*
X133102317Y-96915448D01*
X133102575Y-96830622D01*
X133601315Y-96830622D01*
X133616985Y-96867438D01*
X133650784Y-96874332D01*
X133682892Y-96849472D01*
X133688116Y-96838650D01*
X133684480Y-96799579D01*
X133655612Y-96772084D01*
X133620146Y-96773165D01*
X133604389Y-96803709D01*
X133601315Y-96830622D01*
X133102575Y-96830622D01*
X133102979Y-96698083D01*
X133102166Y-96519532D01*
X133099402Y-96375596D01*
X133094210Y-96262078D01*
X133086111Y-96174780D01*
X133074629Y-96109504D01*
X133059286Y-96062052D01*
X133039605Y-96028226D01*
X133015109Y-96003829D01*
X132985320Y-95984662D01*
X132963954Y-95973550D01*
X132940097Y-95963385D01*
X132910049Y-95955023D01*
X132869285Y-95948291D01*
X132813282Y-95943015D01*
X132737517Y-95939023D01*
X132637466Y-95936140D01*
X132508606Y-95934194D01*
X132346413Y-95933011D01*
X132146362Y-95932418D01*
X131903932Y-95932241D01*
X131885798Y-95932240D01*
X130890262Y-95932203D01*
X130817629Y-96004837D01*
X130744995Y-96077471D01*
X130744995Y-97116132D01*
X130603359Y-97116132D01*
X130603359Y-97112501D01*
X130603359Y-96876441D01*
X130493938Y-96876441D01*
X130413902Y-96883173D01*
X130359202Y-96908300D01*
X130329824Y-96935456D01*
X130256892Y-96984977D01*
X130175365Y-96995474D01*
X130099064Y-96967112D01*
X130062136Y-96932273D01*
X130019558Y-96849283D01*
X130021180Y-96819065D01*
X130134791Y-96819065D01*
X130140211Y-96842163D01*
X130170483Y-96869762D01*
X130215487Y-96874644D01*
X130250968Y-96855806D01*
X130255629Y-96846934D01*
X130256368Y-96793459D01*
X130222767Y-96761805D01*
X130200926Y-96758411D01*
X130150670Y-96775473D01*
X130134791Y-96819065D01*
X130021180Y-96819065D01*
X130023843Y-96769449D01*
X130071153Y-96698324D01*
X130147657Y-96649477D01*
X130228773Y-96644987D01*
X130305021Y-96684813D01*
X130320088Y-96699397D01*
X130368167Y-96738271D01*
X130428015Y-96755494D01*
X130489444Y-96758411D01*
X130603359Y-96758411D01*
X130603359Y-96628579D01*
X130603359Y-96498746D01*
X130478157Y-96498746D01*
X130399203Y-96495063D01*
X130345769Y-96478251D01*
X130296379Y-96439664D01*
X130272856Y-96416105D01*
X130199574Y-96355706D01*
X130136039Y-96337356D01*
X130132491Y-96337526D01*
X130035487Y-96328174D01*
X129969075Y-96283925D01*
X129942068Y-96238296D01*
X129930273Y-96166731D01*
X130038887Y-96166731D01*
X130050514Y-96206719D01*
X130061861Y-96216363D01*
X130110620Y-96226076D01*
X130144519Y-96199345D01*
X130150193Y-96159357D01*
X130125860Y-96117140D01*
X130096155Y-96109248D01*
X130056368Y-96127159D01*
X130038887Y-96166731D01*
X129930273Y-96166731D01*
X129928218Y-96154265D01*
X129951374Y-96078803D01*
X130002781Y-96021409D01*
X130073688Y-95991582D01*
X130155342Y-95998822D01*
X130160874Y-96000825D01*
X130231595Y-96050598D01*
X130267992Y-96131871D01*
X130272876Y-96185686D01*
X130294031Y-96260354D01*
X130348667Y-96329710D01*
X130423540Y-96381671D01*
X130505408Y-96404157D01*
X130512537Y-96404322D01*
X130596512Y-96404322D01*
X130610499Y-96237482D01*
X130637309Y-96080014D01*
X130638428Y-96077471D01*
X130689543Y-95961357D01*
X130769591Y-95879106D01*
X130879843Y-95830862D01*
X131022691Y-95814220D01*
X131031757Y-95814173D01*
X131193508Y-95814173D01*
X131193508Y-95714972D01*
X131177189Y-95627341D01*
X131134486Y-95550693D01*
X131074777Y-95495729D01*
X131007443Y-95473150D01*
X130983184Y-95475002D01*
X130907232Y-95468707D01*
X130842493Y-95425994D01*
X130801006Y-95357649D01*
X130792207Y-95303859D01*
X130792354Y-95303225D01*
X130917929Y-95303225D01*
X130942673Y-95334082D01*
X130982448Y-95342055D01*
X131021188Y-95324472D01*
X131028266Y-95297368D01*
X131011544Y-95252596D01*
X130973700Y-95237759D01*
X130933536Y-95259803D01*
X130917929Y-95303225D01*
X130792354Y-95303225D01*
X130810853Y-95223178D01*
X130858929Y-95155085D01*
X130924642Y-95113085D01*
X130964995Y-95105995D01*
X131047696Y-95127335D01*
X131111133Y-95183659D01*
X131144048Y-95263422D01*
X131146296Y-95291925D01*
X131155449Y-95359814D01*
X131189495Y-95418268D01*
X131227846Y-95459046D01*
X131276987Y-95513013D01*
X131302880Y-95565334D01*
X131314221Y-95636753D01*
X131316368Y-95670229D01*
X131323341Y-95802371D01*
X131441370Y-95802371D01*
X131559400Y-95802371D01*
X131566506Y-95692424D01*
X131566395Y-95616972D01*
X131550979Y-95572122D01*
X131528942Y-95550789D01*
X131464163Y-95480991D01*
X131440736Y-95399806D01*
X131443094Y-95389266D01*
X131571203Y-95389266D01*
X131581985Y-95427124D01*
X131622092Y-95432523D01*
X131624317Y-95432219D01*
X131665843Y-95412925D01*
X131677430Y-95389266D01*
X131657336Y-95358728D01*
X131624317Y-95346314D01*
X131582886Y-95350681D01*
X131571216Y-95387154D01*
X131571203Y-95389266D01*
X131443094Y-95389266D01*
X131459047Y-95317945D01*
X131518025Y-95247257D01*
X131600101Y-95206114D01*
X131680077Y-95211807D01*
X131749321Y-95258361D01*
X131797323Y-95333381D01*
X131807943Y-95415665D01*
X131781238Y-95491182D01*
X131748248Y-95526685D01*
X131709371Y-95567825D01*
X131692220Y-95621942D01*
X131689233Y-95681837D01*
X131689233Y-95790568D01*
X131913489Y-95790568D01*
X132137746Y-95790568D01*
X132137746Y-95672538D01*
X132133609Y-95605207D01*
X132123030Y-95562472D01*
X132114746Y-95554508D01*
X132084954Y-95534023D01*
X132055713Y-95484101D01*
X132034269Y-95422036D01*
X132030584Y-95389266D01*
X132161352Y-95389266D01*
X132172134Y-95427124D01*
X132212241Y-95432523D01*
X132214465Y-95432219D01*
X132255992Y-95412925D01*
X132267579Y-95389266D01*
X132247485Y-95358728D01*
X132214465Y-95346314D01*
X132173035Y-95350681D01*
X132161364Y-95387154D01*
X132161352Y-95389266D01*
X132030584Y-95389266D01*
X132027869Y-95365125D01*
X132029884Y-95351968D01*
X132069167Y-95276994D01*
X132135752Y-95222015D01*
X132213363Y-95200421D01*
X132214088Y-95200419D01*
X132292368Y-95220108D01*
X132351926Y-95271071D01*
X132388131Y-95341153D01*
X132396351Y-95418200D01*
X132371956Y-95490055D01*
X132338397Y-95526685D01*
X132299520Y-95567825D01*
X132282369Y-95621942D01*
X132279382Y-95681837D01*
X132279382Y-95790568D01*
X132397411Y-95790568D01*
X132515441Y-95790568D01*
X132515441Y-95682192D01*
X132521716Y-95606684D01*
X132546539Y-95545493D01*
X132598062Y-95477292D01*
X132656801Y-95394172D01*
X132679801Y-95319898D01*
X132680683Y-95301324D01*
X132682249Y-95294843D01*
X132822318Y-95294843D01*
X132839010Y-95334295D01*
X132869530Y-95342055D01*
X132908983Y-95325363D01*
X132916742Y-95294843D01*
X132900050Y-95255390D01*
X132869530Y-95247631D01*
X132830078Y-95264323D01*
X132822318Y-95294843D01*
X132682249Y-95294843D01*
X132701410Y-95215564D01*
X132755946Y-95147865D01*
X132832827Y-95110087D01*
X132869530Y-95105995D01*
X132951184Y-95127396D01*
G37*
D14*
%TO.C,U2*%
X139562500Y-92140000D02*
X138062500Y-92140000D01*
X139562500Y-92140000D02*
X141062500Y-92140000D01*
X139562500Y-95360000D02*
X138062500Y-95360000D01*
X139562500Y-95360000D02*
X141062500Y-95360000D01*
X137350000Y-92315000D02*
X137110000Y-91985000D01*
X137590000Y-91985000D01*
X137350000Y-92315000D01*
G36*
X137350000Y-92315000D02*
G01*
X137110000Y-91985000D01*
X137590000Y-91985000D01*
X137350000Y-92315000D01*
G37*
%TO.C,R7*%
X151695276Y-100727500D02*
X152204724Y-100727500D01*
X151695276Y-101772500D02*
X152204724Y-101772500D01*
%TO.C,C3*%
X135327500Y-87011252D02*
X135327500Y-86488748D01*
X136797500Y-87011252D02*
X136797500Y-86488748D01*
%TO.C,C12*%
X149708767Y-86740000D02*
X149416233Y-86740000D01*
X149708767Y-87760000D02*
X149416233Y-87760000D01*
%TO.C,R1*%
X127345276Y-91127500D02*
X127854724Y-91127500D01*
X127345276Y-92172500D02*
X127854724Y-92172500D01*
%TO.C,C7*%
X139708767Y-90740000D02*
X139416233Y-90740000D01*
X139708767Y-91760000D02*
X139416233Y-91760000D01*
%TO.C,PWR*%
X145027500Y-84350000D02*
X145027500Y-86635000D01*
X145027500Y-86635000D02*
X146497500Y-86635000D01*
X146497500Y-86635000D02*
X146497500Y-84350000D01*
%TO.C,J1*%
X118137500Y-89740000D02*
X119837500Y-89740000D01*
X118137500Y-99080000D02*
X119837500Y-99080000D01*
%TO.C,J5*%
X166270000Y-90390000D02*
X166270000Y-100610000D01*
X166270000Y-90390000D02*
X168930000Y-90390000D01*
X166270000Y-100610000D02*
X168930000Y-100610000D01*
X167600000Y-87790000D02*
X168930000Y-87790000D01*
X168930000Y-87790000D02*
X168930000Y-89120000D01*
X168930000Y-90390000D02*
X168930000Y-100610000D01*
%TO.C,C4*%
X139708767Y-88740000D02*
X139416233Y-88740000D01*
X139708767Y-89760000D02*
X139416233Y-89760000D01*
%TO.C,U3*%
X149952500Y-89640000D02*
X149952500Y-90090000D01*
X149952500Y-96860000D02*
X149952500Y-96410000D01*
X150402500Y-89640000D02*
X149952500Y-89640000D01*
X150402500Y-96860000D02*
X149952500Y-96860000D01*
X156722500Y-89640000D02*
X157172500Y-89640000D01*
X156722500Y-96860000D02*
X157172500Y-96860000D01*
X157172500Y-89640000D02*
X157172500Y-90090000D01*
X157172500Y-96860000D02*
X157172500Y-96410000D01*
X149362500Y-90090000D02*
X149022500Y-89620000D01*
X149702500Y-89620000D01*
X149362500Y-90090000D01*
G36*
X149362500Y-90090000D02*
G01*
X149022500Y-89620000D01*
X149702500Y-89620000D01*
X149362500Y-90090000D01*
G37*
%TO.C,D1*%
X127600000Y-92590000D02*
X126800000Y-92590000D01*
X127600000Y-92590000D02*
X128400000Y-92590000D01*
X127600000Y-95710000D02*
X126800000Y-95710000D01*
X127600000Y-95710000D02*
X128400000Y-95710000D01*
X126300000Y-92640000D02*
X126060000Y-92310000D01*
X126540000Y-92310000D01*
X126300000Y-92640000D01*
G36*
X126300000Y-92640000D02*
G01*
X126060000Y-92310000D01*
X126540000Y-92310000D01*
X126300000Y-92640000D01*
G37*
%TO.C,J4*%
X122830000Y-106770000D02*
X124160000Y-106770000D01*
X122830000Y-108100000D02*
X122830000Y-106770000D01*
X125430000Y-106770000D02*
X161050000Y-106770000D01*
X125430000Y-109430000D02*
X125430000Y-106770000D01*
X125430000Y-109430000D02*
X161050000Y-109430000D01*
X161050000Y-109430000D02*
X161050000Y-106770000D01*
%TO.C,R5*%
X154317224Y-85227500D02*
X153807776Y-85227500D01*
X154317224Y-86272500D02*
X153807776Y-86272500D01*
%TO.C,J3*%
X122710000Y-80270000D02*
X122710000Y-82930000D01*
X158330000Y-80270000D02*
X122710000Y-80270000D01*
X158330000Y-80270000D02*
X158330000Y-82930000D01*
X158330000Y-82930000D02*
X122710000Y-82930000D01*
X160930000Y-81600000D02*
X160930000Y-82930000D01*
X160930000Y-82930000D02*
X159600000Y-82930000D01*
%TO.C,X1*%
X142302500Y-98940000D02*
X142302500Y-103560000D01*
X142302500Y-103560000D02*
X147822500Y-103560000D01*
%TO.C,C11*%
X145827500Y-93488748D02*
X145827500Y-94011252D01*
X147297500Y-93488748D02*
X147297500Y-94011252D01*
%TO.C,R6*%
X155704724Y-100727500D02*
X155195276Y-100727500D01*
X155704724Y-101772500D02*
X155195276Y-101772500D01*
%TO.C,RST*%
X161350000Y-98900000D02*
X164650000Y-98900000D01*
X161350000Y-99200000D02*
X161350000Y-98900000D01*
X161350000Y-101400000D02*
X161350000Y-101700000D01*
X161350000Y-101700000D02*
X164650000Y-101700000D01*
X164650000Y-98900000D02*
X164650000Y-99200000D01*
X164650000Y-101700000D02*
X164650000Y-101400000D01*
%TO.C,C1*%
X126090000Y-89296267D02*
X126090000Y-89003733D01*
X127110000Y-89296267D02*
X127110000Y-89003733D01*
%TO.C,BLS*%
X129850000Y-102800000D02*
X133150000Y-102800000D01*
X129850000Y-103100000D02*
X129850000Y-102800000D01*
X129850000Y-105300000D02*
X129850000Y-105600000D01*
X129850000Y-105600000D02*
X133150000Y-105600000D01*
X133150000Y-102800000D02*
X133150000Y-103100000D01*
X133150000Y-105600000D02*
X133150000Y-105300000D01*
%TO.C,C13*%
X155940000Y-103896267D02*
X155940000Y-103603733D01*
X156960000Y-103896267D02*
X156960000Y-103603733D01*
%TO.C,U1*%
X139562500Y-85190000D02*
X138762500Y-85190000D01*
X139562500Y-85190000D02*
X140362500Y-85190000D01*
X139562500Y-88310000D02*
X138762500Y-88310000D01*
X139562500Y-88310000D02*
X140362500Y-88310000D01*
X138262500Y-85240000D02*
X138022500Y-84910000D01*
X138502500Y-84910000D01*
X138262500Y-85240000D01*
G36*
X138262500Y-85240000D02*
G01*
X138022500Y-84910000D01*
X138502500Y-84910000D01*
X138262500Y-85240000D01*
G37*
%TO.C,C8*%
X141052500Y-101396267D02*
X141052500Y-101103733D01*
X142072500Y-101396267D02*
X142072500Y-101103733D01*
%TO.C,C6*%
X139708767Y-95740000D02*
X139416233Y-95740000D01*
X139708767Y-96760000D02*
X139416233Y-96760000D01*
%TO.C,R8*%
X160040000Y-95495276D02*
X160040000Y-96004724D01*
X161085000Y-95495276D02*
X161085000Y-96004724D01*
%TO.C,C14*%
X161552500Y-95896267D02*
X161552500Y-95603733D01*
X162572500Y-95896267D02*
X162572500Y-95603733D01*
%TO.C,U4*%
X153102500Y-105360000D02*
X153102500Y-105135000D01*
X153502500Y-103130000D02*
X153392500Y-103130000D01*
X153502500Y-105360000D02*
X153102500Y-105360000D01*
X154922500Y-103140000D02*
X155322500Y-103140000D01*
X154922500Y-105360000D02*
X155322500Y-105360000D01*
X155322500Y-103140000D02*
X155322500Y-103365000D01*
X155322500Y-105360000D02*
X155322500Y-105135000D01*
X153092500Y-103130000D02*
X152952500Y-102940000D01*
X153232500Y-102940000D01*
X153092500Y-103130000D01*
G36*
X153092500Y-103130000D02*
G01*
X152952500Y-102940000D01*
X153232500Y-102940000D01*
X153092500Y-103130000D01*
G37*
%TO.C,R3*%
X122345276Y-87127500D02*
X122854724Y-87127500D01*
X122345276Y-88172500D02*
X122854724Y-88172500D01*
%TO.C,C2*%
X128090000Y-89296267D02*
X128090000Y-89003733D01*
X129110000Y-89296267D02*
X129110000Y-89003733D01*
%TO.C,R4*%
X146317224Y-96227500D02*
X145807776Y-96227500D01*
X146317224Y-97272500D02*
X145807776Y-97272500D01*
%TO.C,C10*%
X154208767Y-86740000D02*
X153916233Y-86740000D01*
X154208767Y-87760000D02*
X153916233Y-87760000D01*
%TD*%
M02*
